; NON-PLATED HOLES START AT T1
; THROUGH (PLATED) HOLES START AT T100
M48
INCH
T100C0.059055
T101C0.040255
T102C0.040000
T103C0.038000
T104C0.051181
T105C0.042000
T106C0.039370
T107C0.027559
T108C0.035000
%
T100
X002531Y003048
X021468Y037048
X020531Y003048
X022500Y003048
X029531Y003048
X013500Y003048
X033468Y003048
X017531Y037048
X019500Y037048
X011468Y037048
X009500Y037048
X007531Y037048
X031500Y003048
X024468Y003048
X011531Y003048
X004500Y003048
X006468Y003048
X015468Y003048
T101
X034487Y017048
X037506Y018048
X035493Y018048
X036500Y018048
X034487Y018048
X035493Y017048
X036500Y017048
X037506Y017048
T102
X036500Y038048
X002500Y019048
X002500Y017017
X002500Y037017
X036500Y036080
X002500Y025017
X002500Y033017
X002500Y015048
X002500Y035048
X002500Y021017
X002500Y031048
X002500Y027048
X002500Y029017
X002500Y023048
T103
X034500Y032048
X024500Y016048
X026500Y016048
X036500Y033196
X025500Y016048
X036500Y032196
X034500Y033048
X036500Y034196
T104
X006692Y030686
X008307Y009686
X029716Y012048
X007500Y033048
X007500Y028324
X020716Y012048
X016500Y007324
X017500Y028048
X034500Y007324
X016692Y030411
X020716Y007324
X022283Y028048
X034500Y012048
X017500Y032773
X016500Y012048
X025500Y007324
X026307Y009686
X002716Y007324
X012283Y028324
X012283Y033048
X029716Y007324
X011716Y012048
X017307Y009686
X011716Y007324
X022283Y032773
X035307Y009686
X007500Y012048
X025500Y012048
X007500Y007324
X002716Y012048
T105
X034500Y028530
X037480Y030048
X037480Y028530
X034500Y030048
T106
X036500Y022048
X035500Y022048
X037500Y022048
T107
X025500Y029048
X027500Y026048
X027500Y029048
X025500Y028048
X025500Y026048
X027500Y028048
T108
X019500Y024048
X016500Y018048
X032500Y025048
X011500Y015048
X020500Y015048
X037500Y024048
X027500Y024048
X009500Y018048
X037500Y027048
X021500Y015048
X016500Y021048
X027500Y021048
X021500Y018048
X016500Y024048
X014500Y015048
X006500Y018048
X017500Y021048
X018500Y024048
X013500Y015048
X022500Y021048
X015500Y018048
X011500Y018048
X020500Y024048
X007500Y018048
X007500Y015048
X014500Y018048
X009500Y015048
X015500Y015048
X019500Y018048
X026500Y024048
X029500Y024048
X016500Y015048
X029500Y021048
X018500Y018048
X010500Y015048
X013500Y018048
X024500Y024048
X017500Y015048
X025500Y024048
X029500Y025048
X018500Y021048
X021500Y024048
X023500Y024048
X036500Y027048
X028500Y024048
X018500Y015048
X020500Y021048
X019500Y015048
X025500Y021048
X023500Y021048
X019500Y021048
X012500Y015048
X021500Y021048
X026500Y021048
X036500Y024048
X012500Y018048
X020500Y018048
X006500Y015048
X010500Y018048
X017500Y018048
X024500Y021048
X008500Y015048
X008500Y018048
X022500Y024048
X028500Y021048
X017500Y024048
T00
M30
