<?xml version='1.0' encoding='UTF-8' standalone='no'?>
<!-- Created with Fritzing (http://www.fritzing.org/) -->
<svg xmlns="http://www.w3.org/2000/svg" x="0in" version="1.2" y="0in" width="3.93701in" baseProfile="tiny" xmlns:svg="http://www.w3.org/2000/svg" height="3.93701in" viewBox="0 0 283.465 283.465" >
 <g partID="57470">
  <g id="board" >
   <rect x="0.288" stroke="black" fill="none" y="0.288" id="boardoutline" stroke-width="0.5" width="282.889" fill-opacity="0.5" height="282.889" />
  </g>
 </g>
 <g partID="854168390">
  <g transform="translate(3.6,123.254)">
   <g id="copper0">
    <rect x="12.24" stroke="black" fill="black" y="6.72661" id="square" stroke-width="2.16" width="4.32" height="4.32"/>
    <circle stroke="black" fill="black" id="connector0pin" stroke-width="2.16" cx="14.4" r="2.16" cy="8.8866"/>
    <circle stroke="black" fill="black" id="connector1pin" stroke-width="2.16" cx="14.4" r="2.16" cy="23.0599"/>
   </g>
  </g>
 </g>
 <g partID="854168370">
  <g transform="translate(3.6,94.4538)">
   <g id="copper0">
    <rect x="12.24" stroke="black" fill="black" y="6.72661" id="square" stroke-width="2.16" width="4.32" height="4.32"/>
    <circle stroke="black" fill="black" id="connector0pin" stroke-width="2.16" cx="14.4" r="2.16" cy="8.8866"/>
    <circle stroke="black" fill="black" id="connector1pin" stroke-width="2.16" cx="14.4" r="2.16" cy="23.0599"/>
   </g>
  </g>
 </g>
 <g partID="854168350">
  <g transform="translate(3.6,65.6538)">
   <g id="copper0">
    <rect x="12.24" stroke="black" fill="black" y="6.72661" id="square" stroke-width="2.16" width="4.32" height="4.32"/>
    <circle stroke="black" fill="black" id="connector0pin" stroke-width="2.16" cx="14.4" r="2.16" cy="8.8866"/>
    <circle stroke="black" fill="black" id="connector1pin" stroke-width="2.16" cx="14.4" r="2.16" cy="23.0599"/>
   </g>
  </g>
 </g>
 <g partID="854168330">
  <g transform="translate(3.6,36.8538)">
   <g id="copper0">
    <rect x="12.24" stroke="black" fill="black" y="6.72661" id="square" stroke-width="2.16" width="4.32" height="4.32"/>
    <circle stroke="black" fill="black" id="connector0pin" stroke-width="2.16" cx="14.4" r="2.16" cy="8.8866"/>
    <circle stroke="black" fill="black" id="connector1pin" stroke-width="2.16" cx="14.4" r="2.16" cy="23.0599"/>
   </g>
  </g>
 </g>
 <g partID="854168310">
  <g transform="translate(3.6,8.05376)">
   <g id="copper0">
    <rect x="12.24" stroke="black" fill="black" y="6.72661" id="square" stroke-width="2.16" width="4.32" height="4.32"/>
    <circle stroke="black" fill="black" id="connector0pin" stroke-width="2.16" cx="14.4" r="2.16" cy="8.8866"/>
    <circle stroke="black" fill="black" id="connector1pin" stroke-width="2.16" cx="14.4" r="2.16" cy="23.0599"/>
   </g>
  </g>
 </g>
 <g partID="854168290">
  <g transform="translate(3.6,152.054)">
   <g id="copper0">
    <rect x="12.24" stroke="black" fill="black" y="6.72661" id="square" stroke-width="2.16" width="4.32" height="4.32"/>
    <circle stroke="black" fill="black" id="connector0pin" stroke-width="2.16" cx="14.4" r="2.16" cy="8.8866"/>
    <circle stroke="black" fill="black" id="connector1pin" stroke-width="2.16" cx="14.4" r="2.16" cy="23.0599"/>
   </g>
  </g>
 </g>
 <g partID="854166520">
  <g transform="translate(216.72,105.994)">
   <g transform="matrix(2.22045e-16,1,-1,2.22045e-16,0,0)">
    <g id="copper0" stroke-width="0" >
     <rect x="2.34" stroke="black" fill="black" y="2.34" stroke-width="2.16" width="3.96" height="3.96" />
     <circle stroke="black" fill="black" id="connector0pin" stroke-width="2.16" cx="4.32" r="1.98" cy="4.32" />
     <circle stroke="black" fill="black" id="connector27pin" stroke-width="2.16" cx="25.92" r="1.98" cy="4.32" />
     <circle stroke="black" fill="black" id="connector1pin" stroke-width="2.16" cx="4.32" r="1.98" cy="11.52" />
     <circle stroke="black" fill="black" id="connector26pin" stroke-width="2.16" cx="25.92" r="1.98" cy="11.52" />
     <circle stroke="black" fill="black" id="connector2pin" stroke-width="2.16" cx="4.32" r="1.98" cy="18.72" />
     <circle stroke="black" fill="black" id="connector25pin" stroke-width="2.16" cx="25.92" r="1.98" cy="18.72" />
     <circle stroke="black" fill="black" id="connector3pin" stroke-width="2.16" cx="4.32" r="1.98" cy="25.92" />
     <circle stroke="black" fill="black" id="connector24pin" stroke-width="2.16" cx="25.92" r="1.98" cy="25.92" />
     <circle stroke="black" fill="black" id="connector4pin" stroke-width="2.16" cx="4.32" r="1.98" cy="33.12" />
     <circle stroke="black" fill="black" id="connector23pin" stroke-width="2.16" cx="25.92" r="1.98" cy="33.12" />
     <circle stroke="black" fill="black" id="connector5pin" stroke-width="2.16" cx="4.32" r="1.98" cy="40.32" />
     <circle stroke="black" fill="black" id="connector22pin" stroke-width="2.16" cx="25.92" r="1.98" cy="40.32" />
     <circle stroke="black" fill="black" id="connector6pin" stroke-width="2.16" cx="4.32" r="1.98" cy="47.52" />
     <circle stroke="black" fill="black" id="connector21pin" stroke-width="2.16" cx="25.92" r="1.98" cy="47.52" />
     <circle stroke="black" fill="black" id="connector7pin" stroke-width="2.16" cx="4.32" r="1.98" cy="54.72" />
     <circle stroke="black" fill="black" id="connector20pin" stroke-width="2.16" cx="25.92" r="1.98" cy="54.72" />
     <circle stroke="black" fill="black" id="connector8pin" stroke-width="2.16" cx="4.32" r="1.98" cy="61.92" />
     <circle stroke="black" fill="black" id="connector19pin" stroke-width="2.16" cx="25.92" r="1.98" cy="61.92" />
     <circle stroke="black" fill="black" id="connector9pin" stroke-width="2.16" cx="4.32" r="1.98" cy="69.12" />
     <circle stroke="black" fill="black" id="connector18pin" stroke-width="2.16" cx="25.92" r="1.98" cy="69.12" />
     <circle stroke="black" fill="black" id="connector10pin" stroke-width="2.16" cx="4.32" r="1.98" cy="76.32" />
     <circle stroke="black" fill="black" id="connector17pin" stroke-width="2.16" cx="25.92" r="1.98" cy="76.32" />
     <circle stroke="black" fill="black" id="connector11pin" stroke-width="2.16" cx="4.32" r="1.98" cy="83.52" />
     <circle stroke="black" fill="black" id="connector16pin" stroke-width="2.16" cx="25.92" r="1.98" cy="83.52" />
     <circle stroke="black" fill="black" id="connector12pin" stroke-width="2.16" cx="4.32" r="1.98" cy="90.72" />
     <circle stroke="black" fill="black" id="connector15pin" stroke-width="2.16" cx="25.92" r="1.98" cy="90.72" />
     <circle stroke="black" fill="black" id="connector13pin" stroke-width="2.16" cx="4.32" r="1.98" cy="97.92" />
     <circle stroke="black" fill="black" id="connector14pin" stroke-width="2.16" cx="25.92" r="1.98" cy="97.92" />
    </g>
   </g>
  </g>
 </g>
 <g partID="854166540">
  <g transform="translate(159.12,149.194)">
   <g transform="matrix(0,1,-1,0,0,0)">
    <g id="copper0" >
     <rect x="2.34" stroke="black" fill="black" y="2.34" id="square" stroke-width="2.16" width="3.96" height="3.96" />
     <circle stroke="black" fill="black" id="connector0pin" stroke-width="2.16" cx="4.32" r="1.98" cy="4.32" />
     <circle stroke="black" fill="black" id="connector15pin" stroke-width="2.16" cx="25.92" r="1.98" cy="4.32" />
     <circle stroke="black" fill="black" id="connector1pin" stroke-width="2.16" cx="4.32" r="1.98" cy="11.52" />
     <circle stroke="black" fill="black" id="connector14pin" stroke-width="2.16" cx="25.92" r="1.98" cy="11.52" />
     <circle stroke="black" fill="black" id="connector2pin" stroke-width="2.16" cx="4.32" r="1.98" cy="18.72" />
     <circle stroke="black" fill="black" id="connector13pin" stroke-width="2.16" cx="25.92" r="1.98" cy="18.72" />
     <circle stroke="black" fill="black" id="connector3pin" stroke-width="2.16" cx="4.32" r="1.98" cy="25.92" />
     <circle stroke="black" fill="black" id="connector12pin" stroke-width="2.16" cx="25.92" r="1.98" cy="25.92" />
     <circle stroke="black" fill="black" id="connector4pin" stroke-width="2.16" cx="4.32" r="1.98" cy="33.12" />
     <circle stroke="black" fill="black" id="connector11pin" stroke-width="2.16" cx="25.92" r="1.98" cy="33.12" />
     <circle stroke="black" fill="black" id="connector5pin" stroke-width="2.16" cx="4.32" r="1.98" cy="40.32" />
     <circle stroke="black" fill="black" id="connector10pin" stroke-width="2.16" cx="25.92" r="1.98" cy="40.32" />
     <circle stroke="black" fill="black" id="connector6pin" stroke-width="2.16" cx="4.32" r="1.98" cy="47.52" />
     <circle stroke="black" fill="black" id="connector9pin" stroke-width="2.16" cx="25.92" r="1.98" cy="47.52" />
     <circle stroke="black" fill="black" id="connector7pin" stroke-width="2.16" cx="4.32" r="1.98" cy="54.72" />
     <circle stroke="black" fill="black" id="connector8pin" stroke-width="2.16" cx="25.92" r="1.98" cy="54.72" />
    </g>
   </g>
  </g>
 </g>
 <g partID="854166550">
  <g transform="translate(101.52,149.194)">
   <g transform="matrix(2.22045e-16,1,-1,2.22045e-16,0,0)">
    <g id="copper0" >
     <rect x="2.34" stroke="black" fill="black" y="2.34" id="square" stroke-width="2.16" width="3.96" height="3.96" />
     <circle stroke="black" fill="black" id="connector0pin" stroke-width="2.16" cx="4.32" r="1.98" cy="4.32" />
     <circle stroke="black" fill="black" id="connector15pin" stroke-width="2.16" cx="25.92" r="1.98" cy="4.32" />
     <circle stroke="black" fill="black" id="connector1pin" stroke-width="2.16" cx="4.32" r="1.98" cy="11.52" />
     <circle stroke="black" fill="black" id="connector14pin" stroke-width="2.16" cx="25.92" r="1.98" cy="11.52" />
     <circle stroke="black" fill="black" id="connector2pin" stroke-width="2.16" cx="4.32" r="1.98" cy="18.72" />
     <circle stroke="black" fill="black" id="connector13pin" stroke-width="2.16" cx="25.92" r="1.98" cy="18.72" />
     <circle stroke="black" fill="black" id="connector3pin" stroke-width="2.16" cx="4.32" r="1.98" cy="25.92" />
     <circle stroke="black" fill="black" id="connector12pin" stroke-width="2.16" cx="25.92" r="1.98" cy="25.92" />
     <circle stroke="black" fill="black" id="connector4pin" stroke-width="2.16" cx="4.32" r="1.98" cy="33.12" />
     <circle stroke="black" fill="black" id="connector11pin" stroke-width="2.16" cx="25.92" r="1.98" cy="33.12" />
     <circle stroke="black" fill="black" id="connector5pin" stroke-width="2.16" cx="4.32" r="1.98" cy="40.32" />
     <circle stroke="black" fill="black" id="connector10pin" stroke-width="2.16" cx="25.92" r="1.98" cy="40.32" />
     <circle stroke="black" fill="black" id="connector6pin" stroke-width="2.16" cx="4.32" r="1.98" cy="47.52" />
     <circle stroke="black" fill="black" id="connector9pin" stroke-width="2.16" cx="25.92" r="1.98" cy="47.52" />
     <circle stroke="black" fill="black" id="connector7pin" stroke-width="2.16" cx="4.32" r="1.98" cy="54.72" />
     <circle stroke="black" fill="black" id="connector8pin" stroke-width="2.16" cx="25.92" r="1.98" cy="54.72" />
    </g>
   </g>
  </g>
 </g>
 <g partID="854166980">
  <g transform="translate(273.958,164.602)">
   <g transform="matrix(-1,2.77556e-16,-2.77556e-16,-1,0,0)">
    <g id="copper0" gorn="0.2.9" >
     <rect x="1.84772" stroke="black" fill="black" y="1.836" stroke-width="1.95181" width="4.13019" height="4.104" />
     <circle stroke="black" connectorname="1" fill="black" id="connector6pin" stroke-width="1.95181" cx="3.91281" r="2.0651" gorn="0.2.9.1" cy="3.888" />
     <circle stroke="black" connectorname="2" fill="black" id="connector7pin" stroke-width="1.95181" cx="3.91281" r="2.0651" gorn="0.2.9.2" cy="11.088" />
     <circle stroke="black" connectorname="3" fill="black" id="connector4pin" stroke-width="1.95181" cx="11.1588" r="2.0651" gorn="0.2.9.3" cy="3.888" />
     <circle stroke="black" connectorname="4" fill="black" id="connector5pin" stroke-width="1.95181" cx="11.1588" r="2.0651" gorn="0.2.9.4" cy="11.088" />
     <circle stroke="black" connectorname="5" fill="black" id="connector2pin" stroke-width="1.95181" cx="18.4047" r="2.0651" gorn="0.2.9.5" cy="3.888" />
     <circle stroke="black" connectorname="6" fill="black" id="connector3pin" stroke-width="1.95181" cx="18.4047" r="2.0651" gorn="0.2.9.6" cy="11.088" />
     <rect x="23.5856" stroke="black" fill="black" y="1.836" stroke-width="1.95181" width="4.13019" height="4.104" />
     <circle stroke="black" connectorname="7" fill="black" id="connector0pin" stroke-width="1.95181" cx="25.6507" r="2.0651" gorn="0.2.9.8" cy="3.888" />
     <circle stroke="black" connectorname="8" fill="black" id="connector1pin" stroke-width="1.95181" cx="25.6507" r="2.0651" gorn="0.2.9.9" cy="11.088" />
    </g>
   </g>
  </g>
 </g>
 <g partID="854168270">
  <g transform="translate(112.961,41.1199)">
   <g transform="matrix(1,-2.77556e-16,2.77556e-16,1,0,0)">
    <g transform="matrix(1, 0, 0, 1, 0, -795.118)">
     <g id="copper0">
      <g>
       <g id="copper1">
        <g transform="matrix(1, 0, 0, 1, 0, 795.118)">
         <g id="0.3.1.0">
          <path stroke="black" d="m10.4882,23.3858a3.25984,3.25984,0,1,1,-6.51969,0,3.25984,3.25984,0,1,1,6.51969,0z" fill="black" stroke-opacity="1" id="connector2pin" stroke-width="3.55465" style="opacity:0.98000004;stroke-miterlimit:4;stroke-dasharray:none"/>
         </g>
        </g>
        <g transform="matrix(1, 0, 0, 1, 5.81102, 812.126)">
         <g id="0.3.1.1">
          <path stroke="black" d="m10.4882,23.3858a3.25984,3.25984,0,1,1,-6.51969,0,3.25984,3.25984,0,1,1,6.51969,0z" fill="black" stroke-opacity="1" id="path3782-7" stroke-width="3.55465" style="opacity:0.98000004;stroke-miterlimit:4;stroke-dasharray:none"/>
         </g>
        </g>
        <g transform="matrix(1, 0, 0, 1, 40.252, 812.126)">
         <g id="0.3.1.2">
          <path stroke="black" d="m10.4882,23.3858a3.25984,3.25984,0,1,1,-6.51969,0,3.25984,3.25984,0,1,1,6.51969,0z" fill="black" stroke-opacity="1" id="path3782-7-5" stroke-width="3.55465" style="opacity:0.98000004;stroke-miterlimit:4;stroke-dasharray:none"/>
         </g>
        </g>
        <g transform="matrix(1, 0, 0, 1, 5.81102, 812.126)">
         <g id="0.3.1.3">
          <path stroke="black" d="m10.4882,23.3858a3.25984,3.25984,0,1,1,-6.51969,0,3.25984,3.25984,0,1,1,6.51969,0z" fill="black" stroke-opacity="1" id="connector1pin" stroke-width="3.55465" style="opacity:0.98000004;stroke-miterlimit:4;stroke-dasharray:none"/>
         </g>
        </g>
        <g transform="matrix(1, 0, 0, 1, 40.252, 812.126)">
         <g id="0.3.1.4">
          <path stroke="black" d="m10.4882,23.3858a3.25984,3.25984,0,1,1,-6.51969,0,3.25984,3.25984,0,1,1,6.51969,0z" fill="black" stroke-opacity="1" id="connector0pin" stroke-width="3.55465" style="opacity:0.98000004;stroke-miterlimit:4;stroke-dasharray:none"/>
         </g>
        </g>
        <g transform="matrix(1, 0, 0, -1, 5.81102, 824.882)">
         <g id="0.3.1.5">
          <path stroke="black" d="m10.4882,23.3858a3.25984,3.25984,0,1,1,-6.51969,0,3.25984,3.25984,0,1,1,6.51969,0z" fill="black" stroke-opacity="1" id="connector4pin" stroke-width="3.55465" style="opacity:0.98000004;stroke-miterlimit:4;stroke-dasharray:none"/>
         </g>
        </g>
        <g transform="matrix(1, 0, 0, -1, 40.252, 824.882)">
         <g id="0.3.1.6">
          <path stroke="black" d="m10.4882,23.3858a3.25984,3.25984,0,1,1,-6.51969,0,3.25984,3.25984,0,1,1,6.51969,0z" fill="black" stroke-opacity="1" id="connector5pin" stroke-width="3.55465" style="opacity:0.98000004;stroke-miterlimit:4;stroke-dasharray:none"/>
         </g>
        </g>
       </g>
      </g>
     </g>
    </g>
   </g>
  </g>
 </g>
 <g partID="854168250">
  <g transform="translate(40.9606,39.1357)">
   <g transform="matrix(1,-2.77556e-16,2.77556e-16,1,0,0)">
    <g transform="matrix(1, 0, 0, 1, 0, -795.118)">
     <g id="copper0">
      <g>
       <g id="copper1">
        <g transform="matrix(1, 0, 0, 1, 0, 795.118)">
         <g id="0.3.1.0">
          <path stroke="black" d="m10.4882,23.3858a3.25984,3.25984,0,1,1,-6.51969,0,3.25984,3.25984,0,1,1,6.51969,0z" fill="black" stroke-opacity="1" id="connector2pin" stroke-width="3.55465" style="opacity:0.98000004;stroke-miterlimit:4;stroke-dasharray:none"/>
         </g>
        </g>
        <g transform="matrix(1, 0, 0, 1, 5.81102, 812.126)">
         <g id="0.3.1.1">
          <path stroke="black" d="m10.4882,23.3858a3.25984,3.25984,0,1,1,-6.51969,0,3.25984,3.25984,0,1,1,6.51969,0z" fill="black" stroke-opacity="1" id="path3782-7" stroke-width="3.55465" style="opacity:0.98000004;stroke-miterlimit:4;stroke-dasharray:none"/>
         </g>
        </g>
        <g transform="matrix(1, 0, 0, 1, 40.252, 812.126)">
         <g id="0.3.1.2">
          <path stroke="black" d="m10.4882,23.3858a3.25984,3.25984,0,1,1,-6.51969,0,3.25984,3.25984,0,1,1,6.51969,0z" fill="black" stroke-opacity="1" id="path3782-7-5" stroke-width="3.55465" style="opacity:0.98000004;stroke-miterlimit:4;stroke-dasharray:none"/>
         </g>
        </g>
        <g transform="matrix(1, 0, 0, 1, 5.81102, 812.126)">
         <g id="0.3.1.3">
          <path stroke="black" d="m10.4882,23.3858a3.25984,3.25984,0,1,1,-6.51969,0,3.25984,3.25984,0,1,1,6.51969,0z" fill="black" stroke-opacity="1" id="connector1pin" stroke-width="3.55465" style="opacity:0.98000004;stroke-miterlimit:4;stroke-dasharray:none"/>
         </g>
        </g>
        <g transform="matrix(1, 0, 0, 1, 40.252, 812.126)">
         <g id="0.3.1.4">
          <path stroke="black" d="m10.4882,23.3858a3.25984,3.25984,0,1,1,-6.51969,0,3.25984,3.25984,0,1,1,6.51969,0z" fill="black" stroke-opacity="1" id="connector0pin" stroke-width="3.55465" style="opacity:0.98000004;stroke-miterlimit:4;stroke-dasharray:none"/>
         </g>
        </g>
        <g transform="matrix(1, 0, 0, -1, 5.81102, 824.882)">
         <g id="0.3.1.5">
          <path stroke="black" d="m10.4882,23.3858a3.25984,3.25984,0,1,1,-6.51969,0,3.25984,3.25984,0,1,1,6.51969,0z" fill="black" stroke-opacity="1" id="connector4pin" stroke-width="3.55465" style="opacity:0.98000004;stroke-miterlimit:4;stroke-dasharray:none"/>
         </g>
        </g>
        <g transform="matrix(1, 0, 0, -1, 40.252, 824.882)">
         <g id="0.3.1.6">
          <path stroke="black" d="m10.4882,23.3858a3.25984,3.25984,0,1,1,-6.51969,0,3.25984,3.25984,0,1,1,6.51969,0z" fill="black" stroke-opacity="1" id="connector5pin" stroke-width="3.55465" style="opacity:0.98000004;stroke-miterlimit:4;stroke-dasharray:none"/>
         </g>
        </g>
       </g>
      </g>
     </g>
    </g>
   </g>
  </g>
 </g>
 <g partID="854168230">
  <g transform="translate(261.44,237.108)">
   <g transform="matrix(-1,0,0,-1,0,0)">
    <g transform="matrix(1, 0, 0, 1, 0, -795.118)">
     <g id="copper0">
      <g>
       <g id="copper1">
        <g transform="matrix(1, 0, 0, 1, 0, 795.118)">
         <g id="0.3.1.0">
          <path stroke="black" d="m10.4882,23.3858a3.25984,3.25984,0,1,1,-6.51969,0,3.25984,3.25984,0,1,1,6.51969,0z" fill="black" stroke-opacity="1" id="connector2pin" stroke-width="3.55465" style="opacity:0.98000004;stroke-miterlimit:4;stroke-dasharray:none"/>
         </g>
        </g>
        <g transform="matrix(1, 0, 0, 1, 5.81102, 812.126)">
         <g id="0.3.1.1">
          <path stroke="black" d="m10.4882,23.3858a3.25984,3.25984,0,1,1,-6.51969,0,3.25984,3.25984,0,1,1,6.51969,0z" fill="black" stroke-opacity="1" id="path3782-7" stroke-width="3.55465" style="opacity:0.98000004;stroke-miterlimit:4;stroke-dasharray:none"/>
         </g>
        </g>
        <g transform="matrix(1, 0, 0, 1, 40.252, 812.126)">
         <g id="0.3.1.2">
          <path stroke="black" d="m10.4882,23.3858a3.25984,3.25984,0,1,1,-6.51969,0,3.25984,3.25984,0,1,1,6.51969,0z" fill="black" stroke-opacity="1" id="path3782-7-5" stroke-width="3.55465" style="opacity:0.98000004;stroke-miterlimit:4;stroke-dasharray:none"/>
         </g>
        </g>
        <g transform="matrix(1, 0, 0, 1, 5.81102, 812.126)">
         <g id="0.3.1.3">
          <path stroke="black" d="m10.4882,23.3858a3.25984,3.25984,0,1,1,-6.51969,0,3.25984,3.25984,0,1,1,6.51969,0z" fill="black" stroke-opacity="1" id="connector1pin" stroke-width="3.55465" style="opacity:0.98000004;stroke-miterlimit:4;stroke-dasharray:none"/>
         </g>
        </g>
        <g transform="matrix(1, 0, 0, 1, 40.252, 812.126)">
         <g id="0.3.1.4">
          <path stroke="black" d="m10.4882,23.3858a3.25984,3.25984,0,1,1,-6.51969,0,3.25984,3.25984,0,1,1,6.51969,0z" fill="black" stroke-opacity="1" id="connector0pin" stroke-width="3.55465" style="opacity:0.98000004;stroke-miterlimit:4;stroke-dasharray:none"/>
         </g>
        </g>
        <g transform="matrix(1, 0, 0, -1, 5.81102, 824.882)">
         <g id="0.3.1.5">
          <path stroke="black" d="m10.4882,23.3858a3.25984,3.25984,0,1,1,-6.51969,0,3.25984,3.25984,0,1,1,6.51969,0z" fill="black" stroke-opacity="1" id="connector4pin" stroke-width="3.55465" style="opacity:0.98000004;stroke-miterlimit:4;stroke-dasharray:none"/>
         </g>
        </g>
        <g transform="matrix(1, 0, 0, -1, 40.252, 824.882)">
         <g id="0.3.1.6">
          <path stroke="black" d="m10.4882,23.3858a3.25984,3.25984,0,1,1,-6.51969,0,3.25984,3.25984,0,1,1,6.51969,0z" fill="black" stroke-opacity="1" id="connector5pin" stroke-width="3.55465" style="opacity:0.98000004;stroke-miterlimit:4;stroke-dasharray:none"/>
         </g>
        </g>
       </g>
      </g>
     </g>
    </g>
   </g>
  </g>
 </g>
 <g partID="854168030">
  <g transform="translate(196.639,237.108)">
   <g transform="matrix(-1,0,0,-1,0,0)">
    <g transform="matrix(1, 0, 0, 1, 0, -795.118)">
     <g id="copper0">
      <g>
       <g id="copper1">
        <g transform="matrix(1, 0, 0, 1, 0, 795.118)">
         <g id="0.3.1.0">
          <path stroke="black" d="m10.4882,23.3858a3.25984,3.25984,0,1,1,-6.51969,0,3.25984,3.25984,0,1,1,6.51969,0z" fill="black" stroke-opacity="1" id="connector2pin" stroke-width="3.55465" style="opacity:0.98000004;stroke-miterlimit:4;stroke-dasharray:none"/>
         </g>
        </g>
        <g transform="matrix(1, 0, 0, 1, 5.81102, 812.126)">
         <g id="0.3.1.1">
          <path stroke="black" d="m10.4882,23.3858a3.25984,3.25984,0,1,1,-6.51969,0,3.25984,3.25984,0,1,1,6.51969,0z" fill="black" stroke-opacity="1" id="path3782-7" stroke-width="3.55465" style="opacity:0.98000004;stroke-miterlimit:4;stroke-dasharray:none"/>
         </g>
        </g>
        <g transform="matrix(1, 0, 0, 1, 40.252, 812.126)">
         <g id="0.3.1.2">
          <path stroke="black" d="m10.4882,23.3858a3.25984,3.25984,0,1,1,-6.51969,0,3.25984,3.25984,0,1,1,6.51969,0z" fill="black" stroke-opacity="1" id="path3782-7-5" stroke-width="3.55465" style="opacity:0.98000004;stroke-miterlimit:4;stroke-dasharray:none"/>
         </g>
        </g>
        <g transform="matrix(1, 0, 0, 1, 5.81102, 812.126)">
         <g id="0.3.1.3">
          <path stroke="black" d="m10.4882,23.3858a3.25984,3.25984,0,1,1,-6.51969,0,3.25984,3.25984,0,1,1,6.51969,0z" fill="black" stroke-opacity="1" id="connector1pin" stroke-width="3.55465" style="opacity:0.98000004;stroke-miterlimit:4;stroke-dasharray:none"/>
         </g>
        </g>
        <g transform="matrix(1, 0, 0, 1, 40.252, 812.126)">
         <g id="0.3.1.4">
          <path stroke="black" d="m10.4882,23.3858a3.25984,3.25984,0,1,1,-6.51969,0,3.25984,3.25984,0,1,1,6.51969,0z" fill="black" stroke-opacity="1" id="connector0pin" stroke-width="3.55465" style="opacity:0.98000004;stroke-miterlimit:4;stroke-dasharray:none"/>
         </g>
        </g>
        <g transform="matrix(1, 0, 0, -1, 5.81102, 824.882)">
         <g id="0.3.1.5">
          <path stroke="black" d="m10.4882,23.3858a3.25984,3.25984,0,1,1,-6.51969,0,3.25984,3.25984,0,1,1,6.51969,0z" fill="black" stroke-opacity="1" id="connector4pin" stroke-width="3.55465" style="opacity:0.98000004;stroke-miterlimit:4;stroke-dasharray:none"/>
         </g>
        </g>
        <g transform="matrix(1, 0, 0, -1, 40.252, 824.882)">
         <g id="0.3.1.6">
          <path stroke="black" d="m10.4882,23.3858a3.25984,3.25984,0,1,1,-6.51969,0,3.25984,3.25984,0,1,1,6.51969,0z" fill="black" stroke-opacity="1" id="connector5pin" stroke-width="3.55465" style="opacity:0.98000004;stroke-miterlimit:4;stroke-dasharray:none"/>
         </g>
        </g>
       </g>
      </g>
     </g>
    </g>
   </g>
  </g>
 </g>
 <g partID="854168040">
  <g transform="translate(67.0394,237.108)">
   <g transform="matrix(-1,0,0,-1,0,0)">
    <g transform="matrix(1, 0, 0, 1, 0, -795.118)">
     <g id="copper0">
      <g>
       <g id="copper1">
        <g transform="matrix(1, 0, 0, 1, 0, 795.118)">
         <g id="0.3.1.0">
          <path stroke="black" d="m10.4882,23.3858a3.25984,3.25984,0,1,1,-6.51969,0,3.25984,3.25984,0,1,1,6.51969,0z" fill="black" stroke-opacity="1" id="connector2pin" stroke-width="3.55465" style="opacity:0.98000004;stroke-miterlimit:4;stroke-dasharray:none"/>
         </g>
        </g>
        <g transform="matrix(1, 0, 0, 1, 5.81102, 812.126)">
         <g id="0.3.1.1">
          <path stroke="black" d="m10.4882,23.3858a3.25984,3.25984,0,1,1,-6.51969,0,3.25984,3.25984,0,1,1,6.51969,0z" fill="black" stroke-opacity="1" id="path3782-7" stroke-width="3.55465" style="opacity:0.98000004;stroke-miterlimit:4;stroke-dasharray:none"/>
         </g>
        </g>
        <g transform="matrix(1, 0, 0, 1, 40.252, 812.126)">
         <g id="0.3.1.2">
          <path stroke="black" d="m10.4882,23.3858a3.25984,3.25984,0,1,1,-6.51969,0,3.25984,3.25984,0,1,1,6.51969,0z" fill="black" stroke-opacity="1" id="path3782-7-5" stroke-width="3.55465" style="opacity:0.98000004;stroke-miterlimit:4;stroke-dasharray:none"/>
         </g>
        </g>
        <g transform="matrix(1, 0, 0, 1, 5.81102, 812.126)">
         <g id="0.3.1.3">
          <path stroke="black" d="m10.4882,23.3858a3.25984,3.25984,0,1,1,-6.51969,0,3.25984,3.25984,0,1,1,6.51969,0z" fill="black" stroke-opacity="1" id="connector1pin" stroke-width="3.55465" style="opacity:0.98000004;stroke-miterlimit:4;stroke-dasharray:none"/>
         </g>
        </g>
        <g transform="matrix(1, 0, 0, 1, 40.252, 812.126)">
         <g id="0.3.1.4">
          <path stroke="black" d="m10.4882,23.3858a3.25984,3.25984,0,1,1,-6.51969,0,3.25984,3.25984,0,1,1,6.51969,0z" fill="black" stroke-opacity="1" id="connector0pin" stroke-width="3.55465" style="opacity:0.98000004;stroke-miterlimit:4;stroke-dasharray:none"/>
         </g>
        </g>
        <g transform="matrix(1, 0, 0, -1, 5.81102, 824.882)">
         <g id="0.3.1.5">
          <path stroke="black" d="m10.4882,23.3858a3.25984,3.25984,0,1,1,-6.51969,0,3.25984,3.25984,0,1,1,6.51969,0z" fill="black" stroke-opacity="1" id="connector4pin" stroke-width="3.55465" style="opacity:0.98000004;stroke-miterlimit:4;stroke-dasharray:none"/>
         </g>
        </g>
        <g transform="matrix(1, 0, 0, -1, 40.252, 824.882)">
         <g id="0.3.1.6">
          <path stroke="black" d="m10.4882,23.3858a3.25984,3.25984,0,1,1,-6.51969,0,3.25984,3.25984,0,1,1,6.51969,0z" fill="black" stroke-opacity="1" id="connector5pin" stroke-width="3.55465" style="opacity:0.98000004;stroke-miterlimit:4;stroke-dasharray:none"/>
         </g>
        </g>
       </g>
      </g>
     </g>
    </g>
   </g>
  </g>
 </g>
 <g partID="854168050">
  <g transform="translate(131.839,237.108)">
   <g transform="matrix(-1,0,0,-1,0,0)">
    <g transform="matrix(1, 0, 0, 1, 0, -795.118)">
     <g id="copper0">
      <g>
       <g id="copper1">
        <g transform="matrix(1, 0, 0, 1, 0, 795.118)">
         <g id="0.3.1.0">
          <path stroke="black" d="m10.4882,23.3858a3.25984,3.25984,0,1,1,-6.51969,0,3.25984,3.25984,0,1,1,6.51969,0z" fill="black" stroke-opacity="1" id="connector2pin" stroke-width="3.55465" style="opacity:0.98000004;stroke-miterlimit:4;stroke-dasharray:none"/>
         </g>
        </g>
        <g transform="matrix(1, 0, 0, 1, 5.81102, 812.126)">
         <g id="0.3.1.1">
          <path stroke="black" d="m10.4882,23.3858a3.25984,3.25984,0,1,1,-6.51969,0,3.25984,3.25984,0,1,1,6.51969,0z" fill="black" stroke-opacity="1" id="path3782-7" stroke-width="3.55465" style="opacity:0.98000004;stroke-miterlimit:4;stroke-dasharray:none"/>
         </g>
        </g>
        <g transform="matrix(1, 0, 0, 1, 40.252, 812.126)">
         <g id="0.3.1.2">
          <path stroke="black" d="m10.4882,23.3858a3.25984,3.25984,0,1,1,-6.51969,0,3.25984,3.25984,0,1,1,6.51969,0z" fill="black" stroke-opacity="1" id="path3782-7-5" stroke-width="3.55465" style="opacity:0.98000004;stroke-miterlimit:4;stroke-dasharray:none"/>
         </g>
        </g>
        <g transform="matrix(1, 0, 0, 1, 5.81102, 812.126)">
         <g id="0.3.1.3">
          <path stroke="black" d="m10.4882,23.3858a3.25984,3.25984,0,1,1,-6.51969,0,3.25984,3.25984,0,1,1,6.51969,0z" fill="black" stroke-opacity="1" id="connector1pin" stroke-width="3.55465" style="opacity:0.98000004;stroke-miterlimit:4;stroke-dasharray:none"/>
         </g>
        </g>
        <g transform="matrix(1, 0, 0, 1, 40.252, 812.126)">
         <g id="0.3.1.4">
          <path stroke="black" d="m10.4882,23.3858a3.25984,3.25984,0,1,1,-6.51969,0,3.25984,3.25984,0,1,1,6.51969,0z" fill="black" stroke-opacity="1" id="connector0pin" stroke-width="3.55465" style="opacity:0.98000004;stroke-miterlimit:4;stroke-dasharray:none"/>
         </g>
        </g>
        <g transform="matrix(1, 0, 0, -1, 5.81102, 824.882)">
         <g id="0.3.1.5">
          <path stroke="black" d="m10.4882,23.3858a3.25984,3.25984,0,1,1,-6.51969,0,3.25984,3.25984,0,1,1,6.51969,0z" fill="black" stroke-opacity="1" id="connector4pin" stroke-width="3.55465" style="opacity:0.98000004;stroke-miterlimit:4;stroke-dasharray:none"/>
         </g>
        </g>
        <g transform="matrix(1, 0, 0, -1, 40.252, 824.882)">
         <g id="0.3.1.6">
          <path stroke="black" d="m10.4882,23.3858a3.25984,3.25984,0,1,1,-6.51969,0,3.25984,3.25984,0,1,1,6.51969,0z" fill="black" stroke-opacity="1" id="connector5pin" stroke-width="3.55465" style="opacity:0.98000004;stroke-miterlimit:4;stroke-dasharray:none"/>
         </g>
        </g>
       </g>
      </g>
     </g>
    </g>
   </g>
  </g>
 </g>
 <g partID="854168060">
  <g transform="translate(203.74,275.913)">
   <g transform="matrix(0,-1,1,0,0,0)">
    <g id="copper0" >
     <rect x="11.554" stroke="black" fill="black" y="6.04063" id="square" stroke-width="2.16" width="5.69197" height="5.69197" />
     <circle stroke="black" fill="black" id="connector0pin" stroke-width="2.16" cx="14.4" r="2.84599" cy="8.8866" />
     <circle stroke="black" fill="black" id="connector1pin" stroke-width="2.16" cx="14.4" r="2.84599" cy="23.0599" />
     <circle stroke="black" fill="black" id="connector2pin" stroke-width="2.16" cx="14.4" r="2.84599" cy="37.2331" />
    </g>
   </g>
  </g>
 </g>
 <g partID="854168070">
  <g transform="translate(163.46,2.31343)">
   <g transform="matrix(2.77556e-16,1,-1,2.77556e-16,0,0)">
    <g id="copper0" >
     <rect x="11.554" stroke="black" fill="black" y="6.04063" id="square" stroke-width="2.16" width="5.69197" height="5.69197" />
     <circle stroke="black" fill="black" id="connector0pin" stroke-width="2.16" cx="14.4" r="2.84599" cy="8.8866" />
     <circle stroke="black" fill="black" id="connector1pin" stroke-width="2.16" cx="14.4" r="2.84599" cy="23.0599" />
     <circle stroke="black" fill="black" id="connector2pin" stroke-width="2.16" cx="14.4" r="2.84599" cy="37.2331" />
    </g>
   </g>
  </g>
 </g>
 <g partID="854168210">
  <g transform="translate(74.1402,275.913)">
   <g transform="matrix(0,-1,1,0,0,0)">
    <g id="copper0" >
     <rect x="11.554" stroke="black" fill="black" y="6.04063" id="square" stroke-width="2.16" width="5.69197" height="5.69197" />
     <circle stroke="black" fill="black" id="connector0pin" stroke-width="2.16" cx="14.4" r="2.84599" cy="8.8866" />
     <circle stroke="black" fill="black" id="connector1pin" stroke-width="2.16" cx="14.4" r="2.84599" cy="23.0599" />
     <circle stroke="black" fill="black" id="connector2pin" stroke-width="2.16" cx="14.4" r="2.84599" cy="37.2331" />
    </g>
   </g>
  </g>
 </g>
 <g partID="854168190">
  <g transform="translate(9.34016,275.913)">
   <g transform="matrix(0,-1,1,0,0,0)">
    <g id="copper0" >
     <rect x="11.554" stroke="black" fill="black" y="6.04063" id="square" stroke-width="2.16" width="5.69197" height="5.69197" />
     <circle stroke="black" fill="black" id="connector0pin" stroke-width="2.16" cx="14.4" r="2.84599" cy="8.8866" />
     <circle stroke="black" fill="black" id="connector1pin" stroke-width="2.16" cx="14.4" r="2.84599" cy="23.0599" />
     <circle stroke="black" fill="black" id="connector2pin" stroke-width="2.16" cx="14.4" r="2.84599" cy="37.2331" />
    </g>
   </g>
  </g>
 </g>
 <g partID="854168170">
  <g transform="translate(91.4598,2.31343)">
   <g transform="matrix(2.77556e-16,1,-1,2.77556e-16,0,0)">
    <g id="copper0" >
     <rect x="11.554" stroke="black" fill="black" y="6.04063" id="square" stroke-width="2.16" width="5.69197" height="5.69197" />
     <circle stroke="black" fill="black" id="connector0pin" stroke-width="2.16" cx="14.4" r="2.84599" cy="8.8866" />
     <circle stroke="black" fill="black" id="connector1pin" stroke-width="2.16" cx="14.4" r="2.84599" cy="23.0599" />
     <circle stroke="black" fill="black" id="connector2pin" stroke-width="2.16" cx="14.4" r="2.84599" cy="37.2331" />
    </g>
   </g>
  </g>
 </g>
 <g partID="854168080">
  <g transform="translate(138.94,275.913)">
   <g transform="matrix(0,-1,1,0,0,0)">
    <g id="copper0" >
     <rect x="11.554" stroke="black" fill="black" y="6.04063" id="square" stroke-width="2.16" width="5.69197" height="5.69197" />
     <circle stroke="black" fill="black" id="connector0pin" stroke-width="2.16" cx="14.4" r="2.84599" cy="8.8866" />
     <circle stroke="black" fill="black" id="connector1pin" stroke-width="2.16" cx="14.4" r="2.84599" cy="23.0599" />
     <circle stroke="black" fill="black" id="connector2pin" stroke-width="2.16" cx="14.4" r="2.84599" cy="37.2331" />
    </g>
   </g>
  </g>
 </g>
 <g partID="854169330">
  <g transform="translate(248.4,0.6272)">
   <g id="copper0">
    <rect x="12.24" stroke="black" fill="black" y="6.72661" id="square" stroke-width="2.16" width="4.32" height="4.32"/>
    <circle stroke="black" fill="black" id="connector0pin" stroke-width="2.16" cx="14.4" r="2.16" cy="8.8866"/>
    <circle stroke="black" fill="black" id="connector1pin" stroke-width="2.16" cx="14.4" r="2.16" cy="23.0599"/>
   </g>
  </g>
 </g>
 <g partID="854169340">
  <g transform="translate(277.488,132.202)">
   <g transform="matrix(-1,0,0,-1,0,0)">
    <g id="copper0" >
     <circle stroke="black" connectorname="ADJ" fill="black" id="connector0pad" stroke-width="1.96668" cx="7.488" r="2.04066" cy="7.488" />
     <path stroke="black" d="m4.824,4.824,5.328,0,0,5.328,-5.328,0,0,-5.328zM6.07068,7.488a1.41732,1.41732,0,1,0,2.83465,0,1.41732,1.41732,0,1,0,-2.83465,0z" fill="black" stroke-width="0.72" />
     <circle stroke="black" connectorname="OUT" fill="black" id="connector2pad" stroke-width="1.96668" cx="14.688" r="2.04066" cy="7.488" />
     <circle stroke="black" connectorname="IN" fill="black" id="connector1pad" stroke-width="1.96668" cx="21.888" r="2.04066" cy="7.488" />
    </g>
   </g>
  </g>
 </g>
 <g partID="854169350">
  <g transform="translate(272.7,86.0136)">
   <g transform="matrix(0,1,-1,0,0,0)">
    <g id="copper0" >
     <g id="copper1" >
      <!-- <rect width="55" x="10" y="10" fill="none" height="55" stroke="rgb(255, 191, 0)" stroke-width="20" /> -->
      <circle stroke="black" fill="black" id="connector0pin" stroke-width="2.16" cx="2.7" r="1.98" cy="2.7" />
      <circle stroke="black" fill="black" id="connector1pin" stroke-width="2.16" cx="24.3" r="1.98" cy="2.7" />
     </g>
    </g>
   </g>
  </g>
 </g>
 <g partID="854169360">
  <g transform="translate(265.5,86.0136)">
   <g transform="matrix(0,1,-1,0,0,0)">
    <g id="copper0" >
     <g id="copper1" >
      <!-- <rect width="55" x="10" y="10" fill="none" height="55" stroke="rgb(255, 191, 0)" stroke-width="20" /> -->
      <circle stroke="black" fill="black" id="connector0pin" stroke-width="2.16" cx="2.7" r="1.98" cy="2.7" />
      <circle stroke="black" fill="black" id="connector1pin" stroke-width="2.16" cx="24.3" r="1.98" cy="2.7" />
     </g>
    </g>
   </g>
  </g>
 </g>
 <g partID="854169370">
  <g transform="translate(245.376,74.4472)">
   <g id="copper0" >
    <rect x="0.72" stroke="black" fill="black" y="1.368" stroke-width="2.16" width="4.464" height="4.464" />
    <circle stroke="black" fill="black" id="connector0pin" stroke-width="2.16" cx="3.024" r="2.232" cy="3.6" />
    <circle stroke="black" fill="black" id="connector1pin" stroke-width="2.16" cx="24.48" r="2.232" cy="3.6" />
   </g>
  </g>
 </g>
 <g partID="854169380">
  <g transform="translate(245.376,63.5136)">
   <g id="copper0" >
    <rect x="0.72" stroke="black" fill="black" y="1.368" stroke-width="2.16" width="4.464" height="4.464" />
    <circle stroke="black" fill="black" id="connector0pin" stroke-width="2.16" cx="3.024" r="2.232" cy="3.6" />
    <circle stroke="black" fill="black" id="connector1pin" stroke-width="2.16" cx="24.48" r="2.232" cy="3.6" />
   </g>
  </g>
 </g>
 <g partID="854169390">
  <g transform="translate(257.76,32.2072)">
   <g id="copper0" >
    <rect x="2.952" stroke="black" fill="black" y="2.952" id="square" stroke-width="2.16" width="4.176" height="4.176" />
    <circle stroke="black" fill="black" id="connector0pin" stroke-width="2.16" cx="5.04" r="2.088" cy="5.04" />
    <circle stroke="black" fill="black" id="connector1pin" stroke-width="2.16" cx="5.04" r="2.088" cy="12.24" />
    <circle stroke="black" fill="black" id="connector2pin" stroke-width="2.16" cx="5.04" r="2.088" cy="19.44" />
   </g>
  </g>
 </g>
 <g partID="854169400">
  <g transform="translate(243.36,40.4736)">
   <g id="copper0" >
    <circle stroke="black" fill="black" id="connector0pin" stroke-width="2.16" cx="5.04" r="2.088" cy="5.04" />
    <circle stroke="black" fill="black" id="connector1pin" stroke-width="2.16" cx="5.04" r="2.088" cy="12.24" />
   </g>
  </g>
 </g>
 <g partID="854172420">
  <g transform="translate(174.312,89.1456)">
   <g id="copper0" >
    <circle stroke="black" connectorname="1" fill="black" id="connector0pad" stroke-width="2.06787" cx="9.288" r="1.66606" cy="6.768" />
    <circle stroke="black" connectorname="2" fill="black" id="connector1pad" stroke-width="2.06787" cx="23.688" r="1.66606" cy="6.768" />
   </g>
  </g>
 </g>
 <g partID="854175730">
  <g transform="translate(201.888,70.4256)">
   <g transform="matrix(2.22045e-16,1,-1,2.22045e-16,0,0)">
    <g id="copper0" >
     <circle stroke="black" connectorname="1" fill="black" id="connector0pad" stroke-width="2.06787" cx="3.888" r="1.66606" cy="3.888" />
     <circle stroke="black" connectorname="2" fill="black" id="connector1pad" stroke-width="2.06787" cx="11.088" r="1.66606" cy="3.888" />
    </g>
   </g>
  </g>
 </g>
 <g partID="854175700">
  <g transform="translate(187.488,70.4256)">
   <g transform="matrix(2.22045e-16,1,-1,2.22045e-16,0,0)">
    <g id="copper0" >
     <circle stroke="black" connectorname="1" fill="black" id="connector0pad" stroke-width="2.06787" cx="3.888" r="1.66606" cy="3.888" />
     <circle stroke="black" connectorname="2" fill="black" id="connector1pad" stroke-width="2.06787" cx="11.088" r="1.66606" cy="3.888" />
    </g>
   </g>
  </g>
 </g>
 <g partID="854180310">
  <g transform="translate(236.7,105.814)">
   <g transform="matrix(-1,2.22045e-16,-2.22045e-16,-1,0,0)">
    <g id="copper0" >
     <g id="copper1" >
      <!-- <rect width="55" x="10" y="10" fill="none" height="55" stroke="rgb(255, 191, 0)" stroke-width="20" /> -->
      <circle stroke="black" fill="black" id="connector0pin" stroke-width="2.16" cx="2.7" r="1.98" cy="2.7" />
      <circle stroke="black" fill="black" id="connector1pin" stroke-width="2.16" cx="24.3" r="1.98" cy="2.7" />
     </g>
    </g>
   </g>
  </g>
 </g>
 <g partID="854197860">
  <g transform="translate(195.84,162.874)">
   <g transform="matrix(0,1,-1,0,0,0)">
    <g id="copper0" >
     <rect x="2.952" stroke="black" fill="black" y="2.952" id="square" stroke-width="2.16" width="4.176" height="4.176" />
     <circle stroke="black" fill="black" id="connector0pin" stroke-width="2.16" cx="5.04" r="2.088" cy="5.04" />
     <circle stroke="black" fill="black" id="connector1pin" stroke-width="2.16" cx="5.04" r="2.088" cy="12.24" />
     <circle stroke="black" fill="black" id="connector2pin" stroke-width="2.16" cx="5.04" r="2.088" cy="19.44" />
    </g>
   </g>
  </g>
 </g>
</svg>
