; NON-PLATED HOLES START AT T1
; THROUGH (PLATED) HOLES START AT T100
M48
INCH
T100C0.051181
T101C0.059055
T102C0.038000
T103C0.042000
T104C0.040000
T105C0.035000
T106C0.031497
T107C0.039370
%
T100
X019362Y006007
X035362Y006007
X001000Y011597
X011724Y031814
X013724Y006814
X001000Y006814
X011724Y036598
X005724Y006814
X021724Y011597
X025000Y006814
X005724Y011597
X037724Y011597
X007000Y031814
X021724Y006814
X029724Y011597
X029724Y006814
X017000Y006814
X027362Y006007
X009000Y006814
X011362Y006007
X003362Y006007
X007000Y036598
X009362Y031007
X009000Y011597
X013724Y011597
X033000Y006814
X033000Y011597
X037724Y006814
X017000Y011597
X025000Y011597
T101
X013999Y001814
X010062Y001814
X017968Y036814
X036031Y001814
X038000Y001814
X002031Y001814
X028031Y001814
X004000Y001814
X005968Y001814
X014031Y036814
X020031Y001814
X012031Y001814
X022000Y001814
X034063Y001814
X018062Y001814
X030000Y001814
X026063Y001814
X016000Y036814
T102
X032148Y035814
X032000Y037814
X033148Y035814
X030000Y029814
X031148Y035814
X029000Y029814
X031000Y037814
X028000Y029814
T103
X029000Y037814
X027481Y037814
X029000Y034834
X027481Y034834
T104
X036000Y035814
X002000Y035814
X002000Y029783
X002000Y021783
X002000Y023814
X002000Y031814
X036000Y037783
X002000Y037783
X002000Y033783
X002000Y025783
X002000Y019814
X002000Y027814
X002000Y017783
X002000Y015814
T105
X012000Y021814
X015500Y031314
X011000Y018814
X009000Y018814
X026000Y035814
X007000Y018814
X009000Y021814
X023000Y034814
X026000Y034814
X014000Y021814
X010000Y018814
X011000Y021814
X015500Y034314
X008000Y018814
X013000Y021814
X010000Y021814
X023000Y035814
X007000Y021814
X013000Y018814
X014000Y018814
X008000Y021814
X012000Y018814
T106
X006999Y024830
X006999Y025814
X016999Y030814
X016999Y031798
T107
X021000Y034814
X021000Y035814
X021000Y036814
T00
M30
