G04 MADE WITH FRITZING*
G04 WWW.FRITZING.ORG*
G04 DOUBLE SIDED*
G04 HOLES PLATED*
G04 CONTOUR ON CENTER OF CONTOUR VECTOR*
%ASAXBY*%
%FSLAX23Y23*%
%MOIN*%
%OFA0B0*%
%SFA1.0B1.0*%
%ADD10C,0.090000*%
%ADD11C,0.085000*%
%ADD12C,0.084472*%
%ADD13C,0.109055*%
%ADD14C,0.084000*%
%ADD15C,0.092000*%
%ADD16C,0.088000*%
%ADD17C,0.075000*%
%ADD18R,0.090000X0.090000*%
%ADD19R,0.085000X0.085000*%
%ADD20R,0.109055X0.109055*%
%ADD21R,0.092000X0.092000*%
%ADD22R,0.088000X0.088000*%
%ADD23C,0.030000*%
%ADD24C,0.027109*%
%ADD25R,0.001000X0.001000*%
%LNMASK0*%
G90*
G70*
G54D10*
X250Y2102D03*
X250Y1905D03*
X250Y2502D03*
X250Y2305D03*
X250Y2902D03*
X250Y2705D03*
X250Y3302D03*
X250Y3105D03*
X250Y3702D03*
X250Y3505D03*
X250Y1702D03*
X250Y1505D03*
G54D11*
X2950Y2405D03*
X2950Y2105D03*
X2850Y2405D03*
X2850Y2105D03*
X2750Y2405D03*
X2750Y2105D03*
X2650Y2405D03*
X2650Y2105D03*
X2550Y2405D03*
X2550Y2105D03*
X2450Y2405D03*
X2450Y2105D03*
X2350Y2405D03*
X2350Y2105D03*
X2250Y2405D03*
X2250Y2105D03*
X2150Y2405D03*
X2150Y2105D03*
X2050Y2405D03*
X2050Y2105D03*
X1950Y2405D03*
X1950Y2105D03*
X1850Y2405D03*
X1850Y2105D03*
X1750Y2405D03*
X1750Y2105D03*
X1650Y2405D03*
X1650Y2105D03*
X2150Y1805D03*
X2150Y1505D03*
X2050Y1805D03*
X2050Y1505D03*
X1950Y1805D03*
X1950Y1505D03*
X1850Y1805D03*
X1850Y1505D03*
X1750Y1805D03*
X1750Y1505D03*
X1650Y1805D03*
X1650Y1505D03*
X1550Y1805D03*
X1550Y1505D03*
X1450Y1805D03*
X1450Y1505D03*
X1350Y1805D03*
X1350Y1505D03*
X1250Y1805D03*
X1250Y1505D03*
X1150Y1805D03*
X1150Y1505D03*
X1050Y1805D03*
X1050Y1505D03*
X950Y1805D03*
X950Y1505D03*
X850Y1805D03*
X850Y1505D03*
X750Y1805D03*
X750Y1505D03*
X650Y1805D03*
X650Y1505D03*
G54D12*
X3751Y1705D03*
X3751Y1805D03*
X3650Y1705D03*
X3650Y1805D03*
X3549Y1705D03*
X3549Y1805D03*
X3449Y1705D03*
X3449Y1805D03*
G54D13*
X2953Y305D03*
X3150Y305D03*
X3347Y305D03*
X2147Y3705D03*
X1950Y3705D03*
X1753Y3705D03*
X1153Y305D03*
X1350Y305D03*
X1547Y305D03*
X253Y305D03*
X450Y305D03*
X647Y305D03*
X1147Y3705D03*
X950Y3705D03*
X753Y3705D03*
X2053Y305D03*
X2250Y305D03*
X2447Y305D03*
G54D10*
X3650Y3805D03*
X3650Y3608D03*
G54D14*
X3750Y2205D03*
X3650Y2205D03*
X3550Y2205D03*
G54D11*
X3750Y2705D03*
X3750Y2405D03*
X3650Y2705D03*
X3650Y2405D03*
G54D15*
X3450Y2853D03*
X3748Y2853D03*
X3450Y3005D03*
X3748Y3005D03*
G54D16*
X3650Y3420D03*
X3650Y3320D03*
X3650Y3220D03*
X3450Y3305D03*
X3450Y3205D03*
G54D17*
X2550Y2605D03*
X2750Y2605D03*
X2750Y2905D03*
X2750Y2805D03*
X2550Y2905D03*
X2550Y2805D03*
G54D11*
X3250Y2505D03*
X2950Y2505D03*
G54D16*
X2650Y1605D03*
X2550Y1605D03*
X2450Y1605D03*
G54D18*
X250Y2102D03*
X250Y2502D03*
X250Y2902D03*
X250Y3302D03*
X250Y3702D03*
X250Y1702D03*
G54D19*
X2150Y1805D03*
G54D20*
X2953Y305D03*
X1153Y305D03*
X253Y305D03*
X2053Y305D03*
G54D18*
X3650Y3805D03*
G54D21*
X3449Y2853D03*
X3449Y3005D03*
G54D22*
X3650Y3420D03*
X2650Y1605D03*
G54D23*
G36*
X2978Y2377D02*
X2923Y2377D01*
X2923Y2432D01*
X2978Y2432D01*
X2978Y2377D01*
G37*
D02*
G36*
X1378Y1777D02*
X1323Y1777D01*
X1323Y1832D01*
X1378Y1832D01*
X1378Y1777D01*
G37*
D02*
G54D24*
G36*
X3722Y1676D02*
X3722Y1733D01*
X3779Y1733D01*
X3779Y1676D01*
X3722Y1676D01*
G37*
D02*
G36*
X3420Y1676D02*
X3420Y1733D01*
X3477Y1733D01*
X3477Y1676D01*
X3420Y1676D01*
G37*
D02*
G54D23*
G36*
X2186Y3665D02*
X2107Y3665D01*
X2107Y3744D01*
X2186Y3744D01*
X2186Y3665D01*
G37*
D02*
G36*
X1186Y3665D02*
X1107Y3665D01*
X1107Y3744D01*
X1186Y3744D01*
X1186Y3665D01*
G37*
D02*
G54D25*
X745Y3375D02*
X754Y3375D01*
X1223Y3375D02*
X1233Y3375D01*
X737Y3374D02*
X762Y3374D01*
X1216Y3374D02*
X1240Y3374D01*
X733Y3373D02*
X766Y3373D01*
X1211Y3373D02*
X1244Y3373D01*
X729Y3372D02*
X770Y3372D01*
X1207Y3372D02*
X1248Y3372D01*
X726Y3371D02*
X773Y3371D01*
X1204Y3371D02*
X1251Y3371D01*
X723Y3370D02*
X776Y3370D01*
X1202Y3370D02*
X1254Y3370D01*
X721Y3369D02*
X778Y3369D01*
X1199Y3369D02*
X1256Y3369D01*
X719Y3368D02*
X780Y3368D01*
X1197Y3368D02*
X1258Y3368D01*
X717Y3367D02*
X782Y3367D01*
X1195Y3367D02*
X1260Y3367D01*
X715Y3366D02*
X784Y3366D01*
X1194Y3366D02*
X1262Y3366D01*
X714Y3365D02*
X785Y3365D01*
X1192Y3365D02*
X1264Y3365D01*
X712Y3364D02*
X787Y3364D01*
X1190Y3364D02*
X1265Y3364D01*
X711Y3363D02*
X788Y3363D01*
X1189Y3363D02*
X1267Y3363D01*
X709Y3362D02*
X790Y3362D01*
X1188Y3362D02*
X1268Y3362D01*
X708Y3361D02*
X791Y3361D01*
X1186Y3361D02*
X1269Y3361D01*
X707Y3360D02*
X792Y3360D01*
X1185Y3360D02*
X1271Y3360D01*
X705Y3359D02*
X794Y3359D01*
X1184Y3359D02*
X1272Y3359D01*
X704Y3358D02*
X795Y3358D01*
X1182Y3358D02*
X1273Y3358D01*
X703Y3357D02*
X796Y3357D01*
X1181Y3357D02*
X1274Y3357D01*
X702Y3356D02*
X797Y3356D01*
X1180Y3356D02*
X1275Y3356D01*
X701Y3355D02*
X798Y3355D01*
X1179Y3355D02*
X1277Y3355D01*
X700Y3354D02*
X799Y3354D01*
X1178Y3354D02*
X1278Y3354D01*
X699Y3353D02*
X800Y3353D01*
X1177Y3353D02*
X1278Y3353D01*
X698Y3352D02*
X801Y3352D01*
X1176Y3352D02*
X1279Y3352D01*
X697Y3351D02*
X802Y3351D01*
X1175Y3351D02*
X1280Y3351D01*
X696Y3350D02*
X803Y3350D01*
X1175Y3350D02*
X1281Y3350D01*
X695Y3349D02*
X804Y3349D01*
X1174Y3349D02*
X1282Y3349D01*
X695Y3348D02*
X804Y3348D01*
X1173Y3348D02*
X1283Y3348D01*
X694Y3347D02*
X805Y3347D01*
X1172Y3347D02*
X1283Y3347D01*
X1741Y3347D02*
X1758Y3347D01*
X2219Y3347D02*
X2236Y3347D01*
X693Y3346D02*
X806Y3346D01*
X1172Y3346D02*
X1284Y3346D01*
X1735Y3346D02*
X1764Y3346D01*
X2213Y3346D02*
X2242Y3346D01*
X693Y3345D02*
X806Y3345D01*
X1171Y3345D02*
X1285Y3345D01*
X1731Y3345D02*
X1768Y3345D01*
X2209Y3345D02*
X2246Y3345D01*
X692Y3344D02*
X807Y3344D01*
X1170Y3344D02*
X1285Y3344D01*
X1728Y3344D02*
X1771Y3344D01*
X2206Y3344D02*
X2250Y3344D01*
X691Y3343D02*
X808Y3343D01*
X1170Y3343D02*
X1286Y3343D01*
X1725Y3343D02*
X1774Y3343D01*
X2203Y3343D02*
X2252Y3343D01*
X691Y3342D02*
X808Y3342D01*
X1169Y3342D02*
X1287Y3342D01*
X1722Y3342D02*
X1777Y3342D01*
X2201Y3342D02*
X2255Y3342D01*
X690Y3341D02*
X809Y3341D01*
X1168Y3341D02*
X1287Y3341D01*
X1720Y3341D02*
X1779Y3341D01*
X2199Y3341D02*
X2257Y3341D01*
X689Y3340D02*
X810Y3340D01*
X1168Y3340D02*
X1288Y3340D01*
X1718Y3340D02*
X1781Y3340D01*
X2197Y3340D02*
X2259Y3340D01*
X689Y3339D02*
X810Y3339D01*
X1167Y3339D02*
X1289Y3339D01*
X1716Y3339D02*
X1783Y3339D01*
X2195Y3339D02*
X2261Y3339D01*
X688Y3338D02*
X811Y3338D01*
X1167Y3338D02*
X1289Y3338D01*
X1715Y3338D02*
X1784Y3338D01*
X2193Y3338D02*
X2263Y3338D01*
X688Y3337D02*
X811Y3337D01*
X1166Y3337D02*
X1290Y3337D01*
X1713Y3337D02*
X1786Y3337D01*
X2191Y3337D02*
X2264Y3337D01*
X687Y3336D02*
X812Y3336D01*
X1166Y3336D02*
X1290Y3336D01*
X1711Y3336D02*
X1788Y3336D01*
X2190Y3336D02*
X2266Y3336D01*
X687Y3335D02*
X812Y3335D01*
X1165Y3335D02*
X1291Y3335D01*
X1710Y3335D02*
X1789Y3335D01*
X2188Y3335D02*
X2267Y3335D01*
X686Y3334D02*
X813Y3334D01*
X1165Y3334D02*
X1291Y3334D01*
X1709Y3334D02*
X1790Y3334D01*
X2187Y3334D02*
X2269Y3334D01*
X686Y3333D02*
X813Y3333D01*
X1164Y3333D02*
X1292Y3333D01*
X1707Y3333D02*
X1792Y3333D01*
X2186Y3333D02*
X2270Y3333D01*
X685Y3332D02*
X814Y3332D01*
X1164Y3332D02*
X1292Y3332D01*
X1706Y3332D02*
X1793Y3332D01*
X2184Y3332D02*
X2271Y3332D01*
X685Y3331D02*
X814Y3331D01*
X1163Y3331D02*
X1292Y3331D01*
X1705Y3331D02*
X1794Y3331D01*
X2183Y3331D02*
X2273Y3331D01*
X685Y3330D02*
X814Y3330D01*
X1163Y3330D02*
X1293Y3330D01*
X1704Y3330D02*
X1795Y3330D01*
X2182Y3330D02*
X2274Y3330D01*
X684Y3329D02*
X815Y3329D01*
X1163Y3329D02*
X1293Y3329D01*
X1702Y3329D02*
X1797Y3329D01*
X2181Y3329D02*
X2275Y3329D01*
X684Y3328D02*
X815Y3328D01*
X1162Y3328D02*
X1293Y3328D01*
X1701Y3328D02*
X1798Y3328D01*
X2180Y3328D02*
X2276Y3328D01*
X684Y3327D02*
X815Y3327D01*
X1162Y3327D02*
X1294Y3327D01*
X1700Y3327D02*
X1799Y3327D01*
X2179Y3327D02*
X2277Y3327D01*
X683Y3326D02*
X816Y3326D01*
X1162Y3326D02*
X1294Y3326D01*
X1699Y3326D02*
X1800Y3326D01*
X2178Y3326D02*
X2278Y3326D01*
X683Y3325D02*
X816Y3325D01*
X1161Y3325D02*
X1294Y3325D01*
X1699Y3325D02*
X1800Y3325D01*
X2177Y3325D02*
X2279Y3325D01*
X683Y3324D02*
X816Y3324D01*
X1161Y3324D02*
X1295Y3324D01*
X1698Y3324D02*
X1801Y3324D01*
X2176Y3324D02*
X2280Y3324D01*
X682Y3323D02*
X817Y3323D01*
X1161Y3323D02*
X1295Y3323D01*
X1697Y3323D02*
X1802Y3323D01*
X2175Y3323D02*
X2281Y3323D01*
X682Y3322D02*
X817Y3322D01*
X1161Y3322D02*
X1295Y3322D01*
X1696Y3322D02*
X1803Y3322D01*
X2174Y3322D02*
X2281Y3322D01*
X682Y3321D02*
X817Y3321D01*
X1160Y3321D02*
X1295Y3321D01*
X1695Y3321D02*
X1804Y3321D01*
X2174Y3321D02*
X2282Y3321D01*
X682Y3320D02*
X817Y3320D01*
X1160Y3320D02*
X1296Y3320D01*
X1694Y3320D02*
X1805Y3320D01*
X2173Y3320D02*
X2283Y3320D01*
X682Y3319D02*
X817Y3319D01*
X1160Y3319D02*
X1296Y3319D01*
X1694Y3319D02*
X1805Y3319D01*
X2172Y3319D02*
X2284Y3319D01*
X681Y3318D02*
X818Y3318D01*
X1160Y3318D02*
X1296Y3318D01*
X1693Y3318D02*
X1806Y3318D01*
X2171Y3318D02*
X2284Y3318D01*
X681Y3317D02*
X818Y3317D01*
X1160Y3317D02*
X1296Y3317D01*
X1692Y3317D02*
X1807Y3317D01*
X2171Y3317D02*
X2285Y3317D01*
X681Y3316D02*
X818Y3316D01*
X1159Y3316D02*
X1296Y3316D01*
X1692Y3316D02*
X1807Y3316D01*
X2170Y3316D02*
X2286Y3316D01*
X681Y3315D02*
X818Y3315D01*
X1159Y3315D02*
X1296Y3315D01*
X1691Y3315D02*
X1808Y3315D01*
X2169Y3315D02*
X2286Y3315D01*
X681Y3314D02*
X818Y3314D01*
X1159Y3314D02*
X1297Y3314D01*
X1690Y3314D02*
X1809Y3314D01*
X2169Y3314D02*
X2287Y3314D01*
X681Y3313D02*
X818Y3313D01*
X1159Y3313D02*
X1297Y3313D01*
X1690Y3313D02*
X1809Y3313D01*
X2168Y3313D02*
X2288Y3313D01*
X680Y3312D02*
X819Y3312D01*
X1159Y3312D02*
X1297Y3312D01*
X1689Y3312D02*
X1810Y3312D01*
X2167Y3312D02*
X2288Y3312D01*
X680Y3311D02*
X819Y3311D01*
X1159Y3311D02*
X1297Y3311D01*
X1688Y3311D02*
X1810Y3311D01*
X2167Y3311D02*
X2289Y3311D01*
X680Y3310D02*
X819Y3310D01*
X1159Y3310D02*
X1297Y3310D01*
X1688Y3310D02*
X1811Y3310D01*
X2166Y3310D02*
X2289Y3310D01*
X680Y3309D02*
X819Y3309D01*
X1159Y3309D02*
X1297Y3309D01*
X1687Y3309D02*
X1811Y3309D01*
X2166Y3309D02*
X2290Y3309D01*
X680Y3308D02*
X819Y3308D01*
X1159Y3308D02*
X1297Y3308D01*
X1687Y3308D02*
X1812Y3308D01*
X2165Y3308D02*
X2290Y3308D01*
X680Y3307D02*
X819Y3307D01*
X1158Y3307D02*
X1297Y3307D01*
X1687Y3307D02*
X1812Y3307D01*
X2165Y3307D02*
X2291Y3307D01*
X680Y3306D02*
X819Y3306D01*
X1158Y3306D02*
X1297Y3306D01*
X1686Y3306D02*
X1813Y3306D01*
X2164Y3306D02*
X2291Y3306D01*
X680Y3305D02*
X819Y3305D01*
X1158Y3305D02*
X1297Y3305D01*
X1686Y3305D02*
X1813Y3305D01*
X2164Y3305D02*
X2292Y3305D01*
X680Y3304D02*
X819Y3304D01*
X1158Y3304D02*
X1297Y3304D01*
X1685Y3304D02*
X1814Y3304D01*
X2164Y3304D02*
X2292Y3304D01*
X680Y3303D02*
X819Y3303D01*
X1159Y3303D02*
X1297Y3303D01*
X1685Y3303D02*
X1814Y3303D01*
X2163Y3303D02*
X2293Y3303D01*
X680Y3302D02*
X819Y3302D01*
X1159Y3302D02*
X1297Y3302D01*
X1684Y3302D02*
X1815Y3302D01*
X2163Y3302D02*
X2293Y3302D01*
X680Y3301D02*
X819Y3301D01*
X1159Y3301D02*
X1297Y3301D01*
X1684Y3301D02*
X1815Y3301D01*
X2162Y3301D02*
X2293Y3301D01*
X680Y3300D02*
X819Y3300D01*
X1159Y3300D02*
X1297Y3300D01*
X1684Y3300D02*
X1815Y3300D01*
X2162Y3300D02*
X2294Y3300D01*
X680Y3299D02*
X819Y3299D01*
X1159Y3299D02*
X1297Y3299D01*
X1683Y3299D02*
X1816Y3299D01*
X2162Y3299D02*
X2294Y3299D01*
X681Y3298D02*
X818Y3298D01*
X1159Y3298D02*
X1297Y3298D01*
X1683Y3298D02*
X1816Y3298D01*
X2161Y3298D02*
X2294Y3298D01*
X681Y3297D02*
X818Y3297D01*
X1159Y3297D02*
X1297Y3297D01*
X1683Y3297D02*
X1816Y3297D01*
X2161Y3297D02*
X2294Y3297D01*
X681Y3296D02*
X818Y3296D01*
X1159Y3296D02*
X1296Y3296D01*
X1683Y3296D02*
X1816Y3296D01*
X2161Y3296D02*
X2295Y3296D01*
X681Y3295D02*
X818Y3295D01*
X1159Y3295D02*
X1296Y3295D01*
X1682Y3295D02*
X1817Y3295D01*
X2161Y3295D02*
X2295Y3295D01*
X681Y3294D02*
X818Y3294D01*
X1160Y3294D02*
X1296Y3294D01*
X1682Y3294D02*
X1817Y3294D01*
X2160Y3294D02*
X2295Y3294D01*
X681Y3293D02*
X818Y3293D01*
X1160Y3293D02*
X1296Y3293D01*
X1682Y3293D02*
X1817Y3293D01*
X2160Y3293D02*
X2295Y3293D01*
X681Y3292D02*
X818Y3292D01*
X1160Y3292D02*
X1296Y3292D01*
X1682Y3292D02*
X1817Y3292D01*
X2160Y3292D02*
X2296Y3292D01*
X682Y3291D02*
X817Y3291D01*
X1160Y3291D02*
X1296Y3291D01*
X1681Y3291D02*
X1818Y3291D01*
X2160Y3291D02*
X2296Y3291D01*
X682Y3290D02*
X817Y3290D01*
X1160Y3290D02*
X1295Y3290D01*
X1681Y3290D02*
X1818Y3290D01*
X2160Y3290D02*
X2296Y3290D01*
X682Y3289D02*
X817Y3289D01*
X1161Y3289D02*
X1295Y3289D01*
X1681Y3289D02*
X1818Y3289D01*
X2159Y3289D02*
X2296Y3289D01*
X682Y3288D02*
X817Y3288D01*
X1161Y3288D02*
X1295Y3288D01*
X1681Y3288D02*
X1818Y3288D01*
X2159Y3288D02*
X2296Y3288D01*
X683Y3287D02*
X816Y3287D01*
X1161Y3287D02*
X1295Y3287D01*
X1681Y3287D02*
X1818Y3287D01*
X2159Y3287D02*
X2297Y3287D01*
X683Y3286D02*
X816Y3286D01*
X1161Y3286D02*
X1294Y3286D01*
X1681Y3286D02*
X1818Y3286D01*
X2159Y3286D02*
X2297Y3286D01*
X683Y3285D02*
X816Y3285D01*
X1162Y3285D02*
X1294Y3285D01*
X1681Y3285D02*
X1818Y3285D01*
X2159Y3285D02*
X2297Y3285D01*
X683Y3284D02*
X816Y3284D01*
X1162Y3284D02*
X1294Y3284D01*
X1680Y3284D02*
X1819Y3284D01*
X2159Y3284D02*
X2297Y3284D01*
X684Y3283D02*
X815Y3283D01*
X1162Y3283D02*
X1294Y3283D01*
X1680Y3283D02*
X1819Y3283D01*
X2159Y3283D02*
X2297Y3283D01*
X684Y3282D02*
X815Y3282D01*
X1163Y3282D02*
X1293Y3282D01*
X1680Y3282D02*
X1819Y3282D01*
X2159Y3282D02*
X2297Y3282D01*
X685Y3281D02*
X814Y3281D01*
X1163Y3281D02*
X1293Y3281D01*
X1680Y3281D02*
X1819Y3281D01*
X2159Y3281D02*
X2297Y3281D01*
X685Y3280D02*
X814Y3280D01*
X1163Y3280D02*
X1292Y3280D01*
X1680Y3280D02*
X1819Y3280D01*
X2159Y3280D02*
X2297Y3280D01*
X685Y3279D02*
X814Y3279D01*
X1164Y3279D02*
X1292Y3279D01*
X1680Y3279D02*
X1819Y3279D01*
X2158Y3279D02*
X2297Y3279D01*
X686Y3278D02*
X813Y3278D01*
X1164Y3278D02*
X1292Y3278D01*
X1680Y3278D02*
X1819Y3278D01*
X2158Y3278D02*
X2297Y3278D01*
X686Y3277D02*
X813Y3277D01*
X1164Y3277D02*
X1291Y3277D01*
X1680Y3277D02*
X1819Y3277D01*
X2158Y3277D02*
X2297Y3277D01*
X687Y3276D02*
X812Y3276D01*
X1165Y3276D02*
X1291Y3276D01*
X1680Y3276D02*
X1819Y3276D01*
X2158Y3276D02*
X2297Y3276D01*
X687Y3275D02*
X812Y3275D01*
X1165Y3275D02*
X1290Y3275D01*
X1680Y3275D02*
X1819Y3275D01*
X2159Y3275D02*
X2297Y3275D01*
X688Y3274D02*
X811Y3274D01*
X1166Y3274D02*
X1290Y3274D01*
X1680Y3274D02*
X1819Y3274D01*
X2159Y3274D02*
X2297Y3274D01*
X688Y3273D02*
X811Y3273D01*
X1166Y3273D02*
X1289Y3273D01*
X1680Y3273D02*
X1819Y3273D01*
X2159Y3273D02*
X2297Y3273D01*
X689Y3272D02*
X810Y3272D01*
X1167Y3272D02*
X1289Y3272D01*
X1680Y3272D02*
X1819Y3272D01*
X2159Y3272D02*
X2297Y3272D01*
X689Y3271D02*
X810Y3271D01*
X1168Y3271D02*
X1288Y3271D01*
X1680Y3271D02*
X1819Y3271D01*
X2159Y3271D02*
X2297Y3271D01*
X690Y3270D02*
X809Y3270D01*
X1168Y3270D02*
X1288Y3270D01*
X1681Y3270D02*
X1818Y3270D01*
X2159Y3270D02*
X2297Y3270D01*
X690Y3269D02*
X809Y3269D01*
X1169Y3269D02*
X1287Y3269D01*
X1681Y3269D02*
X1818Y3269D01*
X2159Y3269D02*
X2297Y3269D01*
X691Y3268D02*
X808Y3268D01*
X1169Y3268D02*
X1286Y3268D01*
X1681Y3268D02*
X1818Y3268D01*
X2159Y3268D02*
X2296Y3268D01*
X692Y3267D02*
X807Y3267D01*
X1170Y3267D02*
X1286Y3267D01*
X1681Y3267D02*
X1818Y3267D01*
X2159Y3267D02*
X2296Y3267D01*
X692Y3266D02*
X807Y3266D01*
X1171Y3266D02*
X1285Y3266D01*
X1681Y3266D02*
X1818Y3266D01*
X2160Y3266D02*
X2296Y3266D01*
X693Y3265D02*
X806Y3265D01*
X1171Y3265D02*
X1284Y3265D01*
X1681Y3265D02*
X1818Y3265D01*
X2160Y3265D02*
X2296Y3265D01*
X694Y3264D02*
X805Y3264D01*
X1172Y3264D02*
X1284Y3264D01*
X1682Y3264D02*
X1817Y3264D01*
X2160Y3264D02*
X2296Y3264D01*
X695Y3263D02*
X804Y3263D01*
X1173Y3263D02*
X1283Y3263D01*
X1682Y3263D02*
X1817Y3263D01*
X2160Y3263D02*
X2296Y3263D01*
X695Y3262D02*
X804Y3262D01*
X1174Y3262D02*
X1282Y3262D01*
X1682Y3262D02*
X1817Y3262D01*
X2160Y3262D02*
X2295Y3262D01*
X696Y3261D02*
X803Y3261D01*
X1174Y3261D02*
X1281Y3261D01*
X1682Y3261D02*
X1817Y3261D01*
X2161Y3261D02*
X2295Y3261D01*
X697Y3260D02*
X802Y3260D01*
X1175Y3260D02*
X1280Y3260D01*
X1683Y3260D02*
X1816Y3260D01*
X2161Y3260D02*
X2295Y3260D01*
X698Y3259D02*
X801Y3259D01*
X1176Y3259D02*
X1280Y3259D01*
X1683Y3259D02*
X1816Y3259D01*
X2161Y3259D02*
X2295Y3259D01*
X699Y3258D02*
X800Y3258D01*
X1177Y3258D02*
X1279Y3258D01*
X1683Y3258D02*
X1816Y3258D01*
X2161Y3258D02*
X2294Y3258D01*
X700Y3257D02*
X799Y3257D01*
X1178Y3257D02*
X1278Y3257D01*
X1683Y3257D02*
X1816Y3257D01*
X2162Y3257D02*
X2294Y3257D01*
X700Y3256D02*
X799Y3256D01*
X1179Y3256D02*
X1277Y3256D01*
X1684Y3256D02*
X1815Y3256D01*
X2162Y3256D02*
X2294Y3256D01*
X702Y3255D02*
X797Y3255D01*
X1180Y3255D02*
X1276Y3255D01*
X1684Y3255D02*
X1815Y3255D01*
X2162Y3255D02*
X2293Y3255D01*
X703Y3254D02*
X796Y3254D01*
X1181Y3254D02*
X1275Y3254D01*
X1684Y3254D02*
X1815Y3254D01*
X2163Y3254D02*
X2293Y3254D01*
X704Y3253D02*
X795Y3253D01*
X1182Y3253D02*
X1274Y3253D01*
X1685Y3253D02*
X1814Y3253D01*
X2163Y3253D02*
X2293Y3253D01*
X705Y3252D02*
X794Y3252D01*
X1183Y3252D02*
X1272Y3252D01*
X1685Y3252D02*
X1814Y3252D01*
X2163Y3252D02*
X2292Y3252D01*
X706Y3251D02*
X793Y3251D01*
X1184Y3251D02*
X1271Y3251D01*
X1685Y3251D02*
X1814Y3251D01*
X2164Y3251D02*
X2292Y3251D01*
X707Y3250D02*
X791Y3250D01*
X1186Y3250D02*
X1270Y3250D01*
X1686Y3250D02*
X1813Y3250D01*
X2164Y3250D02*
X2292Y3250D01*
X709Y3249D02*
X790Y3249D01*
X1187Y3249D02*
X1268Y3249D01*
X1686Y3249D02*
X1813Y3249D01*
X2165Y3249D02*
X2291Y3249D01*
X710Y3248D02*
X789Y3248D01*
X1189Y3248D02*
X1267Y3248D01*
X1687Y3248D02*
X1812Y3248D01*
X2165Y3248D02*
X2291Y3248D01*
X712Y3247D02*
X787Y3247D01*
X1190Y3247D02*
X1266Y3247D01*
X1687Y3247D02*
X1812Y3247D01*
X2166Y3247D02*
X2290Y3247D01*
X713Y3246D02*
X786Y3246D01*
X1192Y3246D02*
X1264Y3246D01*
X1688Y3246D02*
X1811Y3246D01*
X2166Y3246D02*
X2290Y3246D01*
X715Y3245D02*
X784Y3245D01*
X1193Y3245D02*
X1262Y3245D01*
X1688Y3245D02*
X1811Y3245D01*
X2167Y3245D02*
X2289Y3245D01*
X717Y3244D02*
X782Y3244D01*
X1195Y3244D02*
X1261Y3244D01*
X1689Y3244D02*
X1810Y3244D01*
X2167Y3244D02*
X2288Y3244D01*
X719Y3243D02*
X780Y3243D01*
X1197Y3243D02*
X1259Y3243D01*
X1689Y3243D02*
X1810Y3243D01*
X2168Y3243D02*
X2288Y3243D01*
X721Y3242D02*
X778Y3242D01*
X1199Y3242D02*
X1257Y3242D01*
X1690Y3242D02*
X1809Y3242D01*
X2168Y3242D02*
X2287Y3242D01*
X723Y3241D02*
X776Y3241D01*
X1201Y3241D02*
X1255Y3241D01*
X1691Y3241D02*
X1808Y3241D01*
X2169Y3241D02*
X2287Y3241D01*
X725Y3240D02*
X774Y3240D01*
X1204Y3240D02*
X1252Y3240D01*
X1691Y3240D02*
X1808Y3240D01*
X2170Y3240D02*
X2286Y3240D01*
X728Y3239D02*
X771Y3239D01*
X1206Y3239D02*
X1249Y3239D01*
X1692Y3239D02*
X1807Y3239D01*
X2170Y3239D02*
X2285Y3239D01*
X732Y3238D02*
X767Y3238D01*
X1210Y3238D02*
X1246Y3238D01*
X1693Y3238D02*
X1806Y3238D01*
X2171Y3238D02*
X2285Y3238D01*
X736Y3237D02*
X763Y3237D01*
X1214Y3237D02*
X1242Y3237D01*
X1693Y3237D02*
X1806Y3237D01*
X2172Y3237D02*
X2284Y3237D01*
X742Y3236D02*
X757Y3236D01*
X1220Y3236D02*
X1235Y3236D01*
X1694Y3236D02*
X1805Y3236D01*
X2172Y3236D02*
X2283Y3236D01*
X1695Y3235D02*
X1804Y3235D01*
X2173Y3235D02*
X2282Y3235D01*
X1696Y3234D02*
X1803Y3234D01*
X2174Y3234D02*
X2282Y3234D01*
X1696Y3233D02*
X1803Y3233D01*
X2175Y3233D02*
X2281Y3233D01*
X1697Y3232D02*
X1802Y3232D01*
X2176Y3232D02*
X2280Y3232D01*
X1698Y3231D02*
X1801Y3231D01*
X2176Y3231D02*
X2279Y3231D01*
X1699Y3230D02*
X1800Y3230D01*
X2177Y3230D02*
X2278Y3230D01*
X1700Y3229D02*
X1799Y3229D01*
X2178Y3229D02*
X2277Y3229D01*
X1701Y3228D02*
X1798Y3228D01*
X2179Y3228D02*
X2276Y3228D01*
X1702Y3227D02*
X1797Y3227D01*
X2180Y3227D02*
X2275Y3227D01*
X1703Y3226D02*
X1796Y3226D01*
X2181Y3226D02*
X2274Y3226D01*
X1704Y3225D02*
X1795Y3225D01*
X2183Y3225D02*
X2273Y3225D01*
X1705Y3224D02*
X1794Y3224D01*
X2184Y3224D02*
X2272Y3224D01*
X1707Y3223D02*
X1792Y3223D01*
X2185Y3223D02*
X2271Y3223D01*
X1708Y3222D02*
X1791Y3222D01*
X2186Y3222D02*
X2269Y3222D01*
X1709Y3221D02*
X1790Y3221D01*
X2188Y3221D02*
X2268Y3221D01*
X1711Y3220D02*
X1788Y3220D01*
X2189Y3220D02*
X2267Y3220D01*
X1712Y3219D02*
X1787Y3219D01*
X2191Y3219D02*
X2265Y3219D01*
X1714Y3218D02*
X1785Y3218D01*
X2192Y3218D02*
X2263Y3218D01*
X1716Y3217D02*
X1783Y3217D01*
X2194Y3217D02*
X2262Y3217D01*
X1717Y3216D02*
X1782Y3216D01*
X2196Y3216D02*
X2260Y3216D01*
X1719Y3215D02*
X1780Y3215D01*
X2198Y3215D02*
X2258Y3215D01*
X1721Y3214D02*
X1778Y3214D01*
X2200Y3214D02*
X2256Y3214D01*
X1724Y3213D02*
X1775Y3213D01*
X2202Y3213D02*
X2254Y3213D01*
X1727Y3212D02*
X1772Y3212D01*
X2205Y3212D02*
X2251Y3212D01*
X1730Y3211D02*
X1769Y3211D01*
X2208Y3211D02*
X2248Y3211D01*
X1734Y3210D02*
X1765Y3210D01*
X2212Y3210D02*
X2244Y3210D01*
X1738Y3209D02*
X1761Y3209D01*
X2217Y3209D02*
X2239Y3209D01*
X1747Y3208D02*
X1752Y3208D01*
X2226Y3208D02*
X2230Y3208D01*
X668Y3139D02*
X670Y3139D01*
X658Y3138D02*
X680Y3138D01*
X653Y3137D02*
X685Y3137D01*
X649Y3136D02*
X689Y3136D01*
X646Y3135D02*
X692Y3135D01*
X643Y3134D02*
X694Y3134D01*
X641Y3133D02*
X697Y3133D01*
X639Y3132D02*
X699Y3132D01*
X637Y3131D02*
X701Y3131D01*
X635Y3130D02*
X703Y3130D01*
X633Y3129D02*
X704Y3129D01*
X632Y3128D02*
X706Y3128D01*
X630Y3127D02*
X707Y3127D01*
X629Y3126D02*
X709Y3126D01*
X627Y3125D02*
X710Y3125D01*
X626Y3124D02*
X711Y3124D01*
X625Y3123D02*
X713Y3123D01*
X624Y3122D02*
X714Y3122D01*
X622Y3121D02*
X715Y3121D01*
X621Y3120D02*
X716Y3120D01*
X620Y3119D02*
X717Y3119D01*
X619Y3118D02*
X718Y3118D01*
X618Y3117D02*
X719Y3117D01*
X617Y3116D02*
X720Y3116D01*
X617Y3115D02*
X721Y3115D01*
X616Y3114D02*
X722Y3114D01*
X615Y3113D02*
X723Y3113D01*
X614Y3112D02*
X723Y3112D01*
X613Y3111D02*
X724Y3111D01*
X1662Y3111D02*
X1676Y3111D01*
X613Y3110D02*
X725Y3110D01*
X1655Y3110D02*
X1682Y3110D01*
X612Y3109D02*
X726Y3109D01*
X1651Y3109D02*
X1686Y3109D01*
X611Y3108D02*
X726Y3108D01*
X1648Y3108D02*
X1690Y3108D01*
X611Y3107D02*
X727Y3107D01*
X1645Y3107D02*
X1693Y3107D01*
X610Y3106D02*
X728Y3106D01*
X1642Y3106D02*
X1696Y3106D01*
X609Y3105D02*
X728Y3105D01*
X1640Y3105D02*
X1698Y3105D01*
X609Y3104D02*
X729Y3104D01*
X1638Y3104D02*
X1700Y3104D01*
X608Y3103D02*
X729Y3103D01*
X1636Y3103D02*
X1702Y3103D01*
X608Y3102D02*
X730Y3102D01*
X1634Y3102D02*
X1703Y3102D01*
X607Y3101D02*
X730Y3101D01*
X1633Y3101D02*
X1705Y3101D01*
X607Y3100D02*
X731Y3100D01*
X1631Y3100D02*
X1707Y3100D01*
X606Y3099D02*
X731Y3099D01*
X1630Y3099D02*
X1708Y3099D01*
X606Y3098D02*
X732Y3098D01*
X1628Y3098D02*
X1709Y3098D01*
X605Y3097D02*
X732Y3097D01*
X1627Y3097D02*
X1711Y3097D01*
X605Y3096D02*
X733Y3096D01*
X1625Y3096D02*
X1712Y3096D01*
X604Y3095D02*
X733Y3095D01*
X1624Y3095D02*
X1713Y3095D01*
X604Y3094D02*
X734Y3094D01*
X1623Y3094D02*
X1714Y3094D01*
X604Y3093D02*
X734Y3093D01*
X1622Y3093D02*
X1716Y3093D01*
X603Y3092D02*
X734Y3092D01*
X1621Y3092D02*
X1717Y3092D01*
X603Y3091D02*
X735Y3091D01*
X1620Y3091D02*
X1718Y3091D01*
X603Y3090D02*
X735Y3090D01*
X1619Y3090D02*
X1719Y3090D01*
X602Y3089D02*
X735Y3089D01*
X1618Y3089D02*
X1720Y3089D01*
X602Y3088D02*
X735Y3088D01*
X1617Y3088D02*
X1720Y3088D01*
X602Y3087D02*
X736Y3087D01*
X1616Y3087D02*
X1721Y3087D01*
X602Y3086D02*
X736Y3086D01*
X1615Y3086D02*
X1722Y3086D01*
X601Y3085D02*
X736Y3085D01*
X1615Y3085D02*
X1723Y3085D01*
X601Y3084D02*
X736Y3084D01*
X1614Y3084D02*
X1724Y3084D01*
X601Y3083D02*
X737Y3083D01*
X1613Y3083D02*
X1724Y3083D01*
X601Y3082D02*
X737Y3082D01*
X1612Y3082D02*
X1725Y3082D01*
X601Y3081D02*
X737Y3081D01*
X1612Y3081D02*
X1726Y3081D01*
X600Y3080D02*
X737Y3080D01*
X1611Y3080D02*
X1727Y3080D01*
X600Y3079D02*
X737Y3079D01*
X1610Y3079D02*
X1727Y3079D01*
X600Y3078D02*
X738Y3078D01*
X1610Y3078D02*
X1728Y3078D01*
X600Y3077D02*
X738Y3077D01*
X1609Y3077D02*
X1728Y3077D01*
X600Y3076D02*
X738Y3076D01*
X1609Y3076D02*
X1729Y3076D01*
X600Y3075D02*
X738Y3075D01*
X1608Y3075D02*
X1730Y3075D01*
X600Y3074D02*
X738Y3074D01*
X1607Y3074D02*
X1730Y3074D01*
X600Y3073D02*
X738Y3073D01*
X1607Y3073D02*
X1731Y3073D01*
X600Y3072D02*
X738Y3072D01*
X1606Y3072D02*
X1731Y3072D01*
X599Y3071D02*
X738Y3071D01*
X1606Y3071D02*
X1732Y3071D01*
X599Y3070D02*
X738Y3070D01*
X1605Y3070D02*
X1732Y3070D01*
X599Y3069D02*
X738Y3069D01*
X1605Y3069D02*
X1733Y3069D01*
X599Y3068D02*
X738Y3068D01*
X1605Y3068D02*
X1733Y3068D01*
X599Y3067D02*
X738Y3067D01*
X1604Y3067D02*
X1733Y3067D01*
X600Y3066D02*
X738Y3066D01*
X1604Y3066D02*
X1734Y3066D01*
X600Y3065D02*
X738Y3065D01*
X1603Y3065D02*
X1734Y3065D01*
X600Y3064D02*
X738Y3064D01*
X1603Y3064D02*
X1734Y3064D01*
X600Y3063D02*
X738Y3063D01*
X1603Y3063D02*
X1735Y3063D01*
X600Y3062D02*
X738Y3062D01*
X1602Y3062D02*
X1735Y3062D01*
X600Y3061D02*
X738Y3061D01*
X1602Y3061D02*
X1735Y3061D01*
X600Y3060D02*
X737Y3060D01*
X1602Y3060D02*
X1736Y3060D01*
X600Y3059D02*
X737Y3059D01*
X1602Y3059D02*
X1736Y3059D01*
X600Y3058D02*
X737Y3058D01*
X1601Y3058D02*
X1736Y3058D01*
X601Y3057D02*
X737Y3057D01*
X1601Y3057D02*
X1736Y3057D01*
X601Y3056D02*
X737Y3056D01*
X1601Y3056D02*
X1737Y3056D01*
X601Y3055D02*
X737Y3055D01*
X1601Y3055D02*
X1737Y3055D01*
X601Y3054D02*
X736Y3054D01*
X1601Y3054D02*
X1737Y3054D01*
X601Y3053D02*
X736Y3053D01*
X1600Y3053D02*
X1737Y3053D01*
X602Y3052D02*
X736Y3052D01*
X1600Y3052D02*
X1737Y3052D01*
X602Y3051D02*
X736Y3051D01*
X1600Y3051D02*
X1737Y3051D01*
X602Y3050D02*
X735Y3050D01*
X1600Y3050D02*
X1738Y3050D01*
X602Y3049D02*
X735Y3049D01*
X1600Y3049D02*
X1738Y3049D01*
X603Y3048D02*
X735Y3048D01*
X1600Y3048D02*
X1738Y3048D01*
X603Y3047D02*
X735Y3047D01*
X1600Y3047D02*
X1738Y3047D01*
X603Y3046D02*
X734Y3046D01*
X1600Y3046D02*
X1738Y3046D01*
X604Y3045D02*
X734Y3045D01*
X1600Y3045D02*
X1738Y3045D01*
X604Y3044D02*
X733Y3044D01*
X1599Y3044D02*
X1738Y3044D01*
X604Y3043D02*
X733Y3043D01*
X1599Y3043D02*
X1738Y3043D01*
X605Y3042D02*
X733Y3042D01*
X1599Y3042D02*
X1738Y3042D01*
X605Y3041D02*
X732Y3041D01*
X1599Y3041D02*
X1738Y3041D01*
X606Y3040D02*
X732Y3040D01*
X1599Y3040D02*
X1738Y3040D01*
X606Y3039D02*
X731Y3039D01*
X1599Y3039D02*
X1738Y3039D01*
X607Y3038D02*
X731Y3038D01*
X1600Y3038D02*
X1738Y3038D01*
X607Y3037D02*
X730Y3037D01*
X1600Y3037D02*
X1738Y3037D01*
X608Y3036D02*
X730Y3036D01*
X1600Y3036D02*
X1738Y3036D01*
X608Y3035D02*
X729Y3035D01*
X1600Y3035D02*
X1738Y3035D01*
X609Y3034D02*
X729Y3034D01*
X1600Y3034D02*
X1738Y3034D01*
X610Y3033D02*
X728Y3033D01*
X1600Y3033D02*
X1738Y3033D01*
X610Y3032D02*
X727Y3032D01*
X1600Y3032D02*
X1737Y3032D01*
X611Y3031D02*
X727Y3031D01*
X1600Y3031D02*
X1737Y3031D01*
X611Y3030D02*
X726Y3030D01*
X1600Y3030D02*
X1737Y3030D01*
X612Y3029D02*
X725Y3029D01*
X1601Y3029D02*
X1737Y3029D01*
X613Y3028D02*
X725Y3028D01*
X1601Y3028D02*
X1737Y3028D01*
X614Y3027D02*
X724Y3027D01*
X1601Y3027D02*
X1737Y3027D01*
X614Y3026D02*
X723Y3026D01*
X1601Y3026D02*
X1736Y3026D01*
X615Y3025D02*
X722Y3025D01*
X1602Y3025D02*
X1736Y3025D01*
X616Y3024D02*
X722Y3024D01*
X1602Y3024D02*
X1736Y3024D01*
X617Y3023D02*
X721Y3023D01*
X1602Y3023D02*
X1736Y3023D01*
X618Y3022D02*
X720Y3022D01*
X1602Y3022D02*
X1735Y3022D01*
X619Y3021D02*
X719Y3021D01*
X1603Y3021D02*
X1735Y3021D01*
X620Y3020D02*
X718Y3020D01*
X1603Y3020D02*
X1735Y3020D01*
X621Y3019D02*
X717Y3019D01*
X1603Y3019D02*
X1734Y3019D01*
X622Y3018D02*
X716Y3018D01*
X1604Y3018D02*
X1734Y3018D01*
X623Y3017D02*
X715Y3017D01*
X1604Y3017D02*
X1734Y3017D01*
X624Y3016D02*
X714Y3016D01*
X1604Y3016D02*
X1733Y3016D01*
X625Y3015D02*
X712Y3015D01*
X1605Y3015D02*
X1733Y3015D01*
X627Y3014D02*
X711Y3014D01*
X1605Y3014D02*
X1733Y3014D01*
X628Y3013D02*
X710Y3013D01*
X1606Y3013D02*
X1732Y3013D01*
X629Y3012D02*
X708Y3012D01*
X1606Y3012D02*
X1732Y3012D01*
X631Y3011D02*
X707Y3011D01*
X1606Y3011D02*
X1731Y3011D01*
X632Y3010D02*
X705Y3010D01*
X1607Y3010D02*
X1731Y3010D01*
X634Y3009D02*
X704Y3009D01*
X1607Y3009D02*
X1730Y3009D01*
X636Y3008D02*
X702Y3008D01*
X1608Y3008D02*
X1730Y3008D01*
X637Y3007D02*
X700Y3007D01*
X1609Y3007D02*
X1729Y3007D01*
X639Y3006D02*
X698Y3006D01*
X1609Y3006D02*
X1728Y3006D01*
X641Y3005D02*
X696Y3005D01*
X1610Y3005D02*
X1728Y3005D01*
X644Y3004D02*
X694Y3004D01*
X1610Y3004D02*
X1727Y3004D01*
X647Y3003D02*
X691Y3003D01*
X1611Y3003D02*
X1726Y3003D01*
X650Y3002D02*
X687Y3002D01*
X1612Y3002D02*
X1726Y3002D01*
X654Y3001D02*
X683Y3001D01*
X1613Y3001D02*
X1725Y3001D01*
X660Y3000D02*
X678Y3000D01*
X1613Y3000D02*
X1724Y3000D01*
X1614Y2999D02*
X1724Y2999D01*
X1615Y2998D02*
X1723Y2998D01*
X1615Y2997D02*
X1722Y2997D01*
X1616Y2996D02*
X1721Y2996D01*
X1617Y2995D02*
X1720Y2995D01*
X1618Y2994D02*
X1719Y2994D01*
X1619Y2993D02*
X1719Y2993D01*
X1620Y2992D02*
X1718Y2992D01*
X1621Y2991D02*
X1716Y2991D01*
X1622Y2990D02*
X1715Y2990D01*
X1623Y2989D02*
X1714Y2989D01*
X1624Y2988D02*
X1713Y2988D01*
X1626Y2987D02*
X1712Y2987D01*
X1627Y2986D02*
X1710Y2986D01*
X1628Y2985D02*
X1709Y2985D01*
X1630Y2984D02*
X1708Y2984D01*
X1631Y2983D02*
X1706Y2983D01*
X1633Y2982D02*
X1705Y2982D01*
X1635Y2981D02*
X1703Y2981D01*
X1636Y2980D02*
X1701Y2980D01*
X1638Y2979D02*
X1699Y2979D01*
X1640Y2978D02*
X1697Y2978D01*
X1642Y2977D02*
X1695Y2977D01*
X1645Y2976D02*
X1692Y2976D01*
X1648Y2975D02*
X1689Y2975D01*
X1652Y2974D02*
X1686Y2974D01*
X1656Y2973D02*
X1681Y2973D01*
X1663Y2972D02*
X1675Y2972D01*
X740Y2902D02*
X759Y2902D01*
X1218Y2902D02*
X1237Y2902D01*
X735Y2901D02*
X764Y2901D01*
X1213Y2901D02*
X1243Y2901D01*
X731Y2900D02*
X768Y2900D01*
X1209Y2900D02*
X1247Y2900D01*
X727Y2899D02*
X772Y2899D01*
X1206Y2899D02*
X1250Y2899D01*
X724Y2898D02*
X775Y2898D01*
X1203Y2898D02*
X1253Y2898D01*
X722Y2897D02*
X777Y2897D01*
X1200Y2897D02*
X1255Y2897D01*
X720Y2896D02*
X779Y2896D01*
X1198Y2896D02*
X1257Y2896D01*
X718Y2895D02*
X781Y2895D01*
X1196Y2895D02*
X1259Y2895D01*
X716Y2894D02*
X783Y2894D01*
X1194Y2894D02*
X1261Y2894D01*
X714Y2893D02*
X785Y2893D01*
X1193Y2893D02*
X1263Y2893D01*
X713Y2892D02*
X786Y2892D01*
X1191Y2892D02*
X1265Y2892D01*
X711Y2891D02*
X788Y2891D01*
X1190Y2891D02*
X1266Y2891D01*
X710Y2890D02*
X789Y2890D01*
X1188Y2890D02*
X1268Y2890D01*
X708Y2889D02*
X791Y2889D01*
X1187Y2889D02*
X1269Y2889D01*
X707Y2888D02*
X792Y2888D01*
X1185Y2888D02*
X1270Y2888D01*
X706Y2887D02*
X793Y2887D01*
X1184Y2887D02*
X1272Y2887D01*
X705Y2886D02*
X794Y2886D01*
X1183Y2886D02*
X1273Y2886D01*
X703Y2885D02*
X796Y2885D01*
X1182Y2885D02*
X1274Y2885D01*
X702Y2884D02*
X797Y2884D01*
X1181Y2884D02*
X1275Y2884D01*
X701Y2883D02*
X798Y2883D01*
X1180Y2883D02*
X1276Y2883D01*
X700Y2882D02*
X799Y2882D01*
X1179Y2882D02*
X1277Y2882D01*
X699Y2881D02*
X800Y2881D01*
X1178Y2881D02*
X1278Y2881D01*
X698Y2880D02*
X801Y2880D01*
X1177Y2880D02*
X1279Y2880D01*
X697Y2879D02*
X802Y2879D01*
X1176Y2879D02*
X1280Y2879D01*
X697Y2878D02*
X802Y2878D01*
X1175Y2878D02*
X1281Y2878D01*
X696Y2877D02*
X803Y2877D01*
X1174Y2877D02*
X1282Y2877D01*
X695Y2876D02*
X804Y2876D01*
X1173Y2876D02*
X1282Y2876D01*
X694Y2875D02*
X805Y2875D01*
X1173Y2875D02*
X1283Y2875D01*
X1744Y2875D02*
X1755Y2875D01*
X2223Y2875D02*
X2233Y2875D01*
X694Y2874D02*
X805Y2874D01*
X1172Y2874D02*
X1284Y2874D01*
X1737Y2874D02*
X1762Y2874D01*
X2216Y2874D02*
X2240Y2874D01*
X693Y2873D02*
X806Y2873D01*
X1171Y2873D02*
X1285Y2873D01*
X1733Y2873D02*
X1766Y2873D01*
X2211Y2873D02*
X2245Y2873D01*
X692Y2872D02*
X807Y2872D01*
X1170Y2872D02*
X1285Y2872D01*
X1729Y2872D02*
X1770Y2872D01*
X2207Y2872D02*
X2249Y2872D01*
X691Y2871D02*
X808Y2871D01*
X1170Y2871D02*
X1286Y2871D01*
X1726Y2871D02*
X1773Y2871D01*
X2204Y2871D02*
X2251Y2871D01*
X691Y2870D02*
X808Y2870D01*
X1169Y2870D02*
X1286Y2870D01*
X1723Y2870D02*
X1776Y2870D01*
X2202Y2870D02*
X2254Y2870D01*
X690Y2869D02*
X809Y2869D01*
X1169Y2869D02*
X1287Y2869D01*
X1721Y2869D02*
X1778Y2869D01*
X2199Y2869D02*
X2256Y2869D01*
X690Y2868D02*
X809Y2868D01*
X1168Y2868D02*
X1288Y2868D01*
X1719Y2868D02*
X1780Y2868D01*
X2197Y2868D02*
X2258Y2868D01*
X689Y2867D02*
X810Y2867D01*
X1167Y2867D02*
X1288Y2867D01*
X1717Y2867D02*
X1782Y2867D01*
X2195Y2867D02*
X2260Y2867D01*
X688Y2866D02*
X811Y2866D01*
X1167Y2866D02*
X1289Y2866D01*
X1715Y2866D02*
X1784Y2866D01*
X2194Y2866D02*
X2262Y2866D01*
X688Y2865D02*
X811Y2865D01*
X1166Y2865D02*
X1289Y2865D01*
X1714Y2865D02*
X1785Y2865D01*
X2192Y2865D02*
X2264Y2865D01*
X687Y2864D02*
X812Y2864D01*
X1166Y2864D02*
X1290Y2864D01*
X1712Y2864D02*
X1787Y2864D01*
X2190Y2864D02*
X2265Y2864D01*
X687Y2863D02*
X812Y2863D01*
X1165Y2863D02*
X1290Y2863D01*
X1711Y2863D02*
X1788Y2863D01*
X2189Y2863D02*
X2267Y2863D01*
X686Y2862D02*
X813Y2862D01*
X1165Y2862D02*
X1291Y2862D01*
X1709Y2862D02*
X1790Y2862D01*
X2188Y2862D02*
X2268Y2862D01*
X686Y2861D02*
X813Y2861D01*
X1164Y2861D02*
X1291Y2861D01*
X1708Y2861D02*
X1791Y2861D01*
X2186Y2861D02*
X2270Y2861D01*
X685Y2860D02*
X814Y2860D01*
X1164Y2860D02*
X1292Y2860D01*
X1706Y2860D02*
X1793Y2860D01*
X2185Y2860D02*
X2271Y2860D01*
X685Y2859D02*
X814Y2859D01*
X1163Y2859D02*
X1292Y2859D01*
X1705Y2859D02*
X1794Y2859D01*
X2184Y2859D02*
X2272Y2859D01*
X685Y2858D02*
X814Y2858D01*
X1163Y2858D02*
X1293Y2858D01*
X1704Y2858D02*
X1795Y2858D01*
X2182Y2858D02*
X2273Y2858D01*
X684Y2857D02*
X815Y2857D01*
X1163Y2857D02*
X1293Y2857D01*
X1703Y2857D02*
X1796Y2857D01*
X2181Y2857D02*
X2274Y2857D01*
X684Y2856D02*
X815Y2856D01*
X1162Y2856D02*
X1293Y2856D01*
X1702Y2856D02*
X1797Y2856D01*
X2180Y2856D02*
X2276Y2856D01*
X684Y2855D02*
X815Y2855D01*
X1162Y2855D02*
X1294Y2855D01*
X1701Y2855D02*
X1798Y2855D01*
X2179Y2855D02*
X2277Y2855D01*
X683Y2854D02*
X816Y2854D01*
X1162Y2854D02*
X1294Y2854D01*
X1700Y2854D02*
X1799Y2854D01*
X2178Y2854D02*
X2278Y2854D01*
X683Y2853D02*
X816Y2853D01*
X1161Y2853D02*
X1294Y2853D01*
X1699Y2853D02*
X1800Y2853D01*
X2177Y2853D02*
X2278Y2853D01*
X683Y2852D02*
X816Y2852D01*
X1161Y2852D02*
X1294Y2852D01*
X1698Y2852D02*
X1801Y2852D01*
X2176Y2852D02*
X2279Y2852D01*
X683Y2851D02*
X816Y2851D01*
X1161Y2851D02*
X1295Y2851D01*
X1697Y2851D02*
X1802Y2851D01*
X2175Y2851D02*
X2280Y2851D01*
X682Y2850D02*
X817Y2850D01*
X1161Y2850D02*
X1295Y2850D01*
X1696Y2850D02*
X1803Y2850D01*
X2175Y2850D02*
X2281Y2850D01*
X682Y2849D02*
X817Y2849D01*
X1160Y2849D02*
X1295Y2849D01*
X1695Y2849D02*
X1804Y2849D01*
X2174Y2849D02*
X2282Y2849D01*
X682Y2848D02*
X817Y2848D01*
X1160Y2848D02*
X1295Y2848D01*
X1695Y2848D02*
X1804Y2848D01*
X2173Y2848D02*
X2283Y2848D01*
X682Y2847D02*
X817Y2847D01*
X1160Y2847D02*
X1296Y2847D01*
X1694Y2847D02*
X1805Y2847D01*
X2172Y2847D02*
X2283Y2847D01*
X681Y2846D02*
X818Y2846D01*
X1160Y2846D02*
X1296Y2846D01*
X1693Y2846D02*
X1806Y2846D01*
X2172Y2846D02*
X2284Y2846D01*
X681Y2845D02*
X818Y2845D01*
X1160Y2845D02*
X1296Y2845D01*
X1692Y2845D02*
X1807Y2845D01*
X2171Y2845D02*
X2285Y2845D01*
X681Y2844D02*
X818Y2844D01*
X1159Y2844D02*
X1296Y2844D01*
X1692Y2844D02*
X1807Y2844D01*
X2170Y2844D02*
X2286Y2844D01*
X681Y2843D02*
X818Y2843D01*
X1159Y2843D02*
X1296Y2843D01*
X1691Y2843D02*
X1808Y2843D01*
X2170Y2843D02*
X2286Y2843D01*
X681Y2842D02*
X818Y2842D01*
X1159Y2842D02*
X1297Y2842D01*
X1691Y2842D02*
X1808Y2842D01*
X2169Y2842D02*
X2287Y2842D01*
X681Y2841D02*
X818Y2841D01*
X1159Y2841D02*
X1297Y2841D01*
X1690Y2841D02*
X1809Y2841D01*
X2168Y2841D02*
X2287Y2841D01*
X680Y2840D02*
X819Y2840D01*
X1159Y2840D02*
X1297Y2840D01*
X1689Y2840D02*
X1810Y2840D01*
X2168Y2840D02*
X2288Y2840D01*
X680Y2839D02*
X819Y2839D01*
X1159Y2839D02*
X1297Y2839D01*
X1689Y2839D02*
X1810Y2839D01*
X2167Y2839D02*
X2289Y2839D01*
X680Y2838D02*
X819Y2838D01*
X1159Y2838D02*
X1297Y2838D01*
X1688Y2838D02*
X1811Y2838D01*
X2167Y2838D02*
X2289Y2838D01*
X680Y2837D02*
X819Y2837D01*
X1159Y2837D02*
X1297Y2837D01*
X1688Y2837D02*
X1811Y2837D01*
X2166Y2837D02*
X2290Y2837D01*
X680Y2836D02*
X819Y2836D01*
X1159Y2836D02*
X1297Y2836D01*
X1687Y2836D02*
X1812Y2836D01*
X2166Y2836D02*
X2290Y2836D01*
X680Y2835D02*
X819Y2835D01*
X1159Y2835D02*
X1297Y2835D01*
X1687Y2835D02*
X1812Y2835D01*
X2165Y2835D02*
X2291Y2835D01*
X680Y2834D02*
X819Y2834D01*
X1158Y2834D02*
X1297Y2834D01*
X1686Y2834D02*
X1813Y2834D01*
X2165Y2834D02*
X2291Y2834D01*
X680Y2833D02*
X819Y2833D01*
X1158Y2833D02*
X1297Y2833D01*
X1686Y2833D02*
X1813Y2833D01*
X2164Y2833D02*
X2292Y2833D01*
X680Y2832D02*
X819Y2832D01*
X1158Y2832D02*
X1297Y2832D01*
X1685Y2832D02*
X1814Y2832D01*
X2164Y2832D02*
X2292Y2832D01*
X680Y2831D02*
X819Y2831D01*
X1159Y2831D02*
X1297Y2831D01*
X1685Y2831D02*
X1814Y2831D01*
X2163Y2831D02*
X2292Y2831D01*
X680Y2830D02*
X819Y2830D01*
X1159Y2830D02*
X1297Y2830D01*
X1685Y2830D02*
X1814Y2830D01*
X2163Y2830D02*
X2293Y2830D01*
X680Y2829D02*
X819Y2829D01*
X1159Y2829D02*
X1297Y2829D01*
X1684Y2829D02*
X1815Y2829D01*
X2163Y2829D02*
X2293Y2829D01*
X680Y2828D02*
X819Y2828D01*
X1159Y2828D02*
X1297Y2828D01*
X1684Y2828D02*
X1815Y2828D01*
X2162Y2828D02*
X2293Y2828D01*
X680Y2827D02*
X819Y2827D01*
X1159Y2827D02*
X1297Y2827D01*
X1684Y2827D02*
X1815Y2827D01*
X2162Y2827D02*
X2294Y2827D01*
X680Y2826D02*
X819Y2826D01*
X1159Y2826D02*
X1297Y2826D01*
X1683Y2826D02*
X1816Y2826D01*
X2162Y2826D02*
X2294Y2826D01*
X681Y2825D02*
X818Y2825D01*
X1159Y2825D02*
X1297Y2825D01*
X1683Y2825D02*
X1816Y2825D01*
X2161Y2825D02*
X2294Y2825D01*
X681Y2824D02*
X818Y2824D01*
X1159Y2824D02*
X1297Y2824D01*
X1683Y2824D02*
X1816Y2824D01*
X2161Y2824D02*
X2295Y2824D01*
X681Y2823D02*
X818Y2823D01*
X1159Y2823D02*
X1296Y2823D01*
X1682Y2823D02*
X1817Y2823D01*
X2161Y2823D02*
X2295Y2823D01*
X681Y2822D02*
X818Y2822D01*
X1159Y2822D02*
X1296Y2822D01*
X1682Y2822D02*
X1817Y2822D01*
X2161Y2822D02*
X2295Y2822D01*
X681Y2821D02*
X818Y2821D01*
X1160Y2821D02*
X1296Y2821D01*
X1682Y2821D02*
X1817Y2821D01*
X2160Y2821D02*
X2295Y2821D01*
X681Y2820D02*
X818Y2820D01*
X1160Y2820D02*
X1296Y2820D01*
X1682Y2820D02*
X1817Y2820D01*
X2160Y2820D02*
X2296Y2820D01*
X682Y2819D02*
X817Y2819D01*
X1160Y2819D02*
X1296Y2819D01*
X1682Y2819D02*
X1817Y2819D01*
X2160Y2819D02*
X2296Y2819D01*
X682Y2818D02*
X817Y2818D01*
X1160Y2818D02*
X1296Y2818D01*
X1681Y2818D02*
X1818Y2818D01*
X2160Y2818D02*
X2296Y2818D01*
X682Y2817D02*
X817Y2817D01*
X1160Y2817D02*
X1295Y2817D01*
X1681Y2817D02*
X1818Y2817D01*
X2160Y2817D02*
X2296Y2817D01*
X682Y2816D02*
X817Y2816D01*
X1161Y2816D02*
X1295Y2816D01*
X1681Y2816D02*
X1818Y2816D01*
X2159Y2816D02*
X2296Y2816D01*
X683Y2815D02*
X816Y2815D01*
X1161Y2815D02*
X1295Y2815D01*
X1681Y2815D02*
X1818Y2815D01*
X2159Y2815D02*
X2296Y2815D01*
X683Y2814D02*
X816Y2814D01*
X1161Y2814D02*
X1295Y2814D01*
X1681Y2814D02*
X1818Y2814D01*
X2159Y2814D02*
X2297Y2814D01*
X683Y2813D02*
X816Y2813D01*
X1161Y2813D02*
X1294Y2813D01*
X1681Y2813D02*
X1818Y2813D01*
X2159Y2813D02*
X2297Y2813D01*
X683Y2812D02*
X816Y2812D01*
X1162Y2812D02*
X1294Y2812D01*
X1680Y2812D02*
X1819Y2812D01*
X2159Y2812D02*
X2297Y2812D01*
X684Y2811D02*
X815Y2811D01*
X1162Y2811D02*
X1294Y2811D01*
X1680Y2811D02*
X1819Y2811D01*
X2159Y2811D02*
X2297Y2811D01*
X684Y2810D02*
X815Y2810D01*
X1162Y2810D02*
X1293Y2810D01*
X1680Y2810D02*
X1819Y2810D01*
X2159Y2810D02*
X2297Y2810D01*
X684Y2809D02*
X815Y2809D01*
X1163Y2809D02*
X1293Y2809D01*
X1680Y2809D02*
X1819Y2809D01*
X2159Y2809D02*
X2297Y2809D01*
X685Y2808D02*
X814Y2808D01*
X1163Y2808D02*
X1293Y2808D01*
X1680Y2808D02*
X1819Y2808D01*
X2159Y2808D02*
X2297Y2808D01*
X685Y2807D02*
X814Y2807D01*
X1163Y2807D02*
X1292Y2807D01*
X1680Y2807D02*
X1819Y2807D01*
X2158Y2807D02*
X2297Y2807D01*
X685Y2806D02*
X814Y2806D01*
X1164Y2806D02*
X1292Y2806D01*
X1680Y2806D02*
X1819Y2806D01*
X2158Y2806D02*
X2297Y2806D01*
X686Y2805D02*
X813Y2805D01*
X1164Y2805D02*
X1291Y2805D01*
X1680Y2805D02*
X1819Y2805D01*
X2158Y2805D02*
X2297Y2805D01*
X686Y2804D02*
X813Y2804D01*
X1165Y2804D02*
X1291Y2804D01*
X1680Y2804D02*
X1819Y2804D01*
X2158Y2804D02*
X2297Y2804D01*
X687Y2803D02*
X812Y2803D01*
X1165Y2803D02*
X1290Y2803D01*
X1680Y2803D02*
X1819Y2803D01*
X2159Y2803D02*
X2297Y2803D01*
X687Y2802D02*
X812Y2802D01*
X1166Y2802D02*
X1290Y2802D01*
X1680Y2802D02*
X1819Y2802D01*
X2159Y2802D02*
X2297Y2802D01*
X688Y2801D02*
X811Y2801D01*
X1166Y2801D02*
X1289Y2801D01*
X1680Y2801D02*
X1819Y2801D01*
X2159Y2801D02*
X2297Y2801D01*
X688Y2800D02*
X811Y2800D01*
X1167Y2800D02*
X1289Y2800D01*
X1680Y2800D02*
X1819Y2800D01*
X2159Y2800D02*
X2297Y2800D01*
X689Y2799D02*
X810Y2799D01*
X1167Y2799D02*
X1288Y2799D01*
X1680Y2799D02*
X1819Y2799D01*
X2159Y2799D02*
X2297Y2799D01*
X690Y2798D02*
X809Y2798D01*
X1168Y2798D02*
X1288Y2798D01*
X1681Y2798D02*
X1818Y2798D01*
X2159Y2798D02*
X2297Y2798D01*
X690Y2797D02*
X809Y2797D01*
X1169Y2797D02*
X1287Y2797D01*
X1681Y2797D02*
X1818Y2797D01*
X2159Y2797D02*
X2297Y2797D01*
X691Y2796D02*
X808Y2796D01*
X1169Y2796D02*
X1287Y2796D01*
X1681Y2796D02*
X1818Y2796D01*
X2159Y2796D02*
X2296Y2796D01*
X691Y2795D02*
X808Y2795D01*
X1170Y2795D02*
X1286Y2795D01*
X1681Y2795D02*
X1818Y2795D01*
X2159Y2795D02*
X2296Y2795D01*
X692Y2794D02*
X807Y2794D01*
X1170Y2794D02*
X1285Y2794D01*
X1681Y2794D02*
X1818Y2794D01*
X2160Y2794D02*
X2296Y2794D01*
X693Y2793D02*
X806Y2793D01*
X1171Y2793D02*
X1285Y2793D01*
X1681Y2793D02*
X1818Y2793D01*
X2160Y2793D02*
X2296Y2793D01*
X693Y2792D02*
X806Y2792D01*
X1172Y2792D02*
X1284Y2792D01*
X1681Y2792D02*
X1818Y2792D01*
X2160Y2792D02*
X2296Y2792D01*
X694Y2791D02*
X805Y2791D01*
X1173Y2791D02*
X1283Y2791D01*
X1682Y2791D02*
X1817Y2791D01*
X2160Y2791D02*
X2296Y2791D01*
X695Y2790D02*
X804Y2790D01*
X1173Y2790D02*
X1282Y2790D01*
X1682Y2790D02*
X1817Y2790D01*
X2160Y2790D02*
X2295Y2790D01*
X696Y2789D02*
X803Y2789D01*
X1174Y2789D02*
X1282Y2789D01*
X1682Y2789D02*
X1817Y2789D01*
X2161Y2789D02*
X2295Y2789D01*
X696Y2788D02*
X803Y2788D01*
X1175Y2788D02*
X1281Y2788D01*
X1682Y2788D02*
X1817Y2788D01*
X2161Y2788D02*
X2295Y2788D01*
X697Y2787D02*
X802Y2787D01*
X1176Y2787D02*
X1280Y2787D01*
X1683Y2787D02*
X1816Y2787D01*
X2161Y2787D02*
X2295Y2787D01*
X698Y2786D02*
X801Y2786D01*
X1177Y2786D02*
X1279Y2786D01*
X1683Y2786D02*
X1816Y2786D01*
X2161Y2786D02*
X2294Y2786D01*
X699Y2785D02*
X800Y2785D01*
X1178Y2785D02*
X1278Y2785D01*
X1683Y2785D02*
X1816Y2785D01*
X2162Y2785D02*
X2294Y2785D01*
X700Y2784D02*
X799Y2784D01*
X1178Y2784D02*
X1277Y2784D01*
X1683Y2784D02*
X1816Y2784D01*
X2162Y2784D02*
X2294Y2784D01*
X701Y2783D02*
X798Y2783D01*
X1179Y2783D02*
X1276Y2783D01*
X1684Y2783D02*
X1815Y2783D01*
X2162Y2783D02*
X2294Y2783D01*
X702Y2782D02*
X797Y2782D01*
X1181Y2782D02*
X1275Y2782D01*
X1684Y2782D02*
X1815Y2782D01*
X2163Y2782D02*
X2293Y2782D01*
X703Y2781D02*
X796Y2781D01*
X1182Y2781D02*
X1274Y2781D01*
X1685Y2781D02*
X1814Y2781D01*
X2163Y2781D02*
X2293Y2781D01*
X704Y2780D02*
X795Y2780D01*
X1183Y2780D02*
X1273Y2780D01*
X1685Y2780D02*
X1814Y2780D01*
X2163Y2780D02*
X2292Y2780D01*
X706Y2779D02*
X793Y2779D01*
X1184Y2779D02*
X1272Y2779D01*
X1685Y2779D02*
X1814Y2779D01*
X2164Y2779D02*
X2292Y2779D01*
X707Y2778D02*
X792Y2778D01*
X1185Y2778D02*
X1270Y2778D01*
X1686Y2778D02*
X1813Y2778D01*
X2164Y2778D02*
X2292Y2778D01*
X708Y2777D02*
X791Y2777D01*
X1187Y2777D02*
X1269Y2777D01*
X1686Y2777D02*
X1813Y2777D01*
X2164Y2777D02*
X2291Y2777D01*
X710Y2776D02*
X789Y2776D01*
X1188Y2776D02*
X1268Y2776D01*
X1687Y2776D02*
X1812Y2776D01*
X2165Y2776D02*
X2291Y2776D01*
X711Y2775D02*
X788Y2775D01*
X1189Y2775D02*
X1266Y2775D01*
X1687Y2775D02*
X1812Y2775D01*
X2165Y2775D02*
X2290Y2775D01*
X713Y2774D02*
X786Y2774D01*
X1191Y2774D02*
X1265Y2774D01*
X1688Y2774D02*
X1811Y2774D01*
X2166Y2774D02*
X2290Y2774D01*
X714Y2773D02*
X785Y2773D01*
X1193Y2773D02*
X1263Y2773D01*
X1688Y2773D02*
X1811Y2773D01*
X2166Y2773D02*
X2289Y2773D01*
X716Y2772D02*
X783Y2772D01*
X1194Y2772D02*
X1261Y2772D01*
X1689Y2772D02*
X1810Y2772D01*
X2167Y2772D02*
X2289Y2772D01*
X718Y2771D02*
X781Y2771D01*
X1196Y2771D02*
X1260Y2771D01*
X1689Y2771D02*
X1810Y2771D01*
X2168Y2771D02*
X2288Y2771D01*
X720Y2770D02*
X779Y2770D01*
X1198Y2770D02*
X1258Y2770D01*
X1690Y2770D02*
X1809Y2770D01*
X2168Y2770D02*
X2288Y2770D01*
X722Y2769D02*
X777Y2769D01*
X1200Y2769D02*
X1256Y2769D01*
X1690Y2769D02*
X1809Y2769D01*
X2169Y2769D02*
X2287Y2769D01*
X724Y2768D02*
X775Y2768D01*
X1203Y2768D02*
X1253Y2768D01*
X1691Y2768D02*
X1808Y2768D01*
X2169Y2768D02*
X2286Y2768D01*
X727Y2767D02*
X772Y2767D01*
X1205Y2767D02*
X1250Y2767D01*
X1692Y2767D02*
X1807Y2767D01*
X2170Y2767D02*
X2286Y2767D01*
X730Y2766D02*
X769Y2766D01*
X1208Y2766D02*
X1247Y2766D01*
X1692Y2766D02*
X1807Y2766D01*
X2171Y2766D02*
X2285Y2766D01*
X734Y2765D02*
X765Y2765D01*
X1212Y2765D02*
X1243Y2765D01*
X1693Y2765D02*
X1806Y2765D01*
X2171Y2765D02*
X2284Y2765D01*
X739Y2764D02*
X760Y2764D01*
X1218Y2764D02*
X1238Y2764D01*
X1694Y2764D02*
X1805Y2764D01*
X2172Y2764D02*
X2284Y2764D01*
X1695Y2763D02*
X1804Y2763D01*
X2173Y2763D02*
X2283Y2763D01*
X1695Y2762D02*
X1804Y2762D01*
X2174Y2762D02*
X2282Y2762D01*
X1696Y2761D02*
X1803Y2761D01*
X2174Y2761D02*
X2281Y2761D01*
X1697Y2760D02*
X1802Y2760D01*
X2175Y2760D02*
X2280Y2760D01*
X1698Y2759D02*
X1801Y2759D01*
X2176Y2759D02*
X2280Y2759D01*
X1699Y2758D02*
X1800Y2758D01*
X2177Y2758D02*
X2279Y2758D01*
X1700Y2757D02*
X1799Y2757D01*
X2178Y2757D02*
X2278Y2757D01*
X1700Y2756D02*
X1799Y2756D01*
X2179Y2756D02*
X2277Y2756D01*
X1702Y2755D02*
X1797Y2755D01*
X2180Y2755D02*
X2276Y2755D01*
X1703Y2754D02*
X1796Y2754D01*
X2181Y2754D02*
X2275Y2754D01*
X1704Y2753D02*
X1795Y2753D01*
X2182Y2753D02*
X2274Y2753D01*
X1705Y2752D02*
X1794Y2752D01*
X2183Y2752D02*
X2272Y2752D01*
X1706Y2751D02*
X1793Y2751D01*
X2185Y2751D02*
X2271Y2751D01*
X1708Y2750D02*
X1791Y2750D01*
X2186Y2750D02*
X2270Y2750D01*
X1709Y2749D02*
X1790Y2749D01*
X2187Y2749D02*
X2268Y2749D01*
X1710Y2748D02*
X1789Y2748D01*
X2189Y2748D02*
X2267Y2748D01*
X1712Y2747D02*
X1787Y2747D01*
X2190Y2747D02*
X2266Y2747D01*
X1713Y2746D02*
X1786Y2746D01*
X2192Y2746D02*
X2264Y2746D01*
X1715Y2745D02*
X1784Y2745D01*
X2193Y2745D02*
X2262Y2745D01*
X1717Y2744D02*
X1782Y2744D01*
X2195Y2744D02*
X2261Y2744D01*
X1719Y2743D02*
X1780Y2743D01*
X2197Y2743D02*
X2259Y2743D01*
X1721Y2742D02*
X1778Y2742D01*
X2199Y2742D02*
X2257Y2742D01*
X1723Y2741D02*
X1776Y2741D01*
X2201Y2741D02*
X2255Y2741D01*
X1725Y2740D02*
X1774Y2740D01*
X2204Y2740D02*
X2252Y2740D01*
X1728Y2739D02*
X1771Y2739D01*
X2207Y2739D02*
X2249Y2739D01*
X1732Y2738D02*
X1767Y2738D01*
X2210Y2738D02*
X2245Y2738D01*
X1736Y2737D02*
X1763Y2737D01*
X2214Y2737D02*
X2241Y2737D01*
X1742Y2736D02*
X1757Y2736D01*
X2221Y2736D02*
X2235Y2736D01*
X3708Y2247D02*
X3791Y2247D01*
X3708Y2246D02*
X3791Y2246D01*
X3708Y2245D02*
X3791Y2245D01*
X3708Y2244D02*
X3791Y2244D01*
X3708Y2243D02*
X3791Y2243D01*
X3708Y2242D02*
X3791Y2242D01*
X3708Y2241D02*
X3791Y2241D01*
X3708Y2240D02*
X3791Y2240D01*
X3708Y2239D02*
X3791Y2239D01*
X3708Y2238D02*
X3791Y2238D01*
X3708Y2237D02*
X3791Y2237D01*
X3708Y2236D02*
X3791Y2236D01*
X3708Y2235D02*
X3791Y2235D01*
X3708Y2234D02*
X3791Y2234D01*
X3708Y2233D02*
X3791Y2233D01*
X3708Y2232D02*
X3791Y2232D01*
X3708Y2231D02*
X3791Y2231D01*
X3708Y2230D02*
X3791Y2230D01*
X3708Y2229D02*
X3791Y2229D01*
X3708Y2228D02*
X3791Y2228D01*
X3708Y2227D02*
X3791Y2227D01*
X3708Y2226D02*
X3791Y2226D01*
X3708Y2225D02*
X3791Y2225D01*
X3708Y2224D02*
X3791Y2224D01*
X3708Y2223D02*
X3791Y2223D01*
X3708Y2222D02*
X3791Y2222D01*
X3708Y2221D02*
X3791Y2221D01*
X3708Y2220D02*
X3748Y2220D01*
X3751Y2220D02*
X3791Y2220D01*
X3708Y2219D02*
X3743Y2219D01*
X3756Y2219D02*
X3791Y2219D01*
X3708Y2218D02*
X3741Y2218D01*
X3758Y2218D02*
X3791Y2218D01*
X3708Y2217D02*
X3740Y2217D01*
X3759Y2217D02*
X3791Y2217D01*
X3708Y2216D02*
X3739Y2216D01*
X3760Y2216D02*
X3791Y2216D01*
X3708Y2215D02*
X3738Y2215D01*
X3761Y2215D02*
X3791Y2215D01*
X3708Y2214D02*
X3737Y2214D01*
X3762Y2214D02*
X3791Y2214D01*
X3708Y2213D02*
X3736Y2213D01*
X3763Y2213D02*
X3791Y2213D01*
X3708Y2212D02*
X3736Y2212D01*
X3763Y2212D02*
X3791Y2212D01*
X3708Y2211D02*
X3735Y2211D01*
X3764Y2211D02*
X3791Y2211D01*
X3708Y2210D02*
X3735Y2210D01*
X3764Y2210D02*
X3791Y2210D01*
X3708Y2209D02*
X3735Y2209D01*
X3764Y2209D02*
X3791Y2209D01*
X3708Y2208D02*
X3735Y2208D01*
X3764Y2208D02*
X3791Y2208D01*
X3708Y2207D02*
X3734Y2207D01*
X3765Y2207D02*
X3791Y2207D01*
X3708Y2206D02*
X3734Y2206D01*
X3765Y2206D02*
X3791Y2206D01*
X3708Y2205D02*
X3734Y2205D01*
X3765Y2205D02*
X3791Y2205D01*
X3708Y2204D02*
X3734Y2204D01*
X3765Y2204D02*
X3791Y2204D01*
X3708Y2203D02*
X3735Y2203D01*
X3764Y2203D02*
X3791Y2203D01*
X3708Y2202D02*
X3735Y2202D01*
X3764Y2202D02*
X3791Y2202D01*
X3708Y2201D02*
X3735Y2201D01*
X3764Y2201D02*
X3791Y2201D01*
X3708Y2200D02*
X3735Y2200D01*
X3764Y2200D02*
X3791Y2200D01*
X3708Y2199D02*
X3736Y2199D01*
X3763Y2199D02*
X3791Y2199D01*
X3708Y2198D02*
X3736Y2198D01*
X3763Y2198D02*
X3791Y2198D01*
X3708Y2197D02*
X3737Y2197D01*
X3762Y2197D02*
X3791Y2197D01*
X3708Y2196D02*
X3738Y2196D01*
X3761Y2196D02*
X3791Y2196D01*
X3708Y2195D02*
X3739Y2195D01*
X3760Y2195D02*
X3791Y2195D01*
X3708Y2194D02*
X3740Y2194D01*
X3759Y2194D02*
X3791Y2194D01*
X3708Y2193D02*
X3741Y2193D01*
X3758Y2193D02*
X3791Y2193D01*
X3708Y2192D02*
X3743Y2192D01*
X3756Y2192D02*
X3791Y2192D01*
X3708Y2191D02*
X3746Y2191D01*
X3753Y2191D02*
X3791Y2191D01*
X3708Y2190D02*
X3791Y2190D01*
X3708Y2189D02*
X3791Y2189D01*
X3708Y2188D02*
X3791Y2188D01*
X3708Y2187D02*
X3791Y2187D01*
X3708Y2186D02*
X3791Y2186D01*
X3708Y2185D02*
X3791Y2185D01*
X3708Y2184D02*
X3791Y2184D01*
X3708Y2183D02*
X3791Y2183D01*
X3708Y2182D02*
X3791Y2182D01*
X3708Y2181D02*
X3791Y2181D01*
X3708Y2180D02*
X3791Y2180D01*
X3708Y2179D02*
X3791Y2179D01*
X3708Y2178D02*
X3791Y2178D01*
X3708Y2177D02*
X3791Y2177D01*
X3708Y2176D02*
X3791Y2176D01*
X3708Y2175D02*
X3791Y2175D01*
X3708Y2174D02*
X3791Y2174D01*
X3708Y2173D02*
X3791Y2173D01*
X3708Y2172D02*
X3791Y2172D01*
X3708Y2171D02*
X3791Y2171D01*
X3708Y2170D02*
X3791Y2170D01*
X3708Y2169D02*
X3791Y2169D01*
X3708Y2168D02*
X3791Y2168D01*
X3708Y2167D02*
X3791Y2167D01*
X3708Y2166D02*
X3791Y2166D01*
X3708Y2165D02*
X3791Y2165D01*
X3708Y2164D02*
X3791Y2164D01*
X266Y1275D02*
X276Y1275D01*
X745Y1275D02*
X754Y1275D01*
X1166Y1275D02*
X1176Y1275D01*
X1645Y1275D02*
X1654Y1275D01*
X2066Y1275D02*
X2076Y1275D01*
X2545Y1275D02*
X2554Y1275D01*
X2966Y1275D02*
X2976Y1275D01*
X3445Y1275D02*
X3454Y1275D01*
X259Y1274D02*
X283Y1274D01*
X737Y1274D02*
X762Y1274D01*
X1159Y1274D02*
X1183Y1274D01*
X1637Y1274D02*
X1662Y1274D01*
X2059Y1274D02*
X2083Y1274D01*
X2537Y1274D02*
X2562Y1274D01*
X2959Y1274D02*
X2983Y1274D01*
X3437Y1274D02*
X3462Y1274D01*
X255Y1273D02*
X288Y1273D01*
X733Y1273D02*
X766Y1273D01*
X1155Y1273D02*
X1188Y1273D01*
X1633Y1273D02*
X1666Y1273D01*
X2055Y1273D02*
X2088Y1273D01*
X2533Y1273D02*
X2566Y1273D01*
X2955Y1273D02*
X2988Y1273D01*
X3433Y1273D02*
X3466Y1273D01*
X251Y1272D02*
X292Y1272D01*
X729Y1272D02*
X770Y1272D01*
X1151Y1272D02*
X1192Y1272D01*
X1629Y1272D02*
X1670Y1272D01*
X2051Y1272D02*
X2092Y1272D01*
X2529Y1272D02*
X2570Y1272D01*
X2951Y1272D02*
X2992Y1272D01*
X3429Y1272D02*
X3470Y1272D01*
X248Y1271D02*
X294Y1271D01*
X726Y1271D02*
X773Y1271D01*
X1148Y1271D02*
X1194Y1271D01*
X1626Y1271D02*
X1673Y1271D01*
X2048Y1271D02*
X2094Y1271D01*
X2526Y1271D02*
X2573Y1271D01*
X2948Y1271D02*
X2994Y1271D01*
X3426Y1271D02*
X3473Y1271D01*
X245Y1270D02*
X297Y1270D01*
X723Y1270D02*
X776Y1270D01*
X1145Y1270D02*
X1197Y1270D01*
X1623Y1270D02*
X1676Y1270D01*
X2045Y1270D02*
X2097Y1270D01*
X2523Y1270D02*
X2576Y1270D01*
X2945Y1270D02*
X2997Y1270D01*
X3423Y1270D02*
X3476Y1270D01*
X243Y1269D02*
X300Y1269D01*
X721Y1269D02*
X778Y1269D01*
X1143Y1269D02*
X1199Y1269D01*
X1621Y1269D02*
X1678Y1269D01*
X2043Y1269D02*
X2099Y1269D01*
X2521Y1269D02*
X2578Y1269D01*
X2943Y1269D02*
X2999Y1269D01*
X3421Y1269D02*
X3478Y1269D01*
X241Y1268D02*
X302Y1268D01*
X719Y1268D02*
X780Y1268D01*
X1141Y1268D02*
X1202Y1268D01*
X1619Y1268D02*
X1680Y1268D01*
X2041Y1268D02*
X2102Y1268D01*
X2519Y1268D02*
X2580Y1268D01*
X2941Y1268D02*
X3002Y1268D01*
X3419Y1268D02*
X3480Y1268D01*
X239Y1267D02*
X304Y1267D01*
X717Y1267D02*
X782Y1267D01*
X1139Y1267D02*
X1204Y1267D01*
X1617Y1267D02*
X1682Y1267D01*
X2039Y1267D02*
X2104Y1267D01*
X2517Y1267D02*
X2582Y1267D01*
X2939Y1267D02*
X3004Y1267D01*
X3417Y1267D02*
X3482Y1267D01*
X237Y1266D02*
X305Y1266D01*
X715Y1266D02*
X784Y1266D01*
X1137Y1266D02*
X1205Y1266D01*
X1615Y1266D02*
X1684Y1266D01*
X2037Y1266D02*
X2105Y1266D01*
X2515Y1266D02*
X2584Y1266D01*
X2937Y1266D02*
X3005Y1266D01*
X3415Y1266D02*
X3484Y1266D01*
X235Y1265D02*
X307Y1265D01*
X714Y1265D02*
X785Y1265D01*
X1135Y1265D02*
X1207Y1265D01*
X1614Y1265D02*
X1685Y1265D01*
X2035Y1265D02*
X2107Y1265D01*
X2514Y1265D02*
X2585Y1265D01*
X2935Y1265D02*
X3007Y1265D01*
X3414Y1265D02*
X3485Y1265D01*
X234Y1264D02*
X308Y1264D01*
X712Y1264D02*
X787Y1264D01*
X1134Y1264D02*
X1208Y1264D01*
X1612Y1264D02*
X1687Y1264D01*
X2034Y1264D02*
X2108Y1264D01*
X2512Y1264D02*
X2587Y1264D01*
X2934Y1264D02*
X3008Y1264D01*
X3412Y1264D02*
X3487Y1264D01*
X232Y1263D02*
X310Y1263D01*
X711Y1263D02*
X788Y1263D01*
X1132Y1263D02*
X1210Y1263D01*
X1611Y1263D02*
X1688Y1263D01*
X2032Y1263D02*
X2110Y1263D01*
X2511Y1263D02*
X2588Y1263D01*
X2932Y1263D02*
X3010Y1263D01*
X3411Y1263D02*
X3488Y1263D01*
X231Y1262D02*
X311Y1262D01*
X709Y1262D02*
X790Y1262D01*
X1131Y1262D02*
X1211Y1262D01*
X1609Y1262D02*
X1690Y1262D01*
X2031Y1262D02*
X2111Y1262D01*
X2509Y1262D02*
X2590Y1262D01*
X2931Y1262D02*
X3011Y1262D01*
X3409Y1262D02*
X3490Y1262D01*
X230Y1261D02*
X313Y1261D01*
X708Y1261D02*
X791Y1261D01*
X1130Y1261D02*
X1213Y1261D01*
X1608Y1261D02*
X1691Y1261D01*
X2030Y1261D02*
X2113Y1261D01*
X2508Y1261D02*
X2591Y1261D01*
X2930Y1261D02*
X3013Y1261D01*
X3408Y1261D02*
X3491Y1261D01*
X228Y1260D02*
X314Y1260D01*
X707Y1260D02*
X792Y1260D01*
X1128Y1260D02*
X1214Y1260D01*
X1607Y1260D02*
X1692Y1260D01*
X2028Y1260D02*
X2114Y1260D01*
X2507Y1260D02*
X2592Y1260D01*
X2928Y1260D02*
X3014Y1260D01*
X3407Y1260D02*
X3492Y1260D01*
X227Y1259D02*
X315Y1259D01*
X705Y1259D02*
X794Y1259D01*
X1127Y1259D02*
X1215Y1259D01*
X1605Y1259D02*
X1694Y1259D01*
X2027Y1259D02*
X2115Y1259D01*
X2505Y1259D02*
X2594Y1259D01*
X2927Y1259D02*
X3015Y1259D01*
X3405Y1259D02*
X3494Y1259D01*
X226Y1258D02*
X317Y1258D01*
X704Y1258D02*
X795Y1258D01*
X1126Y1258D02*
X1217Y1258D01*
X1604Y1258D02*
X1695Y1258D01*
X2026Y1258D02*
X2117Y1258D01*
X2504Y1258D02*
X2595Y1258D01*
X2926Y1258D02*
X3017Y1258D01*
X3404Y1258D02*
X3495Y1258D01*
X225Y1257D02*
X318Y1257D01*
X703Y1257D02*
X796Y1257D01*
X1125Y1257D02*
X1218Y1257D01*
X1603Y1257D02*
X1696Y1257D01*
X2025Y1257D02*
X2118Y1257D01*
X2503Y1257D02*
X2596Y1257D01*
X2925Y1257D02*
X3018Y1257D01*
X3403Y1257D02*
X3496Y1257D01*
X224Y1256D02*
X319Y1256D01*
X702Y1256D02*
X797Y1256D01*
X1124Y1256D02*
X1219Y1256D01*
X1602Y1256D02*
X1697Y1256D01*
X2024Y1256D02*
X2119Y1256D01*
X2502Y1256D02*
X2597Y1256D01*
X2924Y1256D02*
X3019Y1256D01*
X3402Y1256D02*
X3497Y1256D01*
X222Y1255D02*
X320Y1255D01*
X701Y1255D02*
X798Y1255D01*
X1122Y1255D02*
X1220Y1255D01*
X1601Y1255D02*
X1698Y1255D01*
X2022Y1255D02*
X2120Y1255D01*
X2501Y1255D02*
X2598Y1255D01*
X2922Y1255D02*
X3020Y1255D01*
X3401Y1255D02*
X3498Y1255D01*
X221Y1254D02*
X321Y1254D01*
X700Y1254D02*
X799Y1254D01*
X1121Y1254D02*
X1221Y1254D01*
X1600Y1254D02*
X1699Y1254D01*
X2021Y1254D02*
X2121Y1254D01*
X2500Y1254D02*
X2599Y1254D01*
X2921Y1254D02*
X3021Y1254D01*
X3400Y1254D02*
X3499Y1254D01*
X221Y1253D02*
X322Y1253D01*
X699Y1253D02*
X800Y1253D01*
X1121Y1253D02*
X1222Y1253D01*
X1599Y1253D02*
X1700Y1253D01*
X2021Y1253D02*
X2122Y1253D01*
X2499Y1253D02*
X2600Y1253D01*
X2921Y1253D02*
X3022Y1253D01*
X3399Y1253D02*
X3500Y1253D01*
X220Y1252D02*
X323Y1252D01*
X698Y1252D02*
X801Y1252D01*
X1120Y1252D02*
X1223Y1252D01*
X1598Y1252D02*
X1701Y1252D01*
X2020Y1252D02*
X2123Y1252D01*
X2498Y1252D02*
X2601Y1252D01*
X2920Y1252D02*
X3023Y1252D01*
X3398Y1252D02*
X3501Y1252D01*
X219Y1251D02*
X324Y1251D01*
X697Y1251D02*
X802Y1251D01*
X1119Y1251D02*
X1224Y1251D01*
X1597Y1251D02*
X1702Y1251D01*
X2019Y1251D02*
X2124Y1251D01*
X2497Y1251D02*
X2602Y1251D01*
X2919Y1251D02*
X3024Y1251D01*
X3397Y1251D02*
X3502Y1251D01*
X218Y1250D02*
X324Y1250D01*
X696Y1250D02*
X803Y1250D01*
X1118Y1250D02*
X1224Y1250D01*
X1596Y1250D02*
X1703Y1250D01*
X2018Y1250D02*
X2124Y1250D01*
X2496Y1250D02*
X2603Y1250D01*
X2918Y1250D02*
X3024Y1250D01*
X3396Y1250D02*
X3503Y1250D01*
X217Y1249D02*
X325Y1249D01*
X695Y1249D02*
X804Y1249D01*
X1117Y1249D02*
X1225Y1249D01*
X1595Y1249D02*
X1703Y1249D01*
X2017Y1249D02*
X2125Y1249D01*
X2495Y1249D02*
X2603Y1249D01*
X2917Y1249D02*
X3025Y1249D01*
X3395Y1249D02*
X3503Y1249D01*
X216Y1248D02*
X326Y1248D01*
X695Y1248D02*
X804Y1248D01*
X1116Y1248D02*
X1226Y1248D01*
X1595Y1248D02*
X1704Y1248D01*
X2016Y1248D02*
X2126Y1248D01*
X2495Y1248D02*
X2604Y1248D01*
X2916Y1248D02*
X3026Y1248D01*
X3395Y1248D02*
X3504Y1248D01*
X216Y1247D02*
X327Y1247D01*
X694Y1247D02*
X805Y1247D01*
X1116Y1247D02*
X1227Y1247D01*
X1594Y1247D02*
X1705Y1247D01*
X2016Y1247D02*
X2127Y1247D01*
X2494Y1247D02*
X2605Y1247D01*
X2916Y1247D02*
X3027Y1247D01*
X3394Y1247D02*
X3505Y1247D01*
X215Y1246D02*
X327Y1246D01*
X693Y1246D02*
X806Y1246D01*
X1115Y1246D02*
X1227Y1246D01*
X1593Y1246D02*
X1706Y1246D01*
X2015Y1246D02*
X2127Y1246D01*
X2493Y1246D02*
X2606Y1246D01*
X2915Y1246D02*
X3027Y1246D01*
X3393Y1246D02*
X3506Y1246D01*
X214Y1245D02*
X328Y1245D01*
X693Y1245D02*
X806Y1245D01*
X1114Y1245D02*
X1228Y1245D01*
X1593Y1245D02*
X1706Y1245D01*
X2014Y1245D02*
X2128Y1245D01*
X2493Y1245D02*
X2606Y1245D01*
X2914Y1245D02*
X3028Y1245D01*
X3393Y1245D02*
X3506Y1245D01*
X213Y1244D02*
X329Y1244D01*
X692Y1244D02*
X807Y1244D01*
X1113Y1244D02*
X1229Y1244D01*
X1592Y1244D02*
X1707Y1244D01*
X2013Y1244D02*
X2129Y1244D01*
X2492Y1244D02*
X2607Y1244D01*
X2913Y1244D02*
X3029Y1244D01*
X3392Y1244D02*
X3507Y1244D01*
X213Y1243D02*
X329Y1243D01*
X691Y1243D02*
X808Y1243D01*
X1113Y1243D02*
X1229Y1243D01*
X1591Y1243D02*
X1708Y1243D01*
X2013Y1243D02*
X2129Y1243D01*
X2491Y1243D02*
X2608Y1243D01*
X2913Y1243D02*
X3029Y1243D01*
X3391Y1243D02*
X3508Y1243D01*
X212Y1242D02*
X330Y1242D01*
X691Y1242D02*
X808Y1242D01*
X1112Y1242D02*
X1230Y1242D01*
X1591Y1242D02*
X1708Y1242D01*
X2012Y1242D02*
X2130Y1242D01*
X2491Y1242D02*
X2608Y1242D01*
X2912Y1242D02*
X3030Y1242D01*
X3391Y1242D02*
X3508Y1242D01*
X212Y1241D02*
X331Y1241D01*
X690Y1241D02*
X809Y1241D01*
X1112Y1241D02*
X1231Y1241D01*
X1590Y1241D02*
X1709Y1241D01*
X2012Y1241D02*
X2131Y1241D01*
X2490Y1241D02*
X2609Y1241D01*
X2912Y1241D02*
X3031Y1241D01*
X3390Y1241D02*
X3509Y1241D01*
X211Y1240D02*
X331Y1240D01*
X689Y1240D02*
X810Y1240D01*
X1111Y1240D02*
X1231Y1240D01*
X1589Y1240D02*
X1710Y1240D01*
X2011Y1240D02*
X2131Y1240D01*
X2489Y1240D02*
X2610Y1240D01*
X2911Y1240D02*
X3031Y1240D01*
X3389Y1240D02*
X3510Y1240D01*
X210Y1239D02*
X332Y1239D01*
X689Y1239D02*
X810Y1239D01*
X1110Y1239D02*
X1232Y1239D01*
X1589Y1239D02*
X1710Y1239D01*
X2010Y1239D02*
X2132Y1239D01*
X2489Y1239D02*
X2610Y1239D01*
X2910Y1239D02*
X3032Y1239D01*
X3389Y1239D02*
X3510Y1239D01*
X210Y1238D02*
X332Y1238D01*
X688Y1238D02*
X811Y1238D01*
X1110Y1238D02*
X1232Y1238D01*
X1588Y1238D02*
X1711Y1238D01*
X2010Y1238D02*
X2132Y1238D01*
X2488Y1238D02*
X2611Y1238D01*
X2910Y1238D02*
X3032Y1238D01*
X3388Y1238D02*
X3511Y1238D01*
X209Y1237D02*
X333Y1237D01*
X688Y1237D02*
X811Y1237D01*
X1109Y1237D02*
X1233Y1237D01*
X1588Y1237D02*
X1711Y1237D01*
X2009Y1237D02*
X2133Y1237D01*
X2488Y1237D02*
X2611Y1237D01*
X2909Y1237D02*
X3033Y1237D01*
X3388Y1237D02*
X3511Y1237D01*
X209Y1236D02*
X333Y1236D01*
X687Y1236D02*
X812Y1236D01*
X1109Y1236D02*
X1233Y1236D01*
X1587Y1236D02*
X1712Y1236D01*
X2009Y1236D02*
X2133Y1236D01*
X2487Y1236D02*
X2612Y1236D01*
X2909Y1236D02*
X3033Y1236D01*
X3387Y1236D02*
X3512Y1236D01*
X208Y1235D02*
X334Y1235D01*
X687Y1235D02*
X812Y1235D01*
X1108Y1235D02*
X1234Y1235D01*
X1587Y1235D02*
X1712Y1235D01*
X2008Y1235D02*
X2134Y1235D01*
X2487Y1235D02*
X2612Y1235D01*
X2908Y1235D02*
X3034Y1235D01*
X3387Y1235D02*
X3512Y1235D01*
X208Y1234D02*
X334Y1234D01*
X686Y1234D02*
X813Y1234D01*
X1108Y1234D02*
X1234Y1234D01*
X1586Y1234D02*
X1713Y1234D01*
X2008Y1234D02*
X2134Y1234D01*
X2486Y1234D02*
X2613Y1234D01*
X2908Y1234D02*
X3034Y1234D01*
X3386Y1234D02*
X3513Y1234D01*
X207Y1233D02*
X335Y1233D01*
X686Y1233D02*
X813Y1233D01*
X1107Y1233D02*
X1235Y1233D01*
X1586Y1233D02*
X1713Y1233D01*
X2007Y1233D02*
X2135Y1233D01*
X2486Y1233D02*
X2613Y1233D01*
X2907Y1233D02*
X3035Y1233D01*
X3386Y1233D02*
X3513Y1233D01*
X207Y1232D02*
X335Y1232D01*
X685Y1232D02*
X814Y1232D01*
X1107Y1232D02*
X1235Y1232D01*
X1585Y1232D02*
X1714Y1232D01*
X2007Y1232D02*
X2135Y1232D01*
X2485Y1232D02*
X2614Y1232D01*
X2907Y1232D02*
X3035Y1232D01*
X3385Y1232D02*
X3514Y1232D01*
X207Y1231D02*
X336Y1231D01*
X685Y1231D02*
X814Y1231D01*
X1107Y1231D02*
X1236Y1231D01*
X1585Y1231D02*
X1714Y1231D01*
X2007Y1231D02*
X2136Y1231D01*
X2485Y1231D02*
X2614Y1231D01*
X2907Y1231D02*
X3036Y1231D01*
X3385Y1231D02*
X3514Y1231D01*
X206Y1230D02*
X336Y1230D01*
X685Y1230D02*
X814Y1230D01*
X1106Y1230D02*
X1236Y1230D01*
X1585Y1230D02*
X1714Y1230D01*
X2006Y1230D02*
X2136Y1230D01*
X2485Y1230D02*
X2614Y1230D01*
X2906Y1230D02*
X3036Y1230D01*
X3385Y1230D02*
X3514Y1230D01*
X206Y1229D02*
X336Y1229D01*
X684Y1229D02*
X815Y1229D01*
X1106Y1229D02*
X1236Y1229D01*
X1584Y1229D02*
X1715Y1229D01*
X2006Y1229D02*
X2136Y1229D01*
X2484Y1229D02*
X2615Y1229D01*
X2906Y1229D02*
X3036Y1229D01*
X3384Y1229D02*
X3515Y1229D01*
X206Y1228D02*
X337Y1228D01*
X684Y1228D02*
X815Y1228D01*
X1106Y1228D02*
X1237Y1228D01*
X1584Y1228D02*
X1715Y1228D01*
X2006Y1228D02*
X2137Y1228D01*
X2484Y1228D02*
X2615Y1228D01*
X2906Y1228D02*
X3037Y1228D01*
X3384Y1228D02*
X3515Y1228D01*
X205Y1227D02*
X337Y1227D01*
X684Y1227D02*
X815Y1227D01*
X1105Y1227D02*
X1237Y1227D01*
X1584Y1227D02*
X1715Y1227D01*
X2005Y1227D02*
X2137Y1227D01*
X2484Y1227D02*
X2615Y1227D01*
X2905Y1227D02*
X3037Y1227D01*
X3384Y1227D02*
X3515Y1227D01*
X205Y1226D02*
X337Y1226D01*
X683Y1226D02*
X816Y1226D01*
X1105Y1226D02*
X1237Y1226D01*
X1583Y1226D02*
X1716Y1226D01*
X2005Y1226D02*
X2137Y1226D01*
X2483Y1226D02*
X2616Y1226D01*
X2905Y1226D02*
X3037Y1226D01*
X3383Y1226D02*
X3516Y1226D01*
X205Y1225D02*
X338Y1225D01*
X683Y1225D02*
X816Y1225D01*
X1105Y1225D02*
X1238Y1225D01*
X1583Y1225D02*
X1716Y1225D01*
X2005Y1225D02*
X2138Y1225D01*
X2483Y1225D02*
X2616Y1225D01*
X2905Y1225D02*
X3038Y1225D01*
X3383Y1225D02*
X3516Y1225D01*
X204Y1224D02*
X338Y1224D01*
X683Y1224D02*
X816Y1224D01*
X1104Y1224D02*
X1238Y1224D01*
X1583Y1224D02*
X1716Y1224D01*
X2004Y1224D02*
X2138Y1224D01*
X2483Y1224D02*
X2616Y1224D01*
X2904Y1224D02*
X3038Y1224D01*
X3383Y1224D02*
X3516Y1224D01*
X204Y1223D02*
X338Y1223D01*
X682Y1223D02*
X817Y1223D01*
X1104Y1223D02*
X1238Y1223D01*
X1582Y1223D02*
X1716Y1223D01*
X2004Y1223D02*
X2138Y1223D01*
X2482Y1223D02*
X2616Y1223D01*
X2904Y1223D02*
X3038Y1223D01*
X3382Y1223D02*
X3516Y1223D01*
X204Y1222D02*
X338Y1222D01*
X682Y1222D02*
X817Y1222D01*
X1104Y1222D02*
X1238Y1222D01*
X1582Y1222D02*
X1717Y1222D01*
X2004Y1222D02*
X2138Y1222D01*
X2482Y1222D02*
X2617Y1222D01*
X2904Y1222D02*
X3038Y1222D01*
X3382Y1222D02*
X3517Y1222D01*
X204Y1221D02*
X339Y1221D01*
X682Y1221D02*
X817Y1221D01*
X1104Y1221D02*
X1239Y1221D01*
X1582Y1221D02*
X1717Y1221D01*
X2004Y1221D02*
X2139Y1221D01*
X2482Y1221D02*
X2617Y1221D01*
X2904Y1221D02*
X3039Y1221D01*
X3382Y1221D02*
X3517Y1221D01*
X203Y1220D02*
X339Y1220D01*
X682Y1220D02*
X817Y1220D01*
X1103Y1220D02*
X1239Y1220D01*
X1582Y1220D02*
X1717Y1220D01*
X2003Y1220D02*
X2139Y1220D01*
X2482Y1220D02*
X2617Y1220D01*
X2903Y1220D02*
X3039Y1220D01*
X3382Y1220D02*
X3517Y1220D01*
X203Y1219D02*
X339Y1219D01*
X682Y1219D02*
X817Y1219D01*
X1103Y1219D02*
X1239Y1219D01*
X1582Y1219D02*
X1717Y1219D01*
X2003Y1219D02*
X2139Y1219D01*
X2482Y1219D02*
X2617Y1219D01*
X2903Y1219D02*
X3039Y1219D01*
X3382Y1219D02*
X3517Y1219D01*
X203Y1218D02*
X339Y1218D01*
X681Y1218D02*
X818Y1218D01*
X1103Y1218D02*
X1239Y1218D01*
X1581Y1218D02*
X1718Y1218D01*
X2003Y1218D02*
X2139Y1218D01*
X2481Y1218D02*
X2618Y1218D01*
X2903Y1218D02*
X3039Y1218D01*
X3381Y1218D02*
X3518Y1218D01*
X203Y1217D02*
X339Y1217D01*
X681Y1217D02*
X818Y1217D01*
X1103Y1217D02*
X1239Y1217D01*
X1581Y1217D02*
X1718Y1217D01*
X2003Y1217D02*
X2139Y1217D01*
X2481Y1217D02*
X2618Y1217D01*
X2903Y1217D02*
X3039Y1217D01*
X3381Y1217D02*
X3518Y1217D01*
X203Y1216D02*
X340Y1216D01*
X681Y1216D02*
X818Y1216D01*
X1103Y1216D02*
X1240Y1216D01*
X1581Y1216D02*
X1718Y1216D01*
X2003Y1216D02*
X2140Y1216D01*
X2481Y1216D02*
X2618Y1216D01*
X2903Y1216D02*
X3040Y1216D01*
X3381Y1216D02*
X3518Y1216D01*
X203Y1215D02*
X340Y1215D01*
X681Y1215D02*
X818Y1215D01*
X1103Y1215D02*
X1240Y1215D01*
X1581Y1215D02*
X1718Y1215D01*
X2003Y1215D02*
X2140Y1215D01*
X2481Y1215D02*
X2618Y1215D01*
X2903Y1215D02*
X3040Y1215D01*
X3381Y1215D02*
X3518Y1215D01*
X202Y1214D02*
X340Y1214D01*
X681Y1214D02*
X818Y1214D01*
X1102Y1214D02*
X1240Y1214D01*
X1581Y1214D02*
X1718Y1214D01*
X2002Y1214D02*
X2140Y1214D01*
X2481Y1214D02*
X2618Y1214D01*
X2902Y1214D02*
X3040Y1214D01*
X3381Y1214D02*
X3518Y1214D01*
X202Y1213D02*
X340Y1213D01*
X681Y1213D02*
X818Y1213D01*
X1102Y1213D02*
X1240Y1213D01*
X1581Y1213D02*
X1718Y1213D01*
X2002Y1213D02*
X2140Y1213D01*
X2481Y1213D02*
X2618Y1213D01*
X2902Y1213D02*
X3040Y1213D01*
X3381Y1213D02*
X3518Y1213D01*
X202Y1212D02*
X340Y1212D01*
X680Y1212D02*
X819Y1212D01*
X1102Y1212D02*
X1240Y1212D01*
X1580Y1212D02*
X1719Y1212D01*
X2002Y1212D02*
X2140Y1212D01*
X2480Y1212D02*
X2619Y1212D01*
X2902Y1212D02*
X3040Y1212D01*
X3380Y1212D02*
X3519Y1212D01*
X202Y1211D02*
X340Y1211D01*
X680Y1211D02*
X819Y1211D01*
X1102Y1211D02*
X1240Y1211D01*
X1580Y1211D02*
X1719Y1211D01*
X2002Y1211D02*
X2140Y1211D01*
X2480Y1211D02*
X2619Y1211D01*
X2902Y1211D02*
X3040Y1211D01*
X3380Y1211D02*
X3519Y1211D01*
X202Y1210D02*
X340Y1210D01*
X680Y1210D02*
X819Y1210D01*
X1102Y1210D02*
X1240Y1210D01*
X1580Y1210D02*
X1719Y1210D01*
X2002Y1210D02*
X2140Y1210D01*
X2480Y1210D02*
X2619Y1210D01*
X2902Y1210D02*
X3040Y1210D01*
X3380Y1210D02*
X3519Y1210D01*
X202Y1209D02*
X340Y1209D01*
X680Y1209D02*
X819Y1209D01*
X1102Y1209D02*
X1240Y1209D01*
X1580Y1209D02*
X1719Y1209D01*
X2002Y1209D02*
X2140Y1209D01*
X2480Y1209D02*
X2619Y1209D01*
X2902Y1209D02*
X3040Y1209D01*
X3380Y1209D02*
X3519Y1209D01*
X202Y1208D02*
X340Y1208D01*
X680Y1208D02*
X819Y1208D01*
X1102Y1208D02*
X1240Y1208D01*
X1580Y1208D02*
X1719Y1208D01*
X2002Y1208D02*
X2140Y1208D01*
X2480Y1208D02*
X2619Y1208D01*
X2902Y1208D02*
X3040Y1208D01*
X3380Y1208D02*
X3519Y1208D01*
X202Y1207D02*
X341Y1207D01*
X680Y1207D02*
X819Y1207D01*
X1102Y1207D02*
X1241Y1207D01*
X1580Y1207D02*
X1719Y1207D01*
X2002Y1207D02*
X2141Y1207D01*
X2480Y1207D02*
X2619Y1207D01*
X2902Y1207D02*
X3040Y1207D01*
X3380Y1207D02*
X3519Y1207D01*
X202Y1206D02*
X341Y1206D01*
X680Y1206D02*
X819Y1206D01*
X1102Y1206D02*
X1241Y1206D01*
X1580Y1206D02*
X1719Y1206D01*
X2002Y1206D02*
X2141Y1206D01*
X2480Y1206D02*
X2619Y1206D01*
X2902Y1206D02*
X3041Y1206D01*
X3380Y1206D02*
X3519Y1206D01*
X202Y1205D02*
X341Y1205D01*
X680Y1205D02*
X819Y1205D01*
X1102Y1205D02*
X1241Y1205D01*
X1580Y1205D02*
X1719Y1205D01*
X2002Y1205D02*
X2141Y1205D01*
X2480Y1205D02*
X2619Y1205D01*
X2902Y1205D02*
X3041Y1205D01*
X3380Y1205D02*
X3519Y1205D01*
X202Y1204D02*
X341Y1204D01*
X680Y1204D02*
X819Y1204D01*
X1102Y1204D02*
X1241Y1204D01*
X1580Y1204D02*
X1719Y1204D01*
X2002Y1204D02*
X2141Y1204D01*
X2480Y1204D02*
X2619Y1204D01*
X2902Y1204D02*
X3041Y1204D01*
X3380Y1204D02*
X3519Y1204D01*
X202Y1203D02*
X340Y1203D01*
X680Y1203D02*
X819Y1203D01*
X1102Y1203D02*
X1240Y1203D01*
X1580Y1203D02*
X1719Y1203D01*
X2002Y1203D02*
X2140Y1203D01*
X2480Y1203D02*
X2619Y1203D01*
X2902Y1203D02*
X3040Y1203D01*
X3380Y1203D02*
X3519Y1203D01*
X202Y1202D02*
X340Y1202D01*
X680Y1202D02*
X819Y1202D01*
X1102Y1202D02*
X1240Y1202D01*
X1580Y1202D02*
X1719Y1202D01*
X2002Y1202D02*
X2140Y1202D01*
X2480Y1202D02*
X2619Y1202D01*
X2902Y1202D02*
X3040Y1202D01*
X3380Y1202D02*
X3519Y1202D01*
X202Y1201D02*
X340Y1201D01*
X680Y1201D02*
X819Y1201D01*
X1102Y1201D02*
X1240Y1201D01*
X1580Y1201D02*
X1719Y1201D01*
X2002Y1201D02*
X2140Y1201D01*
X2480Y1201D02*
X2619Y1201D01*
X2902Y1201D02*
X3040Y1201D01*
X3380Y1201D02*
X3519Y1201D01*
X202Y1200D02*
X340Y1200D01*
X680Y1200D02*
X819Y1200D01*
X1102Y1200D02*
X1240Y1200D01*
X1580Y1200D02*
X1719Y1200D01*
X2002Y1200D02*
X2140Y1200D01*
X2480Y1200D02*
X2619Y1200D01*
X2902Y1200D02*
X3040Y1200D01*
X3380Y1200D02*
X3519Y1200D01*
X202Y1199D02*
X340Y1199D01*
X680Y1199D02*
X819Y1199D01*
X1102Y1199D02*
X1240Y1199D01*
X1580Y1199D02*
X1719Y1199D01*
X2002Y1199D02*
X2140Y1199D01*
X2480Y1199D02*
X2619Y1199D01*
X2902Y1199D02*
X3040Y1199D01*
X3380Y1199D02*
X3519Y1199D01*
X202Y1198D02*
X340Y1198D01*
X681Y1198D02*
X818Y1198D01*
X1102Y1198D02*
X1240Y1198D01*
X1581Y1198D02*
X1718Y1198D01*
X2002Y1198D02*
X2140Y1198D01*
X2481Y1198D02*
X2618Y1198D01*
X2902Y1198D02*
X3040Y1198D01*
X3381Y1198D02*
X3518Y1198D01*
X202Y1197D02*
X340Y1197D01*
X681Y1197D02*
X818Y1197D01*
X1102Y1197D02*
X1240Y1197D01*
X1581Y1197D02*
X1718Y1197D01*
X2002Y1197D02*
X2140Y1197D01*
X2481Y1197D02*
X2618Y1197D01*
X2902Y1197D02*
X3040Y1197D01*
X3381Y1197D02*
X3518Y1197D01*
X203Y1196D02*
X340Y1196D01*
X681Y1196D02*
X818Y1196D01*
X1102Y1196D02*
X1240Y1196D01*
X1581Y1196D02*
X1718Y1196D01*
X2002Y1196D02*
X2140Y1196D01*
X2481Y1196D02*
X2618Y1196D01*
X2902Y1196D02*
X3040Y1196D01*
X3381Y1196D02*
X3518Y1196D01*
X203Y1195D02*
X340Y1195D01*
X681Y1195D02*
X818Y1195D01*
X1103Y1195D02*
X1240Y1195D01*
X1581Y1195D02*
X1718Y1195D01*
X2003Y1195D02*
X2140Y1195D01*
X2481Y1195D02*
X2618Y1195D01*
X2903Y1195D02*
X3040Y1195D01*
X3381Y1195D02*
X3518Y1195D01*
X203Y1194D02*
X339Y1194D01*
X681Y1194D02*
X818Y1194D01*
X1103Y1194D02*
X1239Y1194D01*
X1581Y1194D02*
X1718Y1194D01*
X2003Y1194D02*
X2139Y1194D01*
X2481Y1194D02*
X2618Y1194D01*
X2903Y1194D02*
X3039Y1194D01*
X3381Y1194D02*
X3518Y1194D01*
X203Y1193D02*
X339Y1193D01*
X681Y1193D02*
X818Y1193D01*
X1103Y1193D02*
X1239Y1193D01*
X1581Y1193D02*
X1718Y1193D01*
X2003Y1193D02*
X2139Y1193D01*
X2481Y1193D02*
X2618Y1193D01*
X2903Y1193D02*
X3039Y1193D01*
X3381Y1193D02*
X3518Y1193D01*
X203Y1192D02*
X339Y1192D01*
X681Y1192D02*
X818Y1192D01*
X1103Y1192D02*
X1239Y1192D01*
X1581Y1192D02*
X1718Y1192D01*
X2003Y1192D02*
X2139Y1192D01*
X2481Y1192D02*
X2618Y1192D01*
X2903Y1192D02*
X3039Y1192D01*
X3381Y1192D02*
X3518Y1192D01*
X203Y1191D02*
X339Y1191D01*
X682Y1191D02*
X817Y1191D01*
X1103Y1191D02*
X1239Y1191D01*
X1582Y1191D02*
X1717Y1191D01*
X2003Y1191D02*
X2139Y1191D01*
X2482Y1191D02*
X2617Y1191D01*
X2903Y1191D02*
X3039Y1191D01*
X3382Y1191D02*
X3517Y1191D01*
X204Y1190D02*
X339Y1190D01*
X682Y1190D02*
X817Y1190D01*
X1104Y1190D02*
X1239Y1190D01*
X1582Y1190D02*
X1717Y1190D01*
X2004Y1190D02*
X2139Y1190D01*
X2482Y1190D02*
X2617Y1190D01*
X2904Y1190D02*
X3039Y1190D01*
X3382Y1190D02*
X3517Y1190D01*
X204Y1189D02*
X338Y1189D01*
X682Y1189D02*
X817Y1189D01*
X1104Y1189D02*
X1238Y1189D01*
X1582Y1189D02*
X1717Y1189D01*
X2004Y1189D02*
X2138Y1189D01*
X2482Y1189D02*
X2617Y1189D01*
X2904Y1189D02*
X3038Y1189D01*
X3382Y1189D02*
X3517Y1189D01*
X204Y1188D02*
X338Y1188D01*
X682Y1188D02*
X817Y1188D01*
X1104Y1188D02*
X1238Y1188D01*
X1582Y1188D02*
X1717Y1188D01*
X2004Y1188D02*
X2138Y1188D01*
X2482Y1188D02*
X2617Y1188D01*
X2904Y1188D02*
X3038Y1188D01*
X3382Y1188D02*
X3517Y1188D01*
X204Y1187D02*
X338Y1187D01*
X683Y1187D02*
X816Y1187D01*
X1104Y1187D02*
X1238Y1187D01*
X1583Y1187D02*
X1716Y1187D01*
X2004Y1187D02*
X2138Y1187D01*
X2483Y1187D02*
X2616Y1187D01*
X2904Y1187D02*
X3038Y1187D01*
X3383Y1187D02*
X3516Y1187D01*
X205Y1186D02*
X338Y1186D01*
X683Y1186D02*
X816Y1186D01*
X1105Y1186D02*
X1238Y1186D01*
X1583Y1186D02*
X1716Y1186D01*
X2005Y1186D02*
X2138Y1186D01*
X2483Y1186D02*
X2616Y1186D01*
X2905Y1186D02*
X3038Y1186D01*
X3383Y1186D02*
X3516Y1186D01*
X205Y1185D02*
X337Y1185D01*
X683Y1185D02*
X816Y1185D01*
X1105Y1185D02*
X1237Y1185D01*
X1583Y1185D02*
X1716Y1185D01*
X2005Y1185D02*
X2137Y1185D01*
X2483Y1185D02*
X2616Y1185D01*
X2905Y1185D02*
X3037Y1185D01*
X3383Y1185D02*
X3516Y1185D01*
X205Y1184D02*
X337Y1184D01*
X683Y1184D02*
X816Y1184D01*
X1105Y1184D02*
X1237Y1184D01*
X1583Y1184D02*
X1716Y1184D01*
X2005Y1184D02*
X2137Y1184D01*
X2483Y1184D02*
X2616Y1184D01*
X2905Y1184D02*
X3037Y1184D01*
X3383Y1184D02*
X3516Y1184D01*
X205Y1183D02*
X337Y1183D01*
X684Y1183D02*
X815Y1183D01*
X1105Y1183D02*
X1237Y1183D01*
X1584Y1183D02*
X1715Y1183D01*
X2005Y1183D02*
X2137Y1183D01*
X2484Y1183D02*
X2615Y1183D01*
X2905Y1183D02*
X3037Y1183D01*
X3384Y1183D02*
X3515Y1183D01*
X206Y1182D02*
X336Y1182D01*
X684Y1182D02*
X815Y1182D01*
X1106Y1182D02*
X1236Y1182D01*
X1584Y1182D02*
X1715Y1182D01*
X2006Y1182D02*
X2136Y1182D01*
X2484Y1182D02*
X2615Y1182D01*
X2906Y1182D02*
X3036Y1182D01*
X3384Y1182D02*
X3515Y1182D01*
X206Y1181D02*
X336Y1181D01*
X685Y1181D02*
X814Y1181D01*
X1106Y1181D02*
X1236Y1181D01*
X1585Y1181D02*
X1714Y1181D01*
X2006Y1181D02*
X2136Y1181D01*
X2485Y1181D02*
X2614Y1181D01*
X2906Y1181D02*
X3036Y1181D01*
X3385Y1181D02*
X3514Y1181D01*
X207Y1180D02*
X336Y1180D01*
X685Y1180D02*
X814Y1180D01*
X1107Y1180D02*
X1236Y1180D01*
X1585Y1180D02*
X1714Y1180D01*
X2007Y1180D02*
X2136Y1180D01*
X2485Y1180D02*
X2614Y1180D01*
X2907Y1180D02*
X3036Y1180D01*
X3385Y1180D02*
X3514Y1180D01*
X207Y1179D02*
X335Y1179D01*
X685Y1179D02*
X814Y1179D01*
X1107Y1179D02*
X1235Y1179D01*
X1585Y1179D02*
X1714Y1179D01*
X2007Y1179D02*
X2135Y1179D01*
X2485Y1179D02*
X2614Y1179D01*
X2907Y1179D02*
X3035Y1179D01*
X3385Y1179D02*
X3514Y1179D01*
X207Y1178D02*
X335Y1178D01*
X686Y1178D02*
X813Y1178D01*
X1107Y1178D02*
X1235Y1178D01*
X1586Y1178D02*
X1713Y1178D01*
X2007Y1178D02*
X2135Y1178D01*
X2486Y1178D02*
X2613Y1178D01*
X2907Y1178D02*
X3035Y1178D01*
X3386Y1178D02*
X3513Y1178D01*
X208Y1177D02*
X335Y1177D01*
X686Y1177D02*
X813Y1177D01*
X1108Y1177D02*
X1235Y1177D01*
X1586Y1177D02*
X1713Y1177D01*
X2008Y1177D02*
X2135Y1177D01*
X2486Y1177D02*
X2613Y1177D01*
X2908Y1177D02*
X3035Y1177D01*
X3386Y1177D02*
X3513Y1177D01*
X208Y1176D02*
X334Y1176D01*
X687Y1176D02*
X812Y1176D01*
X1108Y1176D02*
X1234Y1176D01*
X1587Y1176D02*
X1712Y1176D01*
X2008Y1176D02*
X2134Y1176D01*
X2487Y1176D02*
X2612Y1176D01*
X2908Y1176D02*
X3034Y1176D01*
X3387Y1176D02*
X3512Y1176D01*
X209Y1175D02*
X334Y1175D01*
X687Y1175D02*
X812Y1175D01*
X1109Y1175D02*
X1234Y1175D01*
X1587Y1175D02*
X1712Y1175D01*
X2009Y1175D02*
X2134Y1175D01*
X2487Y1175D02*
X2612Y1175D01*
X2909Y1175D02*
X3034Y1175D01*
X3387Y1175D02*
X3512Y1175D01*
X209Y1174D02*
X333Y1174D01*
X688Y1174D02*
X811Y1174D01*
X1109Y1174D02*
X1233Y1174D01*
X1588Y1174D02*
X1711Y1174D01*
X2009Y1174D02*
X2133Y1174D01*
X2488Y1174D02*
X2611Y1174D01*
X2909Y1174D02*
X3033Y1174D01*
X3388Y1174D02*
X3511Y1174D01*
X210Y1173D02*
X333Y1173D01*
X688Y1173D02*
X811Y1173D01*
X1110Y1173D02*
X1233Y1173D01*
X1588Y1173D02*
X1711Y1173D01*
X2010Y1173D02*
X2133Y1173D01*
X2488Y1173D02*
X2611Y1173D01*
X2910Y1173D02*
X3033Y1173D01*
X3388Y1173D02*
X3511Y1173D01*
X210Y1172D02*
X332Y1172D01*
X689Y1172D02*
X810Y1172D01*
X1110Y1172D02*
X1232Y1172D01*
X1589Y1172D02*
X1710Y1172D01*
X2010Y1172D02*
X2132Y1172D01*
X2489Y1172D02*
X2610Y1172D01*
X2910Y1172D02*
X3032Y1172D01*
X3389Y1172D02*
X3510Y1172D01*
X211Y1171D02*
X331Y1171D01*
X689Y1171D02*
X810Y1171D01*
X1111Y1171D02*
X1231Y1171D01*
X1589Y1171D02*
X1710Y1171D01*
X2011Y1171D02*
X2131Y1171D01*
X2489Y1171D02*
X2610Y1171D01*
X2911Y1171D02*
X3031Y1171D01*
X3389Y1171D02*
X3510Y1171D01*
X211Y1170D02*
X331Y1170D01*
X690Y1170D02*
X809Y1170D01*
X1111Y1170D02*
X1231Y1170D01*
X1590Y1170D02*
X1709Y1170D01*
X2011Y1170D02*
X2131Y1170D01*
X2490Y1170D02*
X2609Y1170D01*
X2911Y1170D02*
X3031Y1170D01*
X3390Y1170D02*
X3509Y1170D01*
X212Y1169D02*
X330Y1169D01*
X690Y1169D02*
X809Y1169D01*
X1112Y1169D02*
X1230Y1169D01*
X1590Y1169D02*
X1709Y1169D01*
X2012Y1169D02*
X2130Y1169D01*
X2490Y1169D02*
X2609Y1169D01*
X2912Y1169D02*
X3030Y1169D01*
X3390Y1169D02*
X3509Y1169D01*
X213Y1168D02*
X330Y1168D01*
X691Y1168D02*
X808Y1168D01*
X1113Y1168D02*
X1230Y1168D01*
X1591Y1168D02*
X1708Y1168D01*
X2013Y1168D02*
X2130Y1168D01*
X2491Y1168D02*
X2608Y1168D01*
X2913Y1168D02*
X3030Y1168D01*
X3391Y1168D02*
X3508Y1168D01*
X213Y1167D02*
X329Y1167D01*
X692Y1167D02*
X807Y1167D01*
X1113Y1167D02*
X1229Y1167D01*
X1592Y1167D02*
X1707Y1167D01*
X2013Y1167D02*
X2129Y1167D01*
X2492Y1167D02*
X2607Y1167D01*
X2913Y1167D02*
X3029Y1167D01*
X3392Y1167D02*
X3507Y1167D01*
X214Y1166D02*
X328Y1166D01*
X692Y1166D02*
X807Y1166D01*
X1114Y1166D02*
X1228Y1166D01*
X1592Y1166D02*
X1707Y1166D01*
X2014Y1166D02*
X2128Y1166D01*
X2492Y1166D02*
X2607Y1166D01*
X2914Y1166D02*
X3028Y1166D01*
X3392Y1166D02*
X3507Y1166D01*
X215Y1165D02*
X328Y1165D01*
X693Y1165D02*
X806Y1165D01*
X1115Y1165D02*
X1228Y1165D01*
X1593Y1165D02*
X1706Y1165D01*
X2015Y1165D02*
X2128Y1165D01*
X2493Y1165D02*
X2606Y1165D01*
X2915Y1165D02*
X3028Y1165D01*
X3393Y1165D02*
X3506Y1165D01*
X215Y1164D02*
X327Y1164D01*
X694Y1164D02*
X805Y1164D01*
X1115Y1164D02*
X1227Y1164D01*
X1594Y1164D02*
X1705Y1164D01*
X2015Y1164D02*
X2127Y1164D01*
X2494Y1164D02*
X2605Y1164D01*
X2915Y1164D02*
X3027Y1164D01*
X3394Y1164D02*
X3505Y1164D01*
X216Y1163D02*
X326Y1163D01*
X695Y1163D02*
X804Y1163D01*
X1116Y1163D02*
X1226Y1163D01*
X1595Y1163D02*
X1704Y1163D01*
X2016Y1163D02*
X2126Y1163D01*
X2495Y1163D02*
X2604Y1163D01*
X2916Y1163D02*
X3026Y1163D01*
X3395Y1163D02*
X3504Y1163D01*
X217Y1162D02*
X325Y1162D01*
X695Y1162D02*
X804Y1162D01*
X1117Y1162D02*
X1225Y1162D01*
X1595Y1162D02*
X1704Y1162D01*
X2017Y1162D02*
X2125Y1162D01*
X2495Y1162D02*
X2604Y1162D01*
X2917Y1162D02*
X3025Y1162D01*
X3395Y1162D02*
X3504Y1162D01*
X218Y1161D02*
X325Y1161D01*
X696Y1161D02*
X803Y1161D01*
X1118Y1161D02*
X1225Y1161D01*
X1596Y1161D02*
X1703Y1161D01*
X2018Y1161D02*
X2125Y1161D01*
X2496Y1161D02*
X2603Y1161D01*
X2918Y1161D02*
X3025Y1161D01*
X3396Y1161D02*
X3503Y1161D01*
X219Y1160D02*
X324Y1160D01*
X697Y1160D02*
X802Y1160D01*
X1119Y1160D02*
X1224Y1160D01*
X1597Y1160D02*
X1702Y1160D01*
X2018Y1160D02*
X2124Y1160D01*
X2497Y1160D02*
X2602Y1160D01*
X2918Y1160D02*
X3024Y1160D01*
X3397Y1160D02*
X3502Y1160D01*
X219Y1159D02*
X323Y1159D01*
X698Y1159D02*
X801Y1159D01*
X1119Y1159D02*
X1223Y1159D01*
X1598Y1159D02*
X1701Y1159D01*
X2019Y1159D02*
X2123Y1159D01*
X2498Y1159D02*
X2601Y1159D01*
X2919Y1159D02*
X3023Y1159D01*
X3398Y1159D02*
X3501Y1159D01*
X220Y1158D02*
X322Y1158D01*
X699Y1158D02*
X800Y1158D01*
X1120Y1158D02*
X1222Y1158D01*
X1599Y1158D02*
X1700Y1158D01*
X2020Y1158D02*
X2122Y1158D01*
X2499Y1158D02*
X2600Y1158D01*
X2920Y1158D02*
X3022Y1158D01*
X3399Y1158D02*
X3500Y1158D01*
X221Y1157D02*
X321Y1157D01*
X700Y1157D02*
X799Y1157D01*
X1121Y1157D02*
X1221Y1157D01*
X1600Y1157D02*
X1699Y1157D01*
X2021Y1157D02*
X2121Y1157D01*
X2500Y1157D02*
X2599Y1157D01*
X2921Y1157D02*
X3021Y1157D01*
X3400Y1157D02*
X3499Y1157D01*
X222Y1156D02*
X320Y1156D01*
X700Y1156D02*
X799Y1156D01*
X1122Y1156D02*
X1220Y1156D01*
X1600Y1156D02*
X1699Y1156D01*
X2022Y1156D02*
X2120Y1156D01*
X2500Y1156D02*
X2599Y1156D01*
X2922Y1156D02*
X3020Y1156D01*
X3400Y1156D02*
X3499Y1156D01*
X223Y1155D02*
X319Y1155D01*
X702Y1155D02*
X797Y1155D01*
X1123Y1155D02*
X1219Y1155D01*
X1602Y1155D02*
X1697Y1155D01*
X2023Y1155D02*
X2119Y1155D01*
X2502Y1155D02*
X2597Y1155D01*
X2923Y1155D02*
X3019Y1155D01*
X3402Y1155D02*
X3497Y1155D01*
X224Y1154D02*
X318Y1154D01*
X703Y1154D02*
X796Y1154D01*
X1124Y1154D02*
X1218Y1154D01*
X1603Y1154D02*
X1696Y1154D01*
X2024Y1154D02*
X2118Y1154D01*
X2503Y1154D02*
X2596Y1154D01*
X2924Y1154D02*
X3018Y1154D01*
X3403Y1154D02*
X3496Y1154D01*
X225Y1153D02*
X317Y1153D01*
X704Y1153D02*
X795Y1153D01*
X1125Y1153D02*
X1217Y1153D01*
X1604Y1153D02*
X1695Y1153D01*
X2025Y1153D02*
X2117Y1153D01*
X2504Y1153D02*
X2595Y1153D01*
X2925Y1153D02*
X3017Y1153D01*
X3404Y1153D02*
X3495Y1153D01*
X227Y1152D02*
X316Y1152D01*
X705Y1152D02*
X794Y1152D01*
X1127Y1152D02*
X1216Y1152D01*
X1605Y1152D02*
X1694Y1152D01*
X2027Y1152D02*
X2116Y1152D01*
X2505Y1152D02*
X2594Y1152D01*
X2927Y1152D02*
X3016Y1152D01*
X3405Y1152D02*
X3494Y1152D01*
X228Y1151D02*
X314Y1151D01*
X706Y1151D02*
X793Y1151D01*
X1128Y1151D02*
X1214Y1151D01*
X1606Y1151D02*
X1693Y1151D01*
X2028Y1151D02*
X2114Y1151D01*
X2506Y1151D02*
X2593Y1151D01*
X2928Y1151D02*
X3014Y1151D01*
X3406Y1151D02*
X3493Y1151D01*
X229Y1150D02*
X313Y1150D01*
X707Y1150D02*
X791Y1150D01*
X1129Y1150D02*
X1213Y1150D01*
X1607Y1150D02*
X1691Y1150D01*
X2029Y1150D02*
X2113Y1150D01*
X2507Y1150D02*
X2591Y1150D01*
X2929Y1150D02*
X3013Y1150D01*
X3407Y1150D02*
X3491Y1150D01*
X230Y1149D02*
X312Y1149D01*
X709Y1149D02*
X790Y1149D01*
X1130Y1149D02*
X1212Y1149D01*
X1609Y1149D02*
X1690Y1149D01*
X2030Y1149D02*
X2112Y1149D01*
X2509Y1149D02*
X2590Y1149D01*
X2930Y1149D02*
X3012Y1149D01*
X3409Y1149D02*
X3490Y1149D01*
X232Y1148D02*
X310Y1148D01*
X710Y1148D02*
X789Y1148D01*
X1132Y1148D02*
X1210Y1148D01*
X1610Y1148D02*
X1689Y1148D01*
X2032Y1148D02*
X2110Y1148D01*
X2510Y1148D02*
X2589Y1148D01*
X2932Y1148D02*
X3010Y1148D01*
X3410Y1148D02*
X3489Y1148D01*
X233Y1147D02*
X309Y1147D01*
X712Y1147D02*
X787Y1147D01*
X1133Y1147D02*
X1209Y1147D01*
X1612Y1147D02*
X1687Y1147D01*
X2033Y1147D02*
X2109Y1147D01*
X2512Y1147D02*
X2587Y1147D01*
X2933Y1147D02*
X3009Y1147D01*
X3412Y1147D02*
X3487Y1147D01*
X235Y1146D02*
X307Y1146D01*
X713Y1146D02*
X786Y1146D01*
X1135Y1146D02*
X1207Y1146D01*
X1613Y1146D02*
X1686Y1146D01*
X2035Y1146D02*
X2107Y1146D01*
X2513Y1146D02*
X2586Y1146D01*
X2935Y1146D02*
X3007Y1146D01*
X3413Y1146D02*
X3486Y1146D01*
X237Y1145D02*
X306Y1145D01*
X715Y1145D02*
X784Y1145D01*
X1137Y1145D02*
X1206Y1145D01*
X1615Y1145D02*
X1684Y1145D01*
X2037Y1145D02*
X2106Y1145D01*
X2515Y1145D02*
X2584Y1145D01*
X2937Y1145D02*
X3006Y1145D01*
X3415Y1145D02*
X3484Y1145D01*
X238Y1144D02*
X304Y1144D01*
X717Y1144D02*
X782Y1144D01*
X1138Y1144D02*
X1204Y1144D01*
X1617Y1144D02*
X1682Y1144D01*
X2038Y1144D02*
X2104Y1144D01*
X2517Y1144D02*
X2582Y1144D01*
X2938Y1144D02*
X3004Y1144D01*
X3417Y1144D02*
X3482Y1144D01*
X240Y1143D02*
X302Y1143D01*
X719Y1143D02*
X780Y1143D01*
X1140Y1143D02*
X1202Y1143D01*
X1618Y1143D02*
X1680Y1143D01*
X2040Y1143D02*
X2102Y1143D01*
X2518Y1143D02*
X2580Y1143D01*
X2940Y1143D02*
X3002Y1143D01*
X3418Y1143D02*
X3480Y1143D01*
X242Y1142D02*
X300Y1142D01*
X721Y1142D02*
X778Y1142D01*
X1142Y1142D02*
X1200Y1142D01*
X1621Y1142D02*
X1678Y1142D01*
X2042Y1142D02*
X2100Y1142D01*
X2521Y1142D02*
X2578Y1142D01*
X2942Y1142D02*
X3000Y1142D01*
X3421Y1142D02*
X3478Y1142D01*
X244Y1141D02*
X298Y1141D01*
X723Y1141D02*
X776Y1141D01*
X1144Y1141D02*
X1198Y1141D01*
X1623Y1141D02*
X1676Y1141D01*
X2044Y1141D02*
X2098Y1141D01*
X2523Y1141D02*
X2576Y1141D01*
X2944Y1141D02*
X2998Y1141D01*
X3423Y1141D02*
X3476Y1141D01*
X247Y1140D02*
X295Y1140D01*
X725Y1140D02*
X774Y1140D01*
X1147Y1140D02*
X1195Y1140D01*
X1625Y1140D02*
X1674Y1140D01*
X2047Y1140D02*
X2095Y1140D01*
X2525Y1140D02*
X2574Y1140D01*
X2947Y1140D02*
X2995Y1140D01*
X3425Y1140D02*
X3474Y1140D01*
X250Y1139D02*
X293Y1139D01*
X728Y1139D02*
X771Y1139D01*
X1150Y1139D02*
X1193Y1139D01*
X1628Y1139D02*
X1671Y1139D01*
X2050Y1139D02*
X2093Y1139D01*
X2528Y1139D02*
X2571Y1139D01*
X2950Y1139D02*
X2993Y1139D01*
X3428Y1139D02*
X3471Y1139D01*
X253Y1138D02*
X289Y1138D01*
X732Y1138D02*
X767Y1138D01*
X1153Y1138D02*
X1189Y1138D01*
X1632Y1138D02*
X1667Y1138D01*
X2053Y1138D02*
X2089Y1138D01*
X2532Y1138D02*
X2567Y1138D01*
X2953Y1138D02*
X2989Y1138D01*
X3432Y1138D02*
X3467Y1138D01*
X257Y1137D02*
X285Y1137D01*
X736Y1137D02*
X763Y1137D01*
X1157Y1137D02*
X1185Y1137D01*
X1636Y1137D02*
X1663Y1137D01*
X2057Y1137D02*
X2085Y1137D01*
X2536Y1137D02*
X2563Y1137D01*
X2957Y1137D02*
X2985Y1137D01*
X3436Y1137D02*
X3463Y1137D01*
X264Y1136D02*
X279Y1136D01*
X742Y1136D02*
X757Y1136D01*
X1164Y1136D02*
X1179Y1136D01*
X1642Y1136D02*
X1657Y1136D01*
X2064Y1136D02*
X2079Y1136D01*
X2542Y1136D02*
X2557Y1136D01*
X2964Y1136D02*
X2979Y1136D01*
X3442Y1136D02*
X3457Y1136D01*
X829Y1039D02*
X831Y1039D01*
X1729Y1039D02*
X1731Y1039D01*
X2629Y1039D02*
X2631Y1039D01*
X3529Y1039D02*
X3531Y1039D01*
X819Y1038D02*
X841Y1038D01*
X1719Y1038D02*
X1741Y1038D01*
X2619Y1038D02*
X2641Y1038D01*
X3519Y1038D02*
X3541Y1038D01*
X814Y1037D02*
X846Y1037D01*
X1714Y1037D02*
X1746Y1037D01*
X2614Y1037D02*
X2646Y1037D01*
X3514Y1037D02*
X3546Y1037D01*
X810Y1036D02*
X850Y1036D01*
X1710Y1036D02*
X1750Y1036D01*
X2610Y1036D02*
X2650Y1036D01*
X3510Y1036D02*
X3550Y1036D01*
X807Y1035D02*
X853Y1035D01*
X1707Y1035D02*
X1753Y1035D01*
X2607Y1035D02*
X2653Y1035D01*
X3507Y1035D02*
X3553Y1035D01*
X805Y1034D02*
X856Y1034D01*
X1705Y1034D02*
X1756Y1034D01*
X2605Y1034D02*
X2656Y1034D01*
X3505Y1034D02*
X3556Y1034D01*
X802Y1033D02*
X858Y1033D01*
X1702Y1033D02*
X1758Y1033D01*
X2602Y1033D02*
X2658Y1033D01*
X3502Y1033D02*
X3558Y1033D01*
X800Y1032D02*
X860Y1032D01*
X1700Y1032D02*
X1760Y1032D01*
X2600Y1032D02*
X2660Y1032D01*
X3500Y1032D02*
X3560Y1032D01*
X798Y1031D02*
X862Y1031D01*
X1698Y1031D02*
X1762Y1031D01*
X2598Y1031D02*
X2662Y1031D01*
X3498Y1031D02*
X3562Y1031D01*
X796Y1030D02*
X864Y1030D01*
X1696Y1030D02*
X1764Y1030D01*
X2596Y1030D02*
X2664Y1030D01*
X3496Y1030D02*
X3564Y1030D01*
X795Y1029D02*
X866Y1029D01*
X1695Y1029D02*
X1766Y1029D01*
X2595Y1029D02*
X2666Y1029D01*
X3495Y1029D02*
X3566Y1029D01*
X793Y1028D02*
X867Y1028D01*
X1693Y1028D02*
X1767Y1028D01*
X2593Y1028D02*
X2667Y1028D01*
X3493Y1028D02*
X3567Y1028D01*
X792Y1027D02*
X869Y1027D01*
X1692Y1027D02*
X1769Y1027D01*
X2592Y1027D02*
X2669Y1027D01*
X3492Y1027D02*
X3569Y1027D01*
X790Y1026D02*
X870Y1026D01*
X1690Y1026D02*
X1770Y1026D01*
X2590Y1026D02*
X2670Y1026D01*
X3490Y1026D02*
X3570Y1026D01*
X789Y1025D02*
X872Y1025D01*
X1689Y1025D02*
X1772Y1025D01*
X2589Y1025D02*
X2672Y1025D01*
X3489Y1025D02*
X3572Y1025D01*
X788Y1024D02*
X873Y1024D01*
X1687Y1024D02*
X1773Y1024D01*
X2587Y1024D02*
X2673Y1024D01*
X3487Y1024D02*
X3573Y1024D01*
X786Y1023D02*
X874Y1023D01*
X1686Y1023D02*
X1774Y1023D01*
X2586Y1023D02*
X2674Y1023D01*
X3486Y1023D02*
X3574Y1023D01*
X785Y1022D02*
X875Y1022D01*
X1685Y1022D02*
X1775Y1022D01*
X2585Y1022D02*
X2675Y1022D01*
X3485Y1022D02*
X3575Y1022D01*
X784Y1021D02*
X877Y1021D01*
X1684Y1021D02*
X1777Y1021D01*
X2584Y1021D02*
X2677Y1021D01*
X3484Y1021D02*
X3577Y1021D01*
X783Y1020D02*
X878Y1020D01*
X1683Y1020D02*
X1778Y1020D01*
X2583Y1020D02*
X2678Y1020D01*
X3483Y1020D02*
X3578Y1020D01*
X782Y1019D02*
X879Y1019D01*
X1682Y1019D02*
X1779Y1019D01*
X2582Y1019D02*
X2679Y1019D01*
X3482Y1019D02*
X3579Y1019D01*
X781Y1018D02*
X880Y1018D01*
X1681Y1018D02*
X1780Y1018D01*
X2581Y1018D02*
X2680Y1018D01*
X3481Y1018D02*
X3580Y1018D01*
X780Y1017D02*
X881Y1017D01*
X1680Y1017D02*
X1781Y1017D01*
X2580Y1017D02*
X2681Y1017D01*
X3480Y1017D02*
X3581Y1017D01*
X779Y1016D02*
X882Y1016D01*
X1679Y1016D02*
X1782Y1016D01*
X2579Y1016D02*
X2682Y1016D01*
X3479Y1016D02*
X3582Y1016D01*
X778Y1015D02*
X882Y1015D01*
X1678Y1015D02*
X1782Y1015D01*
X2578Y1015D02*
X2682Y1015D01*
X3478Y1015D02*
X3582Y1015D01*
X777Y1014D02*
X883Y1014D01*
X1677Y1014D02*
X1783Y1014D01*
X2577Y1014D02*
X2683Y1014D01*
X3477Y1014D02*
X3583Y1014D01*
X776Y1013D02*
X884Y1013D01*
X1676Y1013D02*
X1784Y1013D01*
X2576Y1013D02*
X2684Y1013D01*
X3476Y1013D02*
X3584Y1013D01*
X776Y1012D02*
X885Y1012D01*
X1676Y1012D02*
X1785Y1012D01*
X2576Y1012D02*
X2685Y1012D01*
X3476Y1012D02*
X3585Y1012D01*
X775Y1011D02*
X886Y1011D01*
X1675Y1011D02*
X1786Y1011D01*
X2575Y1011D02*
X2686Y1011D01*
X3475Y1011D02*
X3586Y1011D01*
X774Y1010D02*
X886Y1010D01*
X1674Y1010D02*
X1786Y1010D01*
X2574Y1010D02*
X2686Y1010D01*
X3474Y1010D02*
X3586Y1010D01*
X773Y1009D02*
X887Y1009D01*
X1673Y1009D02*
X1787Y1009D01*
X2573Y1009D02*
X2687Y1009D01*
X3473Y1009D02*
X3587Y1009D01*
X773Y1008D02*
X888Y1008D01*
X1673Y1008D02*
X1788Y1008D01*
X2573Y1008D02*
X2688Y1008D01*
X3473Y1008D02*
X3588Y1008D01*
X772Y1007D02*
X888Y1007D01*
X1672Y1007D02*
X1788Y1007D01*
X2572Y1007D02*
X2688Y1007D01*
X3472Y1007D02*
X3588Y1007D01*
X771Y1006D02*
X889Y1006D01*
X1671Y1006D02*
X1789Y1006D01*
X2571Y1006D02*
X2689Y1006D01*
X3471Y1006D02*
X3589Y1006D01*
X771Y1005D02*
X890Y1005D01*
X1671Y1005D02*
X1790Y1005D01*
X2571Y1005D02*
X2690Y1005D01*
X3471Y1005D02*
X3590Y1005D01*
X770Y1004D02*
X890Y1004D01*
X1670Y1004D02*
X1790Y1004D01*
X2570Y1004D02*
X2690Y1004D01*
X3470Y1004D02*
X3590Y1004D01*
X770Y1003D02*
X891Y1003D01*
X1670Y1003D02*
X1791Y1003D01*
X2570Y1003D02*
X2691Y1003D01*
X3470Y1003D02*
X3591Y1003D01*
X769Y1002D02*
X891Y1002D01*
X1669Y1002D02*
X1791Y1002D01*
X2569Y1002D02*
X2691Y1002D01*
X3469Y1002D02*
X3591Y1002D01*
X769Y1001D02*
X892Y1001D01*
X1669Y1001D02*
X1792Y1001D01*
X2569Y1001D02*
X2692Y1001D01*
X3469Y1001D02*
X3592Y1001D01*
X768Y1000D02*
X892Y1000D01*
X1668Y1000D02*
X1792Y1000D01*
X2568Y1000D02*
X2692Y1000D01*
X3468Y1000D02*
X3592Y1000D01*
X768Y999D02*
X893Y999D01*
X1668Y999D02*
X1793Y999D01*
X2568Y999D02*
X2693Y999D01*
X3468Y999D02*
X3593Y999D01*
X767Y998D02*
X893Y998D01*
X1667Y998D02*
X1793Y998D01*
X2567Y998D02*
X2693Y998D01*
X3467Y998D02*
X3593Y998D01*
X767Y997D02*
X894Y997D01*
X1667Y997D02*
X1794Y997D01*
X2567Y997D02*
X2694Y997D01*
X3467Y997D02*
X3594Y997D01*
X766Y996D02*
X894Y996D01*
X1666Y996D02*
X1794Y996D01*
X2566Y996D02*
X2694Y996D01*
X3466Y996D02*
X3594Y996D01*
X766Y995D02*
X895Y995D01*
X1666Y995D02*
X1795Y995D01*
X2566Y995D02*
X2695Y995D01*
X3466Y995D02*
X3595Y995D01*
X765Y994D02*
X895Y994D01*
X1665Y994D02*
X1795Y994D01*
X2565Y994D02*
X2695Y994D01*
X3465Y994D02*
X3595Y994D01*
X765Y993D02*
X895Y993D01*
X1665Y993D02*
X1795Y993D01*
X2565Y993D02*
X2695Y993D01*
X3465Y993D02*
X3595Y993D01*
X765Y992D02*
X896Y992D01*
X1665Y992D02*
X1796Y992D01*
X2565Y992D02*
X2696Y992D01*
X3465Y992D02*
X3596Y992D01*
X764Y991D02*
X896Y991D01*
X1664Y991D02*
X1796Y991D01*
X2564Y991D02*
X2696Y991D01*
X3464Y991D02*
X3596Y991D01*
X764Y990D02*
X896Y990D01*
X1664Y990D02*
X1796Y990D01*
X2564Y990D02*
X2696Y990D01*
X3464Y990D02*
X3596Y990D01*
X764Y989D02*
X897Y989D01*
X1664Y989D02*
X1797Y989D01*
X2564Y989D02*
X2697Y989D01*
X3464Y989D02*
X3597Y989D01*
X764Y988D02*
X897Y988D01*
X1663Y988D02*
X1797Y988D01*
X2563Y988D02*
X2697Y988D01*
X3463Y988D02*
X3597Y988D01*
X763Y987D02*
X897Y987D01*
X1663Y987D02*
X1797Y987D01*
X2563Y987D02*
X2697Y987D01*
X3463Y987D02*
X3597Y987D01*
X763Y986D02*
X897Y986D01*
X1663Y986D02*
X1797Y986D01*
X2563Y986D02*
X2697Y986D01*
X3463Y986D02*
X3597Y986D01*
X763Y985D02*
X898Y985D01*
X1663Y985D02*
X1798Y985D01*
X2563Y985D02*
X2698Y985D01*
X3463Y985D02*
X3598Y985D01*
X762Y984D02*
X898Y984D01*
X1662Y984D02*
X1798Y984D01*
X2562Y984D02*
X2698Y984D01*
X3462Y984D02*
X3598Y984D01*
X762Y983D02*
X898Y983D01*
X1662Y983D02*
X1798Y983D01*
X2562Y983D02*
X2698Y983D01*
X3462Y983D02*
X3598Y983D01*
X762Y982D02*
X898Y982D01*
X1662Y982D02*
X1798Y982D01*
X2562Y982D02*
X2698Y982D01*
X3462Y982D02*
X3598Y982D01*
X762Y981D02*
X898Y981D01*
X1662Y981D02*
X1798Y981D01*
X2562Y981D02*
X2698Y981D01*
X3462Y981D02*
X3598Y981D01*
X762Y980D02*
X899Y980D01*
X1662Y980D02*
X1799Y980D01*
X2562Y980D02*
X2699Y980D01*
X3462Y980D02*
X3599Y980D01*
X762Y979D02*
X899Y979D01*
X1662Y979D02*
X1799Y979D01*
X2562Y979D02*
X2699Y979D01*
X3462Y979D02*
X3599Y979D01*
X761Y978D02*
X899Y978D01*
X1661Y978D02*
X1799Y978D01*
X2561Y978D02*
X2699Y978D01*
X3461Y978D02*
X3599Y978D01*
X761Y977D02*
X899Y977D01*
X1661Y977D02*
X1799Y977D01*
X2561Y977D02*
X2699Y977D01*
X3461Y977D02*
X3599Y977D01*
X761Y976D02*
X899Y976D01*
X1661Y976D02*
X1799Y976D01*
X2561Y976D02*
X2699Y976D01*
X3461Y976D02*
X3599Y976D01*
X761Y975D02*
X899Y975D01*
X1661Y975D02*
X1799Y975D01*
X2561Y975D02*
X2699Y975D01*
X3461Y975D02*
X3599Y975D01*
X761Y974D02*
X899Y974D01*
X1661Y974D02*
X1799Y974D01*
X2561Y974D02*
X2699Y974D01*
X3461Y974D02*
X3599Y974D01*
X761Y973D02*
X899Y973D01*
X1661Y973D02*
X1799Y973D01*
X2561Y973D02*
X2699Y973D01*
X3461Y973D02*
X3599Y973D01*
X761Y972D02*
X899Y972D01*
X1661Y972D02*
X1799Y972D01*
X2561Y972D02*
X2699Y972D01*
X3461Y972D02*
X3599Y972D01*
X761Y971D02*
X900Y971D01*
X1661Y971D02*
X1800Y971D01*
X2561Y971D02*
X2700Y971D01*
X3461Y971D02*
X3600Y971D01*
X761Y970D02*
X900Y970D01*
X1661Y970D02*
X1800Y970D01*
X2561Y970D02*
X2700Y970D01*
X3461Y970D02*
X3600Y970D01*
X761Y969D02*
X900Y969D01*
X1661Y969D02*
X1800Y969D01*
X2561Y969D02*
X2700Y969D01*
X3461Y969D02*
X3600Y969D01*
X761Y968D02*
X900Y968D01*
X1661Y968D02*
X1800Y968D01*
X2561Y968D02*
X2700Y968D01*
X3461Y968D02*
X3600Y968D01*
X761Y967D02*
X900Y967D01*
X1661Y967D02*
X1800Y967D01*
X2561Y967D02*
X2700Y967D01*
X3461Y967D02*
X3600Y967D01*
X761Y966D02*
X899Y966D01*
X1661Y966D02*
X1799Y966D01*
X2561Y966D02*
X2699Y966D01*
X3461Y966D02*
X3599Y966D01*
X761Y965D02*
X899Y965D01*
X1661Y965D02*
X1799Y965D01*
X2561Y965D02*
X2699Y965D01*
X3461Y965D02*
X3599Y965D01*
X761Y964D02*
X899Y964D01*
X1661Y964D02*
X1799Y964D01*
X2561Y964D02*
X2699Y964D01*
X3461Y964D02*
X3599Y964D01*
X761Y963D02*
X899Y963D01*
X1661Y963D02*
X1799Y963D01*
X2561Y963D02*
X2699Y963D01*
X3461Y963D02*
X3599Y963D01*
X761Y962D02*
X899Y962D01*
X1661Y962D02*
X1799Y962D01*
X2561Y962D02*
X2699Y962D01*
X3461Y962D02*
X3599Y962D01*
X761Y961D02*
X899Y961D01*
X1661Y961D02*
X1799Y961D01*
X2561Y961D02*
X2699Y961D01*
X3461Y961D02*
X3599Y961D01*
X762Y960D02*
X899Y960D01*
X1662Y960D02*
X1799Y960D01*
X2562Y960D02*
X2699Y960D01*
X3462Y960D02*
X3599Y960D01*
X762Y959D02*
X899Y959D01*
X1662Y959D02*
X1799Y959D01*
X2562Y959D02*
X2699Y959D01*
X3462Y959D02*
X3599Y959D01*
X762Y958D02*
X899Y958D01*
X1662Y958D02*
X1799Y958D01*
X2562Y958D02*
X2699Y958D01*
X3462Y958D02*
X3599Y958D01*
X762Y957D02*
X898Y957D01*
X1662Y957D02*
X1798Y957D01*
X2562Y957D02*
X2698Y957D01*
X3462Y957D02*
X3598Y957D01*
X762Y956D02*
X898Y956D01*
X1662Y956D02*
X1798Y956D01*
X2562Y956D02*
X2698Y956D01*
X3462Y956D02*
X3598Y956D01*
X762Y955D02*
X898Y955D01*
X1662Y955D02*
X1798Y955D01*
X2562Y955D02*
X2698Y955D01*
X3462Y955D02*
X3598Y955D01*
X763Y954D02*
X898Y954D01*
X1663Y954D02*
X1798Y954D01*
X2563Y954D02*
X2698Y954D01*
X3463Y954D02*
X3598Y954D01*
X763Y953D02*
X898Y953D01*
X1663Y953D02*
X1798Y953D01*
X2563Y953D02*
X2698Y953D01*
X3463Y953D02*
X3598Y953D01*
X763Y952D02*
X897Y952D01*
X1663Y952D02*
X1797Y952D01*
X2563Y952D02*
X2697Y952D01*
X3463Y952D02*
X3597Y952D01*
X763Y951D02*
X897Y951D01*
X1663Y951D02*
X1797Y951D01*
X2563Y951D02*
X2697Y951D01*
X3463Y951D02*
X3597Y951D01*
X764Y950D02*
X897Y950D01*
X1664Y950D02*
X1797Y950D01*
X2564Y950D02*
X2697Y950D01*
X3464Y950D02*
X3597Y950D01*
X764Y949D02*
X897Y949D01*
X1664Y949D02*
X1797Y949D01*
X2564Y949D02*
X2697Y949D01*
X3464Y949D02*
X3597Y949D01*
X764Y948D02*
X896Y948D01*
X1664Y948D02*
X1796Y948D01*
X2564Y948D02*
X2696Y948D01*
X3464Y948D02*
X3596Y948D01*
X764Y947D02*
X896Y947D01*
X1664Y947D02*
X1796Y947D01*
X2564Y947D02*
X2696Y947D01*
X3464Y947D02*
X3596Y947D01*
X765Y946D02*
X896Y946D01*
X1665Y946D02*
X1796Y946D01*
X2565Y946D02*
X2696Y946D01*
X3465Y946D02*
X3596Y946D01*
X765Y945D02*
X895Y945D01*
X1665Y945D02*
X1795Y945D01*
X2565Y945D02*
X2695Y945D01*
X3465Y945D02*
X3595Y945D01*
X766Y944D02*
X895Y944D01*
X1666Y944D02*
X1795Y944D01*
X2566Y944D02*
X2695Y944D01*
X3466Y944D02*
X3595Y944D01*
X766Y943D02*
X895Y943D01*
X1666Y943D02*
X1795Y943D01*
X2566Y943D02*
X2695Y943D01*
X3466Y943D02*
X3595Y943D01*
X766Y942D02*
X894Y942D01*
X1666Y942D02*
X1794Y942D01*
X2566Y942D02*
X2694Y942D01*
X3466Y942D02*
X3594Y942D01*
X767Y941D02*
X894Y941D01*
X1667Y941D02*
X1794Y941D01*
X2567Y941D02*
X2694Y941D01*
X3467Y941D02*
X3594Y941D01*
X767Y940D02*
X893Y940D01*
X1667Y940D02*
X1793Y940D01*
X2567Y940D02*
X2693Y940D01*
X3467Y940D02*
X3593Y940D01*
X768Y939D02*
X893Y939D01*
X1668Y939D02*
X1793Y939D01*
X2568Y939D02*
X2693Y939D01*
X3468Y939D02*
X3593Y939D01*
X768Y938D02*
X892Y938D01*
X1668Y938D02*
X1792Y938D01*
X2568Y938D02*
X2692Y938D01*
X3468Y938D02*
X3592Y938D01*
X769Y937D02*
X892Y937D01*
X1669Y937D02*
X1792Y937D01*
X2569Y937D02*
X2692Y937D01*
X3469Y937D02*
X3592Y937D01*
X769Y936D02*
X891Y936D01*
X1669Y936D02*
X1791Y936D01*
X2569Y936D02*
X2691Y936D01*
X3469Y936D02*
X3591Y936D01*
X770Y935D02*
X891Y935D01*
X1670Y935D02*
X1791Y935D01*
X2570Y935D02*
X2691Y935D01*
X3470Y935D02*
X3591Y935D01*
X770Y934D02*
X890Y934D01*
X1670Y934D02*
X1790Y934D01*
X2570Y934D02*
X2690Y934D01*
X3470Y934D02*
X3590Y934D01*
X771Y933D02*
X889Y933D01*
X1671Y933D02*
X1789Y933D01*
X2571Y933D02*
X2689Y933D01*
X3471Y933D02*
X3589Y933D01*
X772Y932D02*
X889Y932D01*
X1672Y932D02*
X1789Y932D01*
X2572Y932D02*
X2689Y932D01*
X3472Y932D02*
X3589Y932D01*
X772Y931D02*
X888Y931D01*
X1672Y931D02*
X1788Y931D01*
X2572Y931D02*
X2688Y931D01*
X3472Y931D02*
X3588Y931D01*
X773Y930D02*
X888Y930D01*
X1673Y930D02*
X1788Y930D01*
X2573Y930D02*
X2688Y930D01*
X3473Y930D02*
X3588Y930D01*
X774Y929D02*
X887Y929D01*
X1674Y929D02*
X1787Y929D01*
X2574Y929D02*
X2687Y929D01*
X3474Y929D02*
X3587Y929D01*
X774Y928D02*
X886Y928D01*
X1674Y928D02*
X1786Y928D01*
X2574Y928D02*
X2686Y928D01*
X3474Y928D02*
X3586Y928D01*
X775Y927D02*
X885Y927D01*
X1675Y927D02*
X1785Y927D01*
X2575Y927D02*
X2685Y927D01*
X3475Y927D02*
X3585Y927D01*
X776Y926D02*
X885Y926D01*
X1676Y926D02*
X1785Y926D01*
X2576Y926D02*
X2685Y926D01*
X3476Y926D02*
X3585Y926D01*
X777Y925D02*
X884Y925D01*
X1677Y925D02*
X1784Y925D01*
X2577Y925D02*
X2684Y925D01*
X3477Y925D02*
X3584Y925D01*
X777Y924D02*
X883Y924D01*
X1677Y924D02*
X1783Y924D01*
X2577Y924D02*
X2683Y924D01*
X3477Y924D02*
X3583Y924D01*
X778Y923D02*
X882Y923D01*
X1678Y923D02*
X1782Y923D01*
X2578Y923D02*
X2682Y923D01*
X3478Y923D02*
X3582Y923D01*
X779Y922D02*
X881Y922D01*
X1679Y922D02*
X1781Y922D01*
X2579Y922D02*
X2681Y922D01*
X3479Y922D02*
X3581Y922D01*
X780Y921D02*
X880Y921D01*
X1680Y921D02*
X1780Y921D01*
X2580Y921D02*
X2680Y921D01*
X3480Y921D02*
X3580Y921D01*
X781Y920D02*
X879Y920D01*
X1681Y920D02*
X1779Y920D01*
X2581Y920D02*
X2679Y920D01*
X3481Y920D02*
X3579Y920D01*
X782Y919D02*
X878Y919D01*
X1682Y919D02*
X1778Y919D01*
X2582Y919D02*
X2678Y919D01*
X3482Y919D02*
X3578Y919D01*
X783Y918D02*
X877Y918D01*
X1683Y918D02*
X1777Y918D01*
X2583Y918D02*
X2677Y918D01*
X3483Y918D02*
X3577Y918D01*
X784Y917D02*
X876Y917D01*
X1684Y917D02*
X1776Y917D01*
X2584Y917D02*
X2676Y917D01*
X3484Y917D02*
X3576Y917D01*
X785Y916D02*
X875Y916D01*
X1685Y916D02*
X1775Y916D01*
X2585Y916D02*
X2675Y916D01*
X3485Y916D02*
X3575Y916D01*
X787Y915D02*
X874Y915D01*
X1687Y915D02*
X1774Y915D01*
X2587Y915D02*
X2674Y915D01*
X3487Y915D02*
X3574Y915D01*
X788Y914D02*
X872Y914D01*
X1688Y914D02*
X1772Y914D01*
X2588Y914D02*
X2672Y914D01*
X3488Y914D02*
X3572Y914D01*
X789Y913D02*
X871Y913D01*
X1689Y913D02*
X1771Y913D01*
X2589Y913D02*
X2671Y913D01*
X3489Y913D02*
X3571Y913D01*
X791Y912D02*
X870Y912D01*
X1691Y912D02*
X1770Y912D01*
X2591Y912D02*
X2670Y912D01*
X3491Y912D02*
X3570Y912D01*
X792Y911D02*
X868Y911D01*
X1692Y911D02*
X1768Y911D01*
X2592Y911D02*
X2668Y911D01*
X3492Y911D02*
X3568Y911D01*
X794Y910D02*
X867Y910D01*
X1694Y910D02*
X1767Y910D01*
X2594Y910D02*
X2667Y910D01*
X3494Y910D02*
X3567Y910D01*
X795Y909D02*
X865Y909D01*
X1695Y909D02*
X1765Y909D01*
X2595Y909D02*
X2665Y909D01*
X3495Y909D02*
X3565Y909D01*
X797Y908D02*
X863Y908D01*
X1697Y908D02*
X1763Y908D01*
X2597Y908D02*
X2663Y908D01*
X3497Y908D02*
X3563Y908D01*
X799Y907D02*
X862Y907D01*
X1699Y907D02*
X1762Y907D01*
X2599Y907D02*
X2662Y907D01*
X3499Y907D02*
X3562Y907D01*
X801Y906D02*
X860Y906D01*
X1701Y906D02*
X1760Y906D01*
X2601Y906D02*
X2660Y906D01*
X3501Y906D02*
X3560Y906D01*
X803Y905D02*
X858Y905D01*
X1703Y905D02*
X1758Y905D01*
X2603Y905D02*
X2658Y905D01*
X3503Y905D02*
X3558Y905D01*
X805Y904D02*
X855Y904D01*
X1705Y904D02*
X1755Y904D01*
X2605Y904D02*
X2655Y904D01*
X3505Y904D02*
X3555Y904D01*
X808Y903D02*
X852Y903D01*
X1708Y903D02*
X1752Y903D01*
X2608Y903D02*
X2652Y903D01*
X3508Y903D02*
X3552Y903D01*
X812Y902D02*
X849Y902D01*
X1712Y902D02*
X1749Y902D01*
X2612Y902D02*
X2649Y902D01*
X3512Y902D02*
X3549Y902D01*
X816Y901D02*
X845Y901D01*
X1716Y901D02*
X1745Y901D01*
X2616Y901D02*
X2645Y901D01*
X3516Y901D02*
X3545Y901D01*
X821Y900D02*
X839Y900D01*
X1721Y900D02*
X1739Y900D01*
X2621Y900D02*
X2639Y900D01*
X3521Y900D02*
X3539Y900D01*
X262Y802D02*
X281Y802D01*
X740Y802D02*
X759Y802D01*
X1162Y802D02*
X1181Y802D01*
X1640Y802D02*
X1659Y802D01*
X2062Y802D02*
X2081Y802D01*
X2540Y802D02*
X2559Y802D01*
X2962Y802D02*
X2981Y802D01*
X3440Y802D02*
X3459Y802D01*
X256Y801D02*
X286Y801D01*
X735Y801D02*
X764Y801D01*
X1156Y801D02*
X1186Y801D01*
X1635Y801D02*
X1664Y801D01*
X2056Y801D02*
X2086Y801D01*
X2535Y801D02*
X2564Y801D01*
X2956Y801D02*
X2986Y801D01*
X3435Y801D02*
X3464Y801D01*
X252Y800D02*
X290Y800D01*
X731Y800D02*
X768Y800D01*
X1152Y800D02*
X1190Y800D01*
X1631Y800D02*
X1668Y800D01*
X2052Y800D02*
X2090Y800D01*
X2531Y800D02*
X2568Y800D01*
X2952Y800D02*
X2990Y800D01*
X3431Y800D02*
X3468Y800D01*
X249Y799D02*
X293Y799D01*
X727Y799D02*
X772Y799D01*
X1149Y799D02*
X1193Y799D01*
X1627Y799D02*
X1672Y799D01*
X2049Y799D02*
X2093Y799D01*
X2527Y799D02*
X2572Y799D01*
X2949Y799D02*
X2993Y799D01*
X3427Y799D02*
X3472Y799D01*
X246Y798D02*
X296Y798D01*
X724Y798D02*
X775Y798D01*
X1146Y798D02*
X1196Y798D01*
X1624Y798D02*
X1675Y798D01*
X2046Y798D02*
X2096Y798D01*
X2524Y798D02*
X2575Y798D01*
X2946Y798D02*
X2996Y798D01*
X3424Y798D02*
X3475Y798D01*
X244Y797D02*
X299Y797D01*
X722Y797D02*
X777Y797D01*
X1144Y797D02*
X1199Y797D01*
X1622Y797D02*
X1677Y797D01*
X2044Y797D02*
X2099Y797D01*
X2522Y797D02*
X2577Y797D01*
X2944Y797D02*
X2999Y797D01*
X3422Y797D02*
X3477Y797D01*
X242Y796D02*
X301Y796D01*
X720Y796D02*
X779Y796D01*
X1142Y796D02*
X1201Y796D01*
X1620Y796D02*
X1679Y796D01*
X2042Y796D02*
X2101Y796D01*
X2520Y796D02*
X2579Y796D01*
X2942Y796D02*
X3001Y796D01*
X3420Y796D02*
X3479Y796D01*
X240Y795D02*
X303Y795D01*
X718Y795D02*
X781Y795D01*
X1140Y795D02*
X1203Y795D01*
X1618Y795D02*
X1681Y795D01*
X2040Y795D02*
X2103Y795D01*
X2518Y795D02*
X2581Y795D01*
X2940Y795D02*
X3003Y795D01*
X3418Y795D02*
X3481Y795D01*
X238Y794D02*
X305Y794D01*
X716Y794D02*
X783Y794D01*
X1138Y794D02*
X1205Y794D01*
X1616Y794D02*
X1683Y794D01*
X2038Y794D02*
X2105Y794D01*
X2516Y794D02*
X2583Y794D01*
X2938Y794D02*
X3005Y794D01*
X3416Y794D02*
X3483Y794D01*
X236Y793D02*
X306Y793D01*
X714Y793D02*
X785Y793D01*
X1136Y793D02*
X1206Y793D01*
X1614Y793D02*
X1685Y793D01*
X2036Y793D02*
X2106Y793D01*
X2514Y793D02*
X2585Y793D01*
X2936Y793D02*
X3006Y793D01*
X3414Y793D02*
X3485Y793D01*
X234Y792D02*
X308Y792D01*
X713Y792D02*
X786Y792D01*
X1134Y792D02*
X1208Y792D01*
X1613Y792D02*
X1686Y792D01*
X2034Y792D02*
X2108Y792D01*
X2513Y792D02*
X2586Y792D01*
X2934Y792D02*
X3008Y792D01*
X3413Y792D02*
X3486Y792D01*
X233Y791D02*
X309Y791D01*
X711Y791D02*
X788Y791D01*
X1133Y791D02*
X1209Y791D01*
X1611Y791D02*
X1688Y791D01*
X2033Y791D02*
X2109Y791D01*
X2511Y791D02*
X2588Y791D01*
X2933Y791D02*
X3009Y791D01*
X3411Y791D02*
X3488Y791D01*
X231Y790D02*
X311Y790D01*
X710Y790D02*
X789Y790D01*
X1131Y790D02*
X1211Y790D01*
X1610Y790D02*
X1689Y790D01*
X2031Y790D02*
X2111Y790D01*
X2510Y790D02*
X2589Y790D01*
X2931Y790D02*
X3011Y790D01*
X3410Y790D02*
X3489Y790D01*
X230Y789D02*
X312Y789D01*
X708Y789D02*
X791Y789D01*
X1130Y789D02*
X1212Y789D01*
X1608Y789D02*
X1691Y789D01*
X2030Y789D02*
X2112Y789D01*
X2508Y789D02*
X2591Y789D01*
X2930Y789D02*
X3012Y789D01*
X3408Y789D02*
X3491Y789D01*
X229Y788D02*
X314Y788D01*
X707Y788D02*
X792Y788D01*
X1129Y788D02*
X1214Y788D01*
X1607Y788D02*
X1692Y788D01*
X2029Y788D02*
X2114Y788D01*
X2507Y788D02*
X2592Y788D01*
X2929Y788D02*
X3014Y788D01*
X3407Y788D02*
X3492Y788D01*
X227Y787D02*
X315Y787D01*
X706Y787D02*
X793Y787D01*
X1127Y787D02*
X1215Y787D01*
X1606Y787D02*
X1693Y787D01*
X2027Y787D02*
X2115Y787D01*
X2506Y787D02*
X2593Y787D01*
X2927Y787D02*
X3015Y787D01*
X3406Y787D02*
X3493Y787D01*
X226Y786D02*
X316Y786D01*
X705Y786D02*
X794Y786D01*
X1126Y786D02*
X1216Y786D01*
X1605Y786D02*
X1694Y786D01*
X2026Y786D02*
X2116Y786D01*
X2505Y786D02*
X2594Y786D01*
X2926Y786D02*
X3016Y786D01*
X3405Y786D02*
X3494Y786D01*
X225Y785D02*
X317Y785D01*
X703Y785D02*
X796Y785D01*
X1125Y785D02*
X1217Y785D01*
X1603Y785D02*
X1696Y785D01*
X2025Y785D02*
X2117Y785D01*
X2503Y785D02*
X2596Y785D01*
X2925Y785D02*
X3017Y785D01*
X3403Y785D02*
X3496Y785D01*
X224Y784D02*
X318Y784D01*
X702Y784D02*
X797Y784D01*
X1124Y784D02*
X1218Y784D01*
X1602Y784D02*
X1697Y784D01*
X2024Y784D02*
X2118Y784D01*
X2502Y784D02*
X2597Y784D01*
X2924Y784D02*
X3018Y784D01*
X3402Y784D02*
X3497Y784D01*
X223Y783D02*
X319Y783D01*
X701Y783D02*
X798Y783D01*
X1123Y783D02*
X1219Y783D01*
X1601Y783D02*
X1698Y783D01*
X2023Y783D02*
X2119Y783D01*
X2501Y783D02*
X2598Y783D01*
X2923Y783D02*
X3019Y783D01*
X3401Y783D02*
X3498Y783D01*
X222Y782D02*
X320Y782D01*
X700Y782D02*
X799Y782D01*
X1122Y782D02*
X1220Y782D01*
X1600Y782D02*
X1699Y782D01*
X2022Y782D02*
X2120Y782D01*
X2500Y782D02*
X2599Y782D01*
X2922Y782D02*
X3020Y782D01*
X3400Y782D02*
X3499Y782D01*
X221Y781D02*
X321Y781D01*
X699Y781D02*
X800Y781D01*
X1121Y781D02*
X1221Y781D01*
X1599Y781D02*
X1700Y781D01*
X2021Y781D02*
X2121Y781D01*
X2499Y781D02*
X2600Y781D01*
X2921Y781D02*
X3021Y781D01*
X3399Y781D02*
X3500Y781D01*
X220Y780D02*
X322Y780D01*
X698Y780D02*
X801Y780D01*
X1120Y780D02*
X1222Y780D01*
X1598Y780D02*
X1701Y780D01*
X2020Y780D02*
X2122Y780D01*
X2498Y780D02*
X2601Y780D01*
X2920Y780D02*
X3022Y780D01*
X3398Y780D02*
X3501Y780D01*
X219Y779D02*
X323Y779D01*
X697Y779D02*
X802Y779D01*
X1119Y779D02*
X1223Y779D01*
X1597Y779D02*
X1702Y779D01*
X2019Y779D02*
X2123Y779D01*
X2497Y779D02*
X2602Y779D01*
X2919Y779D02*
X3023Y779D01*
X3397Y779D02*
X3501Y779D01*
X218Y778D02*
X324Y778D01*
X697Y778D02*
X802Y778D01*
X1118Y778D02*
X1224Y778D01*
X1597Y778D02*
X1702Y778D01*
X2018Y778D02*
X2124Y778D01*
X2497Y778D02*
X2602Y778D01*
X2918Y778D02*
X3024Y778D01*
X3397Y778D02*
X3502Y778D01*
X217Y777D02*
X325Y777D01*
X696Y777D02*
X803Y777D01*
X1117Y777D02*
X1225Y777D01*
X1596Y777D02*
X1703Y777D01*
X2017Y777D02*
X2125Y777D01*
X2496Y777D02*
X2603Y777D01*
X2917Y777D02*
X3025Y777D01*
X3396Y777D02*
X3503Y777D01*
X217Y776D02*
X326Y776D01*
X695Y776D02*
X804Y776D01*
X1117Y776D02*
X1226Y776D01*
X1595Y776D02*
X1704Y776D01*
X2017Y776D02*
X2126Y776D01*
X2495Y776D02*
X2604Y776D01*
X2917Y776D02*
X3026Y776D01*
X3395Y776D02*
X3504Y776D01*
X216Y775D02*
X326Y775D01*
X694Y775D02*
X805Y775D01*
X1116Y775D02*
X1226Y775D01*
X1594Y775D02*
X1705Y775D01*
X2016Y775D02*
X2126Y775D01*
X2494Y775D02*
X2605Y775D01*
X2916Y775D02*
X3026Y775D01*
X3394Y775D02*
X3505Y775D01*
X215Y774D02*
X327Y774D01*
X694Y774D02*
X805Y774D01*
X1115Y774D02*
X1227Y774D01*
X1594Y774D02*
X1705Y774D01*
X2015Y774D02*
X2127Y774D01*
X2494Y774D02*
X2605Y774D01*
X2915Y774D02*
X3027Y774D01*
X3394Y774D02*
X3505Y774D01*
X214Y773D02*
X328Y773D01*
X693Y773D02*
X806Y773D01*
X1114Y773D02*
X1228Y773D01*
X1593Y773D02*
X1706Y773D01*
X2014Y773D02*
X2128Y773D01*
X2493Y773D02*
X2606Y773D01*
X2914Y773D02*
X3028Y773D01*
X3393Y773D02*
X3506Y773D01*
X214Y772D02*
X329Y772D01*
X692Y772D02*
X807Y772D01*
X1114Y772D02*
X1229Y772D01*
X1592Y772D02*
X1707Y772D01*
X2014Y772D02*
X2129Y772D01*
X2492Y772D02*
X2607Y772D01*
X2914Y772D02*
X3029Y772D01*
X3392Y772D02*
X3507Y772D01*
X213Y771D02*
X329Y771D01*
X691Y771D02*
X808Y771D01*
X1113Y771D02*
X1229Y771D01*
X1591Y771D02*
X1708Y771D01*
X2013Y771D02*
X2129Y771D01*
X2491Y771D02*
X2608Y771D01*
X2913Y771D02*
X3029Y771D01*
X3391Y771D02*
X3508Y771D01*
X213Y770D02*
X330Y770D01*
X691Y770D02*
X808Y770D01*
X1113Y770D02*
X1230Y770D01*
X1591Y770D02*
X1708Y770D01*
X2013Y770D02*
X2130Y770D01*
X2491Y770D02*
X2608Y770D01*
X2913Y770D02*
X3030Y770D01*
X3391Y770D02*
X3508Y770D01*
X212Y769D02*
X330Y769D01*
X690Y769D02*
X809Y769D01*
X1112Y769D02*
X1230Y769D01*
X1590Y769D02*
X1709Y769D01*
X2012Y769D02*
X2130Y769D01*
X2490Y769D02*
X2609Y769D01*
X2912Y769D02*
X3030Y769D01*
X3390Y769D02*
X3509Y769D01*
X211Y768D02*
X331Y768D01*
X690Y768D02*
X809Y768D01*
X1111Y768D02*
X1231Y768D01*
X1590Y768D02*
X1709Y768D01*
X2011Y768D02*
X2131Y768D01*
X2490Y768D02*
X2609Y768D01*
X2911Y768D02*
X3031Y768D01*
X3390Y768D02*
X3509Y768D01*
X211Y767D02*
X332Y767D01*
X689Y767D02*
X810Y767D01*
X1111Y767D02*
X1232Y767D01*
X1589Y767D02*
X1710Y767D01*
X2011Y767D02*
X2132Y767D01*
X2489Y767D02*
X2610Y767D01*
X2911Y767D02*
X3032Y767D01*
X3389Y767D02*
X3510Y767D01*
X210Y766D02*
X332Y766D01*
X688Y766D02*
X811Y766D01*
X1110Y766D02*
X1232Y766D01*
X1588Y766D02*
X1711Y766D01*
X2010Y766D02*
X2132Y766D01*
X2488Y766D02*
X2611Y766D01*
X2910Y766D02*
X3032Y766D01*
X3388Y766D02*
X3511Y766D01*
X210Y765D02*
X333Y765D01*
X688Y765D02*
X811Y765D01*
X1110Y765D02*
X1233Y765D01*
X1588Y765D02*
X1711Y765D01*
X2010Y765D02*
X2133Y765D01*
X2488Y765D02*
X2611Y765D01*
X2910Y765D02*
X3033Y765D01*
X3388Y765D02*
X3511Y765D01*
X209Y764D02*
X333Y764D01*
X687Y764D02*
X812Y764D01*
X1109Y764D02*
X1233Y764D01*
X1587Y764D02*
X1712Y764D01*
X2009Y764D02*
X2133Y764D01*
X2487Y764D02*
X2612Y764D01*
X2909Y764D02*
X3033Y764D01*
X3387Y764D02*
X3512Y764D01*
X209Y763D02*
X334Y763D01*
X687Y763D02*
X812Y763D01*
X1109Y763D02*
X1234Y763D01*
X1587Y763D02*
X1712Y763D01*
X2009Y763D02*
X2134Y763D01*
X2487Y763D02*
X2612Y763D01*
X2909Y763D02*
X3034Y763D01*
X3387Y763D02*
X3512Y763D01*
X208Y762D02*
X334Y762D01*
X686Y762D02*
X813Y762D01*
X1108Y762D02*
X1234Y762D01*
X1586Y762D02*
X1713Y762D01*
X2008Y762D02*
X2134Y762D01*
X2486Y762D02*
X2613Y762D01*
X2908Y762D02*
X3034Y762D01*
X3386Y762D02*
X3513Y762D01*
X208Y761D02*
X335Y761D01*
X686Y761D02*
X813Y761D01*
X1108Y761D02*
X1235Y761D01*
X1586Y761D02*
X1713Y761D01*
X2008Y761D02*
X2135Y761D01*
X2486Y761D02*
X2613Y761D01*
X2908Y761D02*
X3035Y761D01*
X3386Y761D02*
X3513Y761D01*
X207Y760D02*
X335Y760D01*
X685Y760D02*
X814Y760D01*
X1107Y760D02*
X1235Y760D01*
X1585Y760D02*
X1714Y760D01*
X2007Y760D02*
X2135Y760D01*
X2485Y760D02*
X2613Y760D01*
X2907Y760D02*
X3035Y760D01*
X3385Y760D02*
X3513Y760D01*
X207Y759D02*
X336Y759D01*
X685Y759D02*
X814Y759D01*
X1107Y759D02*
X1236Y759D01*
X1585Y759D02*
X1714Y759D01*
X2007Y759D02*
X2136Y759D01*
X2485Y759D02*
X2614Y759D01*
X2907Y759D02*
X3036Y759D01*
X3385Y759D02*
X3514Y759D01*
X206Y758D02*
X336Y758D01*
X685Y758D02*
X814Y758D01*
X1106Y758D02*
X1236Y758D01*
X1585Y758D02*
X1714Y758D01*
X2006Y758D02*
X2136Y758D01*
X2485Y758D02*
X2614Y758D01*
X2906Y758D02*
X3036Y758D01*
X3385Y758D02*
X3514Y758D01*
X206Y757D02*
X336Y757D01*
X684Y757D02*
X815Y757D01*
X1106Y757D02*
X1236Y757D01*
X1584Y757D02*
X1715Y757D01*
X2006Y757D02*
X2136Y757D01*
X2484Y757D02*
X2615Y757D01*
X2906Y757D02*
X3036Y757D01*
X3384Y757D02*
X3515Y757D01*
X206Y756D02*
X337Y756D01*
X684Y756D02*
X815Y756D01*
X1106Y756D02*
X1237Y756D01*
X1584Y756D02*
X1715Y756D01*
X2006Y756D02*
X2137Y756D01*
X2484Y756D02*
X2615Y756D01*
X2906Y756D02*
X3037Y756D01*
X3384Y756D02*
X3515Y756D01*
X205Y755D02*
X337Y755D01*
X684Y755D02*
X815Y755D01*
X1105Y755D02*
X1237Y755D01*
X1584Y755D02*
X1715Y755D01*
X2005Y755D02*
X2137Y755D01*
X2484Y755D02*
X2615Y755D01*
X2905Y755D02*
X3037Y755D01*
X3384Y755D02*
X3515Y755D01*
X205Y754D02*
X337Y754D01*
X683Y754D02*
X816Y754D01*
X1105Y754D02*
X1237Y754D01*
X1583Y754D02*
X1716Y754D01*
X2005Y754D02*
X2137Y754D01*
X2483Y754D02*
X2616Y754D01*
X2905Y754D02*
X3037Y754D01*
X3383Y754D02*
X3516Y754D01*
X205Y753D02*
X338Y753D01*
X683Y753D02*
X816Y753D01*
X1105Y753D02*
X1238Y753D01*
X1583Y753D02*
X1716Y753D01*
X2005Y753D02*
X2138Y753D01*
X2483Y753D02*
X2616Y753D01*
X2905Y753D02*
X3038Y753D01*
X3383Y753D02*
X3516Y753D01*
X205Y752D02*
X338Y752D01*
X683Y752D02*
X816Y752D01*
X1104Y752D02*
X1238Y752D01*
X1583Y752D02*
X1716Y752D01*
X2004Y752D02*
X2138Y752D01*
X2483Y752D02*
X2616Y752D01*
X2904Y752D02*
X3038Y752D01*
X3383Y752D02*
X3516Y752D01*
X204Y751D02*
X338Y751D01*
X683Y751D02*
X816Y751D01*
X1104Y751D02*
X1238Y751D01*
X1583Y751D02*
X1716Y751D01*
X2004Y751D02*
X2138Y751D01*
X2483Y751D02*
X2616Y751D01*
X2904Y751D02*
X3038Y751D01*
X3383Y751D02*
X3516Y751D01*
X204Y750D02*
X338Y750D01*
X682Y750D02*
X817Y750D01*
X1104Y750D02*
X1238Y750D01*
X1582Y750D02*
X1717Y750D01*
X2004Y750D02*
X2138Y750D01*
X2482Y750D02*
X2617Y750D01*
X2904Y750D02*
X3038Y750D01*
X3382Y750D02*
X3517Y750D01*
X204Y749D02*
X339Y749D01*
X682Y749D02*
X817Y749D01*
X1104Y749D02*
X1239Y749D01*
X1582Y749D02*
X1717Y749D01*
X2004Y749D02*
X2139Y749D01*
X2482Y749D02*
X2617Y749D01*
X2904Y749D02*
X3039Y749D01*
X3382Y749D02*
X3517Y749D01*
X204Y748D02*
X339Y748D01*
X682Y748D02*
X817Y748D01*
X1103Y748D02*
X1239Y748D01*
X1582Y748D02*
X1717Y748D01*
X2003Y748D02*
X2139Y748D01*
X2482Y748D02*
X2617Y748D01*
X2903Y748D02*
X3039Y748D01*
X3382Y748D02*
X3517Y748D01*
X203Y747D02*
X339Y747D01*
X682Y747D02*
X817Y747D01*
X1103Y747D02*
X1239Y747D01*
X1582Y747D02*
X1717Y747D01*
X2003Y747D02*
X2139Y747D01*
X2482Y747D02*
X2617Y747D01*
X2903Y747D02*
X3039Y747D01*
X3382Y747D02*
X3517Y747D01*
X203Y746D02*
X339Y746D01*
X681Y746D02*
X818Y746D01*
X1103Y746D02*
X1239Y746D01*
X1581Y746D02*
X1718Y746D01*
X2003Y746D02*
X2139Y746D01*
X2481Y746D02*
X2618Y746D01*
X2903Y746D02*
X3039Y746D01*
X3381Y746D02*
X3518Y746D01*
X203Y745D02*
X339Y745D01*
X681Y745D02*
X818Y745D01*
X1103Y745D02*
X1239Y745D01*
X1581Y745D02*
X1718Y745D01*
X2003Y745D02*
X2139Y745D01*
X2481Y745D02*
X2618Y745D01*
X2903Y745D02*
X3039Y745D01*
X3381Y745D02*
X3518Y745D01*
X203Y744D02*
X340Y744D01*
X681Y744D02*
X818Y744D01*
X1103Y744D02*
X1240Y744D01*
X1581Y744D02*
X1718Y744D01*
X2003Y744D02*
X2140Y744D01*
X2481Y744D02*
X2618Y744D01*
X2903Y744D02*
X3040Y744D01*
X3381Y744D02*
X3518Y744D01*
X203Y743D02*
X340Y743D01*
X681Y743D02*
X818Y743D01*
X1103Y743D02*
X1240Y743D01*
X1581Y743D02*
X1718Y743D01*
X2003Y743D02*
X2140Y743D01*
X2481Y743D02*
X2618Y743D01*
X2903Y743D02*
X3040Y743D01*
X3381Y743D02*
X3518Y743D01*
X202Y742D02*
X340Y742D01*
X681Y742D02*
X818Y742D01*
X1102Y742D02*
X1240Y742D01*
X1581Y742D02*
X1718Y742D01*
X2002Y742D02*
X2140Y742D01*
X2481Y742D02*
X2618Y742D01*
X2902Y742D02*
X3040Y742D01*
X3381Y742D02*
X3518Y742D01*
X202Y741D02*
X340Y741D01*
X681Y741D02*
X818Y741D01*
X1102Y741D02*
X1240Y741D01*
X1581Y741D02*
X1718Y741D01*
X2002Y741D02*
X2140Y741D01*
X2481Y741D02*
X2618Y741D01*
X2902Y741D02*
X3040Y741D01*
X3381Y741D02*
X3518Y741D01*
X202Y740D02*
X340Y740D01*
X680Y740D02*
X819Y740D01*
X1102Y740D02*
X1240Y740D01*
X1580Y740D02*
X1719Y740D01*
X2002Y740D02*
X2140Y740D01*
X2480Y740D02*
X2619Y740D01*
X2902Y740D02*
X3040Y740D01*
X3380Y740D02*
X3519Y740D01*
X202Y739D02*
X340Y739D01*
X680Y739D02*
X819Y739D01*
X1102Y739D02*
X1240Y739D01*
X1580Y739D02*
X1719Y739D01*
X2002Y739D02*
X2140Y739D01*
X2480Y739D02*
X2619Y739D01*
X2902Y739D02*
X3040Y739D01*
X3380Y739D02*
X3519Y739D01*
X202Y738D02*
X340Y738D01*
X680Y738D02*
X819Y738D01*
X1102Y738D02*
X1240Y738D01*
X1580Y738D02*
X1719Y738D01*
X2002Y738D02*
X2140Y738D01*
X2480Y738D02*
X2619Y738D01*
X2902Y738D02*
X3040Y738D01*
X3380Y738D02*
X3519Y738D01*
X202Y737D02*
X340Y737D01*
X680Y737D02*
X819Y737D01*
X1102Y737D02*
X1240Y737D01*
X1580Y737D02*
X1719Y737D01*
X2002Y737D02*
X2140Y737D01*
X2480Y737D02*
X2619Y737D01*
X2902Y737D02*
X3040Y737D01*
X3380Y737D02*
X3519Y737D01*
X202Y736D02*
X340Y736D01*
X680Y736D02*
X819Y736D01*
X1102Y736D02*
X1240Y736D01*
X1580Y736D02*
X1719Y736D01*
X2002Y736D02*
X2140Y736D01*
X2480Y736D02*
X2619Y736D01*
X2902Y736D02*
X3040Y736D01*
X3380Y736D02*
X3519Y736D01*
X202Y735D02*
X340Y735D01*
X680Y735D02*
X819Y735D01*
X1102Y735D02*
X1240Y735D01*
X1580Y735D02*
X1719Y735D01*
X2002Y735D02*
X2140Y735D01*
X2480Y735D02*
X2619Y735D01*
X2902Y735D02*
X3040Y735D01*
X3380Y735D02*
X3519Y735D01*
X202Y734D02*
X341Y734D01*
X680Y734D02*
X819Y734D01*
X1102Y734D02*
X1241Y734D01*
X1580Y734D02*
X1719Y734D01*
X2002Y734D02*
X2141Y734D01*
X2480Y734D02*
X2619Y734D01*
X2902Y734D02*
X3041Y734D01*
X3380Y734D02*
X3519Y734D01*
X202Y733D02*
X341Y733D01*
X680Y733D02*
X819Y733D01*
X1102Y733D02*
X1241Y733D01*
X1580Y733D02*
X1719Y733D01*
X2002Y733D02*
X2141Y733D01*
X2480Y733D02*
X2619Y733D01*
X2902Y733D02*
X3041Y733D01*
X3380Y733D02*
X3519Y733D01*
X202Y732D02*
X341Y732D01*
X680Y732D02*
X819Y732D01*
X1102Y732D02*
X1241Y732D01*
X1580Y732D02*
X1719Y732D01*
X2002Y732D02*
X2141Y732D01*
X2480Y732D02*
X2619Y732D01*
X2902Y732D02*
X3041Y732D01*
X3380Y732D02*
X3519Y732D01*
X202Y731D02*
X340Y731D01*
X680Y731D02*
X819Y731D01*
X1102Y731D02*
X1240Y731D01*
X1580Y731D02*
X1719Y731D01*
X2002Y731D02*
X2140Y731D01*
X2480Y731D02*
X2619Y731D01*
X2902Y731D02*
X3040Y731D01*
X3380Y731D02*
X3519Y731D01*
X202Y730D02*
X340Y730D01*
X680Y730D02*
X819Y730D01*
X1102Y730D02*
X1240Y730D01*
X1580Y730D02*
X1719Y730D01*
X2002Y730D02*
X2140Y730D01*
X2480Y730D02*
X2619Y730D01*
X2902Y730D02*
X3040Y730D01*
X3380Y730D02*
X3519Y730D01*
X202Y729D02*
X340Y729D01*
X680Y729D02*
X819Y729D01*
X1102Y729D02*
X1240Y729D01*
X1580Y729D02*
X1719Y729D01*
X2002Y729D02*
X2140Y729D01*
X2480Y729D02*
X2619Y729D01*
X2902Y729D02*
X3040Y729D01*
X3380Y729D02*
X3519Y729D01*
X202Y728D02*
X340Y728D01*
X680Y728D02*
X819Y728D01*
X1102Y728D02*
X1240Y728D01*
X1580Y728D02*
X1719Y728D01*
X2002Y728D02*
X2140Y728D01*
X2480Y728D02*
X2619Y728D01*
X2902Y728D02*
X3040Y728D01*
X3380Y728D02*
X3519Y728D01*
X202Y727D02*
X340Y727D01*
X680Y727D02*
X819Y727D01*
X1102Y727D02*
X1240Y727D01*
X1580Y727D02*
X1719Y727D01*
X2002Y727D02*
X2140Y727D01*
X2480Y727D02*
X2619Y727D01*
X2902Y727D02*
X3040Y727D01*
X3380Y727D02*
X3519Y727D01*
X202Y726D02*
X340Y726D01*
X680Y726D02*
X819Y726D01*
X1102Y726D02*
X1240Y726D01*
X1580Y726D02*
X1719Y726D01*
X2002Y726D02*
X2140Y726D01*
X2480Y726D02*
X2619Y726D01*
X2902Y726D02*
X3040Y726D01*
X3380Y726D02*
X3519Y726D01*
X202Y725D02*
X340Y725D01*
X681Y725D02*
X818Y725D01*
X1102Y725D02*
X1240Y725D01*
X1581Y725D02*
X1718Y725D01*
X2002Y725D02*
X2140Y725D01*
X2481Y725D02*
X2618Y725D01*
X2902Y725D02*
X3040Y725D01*
X3381Y725D02*
X3518Y725D01*
X202Y724D02*
X340Y724D01*
X681Y724D02*
X818Y724D01*
X1102Y724D02*
X1240Y724D01*
X1581Y724D02*
X1718Y724D01*
X2002Y724D02*
X2140Y724D01*
X2481Y724D02*
X2618Y724D01*
X2902Y724D02*
X3040Y724D01*
X3381Y724D02*
X3518Y724D01*
X203Y723D02*
X340Y723D01*
X681Y723D02*
X818Y723D01*
X1103Y723D02*
X1240Y723D01*
X1581Y723D02*
X1718Y723D01*
X2003Y723D02*
X2140Y723D01*
X2481Y723D02*
X2618Y723D01*
X2903Y723D02*
X3040Y723D01*
X3381Y723D02*
X3518Y723D01*
X203Y722D02*
X340Y722D01*
X681Y722D02*
X818Y722D01*
X1103Y722D02*
X1240Y722D01*
X1581Y722D02*
X1718Y722D01*
X2003Y722D02*
X2140Y722D01*
X2481Y722D02*
X2618Y722D01*
X2903Y722D02*
X3040Y722D01*
X3381Y722D02*
X3518Y722D01*
X203Y721D02*
X339Y721D01*
X681Y721D02*
X818Y721D01*
X1103Y721D02*
X1239Y721D01*
X1581Y721D02*
X1718Y721D01*
X2003Y721D02*
X2139Y721D01*
X2481Y721D02*
X2618Y721D01*
X2903Y721D02*
X3039Y721D01*
X3381Y721D02*
X3518Y721D01*
X203Y720D02*
X339Y720D01*
X681Y720D02*
X818Y720D01*
X1103Y720D02*
X1239Y720D01*
X1581Y720D02*
X1718Y720D01*
X2003Y720D02*
X2139Y720D01*
X2481Y720D02*
X2618Y720D01*
X2903Y720D02*
X3039Y720D01*
X3381Y720D02*
X3518Y720D01*
X203Y719D02*
X339Y719D01*
X682Y719D02*
X817Y719D01*
X1103Y719D02*
X1239Y719D01*
X1582Y719D02*
X1717Y719D01*
X2003Y719D02*
X2139Y719D01*
X2482Y719D02*
X2617Y719D01*
X2903Y719D02*
X3039Y719D01*
X3382Y719D02*
X3517Y719D01*
X203Y718D02*
X339Y718D01*
X682Y718D02*
X817Y718D01*
X1103Y718D02*
X1239Y718D01*
X1582Y718D02*
X1717Y718D01*
X2003Y718D02*
X2139Y718D01*
X2482Y718D02*
X2617Y718D01*
X2903Y718D02*
X3039Y718D01*
X3382Y718D02*
X3517Y718D01*
X204Y717D02*
X339Y717D01*
X682Y717D02*
X817Y717D01*
X1104Y717D02*
X1239Y717D01*
X1582Y717D02*
X1717Y717D01*
X2004Y717D02*
X2139Y717D01*
X2482Y717D02*
X2617Y717D01*
X2904Y717D02*
X3039Y717D01*
X3382Y717D02*
X3517Y717D01*
X204Y716D02*
X338Y716D01*
X682Y716D02*
X817Y716D01*
X1104Y716D02*
X1238Y716D01*
X1582Y716D02*
X1717Y716D01*
X2004Y716D02*
X2138Y716D01*
X2482Y716D02*
X2617Y716D01*
X2904Y716D02*
X3038Y716D01*
X3382Y716D02*
X3517Y716D01*
X204Y715D02*
X338Y715D01*
X683Y715D02*
X816Y715D01*
X1104Y715D02*
X1238Y715D01*
X1583Y715D02*
X1716Y715D01*
X2004Y715D02*
X2138Y715D01*
X2483Y715D02*
X2616Y715D01*
X2904Y715D02*
X3038Y715D01*
X3383Y715D02*
X3516Y715D01*
X204Y714D02*
X338Y714D01*
X683Y714D02*
X816Y714D01*
X1104Y714D02*
X1238Y714D01*
X1583Y714D02*
X1716Y714D01*
X2004Y714D02*
X2138Y714D01*
X2483Y714D02*
X2616Y714D01*
X2904Y714D02*
X3038Y714D01*
X3383Y714D02*
X3516Y714D01*
X205Y713D02*
X338Y713D01*
X683Y713D02*
X816Y713D01*
X1105Y713D02*
X1238Y713D01*
X1583Y713D02*
X1716Y713D01*
X2005Y713D02*
X2138Y713D01*
X2483Y713D02*
X2616Y713D01*
X2905Y713D02*
X3038Y713D01*
X3383Y713D02*
X3516Y713D01*
X205Y712D02*
X337Y712D01*
X683Y712D02*
X816Y712D01*
X1105Y712D02*
X1237Y712D01*
X1583Y712D02*
X1716Y712D01*
X2005Y712D02*
X2137Y712D01*
X2483Y712D02*
X2616Y712D01*
X2905Y712D02*
X3037Y712D01*
X3383Y712D02*
X3516Y712D01*
X205Y711D02*
X337Y711D01*
X684Y711D02*
X815Y711D01*
X1105Y711D02*
X1237Y711D01*
X1584Y711D02*
X1715Y711D01*
X2005Y711D02*
X2137Y711D01*
X2484Y711D02*
X2615Y711D01*
X2905Y711D02*
X3037Y711D01*
X3384Y711D02*
X3515Y711D01*
X206Y710D02*
X337Y710D01*
X684Y710D02*
X815Y710D01*
X1106Y710D02*
X1237Y710D01*
X1584Y710D02*
X1715Y710D01*
X2006Y710D02*
X2137Y710D01*
X2484Y710D02*
X2615Y710D01*
X2906Y710D02*
X3037Y710D01*
X3384Y710D02*
X3515Y710D01*
X206Y709D02*
X336Y709D01*
X684Y709D02*
X815Y709D01*
X1106Y709D02*
X1236Y709D01*
X1584Y709D02*
X1715Y709D01*
X2006Y709D02*
X2136Y709D01*
X2484Y709D02*
X2615Y709D01*
X2906Y709D02*
X3036Y709D01*
X3384Y709D02*
X3515Y709D01*
X206Y708D02*
X336Y708D01*
X685Y708D02*
X814Y708D01*
X1106Y708D02*
X1236Y708D01*
X1585Y708D02*
X1714Y708D01*
X2006Y708D02*
X2136Y708D01*
X2485Y708D02*
X2614Y708D01*
X2906Y708D02*
X3036Y708D01*
X3385Y708D02*
X3514Y708D01*
X207Y707D02*
X336Y707D01*
X685Y707D02*
X814Y707D01*
X1107Y707D02*
X1236Y707D01*
X1585Y707D02*
X1714Y707D01*
X2007Y707D02*
X2136Y707D01*
X2485Y707D02*
X2614Y707D01*
X2907Y707D02*
X3036Y707D01*
X3385Y707D02*
X3514Y707D01*
X207Y706D02*
X335Y706D01*
X685Y706D02*
X814Y706D01*
X1107Y706D02*
X1235Y706D01*
X1585Y706D02*
X1714Y706D01*
X2007Y706D02*
X2135Y706D01*
X2485Y706D02*
X2614Y706D01*
X2907Y706D02*
X3035Y706D01*
X3385Y706D02*
X3514Y706D01*
X208Y705D02*
X335Y705D01*
X686Y705D02*
X813Y705D01*
X1108Y705D02*
X1235Y705D01*
X1586Y705D02*
X1713Y705D01*
X2008Y705D02*
X2135Y705D01*
X2486Y705D02*
X2613Y705D01*
X2908Y705D02*
X3035Y705D01*
X3386Y705D02*
X3513Y705D01*
X208Y704D02*
X334Y704D01*
X686Y704D02*
X813Y704D01*
X1108Y704D02*
X1234Y704D01*
X1586Y704D02*
X1713Y704D01*
X2008Y704D02*
X2134Y704D01*
X2486Y704D02*
X2613Y704D01*
X2908Y704D02*
X3034Y704D01*
X3386Y704D02*
X3513Y704D01*
X209Y703D02*
X334Y703D01*
X687Y703D02*
X812Y703D01*
X1109Y703D02*
X1234Y703D01*
X1587Y703D02*
X1712Y703D01*
X2009Y703D02*
X2134Y703D01*
X2487Y703D02*
X2612Y703D01*
X2909Y703D02*
X3034Y703D01*
X3387Y703D02*
X3512Y703D01*
X209Y702D02*
X333Y702D01*
X687Y702D02*
X812Y702D01*
X1109Y702D02*
X1233Y702D01*
X1587Y702D02*
X1712Y702D01*
X2009Y702D02*
X2133Y702D01*
X2487Y702D02*
X2612Y702D01*
X2909Y702D02*
X3033Y702D01*
X3387Y702D02*
X3512Y702D01*
X210Y701D02*
X333Y701D01*
X688Y701D02*
X811Y701D01*
X1110Y701D02*
X1233Y701D01*
X1588Y701D02*
X1711Y701D01*
X2010Y701D02*
X2133Y701D01*
X2488Y701D02*
X2611Y701D01*
X2910Y701D02*
X3033Y701D01*
X3388Y701D02*
X3511Y701D01*
X210Y700D02*
X332Y700D01*
X688Y700D02*
X811Y700D01*
X1110Y700D02*
X1232Y700D01*
X1588Y700D02*
X1711Y700D01*
X2010Y700D02*
X2132Y700D01*
X2488Y700D02*
X2611Y700D01*
X2910Y700D02*
X3032Y700D01*
X3388Y700D02*
X3511Y700D01*
X211Y699D02*
X332Y699D01*
X689Y699D02*
X810Y699D01*
X1111Y699D02*
X1232Y699D01*
X1589Y699D02*
X1710Y699D01*
X2011Y699D02*
X2132Y699D01*
X2489Y699D02*
X2610Y699D01*
X2911Y699D02*
X3032Y699D01*
X3389Y699D02*
X3510Y699D01*
X211Y698D02*
X331Y698D01*
X690Y698D02*
X809Y698D01*
X1111Y698D02*
X1231Y698D01*
X1590Y698D02*
X1709Y698D01*
X2011Y698D02*
X2131Y698D01*
X2490Y698D02*
X2609Y698D01*
X2911Y698D02*
X3031Y698D01*
X3390Y698D02*
X3509Y698D01*
X212Y697D02*
X330Y697D01*
X690Y697D02*
X809Y697D01*
X1112Y697D02*
X1230Y697D01*
X1590Y697D02*
X1709Y697D01*
X2012Y697D02*
X2130Y697D01*
X2490Y697D02*
X2609Y697D01*
X2912Y697D02*
X3030Y697D01*
X3390Y697D02*
X3509Y697D01*
X212Y696D02*
X330Y696D01*
X691Y696D02*
X808Y696D01*
X1112Y696D02*
X1230Y696D01*
X1591Y696D02*
X1708Y696D01*
X2012Y696D02*
X2130Y696D01*
X2491Y696D02*
X2608Y696D01*
X2912Y696D02*
X3030Y696D01*
X3391Y696D02*
X3508Y696D01*
X213Y695D02*
X329Y695D01*
X691Y695D02*
X808Y695D01*
X1113Y695D02*
X1229Y695D01*
X1591Y695D02*
X1708Y695D01*
X2013Y695D02*
X2129Y695D01*
X2491Y695D02*
X2608Y695D01*
X2913Y695D02*
X3029Y695D01*
X3391Y695D02*
X3508Y695D01*
X214Y694D02*
X329Y694D01*
X692Y694D02*
X807Y694D01*
X1114Y694D02*
X1229Y694D01*
X1592Y694D02*
X1707Y694D01*
X2014Y694D02*
X2129Y694D01*
X2492Y694D02*
X2607Y694D01*
X2914Y694D02*
X3029Y694D01*
X3392Y694D02*
X3507Y694D01*
X214Y693D02*
X328Y693D01*
X693Y693D02*
X806Y693D01*
X1114Y693D02*
X1228Y693D01*
X1593Y693D02*
X1706Y693D01*
X2014Y693D02*
X2128Y693D01*
X2493Y693D02*
X2606Y693D01*
X2914Y693D02*
X3028Y693D01*
X3393Y693D02*
X3506Y693D01*
X215Y692D02*
X327Y692D01*
X693Y692D02*
X806Y692D01*
X1115Y692D02*
X1227Y692D01*
X1593Y692D02*
X1705Y692D01*
X2015Y692D02*
X2127Y692D01*
X2493Y692D02*
X2605Y692D01*
X2915Y692D02*
X3027Y692D01*
X3393Y692D02*
X3505Y692D01*
X216Y691D02*
X326Y691D01*
X694Y691D02*
X805Y691D01*
X1116Y691D02*
X1226Y691D01*
X1594Y691D02*
X1705Y691D01*
X2016Y691D02*
X2126Y691D01*
X2494Y691D02*
X2605Y691D01*
X2916Y691D02*
X3026Y691D01*
X3394Y691D02*
X3505Y691D01*
X217Y690D02*
X326Y690D01*
X695Y690D02*
X804Y690D01*
X1117Y690D02*
X1226Y690D01*
X1595Y690D02*
X1704Y690D01*
X2017Y690D02*
X2126Y690D01*
X2495Y690D02*
X2604Y690D01*
X2917Y690D02*
X3026Y690D01*
X3395Y690D02*
X3504Y690D01*
X217Y689D02*
X325Y689D01*
X696Y689D02*
X803Y689D01*
X1117Y689D02*
X1225Y689D01*
X1596Y689D02*
X1703Y689D01*
X2017Y689D02*
X2125Y689D01*
X2496Y689D02*
X2603Y689D01*
X2917Y689D02*
X3025Y689D01*
X3396Y689D02*
X3503Y689D01*
X218Y688D02*
X324Y688D01*
X696Y688D02*
X802Y688D01*
X1118Y688D02*
X1224Y688D01*
X1596Y688D02*
X1702Y688D01*
X2018Y688D02*
X2124Y688D01*
X2496Y688D02*
X2602Y688D01*
X2918Y688D02*
X3024Y688D01*
X3396Y688D02*
X3502Y688D01*
X219Y687D02*
X323Y687D01*
X697Y687D02*
X802Y687D01*
X1119Y687D02*
X1223Y687D01*
X1597Y687D02*
X1702Y687D01*
X2019Y687D02*
X2123Y687D01*
X2497Y687D02*
X2602Y687D01*
X2919Y687D02*
X3023Y687D01*
X3397Y687D02*
X3502Y687D01*
X220Y686D02*
X322Y686D01*
X698Y686D02*
X801Y686D01*
X1120Y686D02*
X1222Y686D01*
X1598Y686D02*
X1701Y686D01*
X2020Y686D02*
X2122Y686D01*
X2498Y686D02*
X2601Y686D01*
X2920Y686D02*
X3022Y686D01*
X3398Y686D02*
X3501Y686D01*
X221Y685D02*
X321Y685D01*
X699Y685D02*
X800Y685D01*
X1121Y685D02*
X1221Y685D01*
X1599Y685D02*
X1700Y685D01*
X2021Y685D02*
X2121Y685D01*
X2499Y685D02*
X2600Y685D01*
X2921Y685D02*
X3021Y685D01*
X3399Y685D02*
X3500Y685D01*
X222Y684D02*
X321Y684D01*
X700Y684D02*
X799Y684D01*
X1122Y684D02*
X1221Y684D01*
X1600Y684D02*
X1699Y684D01*
X2022Y684D02*
X2121Y684D01*
X2500Y684D02*
X2599Y684D01*
X2922Y684D02*
X3021Y684D01*
X3400Y684D02*
X3499Y684D01*
X223Y683D02*
X320Y683D01*
X701Y683D02*
X798Y683D01*
X1123Y683D02*
X1220Y683D01*
X1601Y683D02*
X1698Y683D01*
X2023Y683D02*
X2120Y683D01*
X2501Y683D02*
X2598Y683D01*
X2923Y683D02*
X3020Y683D01*
X3401Y683D02*
X3498Y683D01*
X224Y682D02*
X318Y682D01*
X702Y682D02*
X797Y682D01*
X1124Y682D02*
X1218Y682D01*
X1602Y682D02*
X1697Y682D01*
X2024Y682D02*
X2118Y682D01*
X2502Y682D02*
X2597Y682D01*
X2924Y682D02*
X3018Y682D01*
X3402Y682D02*
X3497Y682D01*
X225Y681D02*
X317Y681D01*
X703Y681D02*
X796Y681D01*
X1125Y681D02*
X1217Y681D01*
X1603Y681D02*
X1696Y681D01*
X2025Y681D02*
X2117Y681D01*
X2503Y681D02*
X2596Y681D01*
X2925Y681D02*
X3017Y681D01*
X3403Y681D02*
X3496Y681D01*
X226Y680D02*
X316Y680D01*
X704Y680D02*
X795Y680D01*
X1126Y680D02*
X1216Y680D01*
X1604Y680D02*
X1695Y680D01*
X2026Y680D02*
X2116Y680D01*
X2504Y680D02*
X2595Y680D01*
X2926Y680D02*
X3016Y680D01*
X3404Y680D02*
X3495Y680D01*
X227Y679D02*
X315Y679D01*
X706Y679D02*
X793Y679D01*
X1127Y679D02*
X1215Y679D01*
X1606Y679D02*
X1693Y679D01*
X2027Y679D02*
X2115Y679D01*
X2506Y679D02*
X2593Y679D01*
X2927Y679D02*
X3015Y679D01*
X3406Y679D02*
X3493Y679D01*
X229Y678D02*
X314Y678D01*
X707Y678D02*
X792Y678D01*
X1129Y678D02*
X1214Y678D01*
X1607Y678D02*
X1692Y678D01*
X2029Y678D02*
X2114Y678D01*
X2507Y678D02*
X2592Y678D01*
X2929Y678D02*
X3014Y678D01*
X3407Y678D02*
X3492Y678D01*
X230Y677D02*
X312Y677D01*
X708Y677D02*
X791Y677D01*
X1130Y677D02*
X1212Y677D01*
X1608Y677D02*
X1691Y677D01*
X2030Y677D02*
X2112Y677D01*
X2508Y677D02*
X2591Y677D01*
X2930Y677D02*
X3012Y677D01*
X3408Y677D02*
X3491Y677D01*
X231Y676D02*
X311Y676D01*
X710Y676D02*
X789Y676D01*
X1131Y676D02*
X1211Y676D01*
X1610Y676D02*
X1689Y676D01*
X2031Y676D02*
X2111Y676D01*
X2510Y676D02*
X2589Y676D01*
X2931Y676D02*
X3011Y676D01*
X3410Y676D02*
X3489Y676D01*
X233Y675D02*
X310Y675D01*
X711Y675D02*
X788Y675D01*
X1133Y675D02*
X1210Y675D01*
X1611Y675D02*
X1688Y675D01*
X2033Y675D02*
X2110Y675D01*
X2511Y675D02*
X2588Y675D01*
X2933Y675D02*
X3010Y675D01*
X3411Y675D02*
X3488Y675D01*
X234Y674D02*
X308Y674D01*
X713Y674D02*
X786Y674D01*
X1134Y674D02*
X1208Y674D01*
X1613Y674D02*
X1686Y674D01*
X2034Y674D02*
X2108Y674D01*
X2513Y674D02*
X2586Y674D01*
X2934Y674D02*
X3008Y674D01*
X3413Y674D02*
X3486Y674D01*
X236Y673D02*
X306Y673D01*
X714Y673D02*
X785Y673D01*
X1136Y673D02*
X1206Y673D01*
X1614Y673D02*
X1685Y673D01*
X2036Y673D02*
X2106Y673D01*
X2514Y673D02*
X2585Y673D01*
X2936Y673D02*
X3006Y673D01*
X3414Y673D02*
X3485Y673D01*
X238Y672D02*
X305Y672D01*
X716Y672D02*
X783Y672D01*
X1138Y672D02*
X1205Y672D01*
X1616Y672D02*
X1683Y672D01*
X2038Y672D02*
X2105Y672D01*
X2516Y672D02*
X2583Y672D01*
X2938Y672D02*
X3005Y672D01*
X3416Y672D02*
X3483Y672D01*
X239Y671D02*
X303Y671D01*
X718Y671D02*
X781Y671D01*
X1139Y671D02*
X1203Y671D01*
X1618Y671D02*
X1681Y671D01*
X2039Y671D02*
X2103Y671D01*
X2518Y671D02*
X2581Y671D01*
X2939Y671D02*
X3003Y671D01*
X3418Y671D02*
X3481Y671D01*
X241Y670D02*
X301Y670D01*
X720Y670D02*
X779Y670D01*
X1141Y670D02*
X1201Y670D01*
X1620Y670D02*
X1679Y670D01*
X2041Y670D02*
X2101Y670D01*
X2520Y670D02*
X2579Y670D01*
X2941Y670D02*
X3001Y670D01*
X3420Y670D02*
X3479Y670D01*
X243Y669D02*
X299Y669D01*
X722Y669D02*
X777Y669D01*
X1143Y669D02*
X1199Y669D01*
X1622Y669D02*
X1677Y669D01*
X2043Y669D02*
X2099Y669D01*
X2522Y669D02*
X2577Y669D01*
X2943Y669D02*
X2999Y669D01*
X3422Y669D02*
X3477Y669D01*
X246Y668D02*
X296Y668D01*
X724Y668D02*
X775Y668D01*
X1146Y668D02*
X1196Y668D01*
X1624Y668D02*
X1675Y668D01*
X2046Y668D02*
X2096Y668D01*
X2524Y668D02*
X2575Y668D01*
X2946Y668D02*
X2996Y668D01*
X3424Y668D02*
X3475Y668D01*
X249Y667D02*
X294Y667D01*
X727Y667D02*
X772Y667D01*
X1149Y667D02*
X1194Y667D01*
X1627Y667D02*
X1672Y667D01*
X2049Y667D02*
X2094Y667D01*
X2527Y667D02*
X2572Y667D01*
X2949Y667D02*
X2994Y667D01*
X3427Y667D02*
X3472Y667D01*
X252Y666D02*
X291Y666D01*
X730Y666D02*
X769Y666D01*
X1152Y666D02*
X1191Y666D01*
X1630Y666D02*
X1669Y666D01*
X2052Y666D02*
X2091Y666D01*
X2530Y666D02*
X2569Y666D01*
X2952Y666D02*
X2991Y666D01*
X3430Y666D02*
X3469Y666D01*
X256Y665D02*
X287Y665D01*
X734Y665D02*
X765Y665D01*
X1156Y665D02*
X1187Y665D01*
X1634Y665D02*
X1665Y665D01*
X2056Y665D02*
X2087Y665D01*
X2534Y665D02*
X2565Y665D01*
X2956Y665D02*
X2987Y665D01*
X3434Y665D02*
X3465Y665D01*
X261Y664D02*
X281Y664D01*
X739Y664D02*
X760Y664D01*
X1161Y664D02*
X1181Y664D01*
X1639Y664D02*
X1660Y664D01*
X2061Y664D02*
X2081Y664D01*
X2539Y664D02*
X2560Y664D01*
X2961Y664D02*
X2981Y664D01*
X3439Y664D02*
X3460Y664D01*
D02*
G04 End of Mask0*
M02*