G04 MADE WITH FRITZING*
G04 WWW.FRITZING.ORG*
G04 DOUBLE SIDED*
G04 HOLES PLATED*
G04 CONTOUR ON CENTER OF CONTOUR VECTOR*
%ASAXBY*%
%FSLAX23Y23*%
%MOIN*%
%OFA0B0*%
%SFA1.0B1.0*%
%ADD10C,0.080000*%
%ADD11C,0.075000*%
%ADD12C,0.074472*%
%ADD13C,0.129921*%
%ADD14C,0.099055*%
%ADD15C,0.074000*%
%ADD16C,0.082000*%
%ADD17C,0.078000*%
%ADD18C,0.065000*%
%ADD19R,0.080000X0.080000*%
%ADD20R,0.075000X0.075000*%
%ADD21R,0.099055X0.099055*%
%ADD22R,0.082000X0.082000*%
%ADD23R,0.078000X0.078000*%
%ADD24C,0.024000*%
%ADD25C,0.048000*%
%ADD26C,0.020000*%
%ADD27C,0.017108*%
%ADD28R,0.001000X0.001000*%
%LNCOPPER0*%
G90*
G70*
G54D10*
X250Y2102D03*
X250Y1905D03*
X250Y2502D03*
X250Y2305D03*
X250Y2902D03*
X250Y2705D03*
X250Y3302D03*
X250Y3105D03*
X250Y3702D03*
X250Y3505D03*
X250Y1702D03*
X250Y1505D03*
G54D11*
X2950Y2405D03*
X2950Y2105D03*
X2850Y2405D03*
X2850Y2105D03*
X2750Y2405D03*
X2750Y2105D03*
X2650Y2405D03*
X2650Y2105D03*
X2550Y2405D03*
X2550Y2105D03*
X2450Y2405D03*
X2450Y2105D03*
X2350Y2405D03*
X2350Y2105D03*
X2250Y2405D03*
X2250Y2105D03*
X2150Y2405D03*
X2150Y2105D03*
X2050Y2405D03*
X2050Y2105D03*
X1950Y2405D03*
X1950Y2105D03*
X1850Y2405D03*
X1850Y2105D03*
X1750Y2405D03*
X1750Y2105D03*
X1650Y2405D03*
X1650Y2105D03*
X2150Y1805D03*
X2150Y1505D03*
X2050Y1805D03*
X2050Y1505D03*
X1950Y1805D03*
X1950Y1505D03*
X1850Y1805D03*
X1850Y1505D03*
X1750Y1805D03*
X1750Y1505D03*
X1650Y1805D03*
X1650Y1505D03*
X1550Y1805D03*
X1550Y1505D03*
X1450Y1805D03*
X1450Y1505D03*
X1350Y1805D03*
X1350Y1505D03*
X1250Y1805D03*
X1250Y1505D03*
X1150Y1805D03*
X1150Y1505D03*
X1050Y1805D03*
X1050Y1505D03*
X950Y1805D03*
X950Y1505D03*
X850Y1805D03*
X850Y1505D03*
X750Y1805D03*
X750Y1505D03*
X650Y1805D03*
X650Y1505D03*
G54D12*
X3751Y1705D03*
X3751Y1805D03*
X3650Y1705D03*
X3650Y1805D03*
X3549Y1705D03*
X3549Y1805D03*
X3449Y1705D03*
X3449Y1805D03*
G54D13*
X1669Y3041D03*
X1750Y2805D03*
X2228Y2805D03*
X1750Y3277D03*
X2228Y3277D03*
X669Y3069D03*
X750Y2832D03*
X1228Y2832D03*
X750Y3305D03*
X1228Y3305D03*
X3531Y969D03*
X3450Y1205D03*
X2972Y1205D03*
X3450Y732D03*
X2972Y732D03*
X2631Y969D03*
X2550Y1205D03*
X2072Y1205D03*
X2550Y732D03*
X2072Y732D03*
X831Y969D03*
X750Y1205D03*
X272Y1205D03*
X750Y732D03*
X272Y732D03*
X1731Y969D03*
X1650Y1205D03*
X1172Y1205D03*
X1650Y732D03*
X1172Y732D03*
G54D14*
X2953Y305D03*
X3150Y305D03*
X3347Y305D03*
X2147Y3705D03*
X1950Y3705D03*
X1753Y3705D03*
X1153Y305D03*
X1350Y305D03*
X1547Y305D03*
X253Y305D03*
X450Y305D03*
X647Y305D03*
X1147Y3705D03*
X950Y3705D03*
X753Y3705D03*
X2053Y305D03*
X2250Y305D03*
X2447Y305D03*
G54D10*
X3650Y3805D03*
X3650Y3608D03*
G54D15*
X3750Y2205D03*
X3650Y2205D03*
X3550Y2205D03*
G54D11*
X3750Y2705D03*
X3750Y2405D03*
X3650Y2705D03*
X3650Y2405D03*
G54D16*
X3450Y2853D03*
X3748Y2853D03*
X3450Y3005D03*
X3748Y3005D03*
G54D17*
X3650Y3420D03*
X3650Y3320D03*
X3650Y3220D03*
X3450Y3305D03*
X3450Y3205D03*
G54D18*
X2550Y2605D03*
X2750Y2605D03*
X2750Y2905D03*
X2750Y2805D03*
X2550Y2905D03*
X2550Y2805D03*
G54D11*
X3250Y2505D03*
X2950Y2505D03*
G54D17*
X2650Y1605D03*
X2550Y1605D03*
X2450Y1605D03*
G54D19*
X250Y2102D03*
X250Y2502D03*
X250Y2902D03*
X250Y3302D03*
X250Y3702D03*
X250Y1702D03*
G54D20*
X2150Y1805D03*
G54D21*
X2953Y305D03*
X1153Y305D03*
X253Y305D03*
X2053Y305D03*
G54D19*
X3650Y3805D03*
G54D22*
X3449Y2853D03*
X3449Y3005D03*
G54D23*
X3650Y3420D03*
X2650Y1605D03*
G54D24*
X3650Y1905D02*
X3650Y2174D01*
D02*
X3650Y1905D02*
X3650Y1836D01*
D02*
X3449Y1905D02*
X3650Y1905D01*
D02*
X3449Y1836D02*
X3449Y1905D01*
D02*
X3619Y3608D02*
X2550Y3605D01*
D02*
X2550Y3605D02*
X2550Y2930D01*
D02*
X3848Y1403D02*
X3848Y2404D01*
D02*
X3848Y2404D02*
X3548Y2404D01*
D02*
X2152Y1403D02*
X3848Y1403D01*
D02*
X3548Y2404D02*
X3550Y2236D01*
D02*
X2151Y1476D02*
X2152Y1403D01*
G54D25*
D02*
X3147Y902D02*
X3484Y960D01*
D02*
X3150Y357D02*
X3147Y902D01*
D02*
X2252Y902D02*
X2584Y960D01*
D02*
X2250Y357D02*
X2252Y902D01*
D02*
X1351Y902D02*
X1684Y960D01*
D02*
X1350Y357D02*
X1351Y902D01*
D02*
X449Y902D02*
X784Y960D01*
D02*
X450Y357D02*
X449Y902D01*
D02*
X950Y3653D02*
X950Y3105D01*
D02*
X950Y3105D02*
X717Y3075D01*
D02*
X1950Y3653D02*
X1952Y3105D01*
D02*
X1952Y3105D02*
X1716Y3052D01*
G54D24*
D02*
X2050Y1533D02*
X2050Y2076D01*
D02*
X1651Y1303D02*
X1650Y2076D01*
D02*
X750Y1303D02*
X1651Y1303D01*
D02*
X750Y1476D02*
X750Y1303D01*
D02*
X1250Y2104D02*
X1721Y2105D01*
D02*
X1250Y1833D02*
X1250Y2104D01*
D02*
X1849Y2206D02*
X1849Y2307D01*
D02*
X1651Y2307D02*
X1650Y2376D01*
D02*
X1849Y2307D02*
X1651Y2307D01*
D02*
X1849Y1307D02*
X1849Y2206D01*
D02*
X1849Y1206D02*
X1849Y1307D01*
D02*
X549Y1206D02*
X1849Y1206D01*
D02*
X549Y1505D02*
X549Y1206D01*
D02*
X549Y1607D02*
X549Y1505D01*
D02*
X730Y1785D02*
X549Y1607D01*
D02*
X2651Y2607D02*
X2651Y2505D01*
D02*
X2651Y2505D02*
X2650Y2433D01*
D02*
X2448Y2607D02*
X2651Y2607D01*
D02*
X2448Y3703D02*
X2448Y2607D01*
D02*
X281Y3702D02*
X2448Y3703D01*
D02*
X2351Y2906D02*
X2351Y2505D01*
D02*
X2351Y2505D02*
X2549Y2505D01*
D02*
X1950Y2906D02*
X2351Y2906D01*
D02*
X2549Y2505D02*
X2550Y2433D01*
D02*
X351Y2906D02*
X1950Y2906D01*
D02*
X351Y3302D02*
X351Y2906D01*
D02*
X281Y3302D02*
X351Y3302D01*
D02*
X1351Y2505D02*
X1752Y2505D01*
D02*
X1752Y2505D02*
X1752Y2404D01*
D02*
X1752Y2404D02*
X1776Y2392D01*
D02*
X650Y2505D02*
X1351Y2505D01*
D02*
X650Y2003D02*
X650Y2307D01*
D02*
X650Y2307D02*
X650Y2505D01*
D02*
X452Y2003D02*
X650Y2003D01*
D02*
X452Y1703D02*
X452Y2003D01*
D02*
X281Y1702D02*
X452Y1703D01*
D02*
X249Y2805D02*
X2148Y2805D01*
D02*
X2148Y2607D02*
X2330Y2425D01*
D02*
X2148Y2805D02*
X2148Y2607D01*
D02*
X250Y2871D02*
X249Y2805D01*
D02*
X351Y2703D02*
X1849Y2703D01*
D02*
X249Y2607D02*
X351Y2703D01*
D02*
X1849Y2703D02*
X1941Y2432D01*
D02*
X250Y2533D02*
X249Y2607D01*
D02*
X1351Y2607D02*
X1752Y2607D01*
D02*
X1752Y2607D02*
X1849Y2505D01*
D02*
X1849Y2505D02*
X1850Y2433D01*
D02*
X752Y2607D02*
X950Y2607D01*
D02*
X452Y2404D02*
X452Y2607D01*
D02*
X950Y2607D02*
X1351Y2607D01*
D02*
X281Y2102D02*
X452Y2104D01*
D02*
X452Y2104D02*
X452Y2404D01*
D02*
X452Y2607D02*
X752Y2607D01*
D02*
X2550Y1635D02*
X2549Y2003D01*
D02*
X2549Y2003D02*
X2448Y2003D01*
D02*
X2448Y2003D02*
X2449Y2076D01*
D02*
X3752Y1607D02*
X2680Y1605D01*
D02*
X3751Y1674D02*
X3752Y1607D01*
G54D26*
X2978Y2377D02*
X2923Y2377D01*
X2923Y2432D01*
X2978Y2432D01*
X2978Y2377D01*
D02*
X1378Y1777D02*
X1323Y1777D01*
X1323Y1832D01*
X1378Y1832D01*
X1378Y1777D01*
D02*
G54D27*
X3722Y1676D02*
X3722Y1733D01*
X3779Y1733D01*
X3779Y1676D01*
X3722Y1676D01*
D02*
X3420Y1676D02*
X3420Y1733D01*
X3477Y1733D01*
X3477Y1676D01*
X3420Y1676D01*
D02*
G54D26*
X2186Y3665D02*
X2107Y3665D01*
X2107Y3744D01*
X2186Y3744D01*
X2186Y3665D01*
D02*
X1186Y3665D02*
X1107Y3665D01*
X1107Y3744D01*
X1186Y3744D01*
X1186Y3665D01*
D02*
G54D28*
X745Y3370D02*
X754Y3370D01*
X1223Y3370D02*
X1233Y3370D01*
X738Y3369D02*
X761Y3369D01*
X1216Y3369D02*
X1240Y3369D01*
X733Y3368D02*
X766Y3368D01*
X1212Y3368D02*
X1244Y3368D01*
X730Y3367D02*
X769Y3367D01*
X1208Y3367D02*
X1248Y3367D01*
X727Y3366D02*
X772Y3366D01*
X1205Y3366D02*
X1250Y3366D01*
X724Y3365D02*
X775Y3365D01*
X1203Y3365D02*
X1253Y3365D01*
X722Y3364D02*
X777Y3364D01*
X1201Y3364D02*
X1255Y3364D01*
X720Y3363D02*
X779Y3363D01*
X1199Y3363D02*
X1257Y3363D01*
X718Y3362D02*
X781Y3362D01*
X1197Y3362D02*
X1259Y3362D01*
X717Y3361D02*
X782Y3361D01*
X1195Y3361D02*
X1261Y3361D01*
X715Y3360D02*
X784Y3360D01*
X1193Y3360D02*
X1262Y3360D01*
X714Y3359D02*
X785Y3359D01*
X1192Y3359D02*
X1264Y3359D01*
X712Y3358D02*
X787Y3358D01*
X1191Y3358D02*
X1265Y3358D01*
X711Y3357D02*
X788Y3357D01*
X1189Y3357D02*
X1266Y3357D01*
X710Y3356D02*
X789Y3356D01*
X1188Y3356D02*
X1268Y3356D01*
X708Y3355D02*
X791Y3355D01*
X1187Y3355D02*
X1269Y3355D01*
X707Y3354D02*
X792Y3354D01*
X1185Y3354D02*
X1270Y3354D01*
X706Y3353D02*
X793Y3353D01*
X1184Y3353D02*
X1271Y3353D01*
X705Y3352D02*
X794Y3352D01*
X1183Y3352D02*
X1272Y3352D01*
X704Y3351D02*
X795Y3351D01*
X1182Y3351D02*
X1274Y3351D01*
X703Y3350D02*
X796Y3350D01*
X1181Y3350D02*
X1274Y3350D01*
X702Y3349D02*
X797Y3349D01*
X1180Y3349D02*
X1275Y3349D01*
X701Y3348D02*
X798Y3348D01*
X1179Y3348D02*
X1276Y3348D01*
X700Y3347D02*
X799Y3347D01*
X1179Y3347D02*
X1277Y3347D01*
X699Y3346D02*
X800Y3346D01*
X1178Y3346D02*
X1278Y3346D01*
X699Y3345D02*
X800Y3345D01*
X1177Y3345D02*
X1279Y3345D01*
X698Y3344D02*
X801Y3344D01*
X1176Y3344D02*
X1279Y3344D01*
X697Y3343D02*
X802Y3343D01*
X1176Y3343D02*
X1280Y3343D01*
X696Y3342D02*
X803Y3342D01*
X1175Y3342D02*
X1281Y3342D01*
X1741Y3342D02*
X1758Y3342D01*
X2220Y3342D02*
X2236Y3342D01*
X696Y3341D02*
X803Y3341D01*
X1174Y3341D02*
X1282Y3341D01*
X1736Y3341D02*
X1763Y3341D01*
X2214Y3341D02*
X2242Y3341D01*
X695Y3340D02*
X804Y3340D01*
X1174Y3340D02*
X1282Y3340D01*
X1732Y3340D02*
X1767Y3340D01*
X2210Y3340D02*
X2246Y3340D01*
X695Y3339D02*
X804Y3339D01*
X1173Y3339D02*
X1283Y3339D01*
X1729Y3339D02*
X1770Y3339D01*
X2207Y3339D02*
X2249Y3339D01*
X694Y3338D02*
X805Y3338D01*
X1172Y3338D02*
X1283Y3338D01*
X1726Y3338D02*
X1773Y3338D01*
X2204Y3338D02*
X2252Y3338D01*
X693Y3337D02*
X806Y3337D01*
X1172Y3337D02*
X1284Y3337D01*
X1723Y3337D02*
X1776Y3337D01*
X2202Y3337D02*
X2254Y3337D01*
X693Y3336D02*
X806Y3336D01*
X1171Y3336D02*
X1285Y3336D01*
X1721Y3336D02*
X1778Y3336D01*
X2200Y3336D02*
X2256Y3336D01*
X692Y3335D02*
X807Y3335D01*
X1171Y3335D02*
X1285Y3335D01*
X1719Y3335D02*
X1780Y3335D01*
X2198Y3335D02*
X2258Y3335D01*
X692Y3334D02*
X807Y3334D01*
X1170Y3334D02*
X1286Y3334D01*
X1718Y3334D02*
X1781Y3334D01*
X2196Y3334D02*
X2260Y3334D01*
X691Y3333D02*
X808Y3333D01*
X1170Y3333D02*
X1286Y3333D01*
X1716Y3333D02*
X1783Y3333D01*
X2194Y3333D02*
X2261Y3333D01*
X691Y3332D02*
X808Y3332D01*
X1169Y3332D02*
X1287Y3332D01*
X1714Y3332D02*
X1785Y3332D01*
X2193Y3332D02*
X2263Y3332D01*
X690Y3331D02*
X809Y3331D01*
X1169Y3331D02*
X1287Y3331D01*
X1713Y3331D02*
X1786Y3331D01*
X2191Y3331D02*
X2264Y3331D01*
X690Y3330D02*
X742Y3330D01*
X757Y3330D02*
X809Y3330D01*
X1168Y3330D02*
X1220Y3330D01*
X1235Y3330D02*
X1287Y3330D01*
X1712Y3330D02*
X1787Y3330D01*
X2190Y3330D02*
X2266Y3330D01*
X690Y3329D02*
X739Y3329D01*
X760Y3329D02*
X809Y3329D01*
X1168Y3329D02*
X1218Y3329D01*
X1238Y3329D02*
X1288Y3329D01*
X1710Y3329D02*
X1789Y3329D01*
X2189Y3329D02*
X2267Y3329D01*
X689Y3328D02*
X737Y3328D01*
X762Y3328D02*
X810Y3328D01*
X1168Y3328D02*
X1216Y3328D01*
X1240Y3328D02*
X1288Y3328D01*
X1709Y3328D02*
X1790Y3328D01*
X2187Y3328D02*
X2268Y3328D01*
X689Y3327D02*
X735Y3327D01*
X764Y3327D02*
X810Y3327D01*
X1167Y3327D02*
X1214Y3327D01*
X1242Y3327D02*
X1288Y3327D01*
X1708Y3327D02*
X1791Y3327D01*
X2186Y3327D02*
X2270Y3327D01*
X689Y3326D02*
X734Y3326D01*
X765Y3326D02*
X810Y3326D01*
X1167Y3326D02*
X1212Y3326D01*
X1243Y3326D02*
X1289Y3326D01*
X1707Y3326D02*
X1792Y3326D01*
X2185Y3326D02*
X2271Y3326D01*
X688Y3325D02*
X733Y3325D01*
X766Y3325D02*
X811Y3325D01*
X1166Y3325D02*
X1211Y3325D01*
X1245Y3325D02*
X1289Y3325D01*
X1705Y3325D02*
X1794Y3325D01*
X2184Y3325D02*
X2272Y3325D01*
X688Y3324D02*
X732Y3324D01*
X767Y3324D02*
X811Y3324D01*
X1166Y3324D02*
X1210Y3324D01*
X1246Y3324D02*
X1289Y3324D01*
X1704Y3324D02*
X1795Y3324D01*
X2183Y3324D02*
X2273Y3324D01*
X688Y3323D02*
X731Y3323D01*
X768Y3323D02*
X811Y3323D01*
X1166Y3323D02*
X1209Y3323D01*
X1247Y3323D02*
X1290Y3323D01*
X1703Y3323D02*
X1796Y3323D01*
X2182Y3323D02*
X2274Y3323D01*
X687Y3322D02*
X730Y3322D01*
X769Y3322D02*
X812Y3322D01*
X1166Y3322D02*
X1208Y3322D01*
X1248Y3322D02*
X1290Y3322D01*
X1703Y3322D02*
X1796Y3322D01*
X2181Y3322D02*
X2275Y3322D01*
X687Y3321D02*
X729Y3321D01*
X770Y3321D02*
X812Y3321D01*
X1165Y3321D02*
X1207Y3321D01*
X1249Y3321D02*
X1290Y3321D01*
X1702Y3321D02*
X1797Y3321D01*
X2180Y3321D02*
X2276Y3321D01*
X687Y3320D02*
X728Y3320D01*
X771Y3320D02*
X812Y3320D01*
X1165Y3320D02*
X1206Y3320D01*
X1249Y3320D02*
X1290Y3320D01*
X1701Y3320D02*
X1798Y3320D01*
X2179Y3320D02*
X2277Y3320D01*
X687Y3319D02*
X727Y3319D01*
X772Y3319D02*
X812Y3319D01*
X1165Y3319D02*
X1206Y3319D01*
X1250Y3319D02*
X1291Y3319D01*
X1700Y3319D02*
X1799Y3319D01*
X2178Y3319D02*
X2277Y3319D01*
X686Y3318D02*
X727Y3318D01*
X772Y3318D02*
X813Y3318D01*
X1165Y3318D02*
X1205Y3318D01*
X1251Y3318D02*
X1291Y3318D01*
X1699Y3318D02*
X1800Y3318D01*
X2177Y3318D02*
X2278Y3318D01*
X686Y3317D02*
X726Y3317D01*
X773Y3317D02*
X813Y3317D01*
X1165Y3317D02*
X1205Y3317D01*
X1251Y3317D02*
X1291Y3317D01*
X1698Y3317D02*
X1801Y3317D01*
X2177Y3317D02*
X2279Y3317D01*
X686Y3316D02*
X726Y3316D01*
X773Y3316D02*
X813Y3316D01*
X1164Y3316D02*
X1204Y3316D01*
X1252Y3316D02*
X1291Y3316D01*
X1698Y3316D02*
X1801Y3316D01*
X2176Y3316D02*
X2280Y3316D01*
X686Y3315D02*
X725Y3315D01*
X774Y3315D02*
X813Y3315D01*
X1164Y3315D02*
X1204Y3315D01*
X1252Y3315D02*
X1291Y3315D01*
X1697Y3315D02*
X1802Y3315D01*
X2175Y3315D02*
X2280Y3315D01*
X686Y3314D02*
X725Y3314D01*
X774Y3314D02*
X813Y3314D01*
X1164Y3314D02*
X1203Y3314D01*
X1252Y3314D02*
X1292Y3314D01*
X1696Y3314D02*
X1803Y3314D01*
X2175Y3314D02*
X2281Y3314D01*
X686Y3313D02*
X725Y3313D01*
X774Y3313D02*
X813Y3313D01*
X1164Y3313D02*
X1203Y3313D01*
X1253Y3313D02*
X1292Y3313D01*
X1696Y3313D02*
X1803Y3313D01*
X2174Y3313D02*
X2282Y3313D01*
X685Y3312D02*
X724Y3312D01*
X775Y3312D02*
X814Y3312D01*
X1164Y3312D02*
X1203Y3312D01*
X1253Y3312D02*
X1292Y3312D01*
X1695Y3312D02*
X1804Y3312D01*
X2173Y3312D02*
X2282Y3312D01*
X685Y3311D02*
X724Y3311D01*
X775Y3311D02*
X814Y3311D01*
X1164Y3311D02*
X1202Y3311D01*
X1253Y3311D02*
X1292Y3311D01*
X1694Y3311D02*
X1805Y3311D01*
X2173Y3311D02*
X2283Y3311D01*
X685Y3310D02*
X724Y3310D01*
X775Y3310D02*
X814Y3310D01*
X1164Y3310D02*
X1202Y3310D01*
X1254Y3310D02*
X1292Y3310D01*
X1694Y3310D02*
X1805Y3310D01*
X2172Y3310D02*
X2284Y3310D01*
X685Y3309D02*
X724Y3309D01*
X775Y3309D02*
X814Y3309D01*
X1164Y3309D02*
X1202Y3309D01*
X1254Y3309D02*
X1292Y3309D01*
X1693Y3309D02*
X1806Y3309D01*
X2171Y3309D02*
X2284Y3309D01*
X685Y3308D02*
X723Y3308D01*
X776Y3308D02*
X814Y3308D01*
X1164Y3308D02*
X1202Y3308D01*
X1254Y3308D02*
X1292Y3308D01*
X1693Y3308D02*
X1806Y3308D01*
X2171Y3308D02*
X2285Y3308D01*
X685Y3307D02*
X723Y3307D01*
X776Y3307D02*
X814Y3307D01*
X1163Y3307D02*
X1202Y3307D01*
X1254Y3307D02*
X1292Y3307D01*
X1692Y3307D02*
X1807Y3307D01*
X2170Y3307D02*
X2285Y3307D01*
X685Y3306D02*
X723Y3306D01*
X776Y3306D02*
X814Y3306D01*
X1163Y3306D02*
X1202Y3306D01*
X1254Y3306D02*
X1292Y3306D01*
X1692Y3306D02*
X1807Y3306D01*
X2170Y3306D02*
X2286Y3306D01*
X685Y3305D02*
X723Y3305D01*
X776Y3305D02*
X814Y3305D01*
X1163Y3305D02*
X1202Y3305D01*
X1254Y3305D02*
X1292Y3305D01*
X1691Y3305D02*
X1808Y3305D01*
X2169Y3305D02*
X2286Y3305D01*
X685Y3304D02*
X723Y3304D01*
X776Y3304D02*
X814Y3304D01*
X1163Y3304D02*
X1202Y3304D01*
X1254Y3304D02*
X1292Y3304D01*
X1691Y3304D02*
X1808Y3304D01*
X2169Y3304D02*
X2287Y3304D01*
X685Y3303D02*
X723Y3303D01*
X776Y3303D02*
X814Y3303D01*
X1164Y3303D02*
X1202Y3303D01*
X1254Y3303D02*
X1292Y3303D01*
X1690Y3303D02*
X1744Y3303D01*
X1755Y3303D02*
X1809Y3303D01*
X2168Y3303D02*
X2222Y3303D01*
X2233Y3303D02*
X2287Y3303D01*
X685Y3302D02*
X724Y3302D01*
X775Y3302D02*
X814Y3302D01*
X1164Y3302D02*
X1202Y3302D01*
X1254Y3302D02*
X1292Y3302D01*
X1690Y3302D02*
X1741Y3302D01*
X1758Y3302D02*
X1809Y3302D01*
X2168Y3302D02*
X2219Y3302D01*
X2237Y3302D02*
X2288Y3302D01*
X685Y3301D02*
X724Y3301D01*
X775Y3301D02*
X814Y3301D01*
X1164Y3301D02*
X1202Y3301D01*
X1254Y3301D02*
X1292Y3301D01*
X1689Y3301D02*
X1738Y3301D01*
X1761Y3301D02*
X1810Y3301D01*
X2168Y3301D02*
X2217Y3301D01*
X2239Y3301D02*
X2288Y3301D01*
X685Y3300D02*
X724Y3300D01*
X775Y3300D02*
X814Y3300D01*
X1164Y3300D02*
X1202Y3300D01*
X1253Y3300D02*
X1292Y3300D01*
X1689Y3300D02*
X1736Y3300D01*
X1763Y3300D02*
X1810Y3300D01*
X2167Y3300D02*
X2215Y3300D01*
X2241Y3300D02*
X2288Y3300D01*
X685Y3299D02*
X724Y3299D01*
X775Y3299D02*
X814Y3299D01*
X1164Y3299D02*
X1202Y3299D01*
X1253Y3299D02*
X1292Y3299D01*
X1689Y3299D02*
X1735Y3299D01*
X1764Y3299D02*
X1810Y3299D01*
X2167Y3299D02*
X2213Y3299D01*
X2243Y3299D02*
X2289Y3299D01*
X686Y3298D02*
X724Y3298D01*
X775Y3298D02*
X813Y3298D01*
X1164Y3298D02*
X1203Y3298D01*
X1253Y3298D02*
X1292Y3298D01*
X1688Y3298D02*
X1733Y3298D01*
X1766Y3298D02*
X1811Y3298D01*
X2167Y3298D02*
X2212Y3298D01*
X2244Y3298D02*
X2289Y3298D01*
X686Y3297D02*
X725Y3297D01*
X774Y3297D02*
X813Y3297D01*
X1164Y3297D02*
X1203Y3297D01*
X1253Y3297D02*
X1292Y3297D01*
X1688Y3297D02*
X1732Y3297D01*
X1767Y3297D02*
X1811Y3297D01*
X2166Y3297D02*
X2211Y3297D01*
X2245Y3297D02*
X2289Y3297D01*
X686Y3296D02*
X725Y3296D01*
X774Y3296D02*
X813Y3296D01*
X1164Y3296D02*
X1204Y3296D01*
X1252Y3296D02*
X1291Y3296D01*
X1688Y3296D02*
X1731Y3296D01*
X1768Y3296D02*
X1811Y3296D01*
X2166Y3296D02*
X2209Y3296D01*
X2246Y3296D02*
X2290Y3296D01*
X686Y3295D02*
X726Y3295D01*
X773Y3295D02*
X813Y3295D01*
X1164Y3295D02*
X1204Y3295D01*
X1252Y3295D02*
X1291Y3295D01*
X1688Y3295D02*
X1730Y3295D01*
X1769Y3295D02*
X1811Y3295D01*
X2166Y3295D02*
X2208Y3295D01*
X2247Y3295D02*
X2290Y3295D01*
X686Y3294D02*
X726Y3294D01*
X773Y3294D02*
X813Y3294D01*
X1165Y3294D02*
X1204Y3294D01*
X1251Y3294D02*
X1291Y3294D01*
X1687Y3294D02*
X1729Y3294D01*
X1770Y3294D02*
X1812Y3294D01*
X2166Y3294D02*
X2208Y3294D01*
X2248Y3294D02*
X2290Y3294D01*
X686Y3293D02*
X727Y3293D01*
X772Y3293D02*
X813Y3293D01*
X1165Y3293D02*
X1205Y3293D01*
X1251Y3293D02*
X1291Y3293D01*
X1687Y3293D02*
X1728Y3293D01*
X1771Y3293D02*
X1812Y3293D01*
X2165Y3293D02*
X2207Y3293D01*
X2249Y3293D02*
X2290Y3293D01*
X687Y3292D02*
X727Y3292D01*
X772Y3292D02*
X812Y3292D01*
X1165Y3292D02*
X1206Y3292D01*
X1250Y3292D02*
X1291Y3292D01*
X1687Y3292D02*
X1728Y3292D01*
X1771Y3292D02*
X1812Y3292D01*
X2165Y3292D02*
X2206Y3292D01*
X2250Y3292D02*
X2291Y3292D01*
X687Y3291D02*
X728Y3291D01*
X771Y3291D02*
X812Y3291D01*
X1165Y3291D02*
X1206Y3291D01*
X1250Y3291D02*
X1291Y3291D01*
X1687Y3291D02*
X1727Y3291D01*
X1772Y3291D02*
X1812Y3291D01*
X2165Y3291D02*
X2205Y3291D01*
X2250Y3291D02*
X2291Y3291D01*
X687Y3290D02*
X729Y3290D01*
X770Y3290D02*
X812Y3290D01*
X1165Y3290D02*
X1207Y3290D01*
X1249Y3290D02*
X1290Y3290D01*
X1686Y3290D02*
X1727Y3290D01*
X1772Y3290D02*
X1813Y3290D01*
X2165Y3290D02*
X2205Y3290D01*
X2251Y3290D02*
X2291Y3290D01*
X687Y3289D02*
X729Y3289D01*
X770Y3289D02*
X812Y3289D01*
X1166Y3289D02*
X1208Y3289D01*
X1248Y3289D02*
X1290Y3289D01*
X1686Y3289D02*
X1726Y3289D01*
X1773Y3289D02*
X1813Y3289D01*
X2165Y3289D02*
X2204Y3289D01*
X2251Y3289D02*
X2291Y3289D01*
X688Y3288D02*
X730Y3288D01*
X769Y3288D02*
X811Y3288D01*
X1166Y3288D02*
X1209Y3288D01*
X1247Y3288D02*
X1290Y3288D01*
X1686Y3288D02*
X1726Y3288D01*
X1773Y3288D02*
X1813Y3288D01*
X2164Y3288D02*
X2204Y3288D01*
X2252Y3288D02*
X2291Y3288D01*
X688Y3287D02*
X731Y3287D01*
X768Y3287D02*
X811Y3287D01*
X1166Y3287D02*
X1210Y3287D01*
X1246Y3287D02*
X1290Y3287D01*
X1686Y3287D02*
X1725Y3287D01*
X1774Y3287D02*
X1813Y3287D01*
X2164Y3287D02*
X2203Y3287D01*
X2252Y3287D02*
X2291Y3287D01*
X688Y3286D02*
X732Y3286D01*
X767Y3286D02*
X811Y3286D01*
X1166Y3286D02*
X1211Y3286D01*
X1245Y3286D02*
X1289Y3286D01*
X1686Y3286D02*
X1725Y3286D01*
X1774Y3286D02*
X1813Y3286D01*
X2164Y3286D02*
X2203Y3286D01*
X2253Y3286D02*
X2292Y3286D01*
X688Y3285D02*
X734Y3285D01*
X765Y3285D02*
X811Y3285D01*
X1167Y3285D02*
X1212Y3285D01*
X1244Y3285D02*
X1289Y3285D01*
X1686Y3285D02*
X1724Y3285D01*
X1775Y3285D02*
X1813Y3285D01*
X2164Y3285D02*
X2203Y3285D01*
X2253Y3285D02*
X2292Y3285D01*
X689Y3284D02*
X735Y3284D01*
X764Y3284D02*
X810Y3284D01*
X1167Y3284D02*
X1213Y3284D01*
X1243Y3284D02*
X1289Y3284D01*
X1685Y3284D02*
X1724Y3284D01*
X1775Y3284D02*
X1814Y3284D01*
X2164Y3284D02*
X2202Y3284D01*
X2253Y3284D02*
X2292Y3284D01*
X689Y3283D02*
X737Y3283D01*
X762Y3283D02*
X810Y3283D01*
X1167Y3283D02*
X1215Y3283D01*
X1241Y3283D02*
X1288Y3283D01*
X1685Y3283D02*
X1724Y3283D01*
X1775Y3283D02*
X1814Y3283D01*
X2164Y3283D02*
X2202Y3283D01*
X2254Y3283D02*
X2292Y3283D01*
X689Y3282D02*
X739Y3282D01*
X760Y3282D02*
X810Y3282D01*
X1168Y3282D02*
X1217Y3282D01*
X1239Y3282D02*
X1288Y3282D01*
X1685Y3282D02*
X1724Y3282D01*
X1775Y3282D02*
X1814Y3282D01*
X2164Y3282D02*
X2202Y3282D01*
X2254Y3282D02*
X2292Y3282D01*
X690Y3281D02*
X741Y3281D01*
X758Y3281D02*
X809Y3281D01*
X1168Y3281D02*
X1219Y3281D01*
X1236Y3281D02*
X1288Y3281D01*
X1685Y3281D02*
X1724Y3281D01*
X1775Y3281D02*
X1814Y3281D01*
X2164Y3281D02*
X2202Y3281D01*
X2254Y3281D02*
X2292Y3281D01*
X690Y3280D02*
X745Y3280D01*
X754Y3280D02*
X809Y3280D01*
X1169Y3280D02*
X1223Y3280D01*
X1232Y3280D02*
X1287Y3280D01*
X1685Y3280D02*
X1723Y3280D01*
X1776Y3280D02*
X1814Y3280D01*
X2164Y3280D02*
X2202Y3280D01*
X2254Y3280D02*
X2292Y3280D01*
X691Y3279D02*
X808Y3279D01*
X1169Y3279D02*
X1287Y3279D01*
X1685Y3279D02*
X1723Y3279D01*
X1776Y3279D02*
X1814Y3279D01*
X2163Y3279D02*
X2202Y3279D01*
X2254Y3279D02*
X2292Y3279D01*
X691Y3278D02*
X808Y3278D01*
X1170Y3278D02*
X1286Y3278D01*
X1685Y3278D02*
X1723Y3278D01*
X1776Y3278D02*
X1814Y3278D01*
X2163Y3278D02*
X2202Y3278D01*
X2254Y3278D02*
X2292Y3278D01*
X692Y3277D02*
X807Y3277D01*
X1170Y3277D02*
X1286Y3277D01*
X1685Y3277D02*
X1723Y3277D01*
X1776Y3277D02*
X1814Y3277D01*
X2163Y3277D02*
X2202Y3277D01*
X2254Y3277D02*
X2292Y3277D01*
X692Y3276D02*
X807Y3276D01*
X1170Y3276D02*
X1285Y3276D01*
X1685Y3276D02*
X1723Y3276D01*
X1776Y3276D02*
X1814Y3276D01*
X2163Y3276D02*
X2202Y3276D01*
X2254Y3276D02*
X2292Y3276D01*
X693Y3275D02*
X806Y3275D01*
X1171Y3275D02*
X1285Y3275D01*
X1685Y3275D02*
X1724Y3275D01*
X1775Y3275D02*
X1814Y3275D01*
X2164Y3275D02*
X2202Y3275D01*
X2254Y3275D02*
X2292Y3275D01*
X693Y3274D02*
X806Y3274D01*
X1172Y3274D02*
X1284Y3274D01*
X1685Y3274D02*
X1724Y3274D01*
X1775Y3274D02*
X1814Y3274D01*
X2164Y3274D02*
X2202Y3274D01*
X2254Y3274D02*
X2292Y3274D01*
X694Y3273D02*
X805Y3273D01*
X1172Y3273D02*
X1284Y3273D01*
X1685Y3273D02*
X1724Y3273D01*
X1775Y3273D02*
X1814Y3273D01*
X2164Y3273D02*
X2202Y3273D01*
X2254Y3273D02*
X2292Y3273D01*
X694Y3272D02*
X805Y3272D01*
X1173Y3272D02*
X1283Y3272D01*
X1685Y3272D02*
X1724Y3272D01*
X1775Y3272D02*
X1814Y3272D01*
X2164Y3272D02*
X2202Y3272D01*
X2253Y3272D02*
X2292Y3272D01*
X695Y3271D02*
X804Y3271D01*
X1173Y3271D02*
X1282Y3271D01*
X1685Y3271D02*
X1724Y3271D01*
X1775Y3271D02*
X1814Y3271D01*
X2164Y3271D02*
X2203Y3271D01*
X2253Y3271D02*
X2292Y3271D01*
X696Y3270D02*
X803Y3270D01*
X1174Y3270D02*
X1282Y3270D01*
X1686Y3270D02*
X1725Y3270D01*
X1774Y3270D02*
X1813Y3270D01*
X2164Y3270D02*
X2203Y3270D01*
X2253Y3270D02*
X2292Y3270D01*
X696Y3269D02*
X803Y3269D01*
X1175Y3269D02*
X1281Y3269D01*
X1686Y3269D02*
X1725Y3269D01*
X1774Y3269D02*
X1813Y3269D01*
X2164Y3269D02*
X2203Y3269D01*
X2252Y3269D02*
X2292Y3269D01*
X697Y3268D02*
X802Y3268D01*
X1175Y3268D02*
X1280Y3268D01*
X1686Y3268D02*
X1725Y3268D01*
X1774Y3268D02*
X1813Y3268D01*
X2164Y3268D02*
X2204Y3268D01*
X2252Y3268D02*
X2291Y3268D01*
X698Y3267D02*
X801Y3267D01*
X1176Y3267D02*
X1280Y3267D01*
X1686Y3267D02*
X1726Y3267D01*
X1773Y3267D02*
X1813Y3267D01*
X2164Y3267D02*
X2204Y3267D01*
X2252Y3267D02*
X2291Y3267D01*
X698Y3266D02*
X800Y3266D01*
X1177Y3266D02*
X1279Y3266D01*
X1686Y3266D02*
X1726Y3266D01*
X1773Y3266D02*
X1813Y3266D01*
X2165Y3266D02*
X2205Y3266D01*
X2251Y3266D02*
X2291Y3266D01*
X699Y3265D02*
X800Y3265D01*
X1178Y3265D02*
X1278Y3265D01*
X1686Y3265D02*
X1727Y3265D01*
X1772Y3265D02*
X1813Y3265D01*
X2165Y3265D02*
X2205Y3265D01*
X2250Y3265D02*
X2291Y3265D01*
X700Y3264D02*
X799Y3264D01*
X1178Y3264D02*
X1277Y3264D01*
X1687Y3264D02*
X1727Y3264D01*
X1772Y3264D02*
X1812Y3264D01*
X2165Y3264D02*
X2206Y3264D01*
X2250Y3264D02*
X2291Y3264D01*
X701Y3263D02*
X798Y3263D01*
X1179Y3263D02*
X1276Y3263D01*
X1687Y3263D02*
X1728Y3263D01*
X1771Y3263D02*
X1812Y3263D01*
X2165Y3263D02*
X2206Y3263D01*
X2249Y3263D02*
X2290Y3263D01*
X702Y3262D02*
X797Y3262D01*
X1180Y3262D02*
X1276Y3262D01*
X1687Y3262D02*
X1729Y3262D01*
X1770Y3262D02*
X1812Y3262D01*
X2166Y3262D02*
X2207Y3262D01*
X2248Y3262D02*
X2290Y3262D01*
X703Y3261D02*
X796Y3261D01*
X1181Y3261D02*
X1275Y3261D01*
X1687Y3261D02*
X1730Y3261D01*
X1769Y3261D02*
X1812Y3261D01*
X2166Y3261D02*
X2208Y3261D01*
X2248Y3261D02*
X2290Y3261D01*
X704Y3260D02*
X795Y3260D01*
X1182Y3260D02*
X1274Y3260D01*
X1688Y3260D02*
X1731Y3260D01*
X1768Y3260D02*
X1811Y3260D01*
X2166Y3260D02*
X2209Y3260D01*
X2247Y3260D02*
X2290Y3260D01*
X705Y3259D02*
X794Y3259D01*
X1183Y3259D02*
X1273Y3259D01*
X1688Y3259D02*
X1732Y3259D01*
X1767Y3259D02*
X1811Y3259D01*
X2166Y3259D02*
X2210Y3259D01*
X2246Y3259D02*
X2289Y3259D01*
X706Y3258D02*
X793Y3258D01*
X1184Y3258D02*
X1272Y3258D01*
X1688Y3258D02*
X1733Y3258D01*
X1766Y3258D02*
X1811Y3258D01*
X2167Y3258D02*
X2211Y3258D01*
X2244Y3258D02*
X2289Y3258D01*
X707Y3257D02*
X792Y3257D01*
X1185Y3257D02*
X1271Y3257D01*
X1689Y3257D02*
X1734Y3257D01*
X1765Y3257D02*
X1810Y3257D01*
X2167Y3257D02*
X2212Y3257D01*
X2243Y3257D02*
X2289Y3257D01*
X708Y3256D02*
X791Y3256D01*
X1186Y3256D02*
X1269Y3256D01*
X1689Y3256D02*
X1736Y3256D01*
X1763Y3256D02*
X1810Y3256D01*
X2167Y3256D02*
X2214Y3256D01*
X2242Y3256D02*
X2288Y3256D01*
X709Y3255D02*
X790Y3255D01*
X1187Y3255D02*
X1268Y3255D01*
X1689Y3255D02*
X1737Y3255D01*
X1762Y3255D02*
X1810Y3255D01*
X2168Y3255D02*
X2216Y3255D01*
X2240Y3255D02*
X2288Y3255D01*
X710Y3254D02*
X789Y3254D01*
X1189Y3254D02*
X1267Y3254D01*
X1690Y3254D02*
X1740Y3254D01*
X1759Y3254D02*
X1809Y3254D01*
X2168Y3254D02*
X2218Y3254D01*
X2238Y3254D02*
X2288Y3254D01*
X712Y3253D02*
X787Y3253D01*
X1190Y3253D02*
X1266Y3253D01*
X1690Y3253D02*
X1742Y3253D01*
X1757Y3253D02*
X1809Y3253D01*
X2168Y3253D02*
X2221Y3253D01*
X2235Y3253D02*
X2287Y3253D01*
X713Y3252D02*
X786Y3252D01*
X1192Y3252D02*
X1264Y3252D01*
X1690Y3252D02*
X1809Y3252D01*
X2169Y3252D02*
X2287Y3252D01*
X715Y3251D02*
X784Y3251D01*
X1193Y3251D02*
X1263Y3251D01*
X1691Y3251D02*
X1808Y3251D01*
X2169Y3251D02*
X2286Y3251D01*
X716Y3250D02*
X783Y3250D01*
X1195Y3250D02*
X1261Y3250D01*
X1691Y3250D02*
X1808Y3250D01*
X2170Y3250D02*
X2286Y3250D01*
X718Y3249D02*
X781Y3249D01*
X1196Y3249D02*
X1259Y3249D01*
X1692Y3249D02*
X1807Y3249D01*
X2170Y3249D02*
X2285Y3249D01*
X720Y3248D02*
X779Y3248D01*
X1198Y3248D02*
X1258Y3248D01*
X1692Y3248D02*
X1807Y3248D01*
X2171Y3248D02*
X2285Y3248D01*
X722Y3247D02*
X777Y3247D01*
X1200Y3247D02*
X1256Y3247D01*
X1693Y3247D02*
X1806Y3247D01*
X2171Y3247D02*
X2284Y3247D01*
X724Y3246D02*
X775Y3246D01*
X1202Y3246D02*
X1254Y3246D01*
X1693Y3246D02*
X1806Y3246D01*
X2172Y3246D02*
X2284Y3246D01*
X726Y3245D02*
X773Y3245D01*
X1204Y3245D02*
X1251Y3245D01*
X1694Y3245D02*
X1805Y3245D01*
X2172Y3245D02*
X2283Y3245D01*
X729Y3244D02*
X770Y3244D01*
X1207Y3244D02*
X1248Y3244D01*
X1695Y3244D02*
X1804Y3244D01*
X2173Y3244D02*
X2283Y3244D01*
X732Y3243D02*
X767Y3243D01*
X1211Y3243D02*
X1245Y3243D01*
X1695Y3243D02*
X1804Y3243D01*
X2174Y3243D02*
X2282Y3243D01*
X736Y3242D02*
X763Y3242D01*
X1215Y3242D02*
X1241Y3242D01*
X1696Y3242D02*
X1803Y3242D01*
X2174Y3242D02*
X2281Y3242D01*
X742Y3241D02*
X757Y3241D01*
X1220Y3241D02*
X1235Y3241D01*
X1697Y3241D02*
X1802Y3241D01*
X2175Y3241D02*
X2281Y3241D01*
X1697Y3240D02*
X1802Y3240D01*
X2176Y3240D02*
X2280Y3240D01*
X1698Y3239D02*
X1801Y3239D01*
X2176Y3239D02*
X2279Y3239D01*
X1699Y3238D02*
X1800Y3238D01*
X2177Y3238D02*
X2279Y3238D01*
X1700Y3237D02*
X1799Y3237D01*
X2178Y3237D02*
X2278Y3237D01*
X1700Y3236D02*
X1799Y3236D01*
X2179Y3236D02*
X2277Y3236D01*
X1701Y3235D02*
X1798Y3235D01*
X2180Y3235D02*
X2276Y3235D01*
X1702Y3234D02*
X1797Y3234D01*
X2180Y3234D02*
X2275Y3234D01*
X1703Y3233D02*
X1796Y3233D01*
X2181Y3233D02*
X2274Y3233D01*
X1704Y3232D02*
X1795Y3232D01*
X2182Y3232D02*
X2273Y3232D01*
X1705Y3231D02*
X1794Y3231D01*
X2183Y3231D02*
X2272Y3231D01*
X1706Y3230D02*
X1793Y3230D01*
X2184Y3230D02*
X2271Y3230D01*
X1707Y3229D02*
X1792Y3229D01*
X2186Y3229D02*
X2270Y3229D01*
X1708Y3228D02*
X1791Y3228D01*
X2187Y3228D02*
X2269Y3228D01*
X1710Y3227D02*
X1789Y3227D01*
X2188Y3227D02*
X2268Y3227D01*
X1711Y3226D02*
X1788Y3226D01*
X2189Y3226D02*
X2266Y3226D01*
X1712Y3225D02*
X1787Y3225D01*
X2191Y3225D02*
X2265Y3225D01*
X1714Y3224D02*
X1785Y3224D01*
X2192Y3224D02*
X2264Y3224D01*
X1715Y3223D02*
X1784Y3223D01*
X2194Y3223D02*
X2262Y3223D01*
X1717Y3222D02*
X1782Y3222D01*
X2195Y3222D02*
X2260Y3222D01*
X1719Y3221D02*
X1780Y3221D01*
X2197Y3221D02*
X2259Y3221D01*
X1721Y3220D02*
X1778Y3220D01*
X2199Y3220D02*
X2257Y3220D01*
X1723Y3219D02*
X1776Y3219D01*
X2201Y3219D02*
X2255Y3219D01*
X1725Y3218D02*
X1774Y3218D01*
X2203Y3218D02*
X2253Y3218D01*
X1727Y3217D02*
X1772Y3217D01*
X2206Y3217D02*
X2250Y3217D01*
X1730Y3216D02*
X1769Y3216D01*
X2209Y3216D02*
X2247Y3216D01*
X1734Y3215D02*
X1765Y3215D01*
X2212Y3215D02*
X2243Y3215D01*
X1739Y3214D02*
X1760Y3214D01*
X2217Y3214D02*
X2239Y3214D01*
X1747Y3213D02*
X1752Y3213D01*
X2226Y3213D02*
X2230Y3213D01*
X668Y3134D02*
X670Y3134D01*
X658Y3133D02*
X679Y3133D01*
X654Y3132D02*
X684Y3132D01*
X650Y3131D02*
X688Y3131D01*
X647Y3130D02*
X691Y3130D01*
X644Y3129D02*
X694Y3129D01*
X642Y3128D02*
X696Y3128D01*
X640Y3127D02*
X698Y3127D01*
X638Y3126D02*
X700Y3126D01*
X636Y3125D02*
X701Y3125D01*
X635Y3124D02*
X703Y3124D01*
X633Y3123D02*
X704Y3123D01*
X632Y3122D02*
X706Y3122D01*
X630Y3121D02*
X707Y3121D01*
X629Y3120D02*
X709Y3120D01*
X628Y3119D02*
X710Y3119D01*
X627Y3118D02*
X711Y3118D01*
X626Y3117D02*
X712Y3117D01*
X624Y3116D02*
X713Y3116D01*
X623Y3115D02*
X714Y3115D01*
X622Y3114D02*
X715Y3114D01*
X621Y3113D02*
X716Y3113D01*
X621Y3112D02*
X717Y3112D01*
X620Y3111D02*
X718Y3111D01*
X619Y3110D02*
X719Y3110D01*
X618Y3109D02*
X719Y3109D01*
X617Y3108D02*
X720Y3108D01*
X617Y3107D02*
X721Y3107D01*
X616Y3106D02*
X722Y3106D01*
X1662Y3106D02*
X1676Y3106D01*
X615Y3105D02*
X722Y3105D01*
X1656Y3105D02*
X1682Y3105D01*
X615Y3104D02*
X723Y3104D01*
X1652Y3104D02*
X1686Y3104D01*
X614Y3103D02*
X724Y3103D01*
X1648Y3103D02*
X1689Y3103D01*
X613Y3102D02*
X724Y3102D01*
X1646Y3102D02*
X1692Y3102D01*
X613Y3101D02*
X725Y3101D01*
X1643Y3101D02*
X1694Y3101D01*
X612Y3100D02*
X725Y3100D01*
X1641Y3100D02*
X1696Y3100D01*
X612Y3099D02*
X726Y3099D01*
X1639Y3099D02*
X1699Y3099D01*
X611Y3098D02*
X726Y3098D01*
X1637Y3098D02*
X1700Y3098D01*
X611Y3097D02*
X727Y3097D01*
X1636Y3097D02*
X1702Y3097D01*
X610Y3096D02*
X727Y3096D01*
X1634Y3096D02*
X1704Y3096D01*
X610Y3095D02*
X728Y3095D01*
X1633Y3095D02*
X1705Y3095D01*
X609Y3094D02*
X662Y3094D01*
X676Y3094D02*
X728Y3094D01*
X1631Y3094D02*
X1706Y3094D01*
X609Y3093D02*
X659Y3093D01*
X679Y3093D02*
X729Y3093D01*
X1630Y3093D02*
X1708Y3093D01*
X609Y3092D02*
X657Y3092D01*
X681Y3092D02*
X729Y3092D01*
X1628Y3092D02*
X1709Y3092D01*
X608Y3091D02*
X655Y3091D01*
X683Y3091D02*
X729Y3091D01*
X1627Y3091D02*
X1710Y3091D01*
X608Y3090D02*
X653Y3090D01*
X684Y3090D02*
X730Y3090D01*
X1626Y3090D02*
X1711Y3090D01*
X608Y3089D02*
X652Y3089D01*
X685Y3089D02*
X730Y3089D01*
X1625Y3089D02*
X1713Y3089D01*
X607Y3088D02*
X651Y3088D01*
X687Y3088D02*
X730Y3088D01*
X1624Y3088D02*
X1714Y3088D01*
X607Y3087D02*
X650Y3087D01*
X688Y3087D02*
X731Y3087D01*
X1623Y3087D02*
X1715Y3087D01*
X607Y3086D02*
X649Y3086D01*
X688Y3086D02*
X731Y3086D01*
X1622Y3086D02*
X1716Y3086D01*
X606Y3085D02*
X648Y3085D01*
X689Y3085D02*
X731Y3085D01*
X1621Y3085D02*
X1716Y3085D01*
X606Y3084D02*
X647Y3084D01*
X690Y3084D02*
X731Y3084D01*
X1620Y3084D02*
X1717Y3084D01*
X606Y3083D02*
X647Y3083D01*
X691Y3083D02*
X732Y3083D01*
X1619Y3083D02*
X1718Y3083D01*
X606Y3082D02*
X646Y3082D01*
X691Y3082D02*
X732Y3082D01*
X1619Y3082D02*
X1719Y3082D01*
X606Y3081D02*
X646Y3081D01*
X692Y3081D02*
X732Y3081D01*
X1618Y3081D02*
X1720Y3081D01*
X605Y3080D02*
X645Y3080D01*
X692Y3080D02*
X732Y3080D01*
X1617Y3080D02*
X1720Y3080D01*
X605Y3079D02*
X645Y3079D01*
X693Y3079D02*
X732Y3079D01*
X1616Y3079D02*
X1721Y3079D01*
X605Y3078D02*
X644Y3078D01*
X693Y3078D02*
X732Y3078D01*
X1616Y3078D02*
X1722Y3078D01*
X605Y3077D02*
X644Y3077D01*
X694Y3077D02*
X733Y3077D01*
X1615Y3077D02*
X1723Y3077D01*
X605Y3076D02*
X644Y3076D01*
X694Y3076D02*
X733Y3076D01*
X1614Y3076D02*
X1723Y3076D01*
X605Y3075D02*
X643Y3075D01*
X694Y3075D02*
X733Y3075D01*
X1614Y3075D02*
X1724Y3075D01*
X605Y3074D02*
X643Y3074D01*
X695Y3074D02*
X733Y3074D01*
X1613Y3074D02*
X1724Y3074D01*
X605Y3073D02*
X643Y3073D01*
X695Y3073D02*
X733Y3073D01*
X1613Y3073D02*
X1725Y3073D01*
X605Y3072D02*
X643Y3072D01*
X695Y3072D02*
X733Y3072D01*
X1612Y3072D02*
X1726Y3072D01*
X604Y3071D02*
X643Y3071D01*
X695Y3071D02*
X733Y3071D01*
X1611Y3071D02*
X1726Y3071D01*
X604Y3070D02*
X643Y3070D01*
X695Y3070D02*
X733Y3070D01*
X1611Y3070D02*
X1727Y3070D01*
X604Y3069D02*
X643Y3069D01*
X695Y3069D02*
X733Y3069D01*
X1610Y3069D02*
X1727Y3069D01*
X604Y3068D02*
X643Y3068D01*
X695Y3068D02*
X733Y3068D01*
X1610Y3068D02*
X1728Y3068D01*
X604Y3067D02*
X643Y3067D01*
X695Y3067D02*
X733Y3067D01*
X1610Y3067D02*
X1665Y3067D01*
X1673Y3067D02*
X1728Y3067D01*
X605Y3066D02*
X643Y3066D01*
X695Y3066D02*
X733Y3066D01*
X1609Y3066D02*
X1660Y3066D01*
X1677Y3066D02*
X1728Y3066D01*
X605Y3065D02*
X643Y3065D01*
X695Y3065D02*
X733Y3065D01*
X1609Y3065D02*
X1658Y3065D01*
X1680Y3065D02*
X1729Y3065D01*
X605Y3064D02*
X643Y3064D01*
X694Y3064D02*
X733Y3064D01*
X1608Y3064D02*
X1656Y3064D01*
X1682Y3064D02*
X1729Y3064D01*
X605Y3063D02*
X643Y3063D01*
X694Y3063D02*
X733Y3063D01*
X1608Y3063D02*
X1654Y3063D01*
X1683Y3063D02*
X1730Y3063D01*
X605Y3062D02*
X644Y3062D01*
X694Y3062D02*
X733Y3062D01*
X1608Y3062D02*
X1653Y3062D01*
X1685Y3062D02*
X1730Y3062D01*
X605Y3061D02*
X644Y3061D01*
X694Y3061D02*
X733Y3061D01*
X1607Y3061D02*
X1652Y3061D01*
X1686Y3061D02*
X1730Y3061D01*
X605Y3060D02*
X644Y3060D01*
X693Y3060D02*
X732Y3060D01*
X1607Y3060D02*
X1651Y3060D01*
X1687Y3060D02*
X1730Y3060D01*
X605Y3059D02*
X645Y3059D01*
X693Y3059D02*
X732Y3059D01*
X1607Y3059D02*
X1650Y3059D01*
X1688Y3059D02*
X1731Y3059D01*
X605Y3058D02*
X645Y3058D01*
X692Y3058D02*
X732Y3058D01*
X1607Y3058D02*
X1649Y3058D01*
X1689Y3058D02*
X1731Y3058D01*
X606Y3057D02*
X646Y3057D01*
X692Y3057D02*
X732Y3057D01*
X1606Y3057D02*
X1648Y3057D01*
X1690Y3057D02*
X1731Y3057D01*
X606Y3056D02*
X646Y3056D01*
X691Y3056D02*
X732Y3056D01*
X1606Y3056D02*
X1647Y3056D01*
X1691Y3056D02*
X1731Y3056D01*
X606Y3055D02*
X647Y3055D01*
X691Y3055D02*
X732Y3055D01*
X1606Y3055D02*
X1646Y3055D01*
X1691Y3055D02*
X1732Y3055D01*
X606Y3054D02*
X648Y3054D01*
X690Y3054D02*
X731Y3054D01*
X1606Y3054D02*
X1646Y3054D01*
X1692Y3054D02*
X1732Y3054D01*
X607Y3053D02*
X649Y3053D01*
X689Y3053D02*
X731Y3053D01*
X1605Y3053D02*
X1645Y3053D01*
X1692Y3053D02*
X1732Y3053D01*
X607Y3052D02*
X649Y3052D01*
X688Y3052D02*
X731Y3052D01*
X1605Y3052D02*
X1645Y3052D01*
X1693Y3052D02*
X1732Y3052D01*
X607Y3051D02*
X650Y3051D01*
X687Y3051D02*
X731Y3051D01*
X1605Y3051D02*
X1644Y3051D01*
X1693Y3051D02*
X1732Y3051D01*
X607Y3050D02*
X651Y3050D01*
X686Y3050D02*
X730Y3050D01*
X1605Y3050D02*
X1644Y3050D01*
X1693Y3050D02*
X1733Y3050D01*
X608Y3049D02*
X653Y3049D01*
X685Y3049D02*
X730Y3049D01*
X1605Y3049D02*
X1644Y3049D01*
X1694Y3049D02*
X1733Y3049D01*
X608Y3048D02*
X654Y3048D01*
X684Y3048D02*
X730Y3048D01*
X1605Y3048D02*
X1643Y3048D01*
X1694Y3048D02*
X1733Y3048D01*
X608Y3047D02*
X656Y3047D01*
X682Y3047D02*
X729Y3047D01*
X1605Y3047D02*
X1643Y3047D01*
X1694Y3047D02*
X1733Y3047D01*
X609Y3046D02*
X657Y3046D01*
X680Y3046D02*
X729Y3046D01*
X1605Y3046D02*
X1643Y3046D01*
X1695Y3046D02*
X1733Y3046D01*
X609Y3045D02*
X660Y3045D01*
X678Y3045D02*
X729Y3045D01*
X1605Y3045D02*
X1643Y3045D01*
X1695Y3045D02*
X1733Y3045D01*
X609Y3044D02*
X663Y3044D01*
X675Y3044D02*
X728Y3044D01*
X1604Y3044D02*
X1643Y3044D01*
X1695Y3044D02*
X1733Y3044D01*
X610Y3043D02*
X728Y3043D01*
X1604Y3043D02*
X1643Y3043D01*
X1695Y3043D02*
X1733Y3043D01*
X610Y3042D02*
X727Y3042D01*
X1604Y3042D02*
X1643Y3042D01*
X1695Y3042D02*
X1733Y3042D01*
X611Y3041D02*
X727Y3041D01*
X1604Y3041D02*
X1643Y3041D01*
X1695Y3041D02*
X1733Y3041D01*
X611Y3040D02*
X726Y3040D01*
X1604Y3040D02*
X1643Y3040D01*
X1695Y3040D02*
X1733Y3040D01*
X612Y3039D02*
X726Y3039D01*
X1604Y3039D02*
X1643Y3039D01*
X1695Y3039D02*
X1733Y3039D01*
X612Y3038D02*
X725Y3038D01*
X1605Y3038D02*
X1643Y3038D01*
X1695Y3038D02*
X1733Y3038D01*
X613Y3037D02*
X725Y3037D01*
X1605Y3037D02*
X1643Y3037D01*
X1695Y3037D02*
X1733Y3037D01*
X614Y3036D02*
X724Y3036D01*
X1605Y3036D02*
X1643Y3036D01*
X1694Y3036D02*
X1733Y3036D01*
X614Y3035D02*
X723Y3035D01*
X1605Y3035D02*
X1643Y3035D01*
X1694Y3035D02*
X1733Y3035D01*
X615Y3034D02*
X723Y3034D01*
X1605Y3034D02*
X1644Y3034D01*
X1694Y3034D02*
X1733Y3034D01*
X615Y3033D02*
X722Y3033D01*
X1605Y3033D02*
X1644Y3033D01*
X1693Y3033D02*
X1733Y3033D01*
X616Y3032D02*
X721Y3032D01*
X1605Y3032D02*
X1645Y3032D01*
X1693Y3032D02*
X1732Y3032D01*
X617Y3031D02*
X721Y3031D01*
X1605Y3031D02*
X1645Y3031D01*
X1693Y3031D02*
X1732Y3031D01*
X618Y3030D02*
X720Y3030D01*
X1606Y3030D02*
X1646Y3030D01*
X1692Y3030D02*
X1732Y3030D01*
X618Y3029D02*
X719Y3029D01*
X1606Y3029D02*
X1646Y3029D01*
X1692Y3029D02*
X1732Y3029D01*
X619Y3028D02*
X718Y3028D01*
X1606Y3028D02*
X1647Y3028D01*
X1691Y3028D02*
X1732Y3028D01*
X620Y3027D02*
X718Y3027D01*
X1606Y3027D02*
X1647Y3027D01*
X1690Y3027D02*
X1731Y3027D01*
X621Y3026D02*
X717Y3026D01*
X1606Y3026D02*
X1648Y3026D01*
X1690Y3026D02*
X1731Y3026D01*
X622Y3025D02*
X716Y3025D01*
X1607Y3025D02*
X1649Y3025D01*
X1689Y3025D02*
X1731Y3025D01*
X623Y3024D02*
X715Y3024D01*
X1607Y3024D02*
X1650Y3024D01*
X1688Y3024D02*
X1731Y3024D01*
X624Y3023D02*
X714Y3023D01*
X1607Y3023D02*
X1651Y3023D01*
X1687Y3023D02*
X1730Y3023D01*
X625Y3022D02*
X713Y3022D01*
X1607Y3022D02*
X1652Y3022D01*
X1686Y3022D02*
X1730Y3022D01*
X626Y3021D02*
X712Y3021D01*
X1608Y3021D02*
X1653Y3021D01*
X1684Y3021D02*
X1730Y3021D01*
X627Y3020D02*
X711Y3020D01*
X1608Y3020D02*
X1654Y3020D01*
X1683Y3020D02*
X1729Y3020D01*
X628Y3019D02*
X709Y3019D01*
X1608Y3019D02*
X1656Y3019D01*
X1681Y3019D02*
X1729Y3019D01*
X629Y3018D02*
X708Y3018D01*
X1609Y3018D02*
X1658Y3018D01*
X1679Y3018D02*
X1729Y3018D01*
X631Y3017D02*
X707Y3017D01*
X1609Y3017D02*
X1661Y3017D01*
X1677Y3017D02*
X1728Y3017D01*
X632Y3016D02*
X705Y3016D01*
X1610Y3016D02*
X1728Y3016D01*
X634Y3015D02*
X704Y3015D01*
X1610Y3015D02*
X1727Y3015D01*
X635Y3014D02*
X702Y3014D01*
X1611Y3014D02*
X1727Y3014D01*
X637Y3013D02*
X701Y3013D01*
X1611Y3013D02*
X1727Y3013D01*
X639Y3012D02*
X699Y3012D01*
X1612Y3012D02*
X1726Y3012D01*
X641Y3011D02*
X697Y3011D01*
X1612Y3011D02*
X1726Y3011D01*
X643Y3010D02*
X695Y3010D01*
X1613Y3010D02*
X1725Y3010D01*
X645Y3009D02*
X693Y3009D01*
X1613Y3009D02*
X1724Y3009D01*
X648Y3008D02*
X690Y3008D01*
X1614Y3008D02*
X1724Y3008D01*
X651Y3007D02*
X687Y3007D01*
X1614Y3007D02*
X1723Y3007D01*
X655Y3006D02*
X683Y3006D01*
X1615Y3006D02*
X1722Y3006D01*
X660Y3005D02*
X677Y3005D01*
X1616Y3005D02*
X1722Y3005D01*
X1616Y3004D02*
X1721Y3004D01*
X1617Y3003D02*
X1720Y3003D01*
X1618Y3002D02*
X1720Y3002D01*
X1619Y3001D02*
X1719Y3001D01*
X1619Y3000D02*
X1718Y3000D01*
X1620Y2999D02*
X1717Y2999D01*
X1621Y2998D02*
X1716Y2998D01*
X1622Y2997D02*
X1715Y2997D01*
X1623Y2996D02*
X1715Y2996D01*
X1624Y2995D02*
X1713Y2995D01*
X1625Y2994D02*
X1712Y2994D01*
X1626Y2993D02*
X1711Y2993D01*
X1627Y2992D02*
X1710Y2992D01*
X1629Y2991D02*
X1709Y2991D01*
X1630Y2990D02*
X1708Y2990D01*
X1631Y2989D02*
X1706Y2989D01*
X1633Y2988D02*
X1705Y2988D01*
X1634Y2987D02*
X1703Y2987D01*
X1636Y2986D02*
X1702Y2986D01*
X1638Y2985D02*
X1700Y2985D01*
X1639Y2984D02*
X1698Y2984D01*
X1641Y2983D02*
X1696Y2983D01*
X1643Y2982D02*
X1694Y2982D01*
X1646Y2981D02*
X1691Y2981D01*
X1649Y2980D02*
X1689Y2980D01*
X1652Y2979D02*
X1685Y2979D01*
X1657Y2978D02*
X1681Y2978D01*
X1663Y2977D02*
X1675Y2977D01*
X740Y2897D02*
X759Y2897D01*
X1219Y2897D02*
X1237Y2897D01*
X735Y2896D02*
X764Y2896D01*
X1213Y2896D02*
X1242Y2896D01*
X731Y2895D02*
X768Y2895D01*
X1209Y2895D02*
X1246Y2895D01*
X728Y2894D02*
X771Y2894D01*
X1206Y2894D02*
X1249Y2894D01*
X725Y2893D02*
X774Y2893D01*
X1204Y2893D02*
X1252Y2893D01*
X723Y2892D02*
X776Y2892D01*
X1201Y2892D02*
X1254Y2892D01*
X721Y2891D02*
X778Y2891D01*
X1199Y2891D02*
X1256Y2891D01*
X719Y2890D02*
X780Y2890D01*
X1197Y2890D02*
X1258Y2890D01*
X717Y2889D02*
X782Y2889D01*
X1196Y2889D02*
X1260Y2889D01*
X716Y2888D02*
X783Y2888D01*
X1194Y2888D02*
X1262Y2888D01*
X714Y2887D02*
X785Y2887D01*
X1193Y2887D02*
X1263Y2887D01*
X713Y2886D02*
X786Y2886D01*
X1191Y2886D02*
X1265Y2886D01*
X711Y2885D02*
X788Y2885D01*
X1190Y2885D02*
X1266Y2885D01*
X710Y2884D02*
X789Y2884D01*
X1188Y2884D02*
X1267Y2884D01*
X709Y2883D02*
X790Y2883D01*
X1187Y2883D02*
X1269Y2883D01*
X708Y2882D02*
X791Y2882D01*
X1186Y2882D02*
X1270Y2882D01*
X706Y2881D02*
X793Y2881D01*
X1185Y2881D02*
X1271Y2881D01*
X705Y2880D02*
X794Y2880D01*
X1184Y2880D02*
X1272Y2880D01*
X704Y2879D02*
X795Y2879D01*
X1183Y2879D02*
X1273Y2879D01*
X703Y2878D02*
X796Y2878D01*
X1182Y2878D02*
X1274Y2878D01*
X702Y2877D02*
X797Y2877D01*
X1181Y2877D02*
X1275Y2877D01*
X701Y2876D02*
X798Y2876D01*
X1180Y2876D02*
X1276Y2876D01*
X701Y2875D02*
X798Y2875D01*
X1179Y2875D02*
X1277Y2875D01*
X700Y2874D02*
X799Y2874D01*
X1178Y2874D02*
X1278Y2874D01*
X699Y2873D02*
X800Y2873D01*
X1177Y2873D02*
X1278Y2873D01*
X698Y2872D02*
X801Y2872D01*
X1177Y2872D02*
X1279Y2872D01*
X698Y2871D02*
X801Y2871D01*
X1176Y2871D02*
X1280Y2871D01*
X697Y2870D02*
X802Y2870D01*
X1175Y2870D02*
X1281Y2870D01*
X1744Y2870D02*
X1755Y2870D01*
X2222Y2870D02*
X2233Y2870D01*
X696Y2869D02*
X803Y2869D01*
X1174Y2869D02*
X1281Y2869D01*
X1737Y2869D02*
X1762Y2869D01*
X2216Y2869D02*
X2240Y2869D01*
X695Y2868D02*
X804Y2868D01*
X1174Y2868D02*
X1282Y2868D01*
X1733Y2868D02*
X1766Y2868D01*
X2212Y2868D02*
X2244Y2868D01*
X695Y2867D02*
X804Y2867D01*
X1173Y2867D02*
X1282Y2867D01*
X1730Y2867D02*
X1769Y2867D01*
X2208Y2867D02*
X2248Y2867D01*
X694Y2866D02*
X805Y2866D01*
X1173Y2866D02*
X1283Y2866D01*
X1727Y2866D02*
X1772Y2866D01*
X2205Y2866D02*
X2250Y2866D01*
X694Y2865D02*
X805Y2865D01*
X1172Y2865D02*
X1284Y2865D01*
X1724Y2865D02*
X1775Y2865D01*
X2203Y2865D02*
X2253Y2865D01*
X693Y2864D02*
X806Y2864D01*
X1171Y2864D02*
X1284Y2864D01*
X1722Y2864D02*
X1777Y2864D01*
X2201Y2864D02*
X2255Y2864D01*
X692Y2863D02*
X806Y2863D01*
X1171Y2863D02*
X1285Y2863D01*
X1720Y2863D02*
X1779Y2863D01*
X2199Y2863D02*
X2257Y2863D01*
X692Y2862D02*
X807Y2862D01*
X1170Y2862D02*
X1285Y2862D01*
X1718Y2862D02*
X1781Y2862D01*
X2197Y2862D02*
X2259Y2862D01*
X692Y2861D02*
X807Y2861D01*
X1170Y2861D02*
X1286Y2861D01*
X1717Y2861D02*
X1782Y2861D01*
X2195Y2861D02*
X2261Y2861D01*
X691Y2860D02*
X808Y2860D01*
X1169Y2860D02*
X1286Y2860D01*
X1715Y2860D02*
X1784Y2860D01*
X2193Y2860D02*
X2262Y2860D01*
X691Y2859D02*
X808Y2859D01*
X1169Y2859D02*
X1287Y2859D01*
X1714Y2859D02*
X1785Y2859D01*
X2192Y2859D02*
X2264Y2859D01*
X690Y2858D02*
X743Y2858D01*
X756Y2858D02*
X809Y2858D01*
X1168Y2858D02*
X1222Y2858D01*
X1234Y2858D02*
X1287Y2858D01*
X1712Y2858D02*
X1787Y2858D01*
X2190Y2858D02*
X2265Y2858D01*
X690Y2857D02*
X740Y2857D01*
X759Y2857D02*
X809Y2857D01*
X1168Y2857D02*
X1219Y2857D01*
X1237Y2857D02*
X1288Y2857D01*
X1711Y2857D02*
X1788Y2857D01*
X2189Y2857D02*
X2267Y2857D01*
X689Y2856D02*
X738Y2856D01*
X761Y2856D02*
X810Y2856D01*
X1168Y2856D02*
X1216Y2856D01*
X1239Y2856D02*
X1288Y2856D01*
X1709Y2856D02*
X1790Y2856D01*
X2188Y2856D02*
X2268Y2856D01*
X689Y2855D02*
X736Y2855D01*
X763Y2855D02*
X810Y2855D01*
X1167Y2855D02*
X1214Y2855D01*
X1241Y2855D02*
X1288Y2855D01*
X1708Y2855D02*
X1791Y2855D01*
X2187Y2855D02*
X2269Y2855D01*
X689Y2854D02*
X734Y2854D01*
X765Y2854D02*
X810Y2854D01*
X1167Y2854D02*
X1213Y2854D01*
X1243Y2854D02*
X1289Y2854D01*
X1707Y2854D02*
X1792Y2854D01*
X2185Y2854D02*
X2270Y2854D01*
X688Y2853D02*
X733Y2853D01*
X766Y2853D02*
X811Y2853D01*
X1167Y2853D02*
X1212Y2853D01*
X1244Y2853D02*
X1289Y2853D01*
X1706Y2853D02*
X1793Y2853D01*
X2184Y2853D02*
X2271Y2853D01*
X688Y2852D02*
X732Y2852D01*
X767Y2852D02*
X811Y2852D01*
X1166Y2852D02*
X1210Y2852D01*
X1245Y2852D02*
X1289Y2852D01*
X1705Y2852D02*
X1794Y2852D01*
X2183Y2852D02*
X2273Y2852D01*
X688Y2851D02*
X731Y2851D01*
X768Y2851D02*
X811Y2851D01*
X1166Y2851D02*
X1209Y2851D01*
X1246Y2851D02*
X1290Y2851D01*
X1704Y2851D02*
X1795Y2851D01*
X2182Y2851D02*
X2274Y2851D01*
X687Y2850D02*
X730Y2850D01*
X769Y2850D02*
X812Y2850D01*
X1166Y2850D02*
X1208Y2850D01*
X1247Y2850D02*
X1290Y2850D01*
X1703Y2850D02*
X1796Y2850D01*
X2181Y2850D02*
X2274Y2850D01*
X687Y2849D02*
X729Y2849D01*
X770Y2849D02*
X812Y2849D01*
X1166Y2849D02*
X1207Y2849D01*
X1248Y2849D02*
X1290Y2849D01*
X1702Y2849D02*
X1797Y2849D01*
X2180Y2849D02*
X2275Y2849D01*
X687Y2848D02*
X728Y2848D01*
X771Y2848D02*
X812Y2848D01*
X1165Y2848D02*
X1207Y2848D01*
X1249Y2848D02*
X1290Y2848D01*
X1701Y2848D02*
X1798Y2848D01*
X2179Y2848D02*
X2276Y2848D01*
X687Y2847D02*
X728Y2847D01*
X771Y2847D02*
X812Y2847D01*
X1165Y2847D02*
X1206Y2847D01*
X1250Y2847D02*
X1291Y2847D01*
X1700Y2847D02*
X1799Y2847D01*
X2179Y2847D02*
X2277Y2847D01*
X686Y2846D02*
X727Y2846D01*
X772Y2846D02*
X813Y2846D01*
X1165Y2846D02*
X1205Y2846D01*
X1250Y2846D02*
X1291Y2846D01*
X1699Y2846D02*
X1800Y2846D01*
X2178Y2846D02*
X2278Y2846D01*
X686Y2845D02*
X726Y2845D01*
X773Y2845D02*
X813Y2845D01*
X1165Y2845D02*
X1205Y2845D01*
X1251Y2845D02*
X1291Y2845D01*
X1699Y2845D02*
X1800Y2845D01*
X2177Y2845D02*
X2279Y2845D01*
X686Y2844D02*
X726Y2844D01*
X773Y2844D02*
X813Y2844D01*
X1164Y2844D02*
X1204Y2844D01*
X1251Y2844D02*
X1291Y2844D01*
X1698Y2844D02*
X1801Y2844D01*
X2176Y2844D02*
X2279Y2844D01*
X686Y2843D02*
X725Y2843D01*
X774Y2843D02*
X813Y2843D01*
X1164Y2843D02*
X1204Y2843D01*
X1252Y2843D02*
X1291Y2843D01*
X1697Y2843D02*
X1802Y2843D01*
X2176Y2843D02*
X2280Y2843D01*
X686Y2842D02*
X725Y2842D01*
X774Y2842D02*
X813Y2842D01*
X1164Y2842D02*
X1203Y2842D01*
X1252Y2842D02*
X1292Y2842D01*
X1696Y2842D02*
X1803Y2842D01*
X2175Y2842D02*
X2281Y2842D01*
X686Y2841D02*
X725Y2841D01*
X774Y2841D02*
X813Y2841D01*
X1164Y2841D02*
X1203Y2841D01*
X1253Y2841D02*
X1292Y2841D01*
X1696Y2841D02*
X1803Y2841D01*
X2174Y2841D02*
X2282Y2841D01*
X686Y2840D02*
X724Y2840D01*
X775Y2840D02*
X813Y2840D01*
X1164Y2840D02*
X1203Y2840D01*
X1253Y2840D02*
X1292Y2840D01*
X1695Y2840D02*
X1804Y2840D01*
X2174Y2840D02*
X2282Y2840D01*
X685Y2839D02*
X724Y2839D01*
X775Y2839D02*
X814Y2839D01*
X1164Y2839D02*
X1202Y2839D01*
X1253Y2839D02*
X1292Y2839D01*
X1695Y2839D02*
X1804Y2839D01*
X2173Y2839D02*
X2283Y2839D01*
X685Y2838D02*
X724Y2838D01*
X775Y2838D02*
X814Y2838D01*
X1164Y2838D02*
X1202Y2838D01*
X1254Y2838D02*
X1292Y2838D01*
X1694Y2838D02*
X1805Y2838D01*
X2172Y2838D02*
X2283Y2838D01*
X685Y2837D02*
X724Y2837D01*
X775Y2837D02*
X814Y2837D01*
X1164Y2837D02*
X1202Y2837D01*
X1254Y2837D02*
X1292Y2837D01*
X1693Y2837D02*
X1806Y2837D01*
X2172Y2837D02*
X2284Y2837D01*
X685Y2836D02*
X724Y2836D01*
X775Y2836D02*
X814Y2836D01*
X1164Y2836D02*
X1202Y2836D01*
X1254Y2836D02*
X1292Y2836D01*
X1693Y2836D02*
X1806Y2836D01*
X2171Y2836D02*
X2285Y2836D01*
X685Y2835D02*
X723Y2835D01*
X776Y2835D02*
X814Y2835D01*
X1164Y2835D02*
X1202Y2835D01*
X1254Y2835D02*
X1292Y2835D01*
X1692Y2835D02*
X1807Y2835D01*
X2171Y2835D02*
X2285Y2835D01*
X685Y2834D02*
X723Y2834D01*
X776Y2834D02*
X814Y2834D01*
X1163Y2834D02*
X1202Y2834D01*
X1254Y2834D02*
X1292Y2834D01*
X1692Y2834D02*
X1807Y2834D01*
X2170Y2834D02*
X2286Y2834D01*
X685Y2833D02*
X723Y2833D01*
X776Y2833D02*
X814Y2833D01*
X1163Y2833D02*
X1202Y2833D01*
X1254Y2833D02*
X1292Y2833D01*
X1691Y2833D02*
X1808Y2833D01*
X2170Y2833D02*
X2286Y2833D01*
X685Y2832D02*
X723Y2832D01*
X776Y2832D02*
X814Y2832D01*
X1163Y2832D02*
X1202Y2832D01*
X1254Y2832D02*
X1292Y2832D01*
X1691Y2832D02*
X1808Y2832D01*
X2169Y2832D02*
X2287Y2832D01*
X685Y2831D02*
X723Y2831D01*
X776Y2831D02*
X814Y2831D01*
X1163Y2831D02*
X1202Y2831D01*
X1254Y2831D02*
X1292Y2831D01*
X1690Y2831D02*
X1809Y2831D01*
X2169Y2831D02*
X2287Y2831D01*
X685Y2830D02*
X724Y2830D01*
X775Y2830D02*
X814Y2830D01*
X1164Y2830D02*
X1202Y2830D01*
X1254Y2830D02*
X1292Y2830D01*
X1690Y2830D02*
X1742Y2830D01*
X1757Y2830D02*
X1809Y2830D01*
X2168Y2830D02*
X2220Y2830D01*
X2236Y2830D02*
X2287Y2830D01*
X685Y2829D02*
X724Y2829D01*
X775Y2829D02*
X814Y2829D01*
X1164Y2829D02*
X1202Y2829D01*
X1254Y2829D02*
X1292Y2829D01*
X1690Y2829D02*
X1739Y2829D01*
X1760Y2829D02*
X1809Y2829D01*
X2168Y2829D02*
X2217Y2829D01*
X2238Y2829D02*
X2288Y2829D01*
X685Y2828D02*
X724Y2828D01*
X775Y2828D02*
X814Y2828D01*
X1164Y2828D02*
X1202Y2828D01*
X1254Y2828D02*
X1292Y2828D01*
X1689Y2828D02*
X1737Y2828D01*
X1762Y2828D02*
X1810Y2828D01*
X2168Y2828D02*
X2215Y2828D01*
X2240Y2828D02*
X2288Y2828D01*
X685Y2827D02*
X724Y2827D01*
X775Y2827D02*
X814Y2827D01*
X1164Y2827D02*
X1202Y2827D01*
X1253Y2827D02*
X1292Y2827D01*
X1689Y2827D02*
X1735Y2827D01*
X1764Y2827D02*
X1810Y2827D01*
X2167Y2827D02*
X2214Y2827D01*
X2242Y2827D02*
X2288Y2827D01*
X685Y2826D02*
X724Y2826D01*
X775Y2826D02*
X813Y2826D01*
X1164Y2826D02*
X1203Y2826D01*
X1253Y2826D02*
X1292Y2826D01*
X1688Y2826D02*
X1734Y2826D01*
X1765Y2826D02*
X1811Y2826D01*
X2167Y2826D02*
X2212Y2826D01*
X2244Y2826D02*
X2289Y2826D01*
X686Y2825D02*
X725Y2825D01*
X774Y2825D02*
X813Y2825D01*
X1164Y2825D02*
X1203Y2825D01*
X1253Y2825D02*
X1292Y2825D01*
X1688Y2825D02*
X1733Y2825D01*
X1766Y2825D02*
X1811Y2825D01*
X2166Y2825D02*
X2211Y2825D01*
X2245Y2825D02*
X2289Y2825D01*
X686Y2824D02*
X725Y2824D01*
X774Y2824D02*
X813Y2824D01*
X1164Y2824D02*
X1203Y2824D01*
X1252Y2824D02*
X1292Y2824D01*
X1688Y2824D02*
X1731Y2824D01*
X1768Y2824D02*
X1811Y2824D01*
X2166Y2824D02*
X2210Y2824D01*
X2246Y2824D02*
X2289Y2824D01*
X686Y2823D02*
X725Y2823D01*
X774Y2823D02*
X813Y2823D01*
X1164Y2823D02*
X1204Y2823D01*
X1252Y2823D02*
X1291Y2823D01*
X1688Y2823D02*
X1730Y2823D01*
X1769Y2823D02*
X1811Y2823D01*
X2166Y2823D02*
X2209Y2823D01*
X2247Y2823D02*
X2290Y2823D01*
X686Y2822D02*
X726Y2822D01*
X773Y2822D02*
X813Y2822D01*
X1164Y2822D02*
X1204Y2822D01*
X1251Y2822D02*
X1291Y2822D01*
X1687Y2822D02*
X1730Y2822D01*
X1769Y2822D02*
X1812Y2822D01*
X2166Y2822D02*
X2208Y2822D01*
X2248Y2822D02*
X2290Y2822D01*
X686Y2821D02*
X726Y2821D01*
X773Y2821D02*
X813Y2821D01*
X1165Y2821D02*
X1205Y2821D01*
X1251Y2821D02*
X1291Y2821D01*
X1687Y2821D02*
X1729Y2821D01*
X1770Y2821D02*
X1812Y2821D01*
X2165Y2821D02*
X2207Y2821D01*
X2249Y2821D02*
X2290Y2821D01*
X686Y2820D02*
X727Y2820D01*
X772Y2820D02*
X813Y2820D01*
X1165Y2820D02*
X1205Y2820D01*
X1250Y2820D02*
X1291Y2820D01*
X1687Y2820D02*
X1728Y2820D01*
X1771Y2820D02*
X1812Y2820D01*
X2165Y2820D02*
X2206Y2820D01*
X2249Y2820D02*
X2290Y2820D01*
X687Y2819D02*
X727Y2819D01*
X772Y2819D02*
X812Y2819D01*
X1165Y2819D02*
X1206Y2819D01*
X1250Y2819D02*
X1291Y2819D01*
X1687Y2819D02*
X1727Y2819D01*
X1772Y2819D02*
X1812Y2819D01*
X2165Y2819D02*
X2206Y2819D01*
X2250Y2819D02*
X2291Y2819D01*
X687Y2818D02*
X728Y2818D01*
X771Y2818D02*
X812Y2818D01*
X1165Y2818D02*
X1207Y2818D01*
X1249Y2818D02*
X1290Y2818D01*
X1686Y2818D02*
X1727Y2818D01*
X1772Y2818D02*
X1813Y2818D01*
X2165Y2818D02*
X2205Y2818D01*
X2251Y2818D02*
X2291Y2818D01*
X687Y2817D02*
X729Y2817D01*
X770Y2817D02*
X812Y2817D01*
X1166Y2817D02*
X1207Y2817D01*
X1248Y2817D02*
X1290Y2817D01*
X1686Y2817D02*
X1726Y2817D01*
X1773Y2817D02*
X1813Y2817D01*
X2165Y2817D02*
X2205Y2817D01*
X2251Y2817D02*
X2291Y2817D01*
X687Y2816D02*
X730Y2816D01*
X769Y2816D02*
X812Y2816D01*
X1166Y2816D02*
X1208Y2816D01*
X1247Y2816D02*
X1290Y2816D01*
X1686Y2816D02*
X1726Y2816D01*
X1773Y2816D02*
X1813Y2816D01*
X2164Y2816D02*
X2204Y2816D01*
X2252Y2816D02*
X2291Y2816D01*
X688Y2815D02*
X731Y2815D01*
X768Y2815D02*
X811Y2815D01*
X1166Y2815D02*
X1209Y2815D01*
X1247Y2815D02*
X1290Y2815D01*
X1686Y2815D02*
X1725Y2815D01*
X1774Y2815D02*
X1813Y2815D01*
X2164Y2815D02*
X2204Y2815D01*
X2252Y2815D02*
X2291Y2815D01*
X688Y2814D02*
X732Y2814D01*
X767Y2814D02*
X811Y2814D01*
X1166Y2814D02*
X1210Y2814D01*
X1245Y2814D02*
X1289Y2814D01*
X1686Y2814D02*
X1725Y2814D01*
X1774Y2814D02*
X1813Y2814D01*
X2164Y2814D02*
X2203Y2814D01*
X2252Y2814D02*
X2292Y2814D01*
X688Y2813D02*
X733Y2813D01*
X766Y2813D02*
X811Y2813D01*
X1167Y2813D02*
X1211Y2813D01*
X1244Y2813D02*
X1289Y2813D01*
X1686Y2813D02*
X1725Y2813D01*
X1774Y2813D02*
X1813Y2813D01*
X2164Y2813D02*
X2203Y2813D01*
X2253Y2813D02*
X2292Y2813D01*
X689Y2812D02*
X734Y2812D01*
X765Y2812D02*
X810Y2812D01*
X1167Y2812D02*
X1213Y2812D01*
X1243Y2812D02*
X1289Y2812D01*
X1685Y2812D02*
X1724Y2812D01*
X1775Y2812D02*
X1814Y2812D01*
X2164Y2812D02*
X2203Y2812D01*
X2253Y2812D02*
X2292Y2812D01*
X689Y2811D02*
X736Y2811D01*
X763Y2811D02*
X810Y2811D01*
X1167Y2811D02*
X1214Y2811D01*
X1241Y2811D02*
X1288Y2811D01*
X1685Y2811D02*
X1724Y2811D01*
X1775Y2811D02*
X1814Y2811D01*
X2164Y2811D02*
X2202Y2811D01*
X2253Y2811D02*
X2292Y2811D01*
X689Y2810D02*
X738Y2810D01*
X761Y2810D02*
X810Y2810D01*
X1168Y2810D02*
X1216Y2810D01*
X1240Y2810D02*
X1288Y2810D01*
X1685Y2810D02*
X1724Y2810D01*
X1775Y2810D02*
X1814Y2810D01*
X2164Y2810D02*
X2202Y2810D01*
X2254Y2810D02*
X2292Y2810D01*
X690Y2809D02*
X740Y2809D01*
X759Y2809D02*
X809Y2809D01*
X1168Y2809D02*
X1218Y2809D01*
X1237Y2809D02*
X1288Y2809D01*
X1685Y2809D02*
X1724Y2809D01*
X1775Y2809D02*
X1814Y2809D01*
X2164Y2809D02*
X2202Y2809D01*
X2254Y2809D02*
X2292Y2809D01*
X690Y2808D02*
X743Y2808D01*
X756Y2808D02*
X809Y2808D01*
X1168Y2808D02*
X1221Y2808D01*
X1234Y2808D02*
X1287Y2808D01*
X1685Y2808D02*
X1723Y2808D01*
X1776Y2808D02*
X1814Y2808D01*
X2164Y2808D02*
X2202Y2808D01*
X2254Y2808D02*
X2292Y2808D01*
X690Y2807D02*
X809Y2807D01*
X1169Y2807D02*
X1287Y2807D01*
X1685Y2807D02*
X1723Y2807D01*
X1776Y2807D02*
X1814Y2807D01*
X2163Y2807D02*
X2202Y2807D01*
X2254Y2807D02*
X2292Y2807D01*
X691Y2806D02*
X808Y2806D01*
X1169Y2806D02*
X1286Y2806D01*
X1685Y2806D02*
X1723Y2806D01*
X1776Y2806D02*
X1814Y2806D01*
X2163Y2806D02*
X2202Y2806D01*
X2254Y2806D02*
X2292Y2806D01*
X691Y2805D02*
X808Y2805D01*
X1170Y2805D02*
X1286Y2805D01*
X1685Y2805D02*
X1723Y2805D01*
X1776Y2805D02*
X1814Y2805D01*
X2163Y2805D02*
X2202Y2805D01*
X2254Y2805D02*
X2292Y2805D01*
X692Y2804D02*
X807Y2804D01*
X1170Y2804D02*
X1285Y2804D01*
X1685Y2804D02*
X1723Y2804D01*
X1776Y2804D02*
X1814Y2804D01*
X2163Y2804D02*
X2202Y2804D01*
X2254Y2804D02*
X2292Y2804D01*
X692Y2803D02*
X807Y2803D01*
X1171Y2803D02*
X1285Y2803D01*
X1685Y2803D02*
X1723Y2803D01*
X1776Y2803D02*
X1814Y2803D01*
X2164Y2803D02*
X2202Y2803D01*
X2254Y2803D02*
X2292Y2803D01*
X693Y2802D02*
X806Y2802D01*
X1171Y2802D02*
X1284Y2802D01*
X1685Y2802D02*
X1724Y2802D01*
X1775Y2802D02*
X1814Y2802D01*
X2164Y2802D02*
X2202Y2802D01*
X2254Y2802D02*
X2292Y2802D01*
X694Y2801D02*
X805Y2801D01*
X1172Y2801D02*
X1284Y2801D01*
X1685Y2801D02*
X1724Y2801D01*
X1775Y2801D02*
X1814Y2801D01*
X2164Y2801D02*
X2202Y2801D01*
X2254Y2801D02*
X2292Y2801D01*
X694Y2800D02*
X805Y2800D01*
X1173Y2800D02*
X1283Y2800D01*
X1685Y2800D02*
X1724Y2800D01*
X1775Y2800D02*
X1814Y2800D01*
X2164Y2800D02*
X2202Y2800D01*
X2253Y2800D02*
X2292Y2800D01*
X695Y2799D02*
X804Y2799D01*
X1173Y2799D02*
X1283Y2799D01*
X1685Y2799D02*
X1724Y2799D01*
X1775Y2799D02*
X1814Y2799D01*
X2164Y2799D02*
X2202Y2799D01*
X2253Y2799D02*
X2292Y2799D01*
X695Y2798D02*
X804Y2798D01*
X1174Y2798D02*
X1282Y2798D01*
X1686Y2798D02*
X1724Y2798D01*
X1775Y2798D02*
X1813Y2798D01*
X2164Y2798D02*
X2203Y2798D01*
X2253Y2798D02*
X2292Y2798D01*
X696Y2797D02*
X803Y2797D01*
X1174Y2797D02*
X1281Y2797D01*
X1686Y2797D02*
X1725Y2797D01*
X1774Y2797D02*
X1813Y2797D01*
X2164Y2797D02*
X2203Y2797D01*
X2253Y2797D02*
X2292Y2797D01*
X697Y2796D02*
X802Y2796D01*
X1175Y2796D02*
X1281Y2796D01*
X1686Y2796D02*
X1725Y2796D01*
X1774Y2796D02*
X1813Y2796D01*
X2164Y2796D02*
X2204Y2796D01*
X2252Y2796D02*
X2291Y2796D01*
X697Y2795D02*
X802Y2795D01*
X1176Y2795D02*
X1280Y2795D01*
X1686Y2795D02*
X1726Y2795D01*
X1773Y2795D02*
X1813Y2795D01*
X2164Y2795D02*
X2204Y2795D01*
X2252Y2795D02*
X2291Y2795D01*
X698Y2794D02*
X801Y2794D01*
X1177Y2794D02*
X1279Y2794D01*
X1686Y2794D02*
X1726Y2794D01*
X1773Y2794D02*
X1813Y2794D01*
X2165Y2794D02*
X2204Y2794D01*
X2251Y2794D02*
X2291Y2794D01*
X699Y2793D02*
X800Y2793D01*
X1177Y2793D02*
X1278Y2793D01*
X1686Y2793D02*
X1727Y2793D01*
X1772Y2793D02*
X1813Y2793D01*
X2165Y2793D02*
X2205Y2793D01*
X2251Y2793D02*
X2291Y2793D01*
X700Y2792D02*
X799Y2792D01*
X1178Y2792D02*
X1278Y2792D01*
X1687Y2792D02*
X1727Y2792D01*
X1772Y2792D02*
X1812Y2792D01*
X2165Y2792D02*
X2206Y2792D01*
X2250Y2792D02*
X2291Y2792D01*
X700Y2791D02*
X798Y2791D01*
X1179Y2791D02*
X1277Y2791D01*
X1687Y2791D02*
X1728Y2791D01*
X1771Y2791D02*
X1812Y2791D01*
X2165Y2791D02*
X2206Y2791D01*
X2250Y2791D02*
X2291Y2791D01*
X701Y2790D02*
X798Y2790D01*
X1180Y2790D02*
X1276Y2790D01*
X1687Y2790D02*
X1729Y2790D01*
X1770Y2790D02*
X1812Y2790D01*
X2165Y2790D02*
X2207Y2790D01*
X2249Y2790D02*
X2290Y2790D01*
X702Y2789D02*
X797Y2789D01*
X1181Y2789D02*
X1275Y2789D01*
X1687Y2789D02*
X1729Y2789D01*
X1770Y2789D02*
X1812Y2789D01*
X2166Y2789D02*
X2208Y2789D01*
X2248Y2789D02*
X2290Y2789D01*
X703Y2788D02*
X796Y2788D01*
X1182Y2788D02*
X1274Y2788D01*
X1688Y2788D02*
X1730Y2788D01*
X1769Y2788D02*
X1811Y2788D01*
X2166Y2788D02*
X2209Y2788D01*
X2247Y2788D02*
X2290Y2788D01*
X704Y2787D02*
X795Y2787D01*
X1182Y2787D02*
X1273Y2787D01*
X1688Y2787D02*
X1731Y2787D01*
X1768Y2787D02*
X1811Y2787D01*
X2166Y2787D02*
X2210Y2787D01*
X2246Y2787D02*
X2290Y2787D01*
X705Y2786D02*
X794Y2786D01*
X1184Y2786D02*
X1272Y2786D01*
X1688Y2786D02*
X1732Y2786D01*
X1767Y2786D02*
X1811Y2786D01*
X2166Y2786D02*
X2211Y2786D01*
X2245Y2786D02*
X2289Y2786D01*
X706Y2785D02*
X793Y2785D01*
X1185Y2785D02*
X1271Y2785D01*
X1688Y2785D02*
X1734Y2785D01*
X1765Y2785D02*
X1811Y2785D01*
X2167Y2785D02*
X2212Y2785D01*
X2244Y2785D02*
X2289Y2785D01*
X707Y2784D02*
X792Y2784D01*
X1186Y2784D02*
X1270Y2784D01*
X1689Y2784D02*
X1735Y2784D01*
X1764Y2784D02*
X1810Y2784D01*
X2167Y2784D02*
X2213Y2784D01*
X2243Y2784D02*
X2289Y2784D01*
X709Y2783D02*
X790Y2783D01*
X1187Y2783D02*
X1269Y2783D01*
X1689Y2783D02*
X1737Y2783D01*
X1762Y2783D02*
X1810Y2783D01*
X2167Y2783D02*
X2215Y2783D01*
X2241Y2783D02*
X2288Y2783D01*
X710Y2782D02*
X789Y2782D01*
X1188Y2782D02*
X1267Y2782D01*
X1689Y2782D02*
X1739Y2782D01*
X1760Y2782D02*
X1810Y2782D01*
X2168Y2782D02*
X2217Y2782D01*
X2239Y2782D02*
X2288Y2782D01*
X711Y2781D02*
X788Y2781D01*
X1190Y2781D02*
X1266Y2781D01*
X1690Y2781D02*
X1741Y2781D01*
X1758Y2781D02*
X1809Y2781D01*
X2168Y2781D02*
X2219Y2781D01*
X2236Y2781D02*
X2288Y2781D01*
X713Y2780D02*
X786Y2780D01*
X1191Y2780D02*
X1265Y2780D01*
X1690Y2780D02*
X1745Y2780D01*
X1754Y2780D02*
X1809Y2780D01*
X2169Y2780D02*
X2224Y2780D01*
X2232Y2780D02*
X2287Y2780D01*
X714Y2779D02*
X785Y2779D01*
X1192Y2779D02*
X1263Y2779D01*
X1691Y2779D02*
X1808Y2779D01*
X2169Y2779D02*
X2287Y2779D01*
X716Y2778D02*
X783Y2778D01*
X1194Y2778D02*
X1262Y2778D01*
X1691Y2778D02*
X1808Y2778D01*
X2170Y2778D02*
X2286Y2778D01*
X717Y2777D02*
X782Y2777D01*
X1196Y2777D02*
X1260Y2777D01*
X1692Y2777D02*
X1807Y2777D01*
X2170Y2777D02*
X2286Y2777D01*
X719Y2776D02*
X780Y2776D01*
X1197Y2776D02*
X1258Y2776D01*
X1692Y2776D02*
X1807Y2776D01*
X2171Y2776D02*
X2285Y2776D01*
X721Y2775D02*
X778Y2775D01*
X1199Y2775D02*
X1256Y2775D01*
X1693Y2775D02*
X1806Y2775D01*
X2171Y2775D02*
X2285Y2775D01*
X723Y2774D02*
X776Y2774D01*
X1201Y2774D02*
X1254Y2774D01*
X1693Y2774D02*
X1806Y2774D01*
X2172Y2774D02*
X2284Y2774D01*
X725Y2773D02*
X774Y2773D01*
X1203Y2773D02*
X1252Y2773D01*
X1694Y2773D02*
X1805Y2773D01*
X2172Y2773D02*
X2283Y2773D01*
X728Y2772D02*
X771Y2772D01*
X1206Y2772D02*
X1250Y2772D01*
X1694Y2772D02*
X1805Y2772D01*
X2173Y2772D02*
X2283Y2772D01*
X731Y2771D02*
X768Y2771D01*
X1209Y2771D02*
X1247Y2771D01*
X1695Y2771D02*
X1804Y2771D01*
X2173Y2771D02*
X2282Y2771D01*
X735Y2770D02*
X764Y2770D01*
X1213Y2770D02*
X1243Y2770D01*
X1696Y2770D02*
X1803Y2770D01*
X2174Y2770D02*
X2282Y2770D01*
X740Y2769D02*
X759Y2769D01*
X1218Y2769D02*
X1238Y2769D01*
X1696Y2769D02*
X1803Y2769D01*
X2175Y2769D02*
X2281Y2769D01*
X1697Y2768D02*
X1802Y2768D01*
X2175Y2768D02*
X2280Y2768D01*
X1698Y2767D02*
X1801Y2767D01*
X2176Y2767D02*
X2280Y2767D01*
X1699Y2766D02*
X1800Y2766D01*
X2177Y2766D02*
X2279Y2766D01*
X1699Y2765D02*
X1800Y2765D01*
X2178Y2765D02*
X2278Y2765D01*
X1700Y2764D02*
X1799Y2764D01*
X2178Y2764D02*
X2277Y2764D01*
X1701Y2763D02*
X1798Y2763D01*
X2179Y2763D02*
X2276Y2763D01*
X1702Y2762D02*
X1797Y2762D01*
X2180Y2762D02*
X2276Y2762D01*
X1703Y2761D02*
X1796Y2761D01*
X2181Y2761D02*
X2275Y2761D01*
X1704Y2760D02*
X1795Y2760D01*
X2182Y2760D02*
X2274Y2760D01*
X1705Y2759D02*
X1794Y2759D01*
X2183Y2759D02*
X2273Y2759D01*
X1706Y2758D02*
X1793Y2758D01*
X2184Y2758D02*
X2272Y2758D01*
X1707Y2757D02*
X1792Y2757D01*
X2185Y2757D02*
X2271Y2757D01*
X1708Y2756D02*
X1791Y2756D01*
X2186Y2756D02*
X2269Y2756D01*
X1709Y2755D02*
X1790Y2755D01*
X2187Y2755D02*
X2268Y2755D01*
X1710Y2754D02*
X1788Y2754D01*
X2189Y2754D02*
X2267Y2754D01*
X1712Y2753D02*
X1787Y2753D01*
X2190Y2753D02*
X2265Y2753D01*
X1713Y2752D02*
X1786Y2752D01*
X2192Y2752D02*
X2264Y2752D01*
X1715Y2751D02*
X1784Y2751D01*
X2193Y2751D02*
X2263Y2751D01*
X1716Y2750D02*
X1783Y2750D01*
X2195Y2750D02*
X2261Y2750D01*
X1718Y2749D02*
X1781Y2749D01*
X2196Y2749D02*
X2259Y2749D01*
X1720Y2748D02*
X1779Y2748D01*
X2198Y2748D02*
X2258Y2748D01*
X1722Y2747D02*
X1777Y2747D01*
X2200Y2747D02*
X2256Y2747D01*
X1724Y2746D02*
X1775Y2746D01*
X2202Y2746D02*
X2254Y2746D01*
X1726Y2745D02*
X1773Y2745D01*
X2205Y2745D02*
X2251Y2745D01*
X1729Y2744D02*
X1770Y2744D01*
X2207Y2744D02*
X2248Y2744D01*
X1732Y2743D02*
X1767Y2743D01*
X2211Y2743D02*
X2245Y2743D01*
X1736Y2742D02*
X1763Y2742D01*
X2215Y2742D02*
X2241Y2742D01*
X1742Y2741D02*
X1757Y2741D01*
X2221Y2741D02*
X2235Y2741D01*
X3713Y2242D02*
X3786Y2242D01*
X3713Y2241D02*
X3786Y2241D01*
X3713Y2240D02*
X3786Y2240D01*
X3713Y2239D02*
X3786Y2239D01*
X3713Y2238D02*
X3786Y2238D01*
X3713Y2237D02*
X3786Y2237D01*
X3713Y2236D02*
X3786Y2236D01*
X3713Y2235D02*
X3786Y2235D01*
X3713Y2234D02*
X3786Y2234D01*
X3713Y2233D02*
X3786Y2233D01*
X3713Y2232D02*
X3786Y2232D01*
X3713Y2231D02*
X3786Y2231D01*
X3713Y2230D02*
X3786Y2230D01*
X3713Y2229D02*
X3786Y2229D01*
X3713Y2228D02*
X3786Y2228D01*
X3713Y2227D02*
X3786Y2227D01*
X3713Y2226D02*
X3786Y2226D01*
X3713Y2225D02*
X3748Y2225D01*
X3751Y2225D02*
X3786Y2225D01*
X3713Y2224D02*
X3743Y2224D01*
X3756Y2224D02*
X3786Y2224D01*
X3713Y2223D02*
X3740Y2223D01*
X3759Y2223D02*
X3786Y2223D01*
X3713Y2222D02*
X3739Y2222D01*
X3760Y2222D02*
X3786Y2222D01*
X3713Y2221D02*
X3737Y2221D01*
X3762Y2221D02*
X3786Y2221D01*
X3713Y2220D02*
X3736Y2220D01*
X3763Y2220D02*
X3786Y2220D01*
X3713Y2219D02*
X3735Y2219D01*
X3764Y2219D02*
X3786Y2219D01*
X3713Y2218D02*
X3734Y2218D01*
X3765Y2218D02*
X3786Y2218D01*
X3713Y2217D02*
X3733Y2217D01*
X3766Y2217D02*
X3786Y2217D01*
X3713Y2216D02*
X3732Y2216D01*
X3767Y2216D02*
X3786Y2216D01*
X3713Y2215D02*
X3732Y2215D01*
X3767Y2215D02*
X3786Y2215D01*
X3713Y2214D02*
X3731Y2214D01*
X3768Y2214D02*
X3786Y2214D01*
X3713Y2213D02*
X3731Y2213D01*
X3768Y2213D02*
X3786Y2213D01*
X3713Y2212D02*
X3731Y2212D01*
X3768Y2212D02*
X3786Y2212D01*
X3713Y2211D02*
X3730Y2211D01*
X3769Y2211D02*
X3786Y2211D01*
X3713Y2210D02*
X3730Y2210D01*
X3769Y2210D02*
X3786Y2210D01*
X3713Y2209D02*
X3730Y2209D01*
X3769Y2209D02*
X3786Y2209D01*
X3713Y2208D02*
X3730Y2208D01*
X3769Y2208D02*
X3786Y2208D01*
X3713Y2207D02*
X3729Y2207D01*
X3770Y2207D02*
X3786Y2207D01*
X3713Y2206D02*
X3729Y2206D01*
X3770Y2206D02*
X3786Y2206D01*
X3713Y2205D02*
X3729Y2205D01*
X3770Y2205D02*
X3786Y2205D01*
X3713Y2204D02*
X3729Y2204D01*
X3770Y2204D02*
X3786Y2204D01*
X3713Y2203D02*
X3730Y2203D01*
X3769Y2203D02*
X3786Y2203D01*
X3713Y2202D02*
X3730Y2202D01*
X3769Y2202D02*
X3786Y2202D01*
X3713Y2201D02*
X3730Y2201D01*
X3769Y2201D02*
X3786Y2201D01*
X3713Y2200D02*
X3730Y2200D01*
X3769Y2200D02*
X3786Y2200D01*
X3713Y2199D02*
X3730Y2199D01*
X3769Y2199D02*
X3786Y2199D01*
X3713Y2198D02*
X3731Y2198D01*
X3768Y2198D02*
X3786Y2198D01*
X3713Y2197D02*
X3731Y2197D01*
X3768Y2197D02*
X3786Y2197D01*
X3713Y2196D02*
X3732Y2196D01*
X3767Y2196D02*
X3786Y2196D01*
X3713Y2195D02*
X3732Y2195D01*
X3767Y2195D02*
X3786Y2195D01*
X3713Y2194D02*
X3733Y2194D01*
X3766Y2194D02*
X3786Y2194D01*
X3713Y2193D02*
X3734Y2193D01*
X3765Y2193D02*
X3786Y2193D01*
X3713Y2192D02*
X3735Y2192D01*
X3764Y2192D02*
X3786Y2192D01*
X3713Y2191D02*
X3736Y2191D01*
X3763Y2191D02*
X3786Y2191D01*
X3713Y2190D02*
X3737Y2190D01*
X3762Y2190D02*
X3786Y2190D01*
X3713Y2189D02*
X3738Y2189D01*
X3761Y2189D02*
X3786Y2189D01*
X3713Y2188D02*
X3740Y2188D01*
X3759Y2188D02*
X3786Y2188D01*
X3713Y2187D02*
X3742Y2187D01*
X3757Y2187D02*
X3786Y2187D01*
X3713Y2186D02*
X3746Y2186D01*
X3753Y2186D02*
X3786Y2186D01*
X3713Y2185D02*
X3786Y2185D01*
X3713Y2184D02*
X3786Y2184D01*
X3713Y2183D02*
X3786Y2183D01*
X3713Y2182D02*
X3786Y2182D01*
X3713Y2181D02*
X3786Y2181D01*
X3713Y2180D02*
X3786Y2180D01*
X3713Y2179D02*
X3786Y2179D01*
X3713Y2178D02*
X3786Y2178D01*
X3713Y2177D02*
X3786Y2177D01*
X3713Y2176D02*
X3786Y2176D01*
X3713Y2175D02*
X3786Y2175D01*
X3713Y2174D02*
X3786Y2174D01*
X3713Y2173D02*
X3786Y2173D01*
X3713Y2172D02*
X3786Y2172D01*
X3713Y2171D02*
X3786Y2171D01*
X3713Y2170D02*
X3786Y2170D01*
X3713Y2169D02*
X3786Y2169D01*
X266Y1270D02*
X276Y1270D01*
X745Y1270D02*
X754Y1270D01*
X1166Y1270D02*
X1176Y1270D01*
X1645Y1270D02*
X1654Y1270D01*
X2066Y1270D02*
X2076Y1270D01*
X2545Y1270D02*
X2554Y1270D01*
X2966Y1270D02*
X2976Y1270D01*
X3445Y1270D02*
X3454Y1270D01*
X259Y1269D02*
X283Y1269D01*
X738Y1269D02*
X761Y1269D01*
X1159Y1269D02*
X1183Y1269D01*
X1638Y1269D02*
X1661Y1269D01*
X2059Y1269D02*
X2083Y1269D01*
X2538Y1269D02*
X2561Y1269D01*
X2959Y1269D02*
X2983Y1269D01*
X3438Y1269D02*
X3461Y1269D01*
X255Y1268D02*
X287Y1268D01*
X733Y1268D02*
X766Y1268D01*
X1155Y1268D02*
X1187Y1268D01*
X1633Y1268D02*
X1666Y1268D01*
X2055Y1268D02*
X2087Y1268D01*
X2533Y1268D02*
X2566Y1268D01*
X2955Y1268D02*
X2987Y1268D01*
X3433Y1268D02*
X3466Y1268D01*
X251Y1267D02*
X291Y1267D01*
X730Y1267D02*
X769Y1267D01*
X1151Y1267D02*
X1191Y1267D01*
X1630Y1267D02*
X1669Y1267D01*
X2051Y1267D02*
X2091Y1267D01*
X2530Y1267D02*
X2569Y1267D01*
X2951Y1267D02*
X2991Y1267D01*
X3430Y1267D02*
X3469Y1267D01*
X249Y1266D02*
X294Y1266D01*
X727Y1266D02*
X772Y1266D01*
X1149Y1266D02*
X1194Y1266D01*
X1627Y1266D02*
X1672Y1266D01*
X2049Y1266D02*
X2094Y1266D01*
X2527Y1266D02*
X2572Y1266D01*
X2949Y1266D02*
X2994Y1266D01*
X3427Y1266D02*
X3472Y1266D01*
X246Y1265D02*
X296Y1265D01*
X724Y1265D02*
X775Y1265D01*
X1146Y1265D02*
X1196Y1265D01*
X1624Y1265D02*
X1675Y1265D01*
X2046Y1265D02*
X2096Y1265D01*
X2524Y1265D02*
X2575Y1265D01*
X2946Y1265D02*
X2996Y1265D01*
X3424Y1265D02*
X3475Y1265D01*
X244Y1264D02*
X298Y1264D01*
X722Y1264D02*
X777Y1264D01*
X1144Y1264D02*
X1198Y1264D01*
X1622Y1264D02*
X1677Y1264D01*
X2044Y1264D02*
X2098Y1264D01*
X2522Y1264D02*
X2577Y1264D01*
X2944Y1264D02*
X2998Y1264D01*
X3422Y1264D02*
X3477Y1264D01*
X242Y1263D02*
X300Y1263D01*
X720Y1263D02*
X779Y1263D01*
X1142Y1263D02*
X1200Y1263D01*
X1620Y1263D02*
X1679Y1263D01*
X2042Y1263D02*
X2100Y1263D01*
X2520Y1263D02*
X2579Y1263D01*
X2942Y1263D02*
X3000Y1263D01*
X3420Y1263D02*
X3479Y1263D01*
X240Y1262D02*
X302Y1262D01*
X718Y1262D02*
X781Y1262D01*
X1140Y1262D02*
X1202Y1262D01*
X1618Y1262D02*
X1681Y1262D01*
X2040Y1262D02*
X2102Y1262D01*
X2518Y1262D02*
X2581Y1262D01*
X2940Y1262D02*
X3002Y1262D01*
X3418Y1262D02*
X3481Y1262D01*
X238Y1261D02*
X304Y1261D01*
X717Y1261D02*
X782Y1261D01*
X1138Y1261D02*
X1204Y1261D01*
X1617Y1261D02*
X1682Y1261D01*
X2038Y1261D02*
X2104Y1261D01*
X2517Y1261D02*
X2582Y1261D01*
X2938Y1261D02*
X3004Y1261D01*
X3417Y1261D02*
X3482Y1261D01*
X237Y1260D02*
X306Y1260D01*
X715Y1260D02*
X784Y1260D01*
X1137Y1260D02*
X1205Y1260D01*
X1615Y1260D02*
X1684Y1260D01*
X2037Y1260D02*
X2105Y1260D01*
X2515Y1260D02*
X2584Y1260D01*
X2937Y1260D02*
X3005Y1260D01*
X3415Y1260D02*
X3484Y1260D01*
X235Y1259D02*
X307Y1259D01*
X714Y1259D02*
X785Y1259D01*
X1135Y1259D02*
X1207Y1259D01*
X1614Y1259D02*
X1685Y1259D01*
X2035Y1259D02*
X2107Y1259D01*
X2514Y1259D02*
X2585Y1259D01*
X2935Y1259D02*
X3007Y1259D01*
X3414Y1259D02*
X3485Y1259D01*
X234Y1258D02*
X308Y1258D01*
X712Y1258D02*
X787Y1258D01*
X1134Y1258D02*
X1208Y1258D01*
X1612Y1258D02*
X1687Y1258D01*
X2034Y1258D02*
X2108Y1258D01*
X2512Y1258D02*
X2587Y1258D01*
X2934Y1258D02*
X3008Y1258D01*
X3412Y1258D02*
X3487Y1258D01*
X233Y1257D02*
X310Y1257D01*
X711Y1257D02*
X788Y1257D01*
X1132Y1257D02*
X1210Y1257D01*
X1611Y1257D02*
X1688Y1257D01*
X2032Y1257D02*
X2110Y1257D01*
X2511Y1257D02*
X2588Y1257D01*
X2932Y1257D02*
X3010Y1257D01*
X3411Y1257D02*
X3488Y1257D01*
X231Y1256D02*
X311Y1256D01*
X709Y1256D02*
X789Y1256D01*
X1131Y1256D02*
X1211Y1256D01*
X1609Y1256D02*
X1689Y1256D01*
X2031Y1256D02*
X2111Y1256D01*
X2509Y1256D02*
X2589Y1256D01*
X2931Y1256D02*
X3011Y1256D01*
X3409Y1256D02*
X3489Y1256D01*
X230Y1255D02*
X312Y1255D01*
X708Y1255D02*
X791Y1255D01*
X1130Y1255D02*
X1212Y1255D01*
X1608Y1255D02*
X1691Y1255D01*
X2030Y1255D02*
X2112Y1255D01*
X2508Y1255D02*
X2591Y1255D01*
X2930Y1255D02*
X3012Y1255D01*
X3408Y1255D02*
X3491Y1255D01*
X229Y1254D02*
X314Y1254D01*
X707Y1254D02*
X792Y1254D01*
X1129Y1254D02*
X1214Y1254D01*
X1607Y1254D02*
X1692Y1254D01*
X2029Y1254D02*
X2114Y1254D01*
X2507Y1254D02*
X2592Y1254D01*
X2929Y1254D02*
X3014Y1254D01*
X3407Y1254D02*
X3492Y1254D01*
X228Y1253D02*
X315Y1253D01*
X706Y1253D02*
X793Y1253D01*
X1128Y1253D02*
X1215Y1253D01*
X1606Y1253D02*
X1693Y1253D01*
X2028Y1253D02*
X2115Y1253D01*
X2506Y1253D02*
X2593Y1253D01*
X2928Y1253D02*
X3015Y1253D01*
X3406Y1253D02*
X3493Y1253D01*
X227Y1252D02*
X316Y1252D01*
X705Y1252D02*
X794Y1252D01*
X1127Y1252D02*
X1216Y1252D01*
X1605Y1252D02*
X1694Y1252D01*
X2027Y1252D02*
X2116Y1252D01*
X2505Y1252D02*
X2594Y1252D01*
X2927Y1252D02*
X3016Y1252D01*
X3405Y1252D02*
X3494Y1252D01*
X225Y1251D02*
X317Y1251D01*
X704Y1251D02*
X795Y1251D01*
X1125Y1251D02*
X1217Y1251D01*
X1604Y1251D02*
X1695Y1251D01*
X2025Y1251D02*
X2117Y1251D01*
X2504Y1251D02*
X2595Y1251D01*
X2925Y1251D02*
X3017Y1251D01*
X3404Y1251D02*
X3495Y1251D01*
X225Y1250D02*
X318Y1250D01*
X703Y1250D02*
X796Y1250D01*
X1125Y1250D02*
X1218Y1250D01*
X1603Y1250D02*
X1696Y1250D01*
X2025Y1250D02*
X2118Y1250D01*
X2503Y1250D02*
X2596Y1250D01*
X2925Y1250D02*
X3018Y1250D01*
X3403Y1250D02*
X3496Y1250D01*
X224Y1249D02*
X319Y1249D01*
X702Y1249D02*
X797Y1249D01*
X1124Y1249D02*
X1219Y1249D01*
X1602Y1249D02*
X1697Y1249D01*
X2024Y1249D02*
X2119Y1249D01*
X2502Y1249D02*
X2597Y1249D01*
X2924Y1249D02*
X3019Y1249D01*
X3402Y1249D02*
X3497Y1249D01*
X223Y1248D02*
X320Y1248D01*
X701Y1248D02*
X798Y1248D01*
X1123Y1248D02*
X1220Y1248D01*
X1601Y1248D02*
X1698Y1248D01*
X2023Y1248D02*
X2120Y1248D01*
X2501Y1248D02*
X2598Y1248D01*
X2923Y1248D02*
X3020Y1248D01*
X3401Y1248D02*
X3498Y1248D01*
X222Y1247D02*
X320Y1247D01*
X700Y1247D02*
X799Y1247D01*
X1122Y1247D02*
X1220Y1247D01*
X1600Y1247D02*
X1699Y1247D01*
X2022Y1247D02*
X2120Y1247D01*
X2500Y1247D02*
X2599Y1247D01*
X2922Y1247D02*
X3020Y1247D01*
X3400Y1247D02*
X3499Y1247D01*
X221Y1246D02*
X321Y1246D01*
X699Y1246D02*
X800Y1246D01*
X1121Y1246D02*
X1221Y1246D01*
X1599Y1246D02*
X1700Y1246D01*
X2021Y1246D02*
X2121Y1246D01*
X2499Y1246D02*
X2600Y1246D01*
X2921Y1246D02*
X3021Y1246D01*
X3399Y1246D02*
X3500Y1246D01*
X220Y1245D02*
X322Y1245D01*
X699Y1245D02*
X800Y1245D01*
X1120Y1245D02*
X1222Y1245D01*
X1599Y1245D02*
X1700Y1245D01*
X2020Y1245D02*
X2122Y1245D01*
X2499Y1245D02*
X2600Y1245D01*
X2920Y1245D02*
X3022Y1245D01*
X3399Y1245D02*
X3500Y1245D01*
X220Y1244D02*
X323Y1244D01*
X698Y1244D02*
X801Y1244D01*
X1120Y1244D02*
X1223Y1244D01*
X1598Y1244D02*
X1701Y1244D01*
X2020Y1244D02*
X2123Y1244D01*
X2498Y1244D02*
X2601Y1244D01*
X2920Y1244D02*
X3023Y1244D01*
X3398Y1244D02*
X3501Y1244D01*
X219Y1243D02*
X323Y1243D01*
X697Y1243D02*
X802Y1243D01*
X1119Y1243D02*
X1223Y1243D01*
X1597Y1243D02*
X1702Y1243D01*
X2019Y1243D02*
X2123Y1243D01*
X2497Y1243D02*
X2602Y1243D01*
X2919Y1243D02*
X3023Y1243D01*
X3397Y1243D02*
X3502Y1243D01*
X218Y1242D02*
X324Y1242D01*
X696Y1242D02*
X803Y1242D01*
X1118Y1242D02*
X1224Y1242D01*
X1596Y1242D02*
X1702Y1242D01*
X2018Y1242D02*
X2124Y1242D01*
X2496Y1242D02*
X2602Y1242D01*
X2918Y1242D02*
X3024Y1242D01*
X3396Y1242D02*
X3502Y1242D01*
X217Y1241D02*
X325Y1241D01*
X696Y1241D02*
X803Y1241D01*
X1117Y1241D02*
X1225Y1241D01*
X1596Y1241D02*
X1703Y1241D01*
X2017Y1241D02*
X2125Y1241D01*
X2496Y1241D02*
X2603Y1241D01*
X2917Y1241D02*
X3025Y1241D01*
X3396Y1241D02*
X3503Y1241D01*
X217Y1240D02*
X325Y1240D01*
X695Y1240D02*
X804Y1240D01*
X1117Y1240D02*
X1225Y1240D01*
X1595Y1240D02*
X1704Y1240D01*
X2017Y1240D02*
X2125Y1240D01*
X2495Y1240D02*
X2604Y1240D01*
X2917Y1240D02*
X3025Y1240D01*
X3395Y1240D02*
X3504Y1240D01*
X216Y1239D02*
X326Y1239D01*
X695Y1239D02*
X804Y1239D01*
X1116Y1239D02*
X1226Y1239D01*
X1595Y1239D02*
X1704Y1239D01*
X2016Y1239D02*
X2126Y1239D01*
X2495Y1239D02*
X2604Y1239D01*
X2916Y1239D02*
X3026Y1239D01*
X3395Y1239D02*
X3504Y1239D01*
X216Y1238D02*
X327Y1238D01*
X694Y1238D02*
X805Y1238D01*
X1116Y1238D02*
X1227Y1238D01*
X1594Y1238D02*
X1705Y1238D01*
X2016Y1238D02*
X2127Y1238D01*
X2494Y1238D02*
X2605Y1238D01*
X2916Y1238D02*
X3027Y1238D01*
X3394Y1238D02*
X3505Y1238D01*
X215Y1237D02*
X327Y1237D01*
X693Y1237D02*
X806Y1237D01*
X1115Y1237D02*
X1227Y1237D01*
X1593Y1237D02*
X1706Y1237D01*
X2015Y1237D02*
X2127Y1237D01*
X2493Y1237D02*
X2606Y1237D01*
X2915Y1237D02*
X3027Y1237D01*
X3393Y1237D02*
X3506Y1237D01*
X214Y1236D02*
X328Y1236D01*
X693Y1236D02*
X806Y1236D01*
X1114Y1236D02*
X1228Y1236D01*
X1593Y1236D02*
X1706Y1236D01*
X2014Y1236D02*
X2128Y1236D01*
X2493Y1236D02*
X2606Y1236D01*
X2914Y1236D02*
X3028Y1236D01*
X3393Y1236D02*
X3506Y1236D01*
X214Y1235D02*
X328Y1235D01*
X692Y1235D02*
X807Y1235D01*
X1114Y1235D02*
X1228Y1235D01*
X1592Y1235D02*
X1707Y1235D01*
X2014Y1235D02*
X2128Y1235D01*
X2492Y1235D02*
X2607Y1235D01*
X2914Y1235D02*
X3028Y1235D01*
X3392Y1235D02*
X3507Y1235D01*
X213Y1234D02*
X329Y1234D01*
X692Y1234D02*
X807Y1234D01*
X1113Y1234D02*
X1229Y1234D01*
X1592Y1234D02*
X1707Y1234D01*
X2013Y1234D02*
X2129Y1234D01*
X2492Y1234D02*
X2607Y1234D01*
X2913Y1234D02*
X3029Y1234D01*
X3392Y1234D02*
X3507Y1234D01*
X213Y1233D02*
X329Y1233D01*
X691Y1233D02*
X808Y1233D01*
X1113Y1233D02*
X1229Y1233D01*
X1591Y1233D02*
X1708Y1233D01*
X2013Y1233D02*
X2129Y1233D01*
X2491Y1233D02*
X2608Y1233D01*
X2913Y1233D02*
X3029Y1233D01*
X3391Y1233D02*
X3508Y1233D01*
X212Y1232D02*
X330Y1232D01*
X691Y1232D02*
X808Y1232D01*
X1112Y1232D02*
X1230Y1232D01*
X1591Y1232D02*
X1708Y1232D01*
X2012Y1232D02*
X2130Y1232D01*
X2491Y1232D02*
X2608Y1232D01*
X2912Y1232D02*
X3030Y1232D01*
X3391Y1232D02*
X3508Y1232D01*
X212Y1231D02*
X330Y1231D01*
X690Y1231D02*
X809Y1231D01*
X1112Y1231D02*
X1230Y1231D01*
X1590Y1231D02*
X1709Y1231D01*
X2012Y1231D02*
X2130Y1231D01*
X2490Y1231D02*
X2609Y1231D01*
X2912Y1231D02*
X3030Y1231D01*
X3390Y1231D02*
X3509Y1231D01*
X212Y1230D02*
X264Y1230D01*
X279Y1230D02*
X331Y1230D01*
X690Y1230D02*
X742Y1230D01*
X757Y1230D02*
X809Y1230D01*
X1112Y1230D02*
X1164Y1230D01*
X1179Y1230D02*
X1231Y1230D01*
X1590Y1230D02*
X1642Y1230D01*
X1657Y1230D02*
X1709Y1230D01*
X2012Y1230D02*
X2064Y1230D01*
X2079Y1230D02*
X2131Y1230D01*
X2490Y1230D02*
X2542Y1230D01*
X2557Y1230D02*
X2609Y1230D01*
X2912Y1230D02*
X2964Y1230D01*
X2979Y1230D02*
X3031Y1230D01*
X3390Y1230D02*
X3442Y1230D01*
X3457Y1230D02*
X3509Y1230D01*
X211Y1229D02*
X261Y1229D01*
X281Y1229D02*
X331Y1229D01*
X690Y1229D02*
X739Y1229D01*
X760Y1229D02*
X809Y1229D01*
X1111Y1229D02*
X1161Y1229D01*
X1181Y1229D02*
X1231Y1229D01*
X1590Y1229D02*
X1639Y1229D01*
X1660Y1229D02*
X1709Y1229D01*
X2011Y1229D02*
X2061Y1229D01*
X2081Y1229D02*
X2131Y1229D01*
X2490Y1229D02*
X2539Y1229D01*
X2560Y1229D02*
X2609Y1229D01*
X2911Y1229D02*
X2961Y1229D01*
X2981Y1229D02*
X3031Y1229D01*
X3390Y1229D02*
X3439Y1229D01*
X3460Y1229D02*
X3509Y1229D01*
X211Y1228D02*
X259Y1228D01*
X283Y1228D02*
X331Y1228D01*
X689Y1228D02*
X737Y1228D01*
X762Y1228D02*
X810Y1228D01*
X1111Y1228D02*
X1159Y1228D01*
X1183Y1228D02*
X1231Y1228D01*
X1589Y1228D02*
X1637Y1228D01*
X1662Y1228D02*
X1710Y1228D01*
X2011Y1228D02*
X2059Y1228D01*
X2083Y1228D02*
X2131Y1228D01*
X2489Y1228D02*
X2537Y1228D01*
X2562Y1228D02*
X2610Y1228D01*
X2911Y1228D02*
X2959Y1228D01*
X2983Y1228D02*
X3031Y1228D01*
X3389Y1228D02*
X3437Y1228D01*
X3462Y1228D02*
X3510Y1228D01*
X211Y1227D02*
X257Y1227D01*
X285Y1227D02*
X332Y1227D01*
X689Y1227D02*
X735Y1227D01*
X764Y1227D02*
X810Y1227D01*
X1110Y1227D02*
X1157Y1227D01*
X1185Y1227D02*
X1232Y1227D01*
X1589Y1227D02*
X1635Y1227D01*
X1664Y1227D02*
X1710Y1227D01*
X2010Y1227D02*
X2057Y1227D01*
X2085Y1227D02*
X2132Y1227D01*
X2489Y1227D02*
X2535Y1227D01*
X2564Y1227D02*
X2610Y1227D01*
X2910Y1227D02*
X2957Y1227D01*
X2985Y1227D02*
X3032Y1227D01*
X3389Y1227D02*
X3435Y1227D01*
X3464Y1227D02*
X3510Y1227D01*
X210Y1226D02*
X256Y1226D01*
X287Y1226D02*
X332Y1226D01*
X689Y1226D02*
X734Y1226D01*
X765Y1226D02*
X810Y1226D01*
X1110Y1226D02*
X1156Y1226D01*
X1187Y1226D02*
X1232Y1226D01*
X1588Y1226D02*
X1634Y1226D01*
X1665Y1226D02*
X1710Y1226D01*
X2010Y1226D02*
X2056Y1226D01*
X2087Y1226D02*
X2132Y1226D01*
X2488Y1226D02*
X2534Y1226D01*
X2565Y1226D02*
X2610Y1226D01*
X2910Y1226D02*
X2956Y1226D01*
X2987Y1226D02*
X3032Y1226D01*
X3388Y1226D02*
X3434Y1226D01*
X3465Y1226D02*
X3510Y1226D01*
X210Y1225D02*
X254Y1225D01*
X288Y1225D02*
X333Y1225D01*
X688Y1225D02*
X733Y1225D01*
X766Y1225D02*
X811Y1225D01*
X1110Y1225D02*
X1154Y1225D01*
X1188Y1225D02*
X1233Y1225D01*
X1588Y1225D02*
X1633Y1225D01*
X1666Y1225D02*
X1711Y1225D01*
X2010Y1225D02*
X2054Y1225D01*
X2088Y1225D02*
X2132Y1225D01*
X2488Y1225D02*
X2533Y1225D01*
X2566Y1225D02*
X2611Y1225D01*
X2910Y1225D02*
X2954Y1225D01*
X2988Y1225D02*
X3032Y1225D01*
X3388Y1225D02*
X3433Y1225D01*
X3466Y1225D02*
X3511Y1225D01*
X210Y1224D02*
X253Y1224D01*
X289Y1224D02*
X333Y1224D01*
X688Y1224D02*
X732Y1224D01*
X767Y1224D02*
X811Y1224D01*
X1110Y1224D02*
X1153Y1224D01*
X1189Y1224D02*
X1233Y1224D01*
X1588Y1224D02*
X1632Y1224D01*
X1667Y1224D02*
X1711Y1224D01*
X2010Y1224D02*
X2053Y1224D01*
X2089Y1224D02*
X2133Y1224D01*
X2488Y1224D02*
X2532Y1224D01*
X2567Y1224D02*
X2611Y1224D01*
X2910Y1224D02*
X2953Y1224D01*
X2989Y1224D02*
X3033Y1224D01*
X3388Y1224D02*
X3432Y1224D01*
X3467Y1224D02*
X3511Y1224D01*
X209Y1223D02*
X252Y1223D01*
X290Y1223D02*
X333Y1223D01*
X688Y1223D02*
X731Y1223D01*
X768Y1223D02*
X811Y1223D01*
X1109Y1223D02*
X1152Y1223D01*
X1190Y1223D02*
X1233Y1223D01*
X1588Y1223D02*
X1631Y1223D01*
X1668Y1223D02*
X1711Y1223D01*
X2009Y1223D02*
X2052Y1223D01*
X2090Y1223D02*
X2133Y1223D01*
X2488Y1223D02*
X2531Y1223D01*
X2568Y1223D02*
X2611Y1223D01*
X2909Y1223D02*
X2952Y1223D01*
X2990Y1223D02*
X3033Y1223D01*
X3388Y1223D02*
X3431Y1223D01*
X3468Y1223D02*
X3511Y1223D01*
X209Y1222D02*
X251Y1222D01*
X291Y1222D02*
X333Y1222D01*
X687Y1222D02*
X730Y1222D01*
X769Y1222D02*
X812Y1222D01*
X1109Y1222D02*
X1151Y1222D01*
X1191Y1222D02*
X1233Y1222D01*
X1587Y1222D02*
X1630Y1222D01*
X1669Y1222D02*
X1712Y1222D01*
X2009Y1222D02*
X2051Y1222D01*
X2091Y1222D02*
X2133Y1222D01*
X2487Y1222D02*
X2530Y1222D01*
X2569Y1222D02*
X2612Y1222D01*
X2909Y1222D02*
X2951Y1222D01*
X2991Y1222D02*
X3033Y1222D01*
X3387Y1222D02*
X3430Y1222D01*
X3469Y1222D02*
X3512Y1222D01*
X209Y1221D02*
X250Y1221D01*
X292Y1221D02*
X334Y1221D01*
X687Y1221D02*
X729Y1221D01*
X770Y1221D02*
X812Y1221D01*
X1109Y1221D02*
X1150Y1221D01*
X1192Y1221D02*
X1234Y1221D01*
X1587Y1221D02*
X1629Y1221D01*
X1670Y1221D02*
X1712Y1221D01*
X2009Y1221D02*
X2050Y1221D01*
X2092Y1221D02*
X2134Y1221D01*
X2487Y1221D02*
X2529Y1221D01*
X2570Y1221D02*
X2612Y1221D01*
X2909Y1221D02*
X2950Y1221D01*
X2992Y1221D02*
X3034Y1221D01*
X3387Y1221D02*
X3429Y1221D01*
X3470Y1221D02*
X3512Y1221D01*
X209Y1220D02*
X250Y1220D01*
X293Y1220D02*
X334Y1220D01*
X687Y1220D02*
X728Y1220D01*
X771Y1220D02*
X812Y1220D01*
X1109Y1220D02*
X1150Y1220D01*
X1193Y1220D02*
X1234Y1220D01*
X1587Y1220D02*
X1628Y1220D01*
X1671Y1220D02*
X1712Y1220D01*
X2009Y1220D02*
X2050Y1220D01*
X2093Y1220D02*
X2134Y1220D01*
X2487Y1220D02*
X2528Y1220D01*
X2571Y1220D02*
X2612Y1220D01*
X2909Y1220D02*
X2950Y1220D01*
X2993Y1220D02*
X3034Y1220D01*
X3387Y1220D02*
X3428Y1220D01*
X3471Y1220D02*
X3512Y1220D01*
X208Y1219D02*
X249Y1219D01*
X293Y1219D02*
X334Y1219D01*
X687Y1219D02*
X727Y1219D01*
X772Y1219D02*
X812Y1219D01*
X1108Y1219D02*
X1149Y1219D01*
X1193Y1219D02*
X1234Y1219D01*
X1587Y1219D02*
X1627Y1219D01*
X1672Y1219D02*
X1712Y1219D01*
X2008Y1219D02*
X2049Y1219D01*
X2093Y1219D02*
X2134Y1219D01*
X2487Y1219D02*
X2527Y1219D01*
X2572Y1219D02*
X2612Y1219D01*
X2908Y1219D02*
X2949Y1219D01*
X2993Y1219D02*
X3034Y1219D01*
X3387Y1219D02*
X3427Y1219D01*
X3472Y1219D02*
X3512Y1219D01*
X208Y1218D02*
X248Y1218D01*
X294Y1218D02*
X334Y1218D01*
X686Y1218D02*
X727Y1218D01*
X772Y1218D02*
X813Y1218D01*
X1108Y1218D02*
X1148Y1218D01*
X1194Y1218D02*
X1234Y1218D01*
X1586Y1218D02*
X1627Y1218D01*
X1672Y1218D02*
X1713Y1218D01*
X2008Y1218D02*
X2048Y1218D01*
X2094Y1218D02*
X2134Y1218D01*
X2486Y1218D02*
X2527Y1218D01*
X2572Y1218D02*
X2613Y1218D01*
X2908Y1218D02*
X2948Y1218D01*
X2994Y1218D02*
X3034Y1218D01*
X3386Y1218D02*
X3427Y1218D01*
X3472Y1218D02*
X3513Y1218D01*
X208Y1217D02*
X248Y1217D01*
X294Y1217D02*
X334Y1217D01*
X686Y1217D02*
X726Y1217D01*
X773Y1217D02*
X813Y1217D01*
X1108Y1217D02*
X1148Y1217D01*
X1194Y1217D02*
X1234Y1217D01*
X1586Y1217D02*
X1626Y1217D01*
X1673Y1217D02*
X1713Y1217D01*
X2008Y1217D02*
X2048Y1217D01*
X2094Y1217D02*
X2134Y1217D01*
X2486Y1217D02*
X2526Y1217D01*
X2573Y1217D02*
X2613Y1217D01*
X2908Y1217D02*
X2948Y1217D01*
X2994Y1217D02*
X3034Y1217D01*
X3386Y1217D02*
X3426Y1217D01*
X3473Y1217D02*
X3513Y1217D01*
X208Y1216D02*
X247Y1216D01*
X295Y1216D02*
X335Y1216D01*
X686Y1216D02*
X726Y1216D01*
X773Y1216D02*
X813Y1216D01*
X1108Y1216D02*
X1147Y1216D01*
X1195Y1216D02*
X1235Y1216D01*
X1586Y1216D02*
X1626Y1216D01*
X1673Y1216D02*
X1713Y1216D01*
X2008Y1216D02*
X2047Y1216D01*
X2095Y1216D02*
X2135Y1216D01*
X2486Y1216D02*
X2526Y1216D01*
X2573Y1216D02*
X2613Y1216D01*
X2908Y1216D02*
X2947Y1216D01*
X2995Y1216D02*
X3035Y1216D01*
X3386Y1216D02*
X3426Y1216D01*
X3473Y1216D02*
X3513Y1216D01*
X208Y1215D02*
X247Y1215D01*
X295Y1215D02*
X335Y1215D01*
X686Y1215D02*
X725Y1215D01*
X774Y1215D02*
X813Y1215D01*
X1108Y1215D02*
X1147Y1215D01*
X1195Y1215D02*
X1235Y1215D01*
X1586Y1215D02*
X1625Y1215D01*
X1674Y1215D02*
X1713Y1215D01*
X2008Y1215D02*
X2047Y1215D01*
X2095Y1215D02*
X2135Y1215D01*
X2486Y1215D02*
X2525Y1215D01*
X2574Y1215D02*
X2613Y1215D01*
X2908Y1215D02*
X2947Y1215D01*
X2995Y1215D02*
X3035Y1215D01*
X3386Y1215D02*
X3425Y1215D01*
X3474Y1215D02*
X3513Y1215D01*
X207Y1214D02*
X247Y1214D01*
X296Y1214D02*
X335Y1214D01*
X686Y1214D02*
X725Y1214D01*
X774Y1214D02*
X813Y1214D01*
X1107Y1214D02*
X1147Y1214D01*
X1196Y1214D02*
X1235Y1214D01*
X1586Y1214D02*
X1625Y1214D01*
X1674Y1214D02*
X1713Y1214D01*
X2007Y1214D02*
X2047Y1214D01*
X2096Y1214D02*
X2135Y1214D01*
X2486Y1214D02*
X2525Y1214D01*
X2574Y1214D02*
X2613Y1214D01*
X2907Y1214D02*
X2947Y1214D01*
X2996Y1214D02*
X3035Y1214D01*
X3386Y1214D02*
X3425Y1214D01*
X3474Y1214D02*
X3513Y1214D01*
X207Y1213D02*
X246Y1213D01*
X296Y1213D02*
X335Y1213D01*
X686Y1213D02*
X725Y1213D01*
X774Y1213D02*
X813Y1213D01*
X1107Y1213D02*
X1146Y1213D01*
X1196Y1213D02*
X1235Y1213D01*
X1586Y1213D02*
X1625Y1213D01*
X1674Y1213D02*
X1713Y1213D01*
X2007Y1213D02*
X2046Y1213D01*
X2096Y1213D02*
X2135Y1213D01*
X2486Y1213D02*
X2525Y1213D01*
X2574Y1213D02*
X2613Y1213D01*
X2907Y1213D02*
X2946Y1213D01*
X2996Y1213D02*
X3035Y1213D01*
X3386Y1213D02*
X3425Y1213D01*
X3474Y1213D02*
X3513Y1213D01*
X207Y1212D02*
X246Y1212D01*
X296Y1212D02*
X335Y1212D01*
X685Y1212D02*
X724Y1212D01*
X775Y1212D02*
X814Y1212D01*
X1107Y1212D02*
X1146Y1212D01*
X1196Y1212D02*
X1235Y1212D01*
X1585Y1212D02*
X1624Y1212D01*
X1675Y1212D02*
X1714Y1212D01*
X2007Y1212D02*
X2046Y1212D01*
X2096Y1212D02*
X2135Y1212D01*
X2485Y1212D02*
X2524Y1212D01*
X2575Y1212D02*
X2614Y1212D01*
X2907Y1212D02*
X2946Y1212D01*
X2996Y1212D02*
X3035Y1212D01*
X3385Y1212D02*
X3424Y1212D01*
X3475Y1212D02*
X3514Y1212D01*
X207Y1211D02*
X246Y1211D01*
X297Y1211D02*
X335Y1211D01*
X685Y1211D02*
X724Y1211D01*
X775Y1211D02*
X814Y1211D01*
X1107Y1211D02*
X1146Y1211D01*
X1197Y1211D02*
X1235Y1211D01*
X1585Y1211D02*
X1624Y1211D01*
X1675Y1211D02*
X1714Y1211D01*
X2007Y1211D02*
X2046Y1211D01*
X2097Y1211D02*
X2135Y1211D01*
X2485Y1211D02*
X2524Y1211D01*
X2575Y1211D02*
X2614Y1211D01*
X2907Y1211D02*
X2946Y1211D01*
X2997Y1211D02*
X3035Y1211D01*
X3385Y1211D02*
X3424Y1211D01*
X3475Y1211D02*
X3514Y1211D01*
X207Y1210D02*
X245Y1210D01*
X297Y1210D02*
X335Y1210D01*
X685Y1210D02*
X724Y1210D01*
X775Y1210D02*
X814Y1210D01*
X1107Y1210D02*
X1145Y1210D01*
X1197Y1210D02*
X1235Y1210D01*
X1585Y1210D02*
X1624Y1210D01*
X1675Y1210D02*
X1714Y1210D01*
X2007Y1210D02*
X2045Y1210D01*
X2097Y1210D02*
X2135Y1210D01*
X2485Y1210D02*
X2524Y1210D01*
X2575Y1210D02*
X2614Y1210D01*
X2907Y1210D02*
X2945Y1210D01*
X2997Y1210D02*
X3035Y1210D01*
X3385Y1210D02*
X3424Y1210D01*
X3475Y1210D02*
X3514Y1210D01*
X207Y1209D02*
X245Y1209D01*
X297Y1209D02*
X335Y1209D01*
X685Y1209D02*
X724Y1209D01*
X775Y1209D02*
X814Y1209D01*
X1107Y1209D02*
X1145Y1209D01*
X1197Y1209D02*
X1235Y1209D01*
X1585Y1209D02*
X1624Y1209D01*
X1675Y1209D02*
X1714Y1209D01*
X2007Y1209D02*
X2045Y1209D01*
X2097Y1209D02*
X2135Y1209D01*
X2485Y1209D02*
X2524Y1209D01*
X2575Y1209D02*
X2614Y1209D01*
X2907Y1209D02*
X2945Y1209D01*
X2997Y1209D02*
X3035Y1209D01*
X3385Y1209D02*
X3424Y1209D01*
X3475Y1209D02*
X3514Y1209D01*
X207Y1208D02*
X245Y1208D01*
X297Y1208D02*
X335Y1208D01*
X685Y1208D02*
X723Y1208D01*
X776Y1208D02*
X814Y1208D01*
X1107Y1208D02*
X1145Y1208D01*
X1197Y1208D02*
X1235Y1208D01*
X1585Y1208D02*
X1623Y1208D01*
X1675Y1208D02*
X1714Y1208D01*
X2007Y1208D02*
X2045Y1208D01*
X2097Y1208D02*
X2135Y1208D01*
X2485Y1208D02*
X2523Y1208D01*
X2575Y1208D02*
X2614Y1208D01*
X2907Y1208D02*
X2945Y1208D01*
X2997Y1208D02*
X3035Y1208D01*
X3385Y1208D02*
X3423Y1208D01*
X3475Y1208D02*
X3514Y1208D01*
X207Y1207D02*
X245Y1207D01*
X297Y1207D02*
X336Y1207D01*
X685Y1207D02*
X723Y1207D01*
X776Y1207D02*
X814Y1207D01*
X1107Y1207D02*
X1145Y1207D01*
X1197Y1207D02*
X1236Y1207D01*
X1585Y1207D02*
X1623Y1207D01*
X1676Y1207D02*
X1714Y1207D01*
X2007Y1207D02*
X2045Y1207D01*
X2097Y1207D02*
X2136Y1207D01*
X2485Y1207D02*
X2523Y1207D01*
X2576Y1207D02*
X2614Y1207D01*
X2907Y1207D02*
X2945Y1207D01*
X2997Y1207D02*
X3036Y1207D01*
X3385Y1207D02*
X3423Y1207D01*
X3476Y1207D02*
X3514Y1207D01*
X207Y1206D02*
X245Y1206D01*
X297Y1206D02*
X336Y1206D01*
X685Y1206D02*
X723Y1206D01*
X776Y1206D02*
X814Y1206D01*
X1107Y1206D02*
X1145Y1206D01*
X1197Y1206D02*
X1236Y1206D01*
X1585Y1206D02*
X1623Y1206D01*
X1676Y1206D02*
X1714Y1206D01*
X2007Y1206D02*
X2045Y1206D01*
X2097Y1206D02*
X2136Y1206D01*
X2485Y1206D02*
X2523Y1206D01*
X2576Y1206D02*
X2614Y1206D01*
X2907Y1206D02*
X2945Y1206D01*
X2997Y1206D02*
X3036Y1206D01*
X3385Y1206D02*
X3423Y1206D01*
X3476Y1206D02*
X3514Y1206D01*
X207Y1205D02*
X245Y1205D01*
X297Y1205D02*
X336Y1205D01*
X685Y1205D02*
X723Y1205D01*
X776Y1205D02*
X814Y1205D01*
X1107Y1205D02*
X1145Y1205D01*
X1197Y1205D02*
X1236Y1205D01*
X1585Y1205D02*
X1623Y1205D01*
X1676Y1205D02*
X1714Y1205D01*
X2007Y1205D02*
X2045Y1205D01*
X2097Y1205D02*
X2136Y1205D01*
X2485Y1205D02*
X2523Y1205D01*
X2576Y1205D02*
X2614Y1205D01*
X2907Y1205D02*
X2945Y1205D01*
X2997Y1205D02*
X3036Y1205D01*
X3385Y1205D02*
X3423Y1205D01*
X3476Y1205D02*
X3514Y1205D01*
X207Y1204D02*
X245Y1204D01*
X297Y1204D02*
X336Y1204D01*
X685Y1204D02*
X723Y1204D01*
X776Y1204D02*
X814Y1204D01*
X1107Y1204D02*
X1145Y1204D01*
X1197Y1204D02*
X1236Y1204D01*
X1585Y1204D02*
X1623Y1204D01*
X1676Y1204D02*
X1714Y1204D01*
X2007Y1204D02*
X2045Y1204D01*
X2097Y1204D02*
X2136Y1204D01*
X2485Y1204D02*
X2523Y1204D01*
X2576Y1204D02*
X2614Y1204D01*
X2907Y1204D02*
X2945Y1204D01*
X2997Y1204D02*
X3036Y1204D01*
X3385Y1204D02*
X3423Y1204D01*
X3476Y1204D02*
X3514Y1204D01*
X207Y1203D02*
X245Y1203D01*
X297Y1203D02*
X335Y1203D01*
X685Y1203D02*
X723Y1203D01*
X776Y1203D02*
X814Y1203D01*
X1107Y1203D02*
X1145Y1203D01*
X1197Y1203D02*
X1235Y1203D01*
X1585Y1203D02*
X1623Y1203D01*
X1676Y1203D02*
X1714Y1203D01*
X2007Y1203D02*
X2045Y1203D01*
X2097Y1203D02*
X2135Y1203D01*
X2485Y1203D02*
X2523Y1203D01*
X2576Y1203D02*
X2614Y1203D01*
X2907Y1203D02*
X2945Y1203D01*
X2997Y1203D02*
X3035Y1203D01*
X3385Y1203D02*
X3423Y1203D01*
X3476Y1203D02*
X3514Y1203D01*
X207Y1202D02*
X245Y1202D01*
X297Y1202D02*
X335Y1202D01*
X685Y1202D02*
X724Y1202D01*
X775Y1202D02*
X814Y1202D01*
X1107Y1202D02*
X1145Y1202D01*
X1197Y1202D02*
X1235Y1202D01*
X1585Y1202D02*
X1624Y1202D01*
X1675Y1202D02*
X1714Y1202D01*
X2007Y1202D02*
X2045Y1202D01*
X2097Y1202D02*
X2135Y1202D01*
X2485Y1202D02*
X2524Y1202D01*
X2575Y1202D02*
X2614Y1202D01*
X2907Y1202D02*
X2945Y1202D01*
X2997Y1202D02*
X3035Y1202D01*
X3385Y1202D02*
X3424Y1202D01*
X3475Y1202D02*
X3514Y1202D01*
X207Y1201D02*
X245Y1201D01*
X297Y1201D02*
X335Y1201D01*
X685Y1201D02*
X724Y1201D01*
X775Y1201D02*
X814Y1201D01*
X1107Y1201D02*
X1145Y1201D01*
X1197Y1201D02*
X1235Y1201D01*
X1585Y1201D02*
X1624Y1201D01*
X1675Y1201D02*
X1714Y1201D01*
X2007Y1201D02*
X2045Y1201D01*
X2097Y1201D02*
X2135Y1201D01*
X2485Y1201D02*
X2524Y1201D01*
X2575Y1201D02*
X2614Y1201D01*
X2907Y1201D02*
X2945Y1201D01*
X2997Y1201D02*
X3035Y1201D01*
X3385Y1201D02*
X3424Y1201D01*
X3475Y1201D02*
X3514Y1201D01*
X207Y1200D02*
X246Y1200D01*
X297Y1200D02*
X335Y1200D01*
X685Y1200D02*
X724Y1200D01*
X775Y1200D02*
X814Y1200D01*
X1107Y1200D02*
X1146Y1200D01*
X1197Y1200D02*
X1235Y1200D01*
X1585Y1200D02*
X1624Y1200D01*
X1675Y1200D02*
X1714Y1200D01*
X2007Y1200D02*
X2046Y1200D01*
X2097Y1200D02*
X2135Y1200D01*
X2485Y1200D02*
X2524Y1200D01*
X2575Y1200D02*
X2614Y1200D01*
X2907Y1200D02*
X2946Y1200D01*
X2997Y1200D02*
X3035Y1200D01*
X3385Y1200D02*
X3424Y1200D01*
X3475Y1200D02*
X3514Y1200D01*
X207Y1199D02*
X246Y1199D01*
X297Y1199D02*
X335Y1199D01*
X685Y1199D02*
X724Y1199D01*
X775Y1199D02*
X814Y1199D01*
X1107Y1199D02*
X1146Y1199D01*
X1197Y1199D02*
X1235Y1199D01*
X1585Y1199D02*
X1624Y1199D01*
X1675Y1199D02*
X1714Y1199D01*
X2007Y1199D02*
X2046Y1199D01*
X2096Y1199D02*
X2135Y1199D01*
X2485Y1199D02*
X2524Y1199D01*
X2575Y1199D02*
X2614Y1199D01*
X2907Y1199D02*
X2946Y1199D01*
X2996Y1199D02*
X3035Y1199D01*
X3385Y1199D02*
X3424Y1199D01*
X3475Y1199D02*
X3514Y1199D01*
X207Y1198D02*
X246Y1198D01*
X296Y1198D02*
X335Y1198D01*
X686Y1198D02*
X724Y1198D01*
X775Y1198D02*
X813Y1198D01*
X1107Y1198D02*
X1146Y1198D01*
X1196Y1198D02*
X1235Y1198D01*
X1586Y1198D02*
X1624Y1198D01*
X1675Y1198D02*
X1713Y1198D01*
X2007Y1198D02*
X2046Y1198D01*
X2096Y1198D02*
X2135Y1198D01*
X2486Y1198D02*
X2524Y1198D01*
X2575Y1198D02*
X2613Y1198D01*
X2907Y1198D02*
X2946Y1198D01*
X2996Y1198D02*
X3035Y1198D01*
X3386Y1198D02*
X3424Y1198D01*
X3475Y1198D02*
X3513Y1198D01*
X207Y1197D02*
X246Y1197D01*
X296Y1197D02*
X335Y1197D01*
X686Y1197D02*
X725Y1197D01*
X774Y1197D02*
X813Y1197D01*
X1107Y1197D02*
X1146Y1197D01*
X1196Y1197D02*
X1235Y1197D01*
X1586Y1197D02*
X1625Y1197D01*
X1674Y1197D02*
X1713Y1197D01*
X2007Y1197D02*
X2046Y1197D01*
X2096Y1197D02*
X2135Y1197D01*
X2486Y1197D02*
X2525Y1197D01*
X2574Y1197D02*
X2613Y1197D01*
X2907Y1197D02*
X2946Y1197D01*
X2996Y1197D02*
X3035Y1197D01*
X3386Y1197D02*
X3425Y1197D01*
X3474Y1197D02*
X3513Y1197D01*
X208Y1196D02*
X247Y1196D01*
X295Y1196D02*
X335Y1196D01*
X686Y1196D02*
X725Y1196D01*
X774Y1196D02*
X813Y1196D01*
X1108Y1196D02*
X1147Y1196D01*
X1195Y1196D02*
X1235Y1196D01*
X1586Y1196D02*
X1625Y1196D01*
X1674Y1196D02*
X1713Y1196D01*
X2008Y1196D02*
X2047Y1196D01*
X2095Y1196D02*
X2135Y1196D01*
X2486Y1196D02*
X2525Y1196D01*
X2574Y1196D02*
X2613Y1196D01*
X2908Y1196D02*
X2947Y1196D01*
X2995Y1196D02*
X3035Y1196D01*
X3386Y1196D02*
X3425Y1196D01*
X3474Y1196D02*
X3513Y1196D01*
X208Y1195D02*
X247Y1195D01*
X295Y1195D02*
X335Y1195D01*
X686Y1195D02*
X726Y1195D01*
X773Y1195D02*
X813Y1195D01*
X1108Y1195D02*
X1147Y1195D01*
X1195Y1195D02*
X1235Y1195D01*
X1586Y1195D02*
X1626Y1195D01*
X1673Y1195D02*
X1713Y1195D01*
X2008Y1195D02*
X2047Y1195D01*
X2095Y1195D02*
X2135Y1195D01*
X2486Y1195D02*
X2526Y1195D01*
X2573Y1195D02*
X2613Y1195D01*
X2908Y1195D02*
X2947Y1195D01*
X2995Y1195D02*
X3035Y1195D01*
X3386Y1195D02*
X3426Y1195D01*
X3473Y1195D02*
X3513Y1195D01*
X208Y1194D02*
X248Y1194D01*
X295Y1194D02*
X334Y1194D01*
X686Y1194D02*
X726Y1194D01*
X773Y1194D02*
X813Y1194D01*
X1108Y1194D02*
X1148Y1194D01*
X1195Y1194D02*
X1234Y1194D01*
X1586Y1194D02*
X1626Y1194D01*
X1673Y1194D02*
X1713Y1194D01*
X2008Y1194D02*
X2048Y1194D01*
X2095Y1194D02*
X2134Y1194D01*
X2486Y1194D02*
X2526Y1194D01*
X2573Y1194D02*
X2613Y1194D01*
X2908Y1194D02*
X2948Y1194D01*
X2995Y1194D02*
X3034Y1194D01*
X3386Y1194D02*
X3426Y1194D01*
X3473Y1194D02*
X3513Y1194D01*
X208Y1193D02*
X248Y1193D01*
X294Y1193D02*
X334Y1193D01*
X686Y1193D02*
X727Y1193D01*
X772Y1193D02*
X813Y1193D01*
X1108Y1193D02*
X1148Y1193D01*
X1194Y1193D02*
X1234Y1193D01*
X1586Y1193D02*
X1627Y1193D01*
X1672Y1193D02*
X1713Y1193D01*
X2008Y1193D02*
X2048Y1193D01*
X2094Y1193D02*
X2134Y1193D01*
X2486Y1193D02*
X2527Y1193D01*
X2572Y1193D02*
X2613Y1193D01*
X2908Y1193D02*
X2948Y1193D01*
X2994Y1193D02*
X3034Y1193D01*
X3386Y1193D02*
X3427Y1193D01*
X3472Y1193D02*
X3513Y1193D01*
X208Y1192D02*
X249Y1192D01*
X293Y1192D02*
X334Y1192D01*
X687Y1192D02*
X727Y1192D01*
X772Y1192D02*
X812Y1192D01*
X1108Y1192D02*
X1149Y1192D01*
X1193Y1192D02*
X1234Y1192D01*
X1587Y1192D02*
X1627Y1192D01*
X1672Y1192D02*
X1712Y1192D01*
X2008Y1192D02*
X2049Y1192D01*
X2093Y1192D02*
X2134Y1192D01*
X2487Y1192D02*
X2527Y1192D01*
X2572Y1192D02*
X2612Y1192D01*
X2908Y1192D02*
X2949Y1192D01*
X2993Y1192D02*
X3034Y1192D01*
X3387Y1192D02*
X3427Y1192D01*
X3472Y1192D02*
X3512Y1192D01*
X208Y1191D02*
X249Y1191D01*
X293Y1191D02*
X334Y1191D01*
X687Y1191D02*
X728Y1191D01*
X771Y1191D02*
X812Y1191D01*
X1108Y1191D02*
X1149Y1191D01*
X1193Y1191D02*
X1234Y1191D01*
X1587Y1191D02*
X1628Y1191D01*
X1671Y1191D02*
X1712Y1191D01*
X2008Y1191D02*
X2049Y1191D01*
X2093Y1191D02*
X2134Y1191D01*
X2487Y1191D02*
X2528Y1191D01*
X2571Y1191D02*
X2612Y1191D01*
X2908Y1191D02*
X2949Y1191D01*
X2993Y1191D02*
X3034Y1191D01*
X3387Y1191D02*
X3428Y1191D01*
X3471Y1191D02*
X3512Y1191D01*
X209Y1190D02*
X250Y1190D01*
X292Y1190D02*
X334Y1190D01*
X687Y1190D02*
X729Y1190D01*
X770Y1190D02*
X812Y1190D01*
X1109Y1190D02*
X1150Y1190D01*
X1192Y1190D02*
X1234Y1190D01*
X1587Y1190D02*
X1629Y1190D01*
X1670Y1190D02*
X1712Y1190D01*
X2009Y1190D02*
X2050Y1190D01*
X2092Y1190D02*
X2134Y1190D01*
X2487Y1190D02*
X2529Y1190D01*
X2570Y1190D02*
X2612Y1190D01*
X2909Y1190D02*
X2950Y1190D01*
X2992Y1190D02*
X3034Y1190D01*
X3387Y1190D02*
X3429Y1190D01*
X3470Y1190D02*
X3512Y1190D01*
X209Y1189D02*
X251Y1189D01*
X291Y1189D02*
X333Y1189D01*
X687Y1189D02*
X729Y1189D01*
X770Y1189D02*
X812Y1189D01*
X1109Y1189D02*
X1151Y1189D01*
X1191Y1189D02*
X1233Y1189D01*
X1587Y1189D02*
X1629Y1189D01*
X1670Y1189D02*
X1712Y1189D01*
X2009Y1189D02*
X2051Y1189D01*
X2091Y1189D02*
X2133Y1189D01*
X2487Y1189D02*
X2529Y1189D01*
X2570Y1189D02*
X2612Y1189D01*
X2909Y1189D02*
X2951Y1189D01*
X2991Y1189D02*
X3033Y1189D01*
X3387Y1189D02*
X3429Y1189D01*
X3470Y1189D02*
X3512Y1189D01*
X209Y1188D02*
X252Y1188D01*
X290Y1188D02*
X333Y1188D01*
X688Y1188D02*
X730Y1188D01*
X769Y1188D02*
X811Y1188D01*
X1109Y1188D02*
X1152Y1188D01*
X1190Y1188D02*
X1233Y1188D01*
X1588Y1188D02*
X1630Y1188D01*
X1669Y1188D02*
X1711Y1188D01*
X2009Y1188D02*
X2052Y1188D01*
X2090Y1188D02*
X2133Y1188D01*
X2488Y1188D02*
X2530Y1188D01*
X2569Y1188D02*
X2611Y1188D01*
X2909Y1188D02*
X2952Y1188D01*
X2990Y1188D02*
X3033Y1188D01*
X3388Y1188D02*
X3430Y1188D01*
X3469Y1188D02*
X3511Y1188D01*
X209Y1187D02*
X253Y1187D01*
X289Y1187D02*
X333Y1187D01*
X688Y1187D02*
X731Y1187D01*
X768Y1187D02*
X811Y1187D01*
X1109Y1187D02*
X1153Y1187D01*
X1189Y1187D02*
X1233Y1187D01*
X1588Y1187D02*
X1631Y1187D01*
X1668Y1187D02*
X1711Y1187D01*
X2009Y1187D02*
X2053Y1187D01*
X2089Y1187D02*
X2133Y1187D01*
X2488Y1187D02*
X2531Y1187D01*
X2568Y1187D02*
X2611Y1187D01*
X2909Y1187D02*
X2953Y1187D01*
X2989Y1187D02*
X3033Y1187D01*
X3388Y1187D02*
X3431Y1187D01*
X3468Y1187D02*
X3511Y1187D01*
X210Y1186D02*
X254Y1186D01*
X288Y1186D02*
X333Y1186D01*
X688Y1186D02*
X732Y1186D01*
X767Y1186D02*
X811Y1186D01*
X1110Y1186D02*
X1154Y1186D01*
X1188Y1186D02*
X1233Y1186D01*
X1588Y1186D02*
X1632Y1186D01*
X1667Y1186D02*
X1711Y1186D01*
X2010Y1186D02*
X2054Y1186D01*
X2088Y1186D02*
X2133Y1186D01*
X2488Y1186D02*
X2532Y1186D01*
X2567Y1186D02*
X2611Y1186D01*
X2910Y1186D02*
X2954Y1186D01*
X2988Y1186D02*
X3033Y1186D01*
X3388Y1186D02*
X3432Y1186D01*
X3467Y1186D02*
X3511Y1186D01*
X210Y1185D02*
X255Y1185D01*
X287Y1185D02*
X332Y1185D01*
X688Y1185D02*
X734Y1185D01*
X765Y1185D02*
X811Y1185D01*
X1110Y1185D02*
X1155Y1185D01*
X1187Y1185D02*
X1232Y1185D01*
X1588Y1185D02*
X1634Y1185D01*
X1665Y1185D02*
X1711Y1185D01*
X2010Y1185D02*
X2055Y1185D01*
X2087Y1185D02*
X2132Y1185D01*
X2488Y1185D02*
X2534Y1185D01*
X2565Y1185D02*
X2611Y1185D01*
X2910Y1185D02*
X2955Y1185D01*
X2987Y1185D02*
X3032Y1185D01*
X3388Y1185D02*
X3434Y1185D01*
X3465Y1185D02*
X3511Y1185D01*
X210Y1184D02*
X256Y1184D01*
X286Y1184D02*
X332Y1184D01*
X689Y1184D02*
X735Y1184D01*
X764Y1184D02*
X810Y1184D01*
X1110Y1184D02*
X1156Y1184D01*
X1186Y1184D02*
X1232Y1184D01*
X1589Y1184D02*
X1635Y1184D01*
X1664Y1184D02*
X1710Y1184D01*
X2010Y1184D02*
X2056Y1184D01*
X2086Y1184D02*
X2132Y1184D01*
X2489Y1184D02*
X2535Y1184D01*
X2564Y1184D02*
X2610Y1184D01*
X2910Y1184D02*
X2956Y1184D01*
X2986Y1184D02*
X3032Y1184D01*
X3389Y1184D02*
X3435Y1184D01*
X3464Y1184D02*
X3510Y1184D01*
X211Y1183D02*
X258Y1183D01*
X284Y1183D02*
X332Y1183D01*
X689Y1183D02*
X737Y1183D01*
X762Y1183D02*
X810Y1183D01*
X1111Y1183D02*
X1158Y1183D01*
X1184Y1183D02*
X1232Y1183D01*
X1589Y1183D02*
X1637Y1183D01*
X1662Y1183D02*
X1710Y1183D01*
X2011Y1183D02*
X2058Y1183D01*
X2084Y1183D02*
X2132Y1183D01*
X2489Y1183D02*
X2537Y1183D01*
X2562Y1183D02*
X2610Y1183D01*
X2911Y1183D02*
X2958Y1183D01*
X2984Y1183D02*
X3032Y1183D01*
X3389Y1183D02*
X3437Y1183D01*
X3462Y1183D02*
X3510Y1183D01*
X211Y1182D02*
X260Y1182D01*
X282Y1182D02*
X331Y1182D01*
X689Y1182D02*
X739Y1182D01*
X760Y1182D02*
X810Y1182D01*
X1111Y1182D02*
X1160Y1182D01*
X1182Y1182D02*
X1231Y1182D01*
X1589Y1182D02*
X1639Y1182D01*
X1660Y1182D02*
X1710Y1182D01*
X2011Y1182D02*
X2060Y1182D01*
X2082Y1182D02*
X2131Y1182D01*
X2489Y1182D02*
X2539Y1182D01*
X2560Y1182D02*
X2610Y1182D01*
X2911Y1182D02*
X2960Y1182D01*
X2982Y1182D02*
X3031Y1182D01*
X3389Y1182D02*
X3439Y1182D01*
X3460Y1182D02*
X3510Y1182D01*
X211Y1181D02*
X263Y1181D01*
X280Y1181D02*
X331Y1181D01*
X690Y1181D02*
X741Y1181D01*
X758Y1181D02*
X809Y1181D01*
X1111Y1181D02*
X1163Y1181D01*
X1180Y1181D02*
X1231Y1181D01*
X1590Y1181D02*
X1641Y1181D01*
X1658Y1181D02*
X1709Y1181D01*
X2011Y1181D02*
X2063Y1181D01*
X2080Y1181D02*
X2131Y1181D01*
X2490Y1181D02*
X2541Y1181D01*
X2558Y1181D02*
X2609Y1181D01*
X2911Y1181D02*
X2963Y1181D01*
X2980Y1181D02*
X3031Y1181D01*
X3390Y1181D02*
X3441Y1181D01*
X3458Y1181D02*
X3509Y1181D01*
X212Y1180D02*
X267Y1180D01*
X276Y1180D02*
X330Y1180D01*
X690Y1180D02*
X745Y1180D01*
X754Y1180D02*
X809Y1180D01*
X1112Y1180D02*
X1167Y1180D01*
X1176Y1180D02*
X1230Y1180D01*
X1590Y1180D02*
X1645Y1180D01*
X1654Y1180D02*
X1709Y1180D01*
X2012Y1180D02*
X2067Y1180D01*
X2076Y1180D02*
X2130Y1180D01*
X2490Y1180D02*
X2545Y1180D01*
X2554Y1180D02*
X2609Y1180D01*
X2912Y1180D02*
X2967Y1180D01*
X2976Y1180D02*
X3030Y1180D01*
X3390Y1180D02*
X3445Y1180D01*
X3454Y1180D02*
X3509Y1180D01*
X212Y1179D02*
X330Y1179D01*
X691Y1179D02*
X808Y1179D01*
X1112Y1179D02*
X1230Y1179D01*
X1591Y1179D02*
X1708Y1179D01*
X2012Y1179D02*
X2130Y1179D01*
X2491Y1179D02*
X2608Y1179D01*
X2912Y1179D02*
X3030Y1179D01*
X3391Y1179D02*
X3508Y1179D01*
X213Y1178D02*
X329Y1178D01*
X691Y1178D02*
X808Y1178D01*
X1113Y1178D02*
X1229Y1178D01*
X1591Y1178D02*
X1708Y1178D01*
X2013Y1178D02*
X2129Y1178D01*
X2491Y1178D02*
X2608Y1178D01*
X2913Y1178D02*
X3029Y1178D01*
X3391Y1178D02*
X3508Y1178D01*
X213Y1177D02*
X329Y1177D01*
X692Y1177D02*
X807Y1177D01*
X1113Y1177D02*
X1229Y1177D01*
X1592Y1177D02*
X1707Y1177D01*
X2013Y1177D02*
X2129Y1177D01*
X2492Y1177D02*
X2607Y1177D01*
X2913Y1177D02*
X3029Y1177D01*
X3392Y1177D02*
X3507Y1177D01*
X214Y1176D02*
X328Y1176D01*
X692Y1176D02*
X807Y1176D01*
X1114Y1176D02*
X1228Y1176D01*
X1592Y1176D02*
X1707Y1176D01*
X2014Y1176D02*
X2128Y1176D01*
X2492Y1176D02*
X2607Y1176D01*
X2914Y1176D02*
X3028Y1176D01*
X3392Y1176D02*
X3507Y1176D01*
X214Y1175D02*
X328Y1175D01*
X693Y1175D02*
X806Y1175D01*
X1114Y1175D02*
X1228Y1175D01*
X1593Y1175D02*
X1706Y1175D01*
X2014Y1175D02*
X2128Y1175D01*
X2493Y1175D02*
X2606Y1175D01*
X2914Y1175D02*
X3028Y1175D01*
X3393Y1175D02*
X3506Y1175D01*
X215Y1174D02*
X327Y1174D01*
X693Y1174D02*
X806Y1174D01*
X1115Y1174D02*
X1227Y1174D01*
X1593Y1174D02*
X1706Y1174D01*
X2015Y1174D02*
X2127Y1174D01*
X2493Y1174D02*
X2606Y1174D01*
X2915Y1174D02*
X3027Y1174D01*
X3393Y1174D02*
X3506Y1174D01*
X215Y1173D02*
X327Y1173D01*
X694Y1173D02*
X805Y1173D01*
X1115Y1173D02*
X1227Y1173D01*
X1594Y1173D02*
X1705Y1173D01*
X2015Y1173D02*
X2127Y1173D01*
X2494Y1173D02*
X2605Y1173D01*
X2915Y1173D02*
X3027Y1173D01*
X3394Y1173D02*
X3505Y1173D01*
X216Y1172D02*
X326Y1172D01*
X694Y1172D02*
X805Y1172D01*
X1116Y1172D02*
X1226Y1172D01*
X1594Y1172D02*
X1705Y1172D01*
X2016Y1172D02*
X2126Y1172D01*
X2494Y1172D02*
X2605Y1172D01*
X2916Y1172D02*
X3026Y1172D01*
X3394Y1172D02*
X3505Y1172D01*
X217Y1171D02*
X326Y1171D01*
X695Y1171D02*
X804Y1171D01*
X1117Y1171D02*
X1226Y1171D01*
X1595Y1171D02*
X1704Y1171D01*
X2017Y1171D02*
X2126Y1171D01*
X2495Y1171D02*
X2604Y1171D01*
X2917Y1171D02*
X3026Y1171D01*
X3395Y1171D02*
X3504Y1171D01*
X217Y1170D02*
X325Y1170D01*
X696Y1170D02*
X803Y1170D01*
X1117Y1170D02*
X1225Y1170D01*
X1596Y1170D02*
X1703Y1170D01*
X2017Y1170D02*
X2125Y1170D01*
X2496Y1170D02*
X2603Y1170D01*
X2917Y1170D02*
X3025Y1170D01*
X3396Y1170D02*
X3503Y1170D01*
X218Y1169D02*
X324Y1169D01*
X696Y1169D02*
X803Y1169D01*
X1118Y1169D02*
X1224Y1169D01*
X1596Y1169D02*
X1703Y1169D01*
X2018Y1169D02*
X2124Y1169D01*
X2496Y1169D02*
X2603Y1169D01*
X2918Y1169D02*
X3024Y1169D01*
X3396Y1169D02*
X3503Y1169D01*
X219Y1168D02*
X324Y1168D01*
X697Y1168D02*
X802Y1168D01*
X1119Y1168D02*
X1224Y1168D01*
X1597Y1168D02*
X1702Y1168D01*
X2019Y1168D02*
X2124Y1168D01*
X2497Y1168D02*
X2602Y1168D01*
X2919Y1168D02*
X3024Y1168D01*
X3397Y1168D02*
X3502Y1168D01*
X219Y1167D02*
X323Y1167D01*
X698Y1167D02*
X801Y1167D01*
X1119Y1167D02*
X1223Y1167D01*
X1598Y1167D02*
X1701Y1167D01*
X2019Y1167D02*
X2123Y1167D01*
X2498Y1167D02*
X2601Y1167D01*
X2919Y1167D02*
X3023Y1167D01*
X3398Y1167D02*
X3501Y1167D01*
X220Y1166D02*
X322Y1166D01*
X698Y1166D02*
X800Y1166D01*
X1120Y1166D02*
X1222Y1166D01*
X1598Y1166D02*
X1700Y1166D01*
X2020Y1166D02*
X2122Y1166D01*
X2498Y1166D02*
X2600Y1166D01*
X2920Y1166D02*
X3022Y1166D01*
X3398Y1166D02*
X3500Y1166D01*
X221Y1165D02*
X321Y1165D01*
X699Y1165D02*
X800Y1165D01*
X1121Y1165D02*
X1221Y1165D01*
X1599Y1165D02*
X1700Y1165D01*
X2021Y1165D02*
X2121Y1165D01*
X2499Y1165D02*
X2600Y1165D01*
X2921Y1165D02*
X3021Y1165D01*
X3399Y1165D02*
X3500Y1165D01*
X222Y1164D02*
X321Y1164D01*
X700Y1164D02*
X799Y1164D01*
X1122Y1164D02*
X1221Y1164D01*
X1600Y1164D02*
X1699Y1164D01*
X2022Y1164D02*
X2121Y1164D01*
X2500Y1164D02*
X2599Y1164D01*
X2922Y1164D02*
X3021Y1164D01*
X3400Y1164D02*
X3499Y1164D01*
X223Y1163D02*
X320Y1163D01*
X701Y1163D02*
X798Y1163D01*
X1123Y1163D02*
X1220Y1163D01*
X1601Y1163D02*
X1698Y1163D01*
X2023Y1163D02*
X2120Y1163D01*
X2501Y1163D02*
X2598Y1163D01*
X2923Y1163D02*
X3020Y1163D01*
X3401Y1163D02*
X3498Y1163D01*
X223Y1162D02*
X319Y1162D01*
X702Y1162D02*
X797Y1162D01*
X1123Y1162D02*
X1219Y1162D01*
X1602Y1162D02*
X1697Y1162D01*
X2023Y1162D02*
X2119Y1162D01*
X2502Y1162D02*
X2597Y1162D01*
X2923Y1162D02*
X3019Y1162D01*
X3402Y1162D02*
X3497Y1162D01*
X224Y1161D02*
X318Y1161D01*
X703Y1161D02*
X796Y1161D01*
X1124Y1161D02*
X1218Y1161D01*
X1603Y1161D02*
X1696Y1161D01*
X2024Y1161D02*
X2118Y1161D01*
X2503Y1161D02*
X2596Y1161D01*
X2924Y1161D02*
X3018Y1161D01*
X3403Y1161D02*
X3496Y1161D01*
X225Y1160D02*
X317Y1160D01*
X704Y1160D02*
X795Y1160D01*
X1125Y1160D02*
X1217Y1160D01*
X1604Y1160D02*
X1695Y1160D01*
X2025Y1160D02*
X2117Y1160D01*
X2504Y1160D02*
X2595Y1160D01*
X2925Y1160D02*
X3017Y1160D01*
X3404Y1160D02*
X3495Y1160D01*
X226Y1159D02*
X316Y1159D01*
X705Y1159D02*
X794Y1159D01*
X1126Y1159D02*
X1216Y1159D01*
X1605Y1159D02*
X1694Y1159D01*
X2026Y1159D02*
X2116Y1159D01*
X2505Y1159D02*
X2594Y1159D01*
X2926Y1159D02*
X3016Y1159D01*
X3405Y1159D02*
X3494Y1159D01*
X227Y1158D02*
X315Y1158D01*
X706Y1158D02*
X793Y1158D01*
X1127Y1158D02*
X1215Y1158D01*
X1606Y1158D02*
X1693Y1158D01*
X2027Y1158D02*
X2115Y1158D01*
X2506Y1158D02*
X2593Y1158D01*
X2927Y1158D02*
X3015Y1158D01*
X3406Y1158D02*
X3493Y1158D01*
X228Y1157D02*
X314Y1157D01*
X707Y1157D02*
X792Y1157D01*
X1128Y1157D02*
X1214Y1157D01*
X1607Y1157D02*
X1692Y1157D01*
X2028Y1157D02*
X2114Y1157D01*
X2507Y1157D02*
X2592Y1157D01*
X2928Y1157D02*
X3014Y1157D01*
X3407Y1157D02*
X3492Y1157D01*
X230Y1156D02*
X313Y1156D01*
X708Y1156D02*
X791Y1156D01*
X1130Y1156D02*
X1213Y1156D01*
X1608Y1156D02*
X1691Y1156D01*
X2030Y1156D02*
X2113Y1156D01*
X2508Y1156D02*
X2591Y1156D01*
X2930Y1156D02*
X3013Y1156D01*
X3408Y1156D02*
X3491Y1156D01*
X231Y1155D02*
X312Y1155D01*
X709Y1155D02*
X790Y1155D01*
X1131Y1155D02*
X1212Y1155D01*
X1609Y1155D02*
X1690Y1155D01*
X2031Y1155D02*
X2112Y1155D01*
X2509Y1155D02*
X2590Y1155D01*
X2931Y1155D02*
X3012Y1155D01*
X3409Y1155D02*
X3490Y1155D01*
X232Y1154D02*
X310Y1154D01*
X710Y1154D02*
X789Y1154D01*
X1132Y1154D02*
X1210Y1154D01*
X1610Y1154D02*
X1689Y1154D01*
X2032Y1154D02*
X2110Y1154D01*
X2510Y1154D02*
X2589Y1154D01*
X2932Y1154D02*
X3010Y1154D01*
X3410Y1154D02*
X3489Y1154D01*
X233Y1153D02*
X309Y1153D01*
X712Y1153D02*
X787Y1153D01*
X1133Y1153D02*
X1209Y1153D01*
X1612Y1153D02*
X1687Y1153D01*
X2033Y1153D02*
X2109Y1153D01*
X2512Y1153D02*
X2587Y1153D01*
X2933Y1153D02*
X3009Y1153D01*
X3412Y1153D02*
X3487Y1153D01*
X235Y1152D02*
X307Y1152D01*
X713Y1152D02*
X786Y1152D01*
X1135Y1152D02*
X1207Y1152D01*
X1613Y1152D02*
X1686Y1152D01*
X2035Y1152D02*
X2107Y1152D01*
X2513Y1152D02*
X2586Y1152D01*
X2935Y1152D02*
X3007Y1152D01*
X3413Y1152D02*
X3486Y1152D01*
X236Y1151D02*
X306Y1151D01*
X715Y1151D02*
X784Y1151D01*
X1136Y1151D02*
X1206Y1151D01*
X1615Y1151D02*
X1684Y1151D01*
X2036Y1151D02*
X2106Y1151D01*
X2515Y1151D02*
X2584Y1151D01*
X2936Y1151D02*
X3006Y1151D01*
X3415Y1151D02*
X3484Y1151D01*
X238Y1150D02*
X304Y1150D01*
X716Y1150D02*
X783Y1150D01*
X1138Y1150D02*
X1204Y1150D01*
X1616Y1150D02*
X1683Y1150D01*
X2038Y1150D02*
X2104Y1150D01*
X2516Y1150D02*
X2583Y1150D01*
X2938Y1150D02*
X3004Y1150D01*
X3416Y1150D02*
X3483Y1150D01*
X240Y1149D02*
X303Y1149D01*
X718Y1149D02*
X781Y1149D01*
X1140Y1149D02*
X1203Y1149D01*
X1618Y1149D02*
X1681Y1149D01*
X2040Y1149D02*
X2103Y1149D01*
X2518Y1149D02*
X2581Y1149D01*
X2940Y1149D02*
X3003Y1149D01*
X3418Y1149D02*
X3481Y1149D01*
X241Y1148D02*
X301Y1148D01*
X720Y1148D02*
X779Y1148D01*
X1141Y1148D02*
X1201Y1148D01*
X1620Y1148D02*
X1679Y1148D01*
X2041Y1148D02*
X2101Y1148D01*
X2520Y1148D02*
X2579Y1148D01*
X2941Y1148D02*
X3001Y1148D01*
X3420Y1148D02*
X3479Y1148D01*
X243Y1147D02*
X299Y1147D01*
X722Y1147D02*
X777Y1147D01*
X1143Y1147D02*
X1199Y1147D01*
X1622Y1147D02*
X1677Y1147D01*
X2043Y1147D02*
X2099Y1147D01*
X2522Y1147D02*
X2577Y1147D01*
X2943Y1147D02*
X2999Y1147D01*
X3422Y1147D02*
X3477Y1147D01*
X245Y1146D02*
X297Y1146D01*
X724Y1146D02*
X775Y1146D01*
X1145Y1146D02*
X1197Y1146D01*
X1624Y1146D02*
X1675Y1146D01*
X2045Y1146D02*
X2097Y1146D01*
X2524Y1146D02*
X2575Y1146D01*
X2945Y1146D02*
X2997Y1146D01*
X3424Y1146D02*
X3475Y1146D01*
X248Y1145D02*
X295Y1145D01*
X726Y1145D02*
X773Y1145D01*
X1148Y1145D02*
X1195Y1145D01*
X1626Y1145D02*
X1673Y1145D01*
X2048Y1145D02*
X2095Y1145D01*
X2526Y1145D02*
X2573Y1145D01*
X2948Y1145D02*
X2995Y1145D01*
X3426Y1145D02*
X3473Y1145D01*
X251Y1144D02*
X292Y1144D01*
X729Y1144D02*
X770Y1144D01*
X1151Y1144D02*
X1192Y1144D01*
X1629Y1144D02*
X1670Y1144D01*
X2051Y1144D02*
X2092Y1144D01*
X2529Y1144D02*
X2570Y1144D01*
X2951Y1144D02*
X2992Y1144D01*
X3429Y1144D02*
X3470Y1144D01*
X254Y1143D02*
X288Y1143D01*
X732Y1143D02*
X767Y1143D01*
X1154Y1143D02*
X1188Y1143D01*
X1632Y1143D02*
X1667Y1143D01*
X2054Y1143D02*
X2088Y1143D01*
X2532Y1143D02*
X2567Y1143D01*
X2954Y1143D02*
X2988Y1143D01*
X3432Y1143D02*
X3467Y1143D01*
X258Y1142D02*
X284Y1142D01*
X736Y1142D02*
X763Y1142D01*
X1158Y1142D02*
X1184Y1142D01*
X1636Y1142D02*
X1663Y1142D01*
X2058Y1142D02*
X2084Y1142D01*
X2536Y1142D02*
X2563Y1142D01*
X2958Y1142D02*
X2984Y1142D01*
X3436Y1142D02*
X3463Y1142D01*
X264Y1141D02*
X279Y1141D01*
X742Y1141D02*
X757Y1141D01*
X1164Y1141D02*
X1179Y1141D01*
X1642Y1141D02*
X1657Y1141D01*
X2064Y1141D02*
X2079Y1141D01*
X2542Y1141D02*
X2557Y1141D01*
X2964Y1141D02*
X2979Y1141D01*
X3442Y1141D02*
X3457Y1141D01*
X829Y1034D02*
X831Y1034D01*
X1729Y1034D02*
X1731Y1034D01*
X2629Y1034D02*
X2631Y1034D01*
X3529Y1034D02*
X3531Y1034D01*
X820Y1033D02*
X841Y1033D01*
X1720Y1033D02*
X1741Y1033D01*
X2620Y1033D02*
X2641Y1033D01*
X3520Y1033D02*
X3541Y1033D01*
X815Y1032D02*
X846Y1032D01*
X1715Y1032D02*
X1745Y1032D01*
X2615Y1032D02*
X2645Y1032D01*
X3515Y1032D02*
X3545Y1032D01*
X811Y1031D02*
X849Y1031D01*
X1711Y1031D02*
X1749Y1031D01*
X2611Y1031D02*
X2649Y1031D01*
X3511Y1031D02*
X3549Y1031D01*
X808Y1030D02*
X852Y1030D01*
X1708Y1030D02*
X1752Y1030D01*
X2608Y1030D02*
X2652Y1030D01*
X3508Y1030D02*
X3552Y1030D01*
X805Y1029D02*
X855Y1029D01*
X1705Y1029D02*
X1755Y1029D01*
X2605Y1029D02*
X2655Y1029D01*
X3505Y1029D02*
X3555Y1029D01*
X803Y1028D02*
X857Y1028D01*
X1703Y1028D02*
X1757Y1028D01*
X2603Y1028D02*
X2657Y1028D01*
X3503Y1028D02*
X3557Y1028D01*
X801Y1027D02*
X859Y1027D01*
X1701Y1027D02*
X1759Y1027D01*
X2601Y1027D02*
X2659Y1027D01*
X3501Y1027D02*
X3559Y1027D01*
X799Y1026D02*
X861Y1026D01*
X1699Y1026D02*
X1761Y1026D01*
X2599Y1026D02*
X2661Y1026D01*
X3499Y1026D02*
X3561Y1026D01*
X798Y1025D02*
X863Y1025D01*
X1698Y1025D02*
X1763Y1025D01*
X2598Y1025D02*
X2663Y1025D01*
X3498Y1025D02*
X3563Y1025D01*
X796Y1024D02*
X864Y1024D01*
X1696Y1024D02*
X1764Y1024D01*
X2596Y1024D02*
X2664Y1024D01*
X3496Y1024D02*
X3564Y1024D01*
X795Y1023D02*
X866Y1023D01*
X1695Y1023D02*
X1766Y1023D01*
X2595Y1023D02*
X2666Y1023D01*
X3495Y1023D02*
X3566Y1023D01*
X793Y1022D02*
X867Y1022D01*
X1693Y1022D02*
X1767Y1022D01*
X2593Y1022D02*
X2667Y1022D01*
X3493Y1022D02*
X3567Y1022D01*
X792Y1021D02*
X869Y1021D01*
X1692Y1021D02*
X1769Y1021D01*
X2592Y1021D02*
X2669Y1021D01*
X3492Y1021D02*
X3569Y1021D01*
X790Y1020D02*
X870Y1020D01*
X1690Y1020D02*
X1770Y1020D01*
X2590Y1020D02*
X2670Y1020D01*
X3490Y1020D02*
X3570Y1020D01*
X789Y1019D02*
X871Y1019D01*
X1689Y1019D02*
X1771Y1019D01*
X2589Y1019D02*
X2671Y1019D01*
X3489Y1019D02*
X3571Y1019D01*
X788Y1018D02*
X872Y1018D01*
X1688Y1018D02*
X1772Y1018D01*
X2588Y1018D02*
X2672Y1018D01*
X3488Y1018D02*
X3572Y1018D01*
X787Y1017D02*
X873Y1017D01*
X1687Y1017D02*
X1773Y1017D01*
X2587Y1017D02*
X2673Y1017D01*
X3487Y1017D02*
X3573Y1017D01*
X786Y1016D02*
X875Y1016D01*
X1686Y1016D02*
X1775Y1016D01*
X2586Y1016D02*
X2675Y1016D01*
X3486Y1016D02*
X3575Y1016D01*
X785Y1015D02*
X876Y1015D01*
X1685Y1015D02*
X1776Y1015D01*
X2585Y1015D02*
X2676Y1015D01*
X3485Y1015D02*
X3576Y1015D01*
X784Y1014D02*
X877Y1014D01*
X1684Y1014D02*
X1777Y1014D01*
X2584Y1014D02*
X2677Y1014D01*
X3484Y1014D02*
X3577Y1014D01*
X783Y1013D02*
X877Y1013D01*
X1683Y1013D02*
X1777Y1013D01*
X2583Y1013D02*
X2677Y1013D01*
X3483Y1013D02*
X3577Y1013D01*
X782Y1012D02*
X878Y1012D01*
X1682Y1012D02*
X1778Y1012D01*
X2582Y1012D02*
X2678Y1012D01*
X3482Y1012D02*
X3578Y1012D01*
X781Y1011D02*
X879Y1011D01*
X1681Y1011D02*
X1779Y1011D01*
X2581Y1011D02*
X2679Y1011D01*
X3481Y1011D02*
X3579Y1011D01*
X780Y1010D02*
X880Y1010D01*
X1680Y1010D02*
X1780Y1010D01*
X2580Y1010D02*
X2680Y1010D01*
X3480Y1010D02*
X3580Y1010D01*
X780Y1009D02*
X881Y1009D01*
X1680Y1009D02*
X1781Y1009D01*
X2580Y1009D02*
X2681Y1009D01*
X3480Y1009D02*
X3581Y1009D01*
X779Y1008D02*
X882Y1008D01*
X1679Y1008D02*
X1782Y1008D01*
X2579Y1008D02*
X2682Y1008D01*
X3479Y1008D02*
X3582Y1008D01*
X778Y1007D02*
X882Y1007D01*
X1678Y1007D02*
X1782Y1007D01*
X2578Y1007D02*
X2682Y1007D01*
X3478Y1007D02*
X3582Y1007D01*
X777Y1006D02*
X883Y1006D01*
X1677Y1006D02*
X1783Y1006D01*
X2577Y1006D02*
X2683Y1006D01*
X3477Y1006D02*
X3583Y1006D01*
X777Y1005D02*
X884Y1005D01*
X1677Y1005D02*
X1784Y1005D01*
X2577Y1005D02*
X2684Y1005D01*
X3477Y1005D02*
X3584Y1005D01*
X776Y1004D02*
X884Y1004D01*
X1676Y1004D02*
X1784Y1004D01*
X2576Y1004D02*
X2684Y1004D01*
X3476Y1004D02*
X3584Y1004D01*
X775Y1003D02*
X885Y1003D01*
X1675Y1003D02*
X1785Y1003D01*
X2575Y1003D02*
X2685Y1003D01*
X3475Y1003D02*
X3585Y1003D01*
X775Y1002D02*
X886Y1002D01*
X1675Y1002D02*
X1786Y1002D01*
X2575Y1002D02*
X2686Y1002D01*
X3475Y1002D02*
X3586Y1002D01*
X774Y1001D02*
X886Y1001D01*
X1674Y1001D02*
X1786Y1001D01*
X2574Y1001D02*
X2686Y1001D01*
X3474Y1001D02*
X3586Y1001D01*
X774Y1000D02*
X887Y1000D01*
X1674Y1000D02*
X1787Y1000D01*
X2574Y1000D02*
X2687Y1000D01*
X3474Y1000D02*
X3587Y1000D01*
X773Y999D02*
X887Y999D01*
X1673Y999D02*
X1787Y999D01*
X2573Y999D02*
X2687Y999D01*
X3473Y999D02*
X3587Y999D01*
X773Y998D02*
X888Y998D01*
X1673Y998D02*
X1788Y998D01*
X2573Y998D02*
X2688Y998D01*
X3473Y998D02*
X3588Y998D01*
X772Y997D02*
X888Y997D01*
X1672Y997D02*
X1788Y997D01*
X2572Y997D02*
X2688Y997D01*
X3472Y997D02*
X3588Y997D01*
X772Y996D02*
X889Y996D01*
X1672Y996D02*
X1789Y996D01*
X2572Y996D02*
X2689Y996D01*
X3472Y996D02*
X3589Y996D01*
X771Y995D02*
X889Y995D01*
X1671Y995D02*
X1789Y995D01*
X2571Y995D02*
X2689Y995D01*
X3471Y995D02*
X3589Y995D01*
X771Y994D02*
X823Y994D01*
X837Y994D02*
X890Y994D01*
X1671Y994D02*
X1723Y994D01*
X1737Y994D02*
X1790Y994D01*
X2571Y994D02*
X2623Y994D01*
X2637Y994D02*
X2690Y994D01*
X3471Y994D02*
X3523Y994D01*
X3537Y994D02*
X3590Y994D01*
X770Y993D02*
X820Y993D01*
X840Y993D02*
X890Y993D01*
X1670Y993D02*
X1720Y993D01*
X1740Y993D02*
X1790Y993D01*
X2570Y993D02*
X2620Y993D01*
X2640Y993D02*
X2690Y993D01*
X3470Y993D02*
X3520Y993D01*
X3540Y993D02*
X3590Y993D01*
X770Y992D02*
X818Y992D01*
X842Y992D02*
X890Y992D01*
X1670Y992D02*
X1718Y992D01*
X1742Y992D02*
X1790Y992D01*
X2570Y992D02*
X2618Y992D01*
X2642Y992D02*
X2690Y992D01*
X3470Y992D02*
X3518Y992D01*
X3542Y992D02*
X3590Y992D01*
X770Y991D02*
X816Y991D01*
X844Y991D02*
X891Y991D01*
X1670Y991D02*
X1716Y991D01*
X1744Y991D02*
X1791Y991D01*
X2570Y991D02*
X2616Y991D01*
X2644Y991D02*
X2691Y991D01*
X3470Y991D02*
X3516Y991D01*
X3544Y991D02*
X3591Y991D01*
X769Y990D02*
X815Y990D01*
X846Y990D02*
X891Y990D01*
X1669Y990D02*
X1715Y990D01*
X1746Y990D02*
X1791Y990D01*
X2569Y990D02*
X2615Y990D01*
X2646Y990D02*
X2691Y990D01*
X3469Y990D02*
X3515Y990D01*
X3546Y990D02*
X3591Y990D01*
X769Y989D02*
X814Y989D01*
X847Y989D02*
X891Y989D01*
X1669Y989D02*
X1714Y989D01*
X1747Y989D02*
X1791Y989D01*
X2569Y989D02*
X2614Y989D01*
X2647Y989D02*
X2691Y989D01*
X3469Y989D02*
X3514Y989D01*
X3547Y989D02*
X3591Y989D01*
X769Y988D02*
X812Y988D01*
X848Y988D02*
X892Y988D01*
X1669Y988D02*
X1712Y988D01*
X1748Y988D02*
X1792Y988D01*
X2569Y988D02*
X2612Y988D01*
X2648Y988D02*
X2692Y988D01*
X3469Y988D02*
X3512Y988D01*
X3548Y988D02*
X3592Y988D01*
X768Y987D02*
X811Y987D01*
X849Y987D02*
X892Y987D01*
X1668Y987D02*
X1711Y987D01*
X1749Y987D02*
X1792Y987D01*
X2568Y987D02*
X2611Y987D01*
X2649Y987D02*
X2692Y987D01*
X3468Y987D02*
X3511Y987D01*
X3549Y987D02*
X3592Y987D01*
X768Y986D02*
X811Y986D01*
X850Y986D02*
X892Y986D01*
X1668Y986D02*
X1711Y986D01*
X1750Y986D02*
X1792Y986D01*
X2568Y986D02*
X2611Y986D01*
X2650Y986D02*
X2692Y986D01*
X3468Y986D02*
X3511Y986D01*
X3550Y986D02*
X3592Y986D01*
X768Y985D02*
X810Y985D01*
X851Y985D02*
X893Y985D01*
X1668Y985D02*
X1710Y985D01*
X1751Y985D02*
X1793Y985D01*
X2568Y985D02*
X2610Y985D01*
X2651Y985D02*
X2693Y985D01*
X3468Y985D02*
X3510Y985D01*
X3551Y985D02*
X3593Y985D01*
X768Y984D02*
X809Y984D01*
X852Y984D02*
X893Y984D01*
X1668Y984D02*
X1709Y984D01*
X1752Y984D02*
X1793Y984D01*
X2568Y984D02*
X2609Y984D01*
X2652Y984D02*
X2693Y984D01*
X3468Y984D02*
X3509Y984D01*
X3552Y984D02*
X3593Y984D01*
X767Y983D02*
X808Y983D01*
X852Y983D02*
X893Y983D01*
X1667Y983D02*
X1708Y983D01*
X1752Y983D02*
X1793Y983D01*
X2567Y983D02*
X2608Y983D01*
X2652Y983D02*
X2693Y983D01*
X3467Y983D02*
X3508Y983D01*
X3552Y983D02*
X3593Y983D01*
X767Y982D02*
X808Y982D01*
X853Y982D02*
X893Y982D01*
X1667Y982D02*
X1708Y982D01*
X1753Y982D02*
X1793Y982D01*
X2567Y982D02*
X2608Y982D01*
X2653Y982D02*
X2693Y982D01*
X3467Y982D02*
X3508Y982D01*
X3553Y982D02*
X3593Y982D01*
X767Y981D02*
X807Y981D01*
X853Y981D02*
X893Y981D01*
X1667Y981D02*
X1707Y981D01*
X1753Y981D02*
X1793Y981D01*
X2567Y981D02*
X2607Y981D01*
X2653Y981D02*
X2693Y981D01*
X3467Y981D02*
X3507Y981D01*
X3553Y981D02*
X3593Y981D01*
X767Y980D02*
X807Y980D01*
X854Y980D02*
X894Y980D01*
X1667Y980D02*
X1707Y980D01*
X1754Y980D02*
X1794Y980D01*
X2567Y980D02*
X2607Y980D01*
X2654Y980D02*
X2694Y980D01*
X3467Y980D02*
X3507Y980D01*
X3554Y980D02*
X3594Y980D01*
X767Y979D02*
X806Y979D01*
X854Y979D02*
X894Y979D01*
X1667Y979D02*
X1706Y979D01*
X1754Y979D02*
X1794Y979D01*
X2567Y979D02*
X2606Y979D01*
X2654Y979D02*
X2694Y979D01*
X3467Y979D02*
X3506Y979D01*
X3554Y979D02*
X3594Y979D01*
X767Y978D02*
X806Y978D01*
X855Y978D02*
X894Y978D01*
X1666Y978D02*
X1706Y978D01*
X1755Y978D02*
X1794Y978D01*
X2566Y978D02*
X2606Y978D01*
X2655Y978D02*
X2694Y978D01*
X3466Y978D02*
X3506Y978D01*
X3555Y978D02*
X3594Y978D01*
X766Y977D02*
X805Y977D01*
X855Y977D02*
X894Y977D01*
X1666Y977D02*
X1705Y977D01*
X1755Y977D02*
X1794Y977D01*
X2566Y977D02*
X2605Y977D01*
X2655Y977D02*
X2694Y977D01*
X3466Y977D02*
X3505Y977D01*
X3555Y977D02*
X3594Y977D01*
X766Y976D02*
X805Y976D01*
X855Y976D02*
X894Y976D01*
X1666Y976D02*
X1705Y976D01*
X1755Y976D02*
X1794Y976D01*
X2566Y976D02*
X2605Y976D01*
X2655Y976D02*
X2694Y976D01*
X3466Y976D02*
X3505Y976D01*
X3555Y976D02*
X3594Y976D01*
X766Y975D02*
X805Y975D01*
X856Y975D02*
X894Y975D01*
X1666Y975D02*
X1705Y975D01*
X1756Y975D02*
X1794Y975D01*
X2566Y975D02*
X2605Y975D01*
X2656Y975D02*
X2694Y975D01*
X3466Y975D02*
X3505Y975D01*
X3556Y975D02*
X3594Y975D01*
X766Y974D02*
X804Y974D01*
X856Y974D02*
X894Y974D01*
X1666Y974D02*
X1704Y974D01*
X1756Y974D02*
X1794Y974D01*
X2566Y974D02*
X2604Y974D01*
X2656Y974D02*
X2694Y974D01*
X3466Y974D02*
X3504Y974D01*
X3556Y974D02*
X3594Y974D01*
X766Y973D02*
X804Y973D01*
X856Y973D02*
X894Y973D01*
X1666Y973D02*
X1704Y973D01*
X1756Y973D02*
X1794Y973D01*
X2566Y973D02*
X2604Y973D01*
X2656Y973D02*
X2694Y973D01*
X3466Y973D02*
X3504Y973D01*
X3556Y973D02*
X3594Y973D01*
X766Y972D02*
X804Y972D01*
X856Y972D02*
X894Y972D01*
X1666Y972D02*
X1704Y972D01*
X1756Y972D02*
X1794Y972D01*
X2566Y972D02*
X2604Y972D01*
X2656Y972D02*
X2694Y972D01*
X3466Y972D02*
X3504Y972D01*
X3556Y972D02*
X3594Y972D01*
X766Y971D02*
X804Y971D01*
X856Y971D02*
X895Y971D01*
X1666Y971D02*
X1704Y971D01*
X1756Y971D02*
X1795Y971D01*
X2566Y971D02*
X2604Y971D01*
X2656Y971D02*
X2695Y971D01*
X3466Y971D02*
X3504Y971D01*
X3556Y971D02*
X3595Y971D01*
X766Y970D02*
X804Y970D01*
X856Y970D02*
X895Y970D01*
X1666Y970D02*
X1704Y970D01*
X1756Y970D02*
X1795Y970D01*
X2566Y970D02*
X2604Y970D01*
X2656Y970D02*
X2695Y970D01*
X3466Y970D02*
X3504Y970D01*
X3556Y970D02*
X3595Y970D01*
X766Y969D02*
X804Y969D01*
X856Y969D02*
X895Y969D01*
X1666Y969D02*
X1704Y969D01*
X1756Y969D02*
X1795Y969D01*
X2566Y969D02*
X2604Y969D01*
X2656Y969D02*
X2695Y969D01*
X3466Y969D02*
X3504Y969D01*
X3556Y969D02*
X3595Y969D01*
X766Y968D02*
X804Y968D01*
X856Y968D02*
X895Y968D01*
X1666Y968D02*
X1704Y968D01*
X1756Y968D02*
X1795Y968D01*
X2566Y968D02*
X2604Y968D01*
X2656Y968D02*
X2695Y968D01*
X3466Y968D02*
X3504Y968D01*
X3556Y968D02*
X3595Y968D01*
X766Y967D02*
X804Y967D01*
X856Y967D02*
X895Y967D01*
X1666Y967D02*
X1704Y967D01*
X1756Y967D02*
X1795Y967D01*
X2566Y967D02*
X2604Y967D01*
X2656Y967D02*
X2695Y967D01*
X3466Y967D02*
X3504Y967D01*
X3556Y967D02*
X3595Y967D01*
X766Y966D02*
X804Y966D01*
X856Y966D02*
X894Y966D01*
X1666Y966D02*
X1704Y966D01*
X1756Y966D02*
X1794Y966D01*
X2566Y966D02*
X2604Y966D01*
X2656Y966D02*
X2694Y966D01*
X3466Y966D02*
X3504Y966D01*
X3556Y966D02*
X3594Y966D01*
X766Y965D02*
X804Y965D01*
X856Y965D02*
X894Y965D01*
X1666Y965D02*
X1704Y965D01*
X1756Y965D02*
X1794Y965D01*
X2566Y965D02*
X2604Y965D01*
X2656Y965D02*
X2694Y965D01*
X3466Y965D02*
X3504Y965D01*
X3556Y965D02*
X3594Y965D01*
X766Y964D02*
X805Y964D01*
X856Y964D02*
X894Y964D01*
X1666Y964D02*
X1705Y964D01*
X1756Y964D02*
X1794Y964D01*
X2566Y964D02*
X2605Y964D01*
X2656Y964D02*
X2694Y964D01*
X3466Y964D02*
X3505Y964D01*
X3556Y964D02*
X3594Y964D01*
X766Y963D02*
X805Y963D01*
X856Y963D02*
X894Y963D01*
X1666Y963D02*
X1705Y963D01*
X1756Y963D02*
X1794Y963D01*
X2566Y963D02*
X2605Y963D01*
X2656Y963D02*
X2694Y963D01*
X3466Y963D02*
X3505Y963D01*
X3556Y963D02*
X3594Y963D01*
X766Y962D02*
X805Y962D01*
X855Y962D02*
X894Y962D01*
X1666Y962D02*
X1705Y962D01*
X1755Y962D02*
X1794Y962D01*
X2566Y962D02*
X2605Y962D01*
X2655Y962D02*
X2694Y962D01*
X3466Y962D02*
X3505Y962D01*
X3555Y962D02*
X3594Y962D01*
X766Y961D02*
X805Y961D01*
X855Y961D02*
X894Y961D01*
X1666Y961D02*
X1705Y961D01*
X1755Y961D02*
X1794Y961D01*
X2566Y961D02*
X2605Y961D01*
X2655Y961D02*
X2694Y961D01*
X3466Y961D02*
X3505Y961D01*
X3555Y961D02*
X3594Y961D01*
X767Y960D02*
X806Y960D01*
X855Y960D02*
X894Y960D01*
X1667Y960D02*
X1706Y960D01*
X1755Y960D02*
X1794Y960D01*
X2567Y960D02*
X2606Y960D01*
X2655Y960D02*
X2694Y960D01*
X3467Y960D02*
X3506Y960D01*
X3555Y960D02*
X3594Y960D01*
X767Y959D02*
X806Y959D01*
X854Y959D02*
X894Y959D01*
X1667Y959D02*
X1706Y959D01*
X1754Y959D02*
X1794Y959D01*
X2567Y959D02*
X2606Y959D01*
X2654Y959D02*
X2694Y959D01*
X3467Y959D02*
X3506Y959D01*
X3554Y959D02*
X3594Y959D01*
X767Y958D02*
X807Y958D01*
X854Y958D02*
X894Y958D01*
X1667Y958D02*
X1707Y958D01*
X1754Y958D02*
X1794Y958D01*
X2567Y958D02*
X2607Y958D01*
X2654Y958D02*
X2694Y958D01*
X3467Y958D02*
X3507Y958D01*
X3554Y958D02*
X3594Y958D01*
X767Y957D02*
X807Y957D01*
X853Y957D02*
X893Y957D01*
X1667Y957D02*
X1707Y957D01*
X1753Y957D02*
X1793Y957D01*
X2567Y957D02*
X2607Y957D01*
X2653Y957D02*
X2693Y957D01*
X3467Y957D02*
X3507Y957D01*
X3553Y957D02*
X3593Y957D01*
X767Y956D02*
X808Y956D01*
X853Y956D02*
X893Y956D01*
X1667Y956D02*
X1708Y956D01*
X1753Y956D02*
X1793Y956D01*
X2567Y956D02*
X2608Y956D01*
X2653Y956D02*
X2693Y956D01*
X3467Y956D02*
X3508Y956D01*
X3553Y956D02*
X3593Y956D01*
X767Y955D02*
X808Y955D01*
X852Y955D02*
X893Y955D01*
X1667Y955D02*
X1708Y955D01*
X1752Y955D02*
X1793Y955D01*
X2567Y955D02*
X2608Y955D01*
X2652Y955D02*
X2693Y955D01*
X3467Y955D02*
X3508Y955D01*
X3552Y955D02*
X3593Y955D01*
X768Y954D02*
X809Y954D01*
X851Y954D02*
X893Y954D01*
X1668Y954D02*
X1709Y954D01*
X1751Y954D02*
X1793Y954D01*
X2568Y954D02*
X2609Y954D01*
X2651Y954D02*
X2693Y954D01*
X3468Y954D02*
X3509Y954D01*
X3551Y954D02*
X3593Y954D01*
X768Y953D02*
X810Y953D01*
X850Y953D02*
X892Y953D01*
X1668Y953D02*
X1710Y953D01*
X1750Y953D02*
X1792Y953D01*
X2568Y953D02*
X2610Y953D01*
X2650Y953D02*
X2692Y953D01*
X3468Y953D02*
X3510Y953D01*
X3550Y953D02*
X3592Y953D01*
X768Y952D02*
X811Y952D01*
X850Y952D02*
X892Y952D01*
X1668Y952D02*
X1711Y952D01*
X1750Y952D02*
X1792Y952D01*
X2568Y952D02*
X2611Y952D01*
X2650Y952D02*
X2692Y952D01*
X3468Y952D02*
X3511Y952D01*
X3550Y952D02*
X3592Y952D01*
X768Y951D02*
X812Y951D01*
X849Y951D02*
X892Y951D01*
X1668Y951D02*
X1712Y951D01*
X1749Y951D02*
X1792Y951D01*
X2568Y951D02*
X2612Y951D01*
X2649Y951D02*
X2692Y951D01*
X3468Y951D02*
X3512Y951D01*
X3549Y951D02*
X3592Y951D01*
X769Y950D02*
X813Y950D01*
X848Y950D02*
X892Y950D01*
X1669Y950D02*
X1713Y950D01*
X1748Y950D02*
X1792Y950D01*
X2569Y950D02*
X2613Y950D01*
X2648Y950D02*
X2692Y950D01*
X3469Y950D02*
X3513Y950D01*
X3548Y950D02*
X3592Y950D01*
X769Y949D02*
X814Y949D01*
X846Y949D02*
X891Y949D01*
X1669Y949D02*
X1714Y949D01*
X1746Y949D02*
X1791Y949D01*
X2569Y949D02*
X2614Y949D01*
X2646Y949D02*
X2691Y949D01*
X3469Y949D02*
X3514Y949D01*
X3546Y949D02*
X3591Y949D01*
X769Y948D02*
X815Y948D01*
X845Y948D02*
X891Y948D01*
X1669Y948D02*
X1715Y948D01*
X1745Y948D02*
X1791Y948D01*
X2569Y948D02*
X2615Y948D01*
X2645Y948D02*
X2691Y948D01*
X3469Y948D02*
X3515Y948D01*
X3545Y948D02*
X3591Y948D01*
X770Y947D02*
X817Y947D01*
X843Y947D02*
X891Y947D01*
X1670Y947D02*
X1717Y947D01*
X1743Y947D02*
X1791Y947D01*
X2570Y947D02*
X2617Y947D01*
X2643Y947D02*
X2691Y947D01*
X3470Y947D02*
X3517Y947D01*
X3543Y947D02*
X3591Y947D01*
X770Y946D02*
X819Y946D01*
X842Y946D02*
X890Y946D01*
X1670Y946D02*
X1719Y946D01*
X1742Y946D02*
X1790Y946D01*
X2570Y946D02*
X2619Y946D01*
X2642Y946D02*
X2690Y946D01*
X3470Y946D02*
X3519Y946D01*
X3542Y946D02*
X3590Y946D01*
X770Y945D02*
X821Y945D01*
X839Y945D02*
X890Y945D01*
X1670Y945D02*
X1721Y945D01*
X1739Y945D02*
X1790Y945D01*
X2570Y945D02*
X2621Y945D01*
X2639Y945D02*
X2690Y945D01*
X3470Y945D02*
X3521Y945D01*
X3539Y945D02*
X3590Y945D01*
X771Y944D02*
X825Y944D01*
X836Y944D02*
X890Y944D01*
X1671Y944D02*
X1725Y944D01*
X1736Y944D02*
X1790Y944D01*
X2571Y944D02*
X2625Y944D01*
X2636Y944D02*
X2690Y944D01*
X3471Y944D02*
X3525Y944D01*
X3536Y944D02*
X3590Y944D01*
X771Y943D02*
X889Y943D01*
X1671Y943D02*
X1789Y943D01*
X2571Y943D02*
X2689Y943D01*
X3471Y943D02*
X3589Y943D01*
X772Y942D02*
X889Y942D01*
X1672Y942D02*
X1789Y942D01*
X2572Y942D02*
X2689Y942D01*
X3472Y942D02*
X3589Y942D01*
X772Y941D02*
X888Y941D01*
X1672Y941D02*
X1788Y941D01*
X2572Y941D02*
X2688Y941D01*
X3472Y941D02*
X3588Y941D01*
X773Y940D02*
X888Y940D01*
X1673Y940D02*
X1788Y940D01*
X2573Y940D02*
X2688Y940D01*
X3473Y940D02*
X3588Y940D01*
X773Y939D02*
X887Y939D01*
X1673Y939D02*
X1787Y939D01*
X2573Y939D02*
X2687Y939D01*
X3473Y939D02*
X3587Y939D01*
X774Y938D02*
X887Y938D01*
X1674Y938D02*
X1787Y938D01*
X2574Y938D02*
X2687Y938D01*
X3474Y938D02*
X3587Y938D01*
X774Y937D02*
X886Y937D01*
X1674Y937D02*
X1786Y937D01*
X2574Y937D02*
X2686Y937D01*
X3474Y937D02*
X3586Y937D01*
X775Y936D02*
X885Y936D01*
X1675Y936D02*
X1785Y936D01*
X2575Y936D02*
X2685Y936D01*
X3475Y936D02*
X3585Y936D01*
X776Y935D02*
X885Y935D01*
X1676Y935D02*
X1785Y935D01*
X2576Y935D02*
X2685Y935D01*
X3476Y935D02*
X3585Y935D01*
X776Y934D02*
X884Y934D01*
X1676Y934D02*
X1784Y934D01*
X2576Y934D02*
X2684Y934D01*
X3476Y934D02*
X3584Y934D01*
X777Y933D02*
X884Y933D01*
X1677Y933D02*
X1784Y933D01*
X2577Y933D02*
X2684Y933D01*
X3477Y933D02*
X3584Y933D01*
X778Y932D02*
X883Y932D01*
X1678Y932D02*
X1783Y932D01*
X2578Y932D02*
X2683Y932D01*
X3478Y932D02*
X3583Y932D01*
X778Y931D02*
X882Y931D01*
X1678Y931D02*
X1782Y931D01*
X2578Y931D02*
X2682Y931D01*
X3478Y931D02*
X3582Y931D01*
X779Y930D02*
X881Y930D01*
X1679Y930D02*
X1781Y930D01*
X2579Y930D02*
X2681Y930D01*
X3479Y930D02*
X3581Y930D01*
X780Y929D02*
X881Y929D01*
X1680Y929D02*
X1781Y929D01*
X2580Y929D02*
X2681Y929D01*
X3480Y929D02*
X3581Y929D01*
X781Y928D02*
X880Y928D01*
X1681Y928D02*
X1780Y928D01*
X2581Y928D02*
X2680Y928D01*
X3481Y928D02*
X3580Y928D01*
X781Y927D02*
X879Y927D01*
X1681Y927D02*
X1779Y927D01*
X2581Y927D02*
X2679Y927D01*
X3481Y927D02*
X3579Y927D01*
X782Y926D02*
X878Y926D01*
X1682Y926D02*
X1778Y926D01*
X2582Y926D02*
X2678Y926D01*
X3482Y926D02*
X3578Y926D01*
X783Y925D02*
X877Y925D01*
X1683Y925D02*
X1777Y925D01*
X2583Y925D02*
X2677Y925D01*
X3483Y925D02*
X3577Y925D01*
X784Y924D02*
X876Y924D01*
X1684Y924D02*
X1776Y924D01*
X2584Y924D02*
X2676Y924D01*
X3484Y924D02*
X3576Y924D01*
X785Y923D02*
X875Y923D01*
X1685Y923D02*
X1775Y923D01*
X2585Y923D02*
X2675Y923D01*
X3485Y923D02*
X3575Y923D01*
X786Y922D02*
X874Y922D01*
X1686Y922D02*
X1774Y922D01*
X2586Y922D02*
X2674Y922D01*
X3486Y922D02*
X3574Y922D01*
X787Y921D02*
X873Y921D01*
X1687Y921D02*
X1773Y921D01*
X2587Y921D02*
X2673Y921D01*
X3487Y921D02*
X3573Y921D01*
X788Y920D02*
X872Y920D01*
X1688Y920D02*
X1772Y920D01*
X2588Y920D02*
X2672Y920D01*
X3488Y920D02*
X3572Y920D01*
X790Y919D02*
X871Y919D01*
X1690Y919D02*
X1771Y919D01*
X2590Y919D02*
X2671Y919D01*
X3490Y919D02*
X3571Y919D01*
X791Y918D02*
X870Y918D01*
X1691Y918D02*
X1770Y918D01*
X2591Y918D02*
X2670Y918D01*
X3491Y918D02*
X3570Y918D01*
X792Y917D02*
X868Y917D01*
X1692Y917D02*
X1768Y917D01*
X2592Y917D02*
X2668Y917D01*
X3492Y917D02*
X3568Y917D01*
X794Y916D02*
X867Y916D01*
X1694Y916D02*
X1767Y916D01*
X2594Y916D02*
X2667Y916D01*
X3494Y916D02*
X3567Y916D01*
X795Y915D02*
X865Y915D01*
X1695Y915D02*
X1765Y915D01*
X2595Y915D02*
X2665Y915D01*
X3495Y915D02*
X3565Y915D01*
X797Y914D02*
X864Y914D01*
X1697Y914D02*
X1764Y914D01*
X2597Y914D02*
X2664Y914D01*
X3497Y914D02*
X3564Y914D01*
X798Y913D02*
X862Y913D01*
X1698Y913D02*
X1762Y913D01*
X2598Y913D02*
X2662Y913D01*
X3498Y913D02*
X3562Y913D01*
X800Y912D02*
X860Y912D01*
X1700Y912D02*
X1760Y912D01*
X2600Y912D02*
X2660Y912D01*
X3500Y912D02*
X3560Y912D01*
X802Y911D02*
X858Y911D01*
X1702Y911D02*
X1758Y911D01*
X2602Y911D02*
X2658Y911D01*
X3502Y911D02*
X3558Y911D01*
X804Y910D02*
X856Y910D01*
X1704Y910D02*
X1756Y910D01*
X2604Y910D02*
X2656Y910D01*
X3504Y910D02*
X3556Y910D01*
X806Y909D02*
X854Y909D01*
X1706Y909D02*
X1754Y909D01*
X2606Y909D02*
X2654Y909D01*
X3506Y909D02*
X3554Y909D01*
X809Y908D02*
X851Y908D01*
X1709Y908D02*
X1751Y908D01*
X2609Y908D02*
X2651Y908D01*
X3509Y908D02*
X3551Y908D01*
X812Y907D02*
X848Y907D01*
X1712Y907D02*
X1748Y907D01*
X2612Y907D02*
X2648Y907D01*
X3512Y907D02*
X3548Y907D01*
X816Y906D02*
X844Y906D01*
X1716Y906D02*
X1744Y906D01*
X2616Y906D02*
X2644Y906D01*
X3516Y906D02*
X3544Y906D01*
X822Y905D02*
X839Y905D01*
X1722Y905D02*
X1739Y905D01*
X2622Y905D02*
X2639Y905D01*
X3522Y905D02*
X3539Y905D01*
X262Y797D02*
X280Y797D01*
X740Y797D02*
X759Y797D01*
X1162Y797D02*
X1180Y797D01*
X1640Y797D02*
X1659Y797D01*
X2062Y797D02*
X2080Y797D01*
X2540Y797D02*
X2559Y797D01*
X2962Y797D02*
X2980Y797D01*
X3440Y797D02*
X3459Y797D01*
X257Y796D02*
X286Y796D01*
X735Y796D02*
X764Y796D01*
X1157Y796D02*
X1186Y796D01*
X1635Y796D02*
X1664Y796D01*
X2057Y796D02*
X2086Y796D01*
X2535Y796D02*
X2564Y796D01*
X2957Y796D02*
X2986Y796D01*
X3435Y796D02*
X3464Y796D01*
X253Y795D02*
X290Y795D01*
X731Y795D02*
X768Y795D01*
X1153Y795D02*
X1190Y795D01*
X1631Y795D02*
X1668Y795D01*
X2053Y795D02*
X2090Y795D01*
X2531Y795D02*
X2568Y795D01*
X2953Y795D02*
X2990Y795D01*
X3431Y795D02*
X3468Y795D01*
X250Y794D02*
X293Y794D01*
X728Y794D02*
X771Y794D01*
X1150Y794D02*
X1193Y794D01*
X1628Y794D02*
X1671Y794D01*
X2050Y794D02*
X2093Y794D01*
X2528Y794D02*
X2571Y794D01*
X2950Y794D02*
X2993Y794D01*
X3428Y794D02*
X3471Y794D01*
X247Y793D02*
X295Y793D01*
X725Y793D02*
X774Y793D01*
X1147Y793D02*
X1195Y793D01*
X1625Y793D02*
X1674Y793D01*
X2047Y793D02*
X2095Y793D01*
X2525Y793D02*
X2574Y793D01*
X2947Y793D02*
X2995Y793D01*
X3425Y793D02*
X3474Y793D01*
X245Y792D02*
X298Y792D01*
X723Y792D02*
X776Y792D01*
X1145Y792D02*
X1198Y792D01*
X1623Y792D02*
X1676Y792D01*
X2045Y792D02*
X2098Y792D01*
X2523Y792D02*
X2576Y792D01*
X2945Y792D02*
X2998Y792D01*
X3423Y792D02*
X3476Y792D01*
X243Y791D02*
X300Y791D01*
X721Y791D02*
X778Y791D01*
X1143Y791D02*
X1200Y791D01*
X1621Y791D02*
X1678Y791D01*
X2043Y791D02*
X2100Y791D01*
X2521Y791D02*
X2578Y791D01*
X2943Y791D02*
X3000Y791D01*
X3421Y791D02*
X3478Y791D01*
X241Y790D02*
X302Y790D01*
X719Y790D02*
X780Y790D01*
X1141Y790D02*
X1202Y790D01*
X1619Y790D02*
X1680Y790D01*
X2041Y790D02*
X2102Y790D01*
X2519Y790D02*
X2580Y790D01*
X2941Y790D02*
X3002Y790D01*
X3419Y790D02*
X3480Y790D01*
X239Y789D02*
X303Y789D01*
X717Y789D02*
X782Y789D01*
X1139Y789D02*
X1203Y789D01*
X1617Y789D02*
X1682Y789D01*
X2039Y789D02*
X2103Y789D01*
X2517Y789D02*
X2582Y789D01*
X2939Y789D02*
X3003Y789D01*
X3417Y789D02*
X3482Y789D01*
X237Y788D02*
X305Y788D01*
X716Y788D02*
X783Y788D01*
X1137Y788D02*
X1205Y788D01*
X1616Y788D02*
X1683Y788D01*
X2037Y788D02*
X2105Y788D01*
X2516Y788D02*
X2583Y788D01*
X2937Y788D02*
X3005Y788D01*
X3416Y788D02*
X3483Y788D01*
X236Y787D02*
X306Y787D01*
X714Y787D02*
X785Y787D01*
X1136Y787D02*
X1206Y787D01*
X1614Y787D02*
X1685Y787D01*
X2036Y787D02*
X2106Y787D01*
X2514Y787D02*
X2585Y787D01*
X2936Y787D02*
X3006Y787D01*
X3414Y787D02*
X3485Y787D01*
X234Y786D02*
X308Y786D01*
X713Y786D02*
X786Y786D01*
X1134Y786D02*
X1208Y786D01*
X1613Y786D02*
X1686Y786D01*
X2034Y786D02*
X2108Y786D01*
X2513Y786D02*
X2586Y786D01*
X2934Y786D02*
X3008Y786D01*
X3413Y786D02*
X3486Y786D01*
X233Y785D02*
X309Y785D01*
X711Y785D02*
X788Y785D01*
X1133Y785D02*
X1209Y785D01*
X1611Y785D02*
X1688Y785D01*
X2033Y785D02*
X2109Y785D01*
X2511Y785D02*
X2588Y785D01*
X2933Y785D02*
X3009Y785D01*
X3411Y785D02*
X3488Y785D01*
X232Y784D02*
X311Y784D01*
X710Y784D02*
X789Y784D01*
X1132Y784D02*
X1211Y784D01*
X1610Y784D02*
X1689Y784D01*
X2032Y784D02*
X2111Y784D01*
X2510Y784D02*
X2589Y784D01*
X2932Y784D02*
X3011Y784D01*
X3410Y784D02*
X3489Y784D01*
X230Y783D02*
X312Y783D01*
X709Y783D02*
X790Y783D01*
X1130Y783D02*
X1212Y783D01*
X1609Y783D02*
X1690Y783D01*
X2030Y783D02*
X2112Y783D01*
X2509Y783D02*
X2590Y783D01*
X2930Y783D02*
X3012Y783D01*
X3409Y783D02*
X3490Y783D01*
X229Y782D02*
X313Y782D01*
X708Y782D02*
X791Y782D01*
X1129Y782D02*
X1213Y782D01*
X1608Y782D02*
X1691Y782D01*
X2029Y782D02*
X2113Y782D01*
X2508Y782D02*
X2591Y782D01*
X2929Y782D02*
X3013Y782D01*
X3408Y782D02*
X3491Y782D01*
X228Y781D02*
X314Y781D01*
X706Y781D02*
X793Y781D01*
X1128Y781D02*
X1214Y781D01*
X1606Y781D02*
X1693Y781D01*
X2028Y781D02*
X2114Y781D01*
X2506Y781D02*
X2593Y781D01*
X2928Y781D02*
X3014Y781D01*
X3406Y781D02*
X3493Y781D01*
X227Y780D02*
X315Y780D01*
X705Y780D02*
X794Y780D01*
X1127Y780D02*
X1215Y780D01*
X1605Y780D02*
X1694Y780D01*
X2027Y780D02*
X2115Y780D01*
X2505Y780D02*
X2594Y780D01*
X2927Y780D02*
X3015Y780D01*
X3405Y780D02*
X3494Y780D01*
X226Y779D02*
X316Y779D01*
X704Y779D02*
X795Y779D01*
X1126Y779D02*
X1216Y779D01*
X1604Y779D02*
X1695Y779D01*
X2026Y779D02*
X2116Y779D01*
X2504Y779D02*
X2595Y779D01*
X2926Y779D02*
X3016Y779D01*
X3404Y779D02*
X3495Y779D01*
X225Y778D02*
X317Y778D01*
X703Y778D02*
X796Y778D01*
X1125Y778D02*
X1217Y778D01*
X1603Y778D02*
X1696Y778D01*
X2025Y778D02*
X2117Y778D01*
X2503Y778D02*
X2596Y778D01*
X2925Y778D02*
X3017Y778D01*
X3403Y778D02*
X3496Y778D01*
X224Y777D02*
X318Y777D01*
X702Y777D02*
X797Y777D01*
X1124Y777D02*
X1218Y777D01*
X1602Y777D02*
X1697Y777D01*
X2024Y777D02*
X2118Y777D01*
X2502Y777D02*
X2597Y777D01*
X2924Y777D02*
X3018Y777D01*
X3402Y777D02*
X3497Y777D01*
X223Y776D02*
X319Y776D01*
X701Y776D02*
X797Y776D01*
X1123Y776D02*
X1219Y776D01*
X1601Y776D02*
X1697Y776D01*
X2023Y776D02*
X2119Y776D01*
X2501Y776D02*
X2597Y776D01*
X2923Y776D02*
X3019Y776D01*
X3401Y776D02*
X3497Y776D01*
X222Y775D02*
X320Y775D01*
X701Y775D02*
X798Y775D01*
X1122Y775D02*
X1220Y775D01*
X1601Y775D02*
X1698Y775D01*
X2022Y775D02*
X2120Y775D01*
X2501Y775D02*
X2598Y775D01*
X2922Y775D02*
X3020Y775D01*
X3401Y775D02*
X3498Y775D01*
X221Y774D02*
X321Y774D01*
X700Y774D02*
X799Y774D01*
X1121Y774D02*
X1221Y774D01*
X1600Y774D02*
X1699Y774D01*
X2021Y774D02*
X2121Y774D01*
X2500Y774D02*
X2599Y774D01*
X2921Y774D02*
X3021Y774D01*
X3400Y774D02*
X3499Y774D01*
X221Y773D02*
X322Y773D01*
X699Y773D02*
X800Y773D01*
X1121Y773D02*
X1222Y773D01*
X1599Y773D02*
X1700Y773D01*
X2021Y773D02*
X2122Y773D01*
X2499Y773D02*
X2600Y773D01*
X2921Y773D02*
X3022Y773D01*
X3399Y773D02*
X3500Y773D01*
X220Y772D02*
X322Y772D01*
X698Y772D02*
X801Y772D01*
X1120Y772D02*
X1222Y772D01*
X1598Y772D02*
X1701Y772D01*
X2020Y772D02*
X2122Y772D01*
X2498Y772D02*
X2601Y772D01*
X2920Y772D02*
X3022Y772D01*
X3398Y772D02*
X3501Y772D01*
X219Y771D02*
X323Y771D01*
X698Y771D02*
X801Y771D01*
X1119Y771D02*
X1223Y771D01*
X1598Y771D02*
X1701Y771D01*
X2019Y771D02*
X2123Y771D01*
X2498Y771D02*
X2601Y771D01*
X2919Y771D02*
X3023Y771D01*
X3398Y771D02*
X3501Y771D01*
X218Y770D02*
X324Y770D01*
X697Y770D02*
X802Y770D01*
X1118Y770D02*
X1224Y770D01*
X1597Y770D02*
X1702Y770D01*
X2018Y770D02*
X2124Y770D01*
X2497Y770D02*
X2602Y770D01*
X2918Y770D02*
X3024Y770D01*
X3397Y770D02*
X3502Y770D01*
X218Y769D02*
X325Y769D01*
X696Y769D02*
X803Y769D01*
X1118Y769D02*
X1225Y769D01*
X1596Y769D02*
X1703Y769D01*
X2018Y769D02*
X2125Y769D01*
X2496Y769D02*
X2603Y769D01*
X2918Y769D02*
X3025Y769D01*
X3396Y769D02*
X3503Y769D01*
X217Y768D02*
X325Y768D01*
X695Y768D02*
X804Y768D01*
X1117Y768D02*
X1225Y768D01*
X1595Y768D02*
X1704Y768D01*
X2017Y768D02*
X2125Y768D01*
X2495Y768D02*
X2604Y768D01*
X2917Y768D02*
X3025Y768D01*
X3395Y768D02*
X3504Y768D01*
X217Y767D02*
X326Y767D01*
X695Y767D02*
X804Y767D01*
X1117Y767D02*
X1226Y767D01*
X1595Y767D02*
X1704Y767D01*
X2017Y767D02*
X2126Y767D01*
X2495Y767D02*
X2604Y767D01*
X2917Y767D02*
X3026Y767D01*
X3395Y767D02*
X3504Y767D01*
X216Y766D02*
X326Y766D01*
X694Y766D02*
X805Y766D01*
X1116Y766D02*
X1226Y766D01*
X1594Y766D02*
X1705Y766D01*
X2016Y766D02*
X2126Y766D01*
X2494Y766D02*
X2605Y766D01*
X2916Y766D02*
X3026Y766D01*
X3394Y766D02*
X3505Y766D01*
X215Y765D02*
X327Y765D01*
X694Y765D02*
X805Y765D01*
X1115Y765D02*
X1227Y765D01*
X1594Y765D02*
X1705Y765D01*
X2015Y765D02*
X2127Y765D01*
X2494Y765D02*
X2605Y765D01*
X2915Y765D02*
X3027Y765D01*
X3394Y765D02*
X3505Y765D01*
X215Y764D02*
X328Y764D01*
X693Y764D02*
X806Y764D01*
X1115Y764D02*
X1228Y764D01*
X1593Y764D02*
X1706Y764D01*
X2015Y764D02*
X2128Y764D01*
X2493Y764D02*
X2606Y764D01*
X2915Y764D02*
X3028Y764D01*
X3393Y764D02*
X3506Y764D01*
X214Y763D02*
X328Y763D01*
X692Y763D02*
X806Y763D01*
X1114Y763D02*
X1228Y763D01*
X1592Y763D02*
X1706Y763D01*
X2014Y763D02*
X2128Y763D01*
X2492Y763D02*
X2606Y763D01*
X2914Y763D02*
X3028Y763D01*
X3392Y763D02*
X3506Y763D01*
X214Y762D02*
X329Y762D01*
X692Y762D02*
X807Y762D01*
X1114Y762D02*
X1229Y762D01*
X1592Y762D02*
X1707Y762D01*
X2014Y762D02*
X2129Y762D01*
X2492Y762D02*
X2607Y762D01*
X2914Y762D02*
X3029Y762D01*
X3392Y762D02*
X3507Y762D01*
X213Y761D02*
X329Y761D01*
X692Y761D02*
X807Y761D01*
X1113Y761D02*
X1229Y761D01*
X1592Y761D02*
X1707Y761D01*
X2013Y761D02*
X2129Y761D01*
X2492Y761D02*
X2607Y761D01*
X2913Y761D02*
X3029Y761D01*
X3392Y761D02*
X3507Y761D01*
X213Y760D02*
X330Y760D01*
X691Y760D02*
X808Y760D01*
X1113Y760D02*
X1230Y760D01*
X1591Y760D02*
X1708Y760D01*
X2013Y760D02*
X2130Y760D01*
X2491Y760D02*
X2608Y760D01*
X2913Y760D02*
X3030Y760D01*
X3391Y760D02*
X3508Y760D01*
X212Y759D02*
X330Y759D01*
X691Y759D02*
X808Y759D01*
X1112Y759D02*
X1230Y759D01*
X1591Y759D02*
X1708Y759D01*
X2012Y759D02*
X2130Y759D01*
X2491Y759D02*
X2608Y759D01*
X2912Y759D02*
X3030Y759D01*
X3391Y759D02*
X3508Y759D01*
X212Y758D02*
X265Y758D01*
X277Y758D02*
X331Y758D01*
X690Y758D02*
X743Y758D01*
X756Y758D02*
X809Y758D01*
X1112Y758D02*
X1165Y758D01*
X1177Y758D02*
X1231Y758D01*
X1590Y758D02*
X1643Y758D01*
X1656Y758D02*
X1709Y758D01*
X2012Y758D02*
X2065Y758D01*
X2077Y758D02*
X2131Y758D01*
X2490Y758D02*
X2543Y758D01*
X2556Y758D02*
X2609Y758D01*
X2912Y758D02*
X2965Y758D01*
X2977Y758D02*
X3031Y758D01*
X3390Y758D02*
X3443Y758D01*
X3456Y758D02*
X3509Y758D01*
X211Y757D02*
X262Y757D01*
X280Y757D02*
X331Y757D01*
X690Y757D02*
X740Y757D01*
X759Y757D02*
X809Y757D01*
X1111Y757D02*
X1162Y757D01*
X1180Y757D02*
X1231Y757D01*
X1590Y757D02*
X1640Y757D01*
X1659Y757D02*
X1709Y757D01*
X2011Y757D02*
X2062Y757D01*
X2080Y757D02*
X2131Y757D01*
X2490Y757D02*
X2540Y757D01*
X2559Y757D02*
X2609Y757D01*
X2911Y757D02*
X2962Y757D01*
X2980Y757D02*
X3031Y757D01*
X3390Y757D02*
X3440Y757D01*
X3459Y757D02*
X3509Y757D01*
X211Y756D02*
X260Y756D01*
X283Y756D02*
X331Y756D01*
X689Y756D02*
X738Y756D01*
X761Y756D02*
X810Y756D01*
X1111Y756D02*
X1160Y756D01*
X1183Y756D02*
X1231Y756D01*
X1589Y756D02*
X1638Y756D01*
X1661Y756D02*
X1710Y756D01*
X2011Y756D02*
X2060Y756D01*
X2083Y756D02*
X2131Y756D01*
X2489Y756D02*
X2538Y756D01*
X2561Y756D02*
X2610Y756D01*
X2911Y756D02*
X2960Y756D01*
X2983Y756D02*
X3031Y756D01*
X3389Y756D02*
X3438Y756D01*
X3461Y756D02*
X3510Y756D01*
X211Y755D02*
X258Y755D01*
X285Y755D02*
X332Y755D01*
X689Y755D02*
X736Y755D01*
X763Y755D02*
X810Y755D01*
X1111Y755D02*
X1158Y755D01*
X1185Y755D02*
X1232Y755D01*
X1589Y755D02*
X1636Y755D01*
X1663Y755D02*
X1710Y755D01*
X2011Y755D02*
X2058Y755D01*
X2085Y755D02*
X2132Y755D01*
X2489Y755D02*
X2536Y755D01*
X2563Y755D02*
X2610Y755D01*
X2911Y755D02*
X2958Y755D01*
X2985Y755D02*
X3032Y755D01*
X3389Y755D02*
X3436Y755D01*
X3463Y755D02*
X3510Y755D01*
X210Y754D02*
X256Y754D01*
X286Y754D02*
X332Y754D01*
X689Y754D02*
X734Y754D01*
X765Y754D02*
X810Y754D01*
X1110Y754D02*
X1156Y754D01*
X1186Y754D02*
X1232Y754D01*
X1589Y754D02*
X1634Y754D01*
X1665Y754D02*
X1710Y754D01*
X2010Y754D02*
X2056Y754D01*
X2086Y754D02*
X2132Y754D01*
X2489Y754D02*
X2534Y754D01*
X2565Y754D02*
X2610Y754D01*
X2910Y754D02*
X2956Y754D01*
X2986Y754D02*
X3032Y754D01*
X3389Y754D02*
X3434Y754D01*
X3465Y754D02*
X3510Y754D01*
X210Y753D02*
X255Y753D01*
X287Y753D02*
X332Y753D01*
X688Y753D02*
X733Y753D01*
X766Y753D02*
X811Y753D01*
X1110Y753D02*
X1155Y753D01*
X1187Y753D02*
X1232Y753D01*
X1588Y753D02*
X1633Y753D01*
X1666Y753D02*
X1711Y753D01*
X2010Y753D02*
X2055Y753D01*
X2087Y753D02*
X2132Y753D01*
X2488Y753D02*
X2533Y753D01*
X2566Y753D02*
X2611Y753D01*
X2910Y753D02*
X2955Y753D01*
X2987Y753D02*
X3032Y753D01*
X3388Y753D02*
X3433Y753D01*
X3466Y753D02*
X3511Y753D01*
X210Y752D02*
X254Y752D01*
X289Y752D02*
X333Y752D01*
X688Y752D02*
X732Y752D01*
X767Y752D02*
X811Y752D01*
X1110Y752D02*
X1154Y752D01*
X1189Y752D02*
X1233Y752D01*
X1588Y752D02*
X1632Y752D01*
X1667Y752D02*
X1711Y752D01*
X2010Y752D02*
X2054Y752D01*
X2089Y752D02*
X2133Y752D01*
X2488Y752D02*
X2532Y752D01*
X2567Y752D02*
X2611Y752D01*
X2910Y752D02*
X2954Y752D01*
X2989Y752D02*
X3033Y752D01*
X3388Y752D02*
X3432Y752D01*
X3467Y752D02*
X3511Y752D01*
X209Y751D02*
X253Y751D01*
X290Y751D02*
X333Y751D01*
X688Y751D02*
X731Y751D01*
X768Y751D02*
X811Y751D01*
X1109Y751D02*
X1153Y751D01*
X1190Y751D02*
X1233Y751D01*
X1588Y751D02*
X1631Y751D01*
X1668Y751D02*
X1711Y751D01*
X2009Y751D02*
X2053Y751D01*
X2090Y751D02*
X2133Y751D01*
X2488Y751D02*
X2531Y751D01*
X2568Y751D02*
X2611Y751D01*
X2909Y751D02*
X2953Y751D01*
X2990Y751D02*
X3033Y751D01*
X3388Y751D02*
X3431Y751D01*
X3468Y751D02*
X3511Y751D01*
X209Y750D02*
X252Y750D01*
X291Y750D02*
X333Y750D01*
X687Y750D02*
X730Y750D01*
X769Y750D02*
X812Y750D01*
X1109Y750D02*
X1152Y750D01*
X1191Y750D02*
X1233Y750D01*
X1587Y750D02*
X1630Y750D01*
X1669Y750D02*
X1712Y750D01*
X2009Y750D02*
X2052Y750D01*
X2091Y750D02*
X2133Y750D01*
X2487Y750D02*
X2530Y750D01*
X2569Y750D02*
X2612Y750D01*
X2909Y750D02*
X2952Y750D01*
X2991Y750D02*
X3033Y750D01*
X3387Y750D02*
X3430Y750D01*
X3469Y750D02*
X3512Y750D01*
X209Y749D02*
X251Y749D01*
X292Y749D02*
X333Y749D01*
X687Y749D02*
X729Y749D01*
X770Y749D02*
X812Y749D01*
X1109Y749D02*
X1151Y749D01*
X1191Y749D02*
X1233Y749D01*
X1587Y749D02*
X1629Y749D01*
X1670Y749D02*
X1712Y749D01*
X2009Y749D02*
X2051Y749D01*
X2091Y749D02*
X2133Y749D01*
X2487Y749D02*
X2529Y749D01*
X2570Y749D02*
X2612Y749D01*
X2909Y749D02*
X2951Y749D01*
X2991Y749D02*
X3033Y749D01*
X3387Y749D02*
X3429Y749D01*
X3470Y749D02*
X3512Y749D01*
X209Y748D02*
X250Y748D01*
X292Y748D02*
X334Y748D01*
X687Y748D02*
X728Y748D01*
X771Y748D02*
X812Y748D01*
X1109Y748D02*
X1150Y748D01*
X1192Y748D02*
X1234Y748D01*
X1587Y748D02*
X1628Y748D01*
X1671Y748D02*
X1712Y748D01*
X2009Y748D02*
X2050Y748D01*
X2092Y748D02*
X2134Y748D01*
X2487Y748D02*
X2528Y748D01*
X2571Y748D02*
X2612Y748D01*
X2909Y748D02*
X2950Y748D01*
X2992Y748D02*
X3034Y748D01*
X3387Y748D02*
X3428Y748D01*
X3471Y748D02*
X3512Y748D01*
X208Y747D02*
X249Y747D01*
X293Y747D02*
X334Y747D01*
X687Y747D02*
X728Y747D01*
X771Y747D02*
X812Y747D01*
X1108Y747D02*
X1149Y747D01*
X1193Y747D02*
X1234Y747D01*
X1587Y747D02*
X1628Y747D01*
X1671Y747D02*
X1712Y747D01*
X2008Y747D02*
X2049Y747D01*
X2093Y747D02*
X2134Y747D01*
X2487Y747D02*
X2528Y747D01*
X2571Y747D02*
X2612Y747D01*
X2908Y747D02*
X2949Y747D01*
X2993Y747D02*
X3034Y747D01*
X3387Y747D02*
X3428Y747D01*
X3471Y747D02*
X3512Y747D01*
X208Y746D02*
X249Y746D01*
X294Y746D02*
X334Y746D01*
X686Y746D02*
X727Y746D01*
X772Y746D02*
X813Y746D01*
X1108Y746D02*
X1149Y746D01*
X1194Y746D02*
X1234Y746D01*
X1586Y746D02*
X1627Y746D01*
X1672Y746D02*
X1713Y746D01*
X2008Y746D02*
X2049Y746D01*
X2094Y746D02*
X2134Y746D01*
X2486Y746D02*
X2527Y746D01*
X2572Y746D02*
X2613Y746D01*
X2908Y746D02*
X2949Y746D01*
X2994Y746D02*
X3034Y746D01*
X3386Y746D02*
X3427Y746D01*
X3472Y746D02*
X3513Y746D01*
X208Y745D02*
X248Y745D01*
X294Y745D02*
X334Y745D01*
X686Y745D02*
X726Y745D01*
X773Y745D02*
X813Y745D01*
X1108Y745D02*
X1148Y745D01*
X1194Y745D02*
X1234Y745D01*
X1586Y745D02*
X1626Y745D01*
X1672Y745D02*
X1713Y745D01*
X2008Y745D02*
X2048Y745D01*
X2094Y745D02*
X2134Y745D01*
X2486Y745D02*
X2526Y745D01*
X2572Y745D02*
X2613Y745D01*
X2908Y745D02*
X2948Y745D01*
X2994Y745D02*
X3034Y745D01*
X3386Y745D02*
X3426Y745D01*
X3472Y745D02*
X3513Y745D01*
X208Y744D02*
X248Y744D01*
X295Y744D02*
X334Y744D01*
X686Y744D02*
X726Y744D01*
X773Y744D02*
X813Y744D01*
X1108Y744D02*
X1148Y744D01*
X1195Y744D02*
X1234Y744D01*
X1586Y744D02*
X1626Y744D01*
X1673Y744D02*
X1713Y744D01*
X2008Y744D02*
X2048Y744D01*
X2095Y744D02*
X2134Y744D01*
X2486Y744D02*
X2526Y744D01*
X2573Y744D02*
X2613Y744D01*
X2908Y744D02*
X2948Y744D01*
X2995Y744D02*
X3034Y744D01*
X3386Y744D02*
X3426Y744D01*
X3473Y744D02*
X3513Y744D01*
X208Y743D02*
X247Y743D01*
X295Y743D02*
X335Y743D01*
X686Y743D02*
X725Y743D01*
X774Y743D02*
X813Y743D01*
X1108Y743D02*
X1147Y743D01*
X1195Y743D02*
X1235Y743D01*
X1586Y743D02*
X1625Y743D01*
X1674Y743D02*
X1713Y743D01*
X2008Y743D02*
X2047Y743D01*
X2095Y743D02*
X2135Y743D01*
X2486Y743D02*
X2525Y743D01*
X2574Y743D02*
X2613Y743D01*
X2908Y743D02*
X2947Y743D01*
X2995Y743D02*
X3035Y743D01*
X3386Y743D02*
X3425Y743D01*
X3474Y743D02*
X3513Y743D01*
X207Y742D02*
X247Y742D01*
X296Y742D02*
X335Y742D01*
X686Y742D02*
X725Y742D01*
X774Y742D02*
X813Y742D01*
X1107Y742D02*
X1147Y742D01*
X1196Y742D02*
X1235Y742D01*
X1586Y742D02*
X1625Y742D01*
X1674Y742D02*
X1713Y742D01*
X2007Y742D02*
X2047Y742D01*
X2096Y742D02*
X2135Y742D01*
X2486Y742D02*
X2525Y742D01*
X2574Y742D02*
X2613Y742D01*
X2907Y742D02*
X2947Y742D01*
X2996Y742D02*
X3035Y742D01*
X3386Y742D02*
X3425Y742D01*
X3474Y742D02*
X3513Y742D01*
X207Y741D02*
X246Y741D01*
X296Y741D02*
X335Y741D01*
X686Y741D02*
X725Y741D01*
X774Y741D02*
X813Y741D01*
X1107Y741D02*
X1146Y741D01*
X1196Y741D02*
X1235Y741D01*
X1586Y741D02*
X1625Y741D01*
X1674Y741D02*
X1713Y741D01*
X2007Y741D02*
X2046Y741D01*
X2096Y741D02*
X2135Y741D01*
X2486Y741D02*
X2525Y741D01*
X2574Y741D02*
X2613Y741D01*
X2907Y741D02*
X2946Y741D01*
X2996Y741D02*
X3035Y741D01*
X3386Y741D02*
X3425Y741D01*
X3474Y741D02*
X3513Y741D01*
X207Y740D02*
X246Y740D01*
X296Y740D02*
X335Y740D01*
X686Y740D02*
X724Y740D01*
X775Y740D02*
X813Y740D01*
X1107Y740D02*
X1146Y740D01*
X1196Y740D02*
X1235Y740D01*
X1586Y740D02*
X1624Y740D01*
X1675Y740D02*
X1713Y740D01*
X2007Y740D02*
X2046Y740D01*
X2096Y740D02*
X2135Y740D01*
X2486Y740D02*
X2524Y740D01*
X2575Y740D02*
X2613Y740D01*
X2907Y740D02*
X2946Y740D01*
X2996Y740D02*
X3035Y740D01*
X3386Y740D02*
X3424Y740D01*
X3475Y740D02*
X3513Y740D01*
X207Y739D02*
X246Y739D01*
X297Y739D02*
X335Y739D01*
X685Y739D02*
X724Y739D01*
X775Y739D02*
X814Y739D01*
X1107Y739D02*
X1146Y739D01*
X1197Y739D02*
X1235Y739D01*
X1585Y739D02*
X1624Y739D01*
X1675Y739D02*
X1714Y739D01*
X2007Y739D02*
X2046Y739D01*
X2097Y739D02*
X2135Y739D01*
X2485Y739D02*
X2524Y739D01*
X2575Y739D02*
X2614Y739D01*
X2907Y739D02*
X2946Y739D01*
X2997Y739D02*
X3035Y739D01*
X3385Y739D02*
X3424Y739D01*
X3475Y739D02*
X3514Y739D01*
X207Y738D02*
X245Y738D01*
X297Y738D02*
X335Y738D01*
X685Y738D02*
X724Y738D01*
X775Y738D02*
X814Y738D01*
X1107Y738D02*
X1145Y738D01*
X1197Y738D02*
X1235Y738D01*
X1585Y738D02*
X1624Y738D01*
X1675Y738D02*
X1714Y738D01*
X2007Y738D02*
X2045Y738D01*
X2097Y738D02*
X2135Y738D01*
X2485Y738D02*
X2524Y738D01*
X2575Y738D02*
X2614Y738D01*
X2907Y738D02*
X2945Y738D01*
X2997Y738D02*
X3035Y738D01*
X3385Y738D02*
X3424Y738D01*
X3475Y738D02*
X3514Y738D01*
X207Y737D02*
X245Y737D01*
X297Y737D02*
X335Y737D01*
X685Y737D02*
X724Y737D01*
X775Y737D02*
X814Y737D01*
X1107Y737D02*
X1145Y737D01*
X1197Y737D02*
X1235Y737D01*
X1585Y737D02*
X1624Y737D01*
X1675Y737D02*
X1714Y737D01*
X2007Y737D02*
X2045Y737D01*
X2097Y737D02*
X2135Y737D01*
X2485Y737D02*
X2524Y737D01*
X2575Y737D02*
X2614Y737D01*
X2907Y737D02*
X2945Y737D01*
X2997Y737D02*
X3035Y737D01*
X3385Y737D02*
X3424Y737D01*
X3475Y737D02*
X3514Y737D01*
X207Y736D02*
X245Y736D01*
X297Y736D02*
X335Y736D01*
X685Y736D02*
X724Y736D01*
X775Y736D02*
X814Y736D01*
X1107Y736D02*
X1145Y736D01*
X1197Y736D02*
X1235Y736D01*
X1585Y736D02*
X1624Y736D01*
X1675Y736D02*
X1714Y736D01*
X2007Y736D02*
X2045Y736D01*
X2097Y736D02*
X2135Y736D01*
X2485Y736D02*
X2524Y736D01*
X2575Y736D02*
X2614Y736D01*
X2907Y736D02*
X2945Y736D01*
X2997Y736D02*
X3035Y736D01*
X3385Y736D02*
X3424Y736D01*
X3475Y736D02*
X3514Y736D01*
X207Y735D02*
X245Y735D01*
X297Y735D02*
X335Y735D01*
X685Y735D02*
X723Y735D01*
X776Y735D02*
X814Y735D01*
X1107Y735D02*
X1145Y735D01*
X1197Y735D02*
X1235Y735D01*
X1585Y735D02*
X1623Y735D01*
X1676Y735D02*
X1714Y735D01*
X2007Y735D02*
X2045Y735D01*
X2097Y735D02*
X2135Y735D01*
X2485Y735D02*
X2523Y735D01*
X2576Y735D02*
X2614Y735D01*
X2907Y735D02*
X2945Y735D01*
X2997Y735D02*
X3035Y735D01*
X3385Y735D02*
X3423Y735D01*
X3476Y735D02*
X3514Y735D01*
X207Y734D02*
X245Y734D01*
X297Y734D02*
X336Y734D01*
X685Y734D02*
X723Y734D01*
X776Y734D02*
X814Y734D01*
X1107Y734D02*
X1145Y734D01*
X1197Y734D02*
X1236Y734D01*
X1585Y734D02*
X1623Y734D01*
X1676Y734D02*
X1714Y734D01*
X2007Y734D02*
X2045Y734D01*
X2097Y734D02*
X2136Y734D01*
X2485Y734D02*
X2523Y734D01*
X2576Y734D02*
X2614Y734D01*
X2907Y734D02*
X2945Y734D01*
X2997Y734D02*
X3036Y734D01*
X3385Y734D02*
X3423Y734D01*
X3476Y734D02*
X3514Y734D01*
X207Y733D02*
X245Y733D01*
X297Y733D02*
X336Y733D01*
X685Y733D02*
X723Y733D01*
X776Y733D02*
X814Y733D01*
X1107Y733D02*
X1145Y733D01*
X1197Y733D02*
X1236Y733D01*
X1585Y733D02*
X1623Y733D01*
X1676Y733D02*
X1714Y733D01*
X2007Y733D02*
X2045Y733D01*
X2097Y733D02*
X2136Y733D01*
X2485Y733D02*
X2523Y733D01*
X2576Y733D02*
X2614Y733D01*
X2907Y733D02*
X2945Y733D01*
X2997Y733D02*
X3036Y733D01*
X3385Y733D02*
X3423Y733D01*
X3476Y733D02*
X3514Y733D01*
X207Y732D02*
X245Y732D01*
X297Y732D02*
X336Y732D01*
X685Y732D02*
X723Y732D01*
X776Y732D02*
X814Y732D01*
X1107Y732D02*
X1145Y732D01*
X1197Y732D02*
X1236Y732D01*
X1585Y732D02*
X1623Y732D01*
X1676Y732D02*
X1714Y732D01*
X2007Y732D02*
X2045Y732D01*
X2097Y732D02*
X2136Y732D01*
X2485Y732D02*
X2523Y732D01*
X2576Y732D02*
X2614Y732D01*
X2907Y732D02*
X2945Y732D01*
X2997Y732D02*
X3036Y732D01*
X3385Y732D02*
X3423Y732D01*
X3476Y732D02*
X3514Y732D01*
X207Y731D02*
X245Y731D01*
X297Y731D02*
X335Y731D01*
X685Y731D02*
X723Y731D01*
X776Y731D02*
X814Y731D01*
X1107Y731D02*
X1145Y731D01*
X1197Y731D02*
X1235Y731D01*
X1585Y731D02*
X1623Y731D01*
X1676Y731D02*
X1714Y731D01*
X2007Y731D02*
X2045Y731D01*
X2097Y731D02*
X2135Y731D01*
X2485Y731D02*
X2523Y731D01*
X2576Y731D02*
X2614Y731D01*
X2907Y731D02*
X2945Y731D01*
X2997Y731D02*
X3035Y731D01*
X3385Y731D02*
X3423Y731D01*
X3476Y731D02*
X3514Y731D01*
X207Y730D02*
X245Y730D01*
X297Y730D02*
X335Y730D01*
X685Y730D02*
X724Y730D01*
X775Y730D02*
X814Y730D01*
X1107Y730D02*
X1145Y730D01*
X1197Y730D02*
X1235Y730D01*
X1585Y730D02*
X1624Y730D01*
X1675Y730D02*
X1714Y730D01*
X2007Y730D02*
X2045Y730D01*
X2097Y730D02*
X2135Y730D01*
X2485Y730D02*
X2524Y730D01*
X2575Y730D02*
X2614Y730D01*
X2907Y730D02*
X2945Y730D01*
X2997Y730D02*
X3035Y730D01*
X3385Y730D02*
X3424Y730D01*
X3475Y730D02*
X3514Y730D01*
X207Y729D02*
X245Y729D01*
X297Y729D02*
X335Y729D01*
X685Y729D02*
X724Y729D01*
X775Y729D02*
X814Y729D01*
X1107Y729D02*
X1145Y729D01*
X1197Y729D02*
X1235Y729D01*
X1585Y729D02*
X1624Y729D01*
X1675Y729D02*
X1714Y729D01*
X2007Y729D02*
X2045Y729D01*
X2097Y729D02*
X2135Y729D01*
X2485Y729D02*
X2524Y729D01*
X2575Y729D02*
X2614Y729D01*
X2907Y729D02*
X2945Y729D01*
X2997Y729D02*
X3035Y729D01*
X3385Y729D02*
X3424Y729D01*
X3475Y729D02*
X3514Y729D01*
X207Y728D02*
X245Y728D01*
X297Y728D02*
X335Y728D01*
X685Y728D02*
X724Y728D01*
X775Y728D02*
X814Y728D01*
X1107Y728D02*
X1145Y728D01*
X1197Y728D02*
X1235Y728D01*
X1585Y728D02*
X1624Y728D01*
X1675Y728D02*
X1714Y728D01*
X2007Y728D02*
X2045Y728D01*
X2097Y728D02*
X2135Y728D01*
X2485Y728D02*
X2524Y728D01*
X2575Y728D02*
X2614Y728D01*
X2907Y728D02*
X2945Y728D01*
X2997Y728D02*
X3035Y728D01*
X3385Y728D02*
X3424Y728D01*
X3475Y728D02*
X3514Y728D01*
X207Y727D02*
X246Y727D01*
X297Y727D02*
X335Y727D01*
X685Y727D02*
X724Y727D01*
X775Y727D02*
X814Y727D01*
X1107Y727D02*
X1146Y727D01*
X1197Y727D02*
X1235Y727D01*
X1585Y727D02*
X1624Y727D01*
X1675Y727D02*
X1714Y727D01*
X2007Y727D02*
X2046Y727D01*
X2097Y727D02*
X2135Y727D01*
X2485Y727D02*
X2524Y727D01*
X2575Y727D02*
X2614Y727D01*
X2907Y727D02*
X2946Y727D01*
X2997Y727D02*
X3035Y727D01*
X3385Y727D02*
X3424Y727D01*
X3475Y727D02*
X3514Y727D01*
X207Y726D02*
X246Y726D01*
X296Y726D02*
X335Y726D01*
X685Y726D02*
X724Y726D01*
X775Y726D02*
X813Y726D01*
X1107Y726D02*
X1146Y726D01*
X1196Y726D02*
X1235Y726D01*
X1585Y726D02*
X1624Y726D01*
X1675Y726D02*
X1713Y726D01*
X2007Y726D02*
X2046Y726D01*
X2096Y726D02*
X2135Y726D01*
X2485Y726D02*
X2524Y726D01*
X2575Y726D02*
X2613Y726D01*
X2907Y726D02*
X2946Y726D01*
X2996Y726D02*
X3035Y726D01*
X3385Y726D02*
X3424Y726D01*
X3475Y726D02*
X3513Y726D01*
X207Y725D02*
X246Y725D01*
X296Y725D02*
X335Y725D01*
X686Y725D02*
X725Y725D01*
X774Y725D02*
X813Y725D01*
X1107Y725D02*
X1146Y725D01*
X1196Y725D02*
X1235Y725D01*
X1586Y725D02*
X1625Y725D01*
X1674Y725D02*
X1713Y725D01*
X2007Y725D02*
X2046Y725D01*
X2096Y725D02*
X2135Y725D01*
X2486Y725D02*
X2525Y725D01*
X2574Y725D02*
X2613Y725D01*
X2907Y725D02*
X2946Y725D01*
X2996Y725D02*
X3035Y725D01*
X3386Y725D02*
X3425Y725D01*
X3474Y725D02*
X3513Y725D01*
X207Y724D02*
X247Y724D01*
X296Y724D02*
X335Y724D01*
X686Y724D02*
X725Y724D01*
X774Y724D02*
X813Y724D01*
X1107Y724D02*
X1147Y724D01*
X1196Y724D02*
X1235Y724D01*
X1586Y724D02*
X1625Y724D01*
X1674Y724D02*
X1713Y724D01*
X2007Y724D02*
X2047Y724D01*
X2096Y724D02*
X2135Y724D01*
X2486Y724D02*
X2525Y724D01*
X2574Y724D02*
X2613Y724D01*
X2907Y724D02*
X2947Y724D01*
X2996Y724D02*
X3035Y724D01*
X3386Y724D02*
X3425Y724D01*
X3474Y724D02*
X3513Y724D01*
X208Y723D02*
X247Y723D01*
X295Y723D02*
X335Y723D01*
X686Y723D02*
X725Y723D01*
X774Y723D02*
X813Y723D01*
X1108Y723D02*
X1147Y723D01*
X1195Y723D02*
X1235Y723D01*
X1586Y723D02*
X1625Y723D01*
X1674Y723D02*
X1713Y723D01*
X2008Y723D02*
X2047Y723D01*
X2095Y723D02*
X2135Y723D01*
X2486Y723D02*
X2525Y723D01*
X2574Y723D02*
X2613Y723D01*
X2908Y723D02*
X2947Y723D01*
X2995Y723D02*
X3035Y723D01*
X3386Y723D02*
X3425Y723D01*
X3474Y723D02*
X3513Y723D01*
X208Y722D02*
X248Y722D01*
X295Y722D02*
X335Y722D01*
X686Y722D02*
X726Y722D01*
X773Y722D02*
X813Y722D01*
X1108Y722D02*
X1148Y722D01*
X1195Y722D02*
X1235Y722D01*
X1586Y722D02*
X1626Y722D01*
X1673Y722D02*
X1713Y722D01*
X2008Y722D02*
X2048Y722D01*
X2095Y722D02*
X2135Y722D01*
X2486Y722D02*
X2526Y722D01*
X2573Y722D02*
X2613Y722D01*
X2908Y722D02*
X2948Y722D01*
X2995Y722D02*
X3035Y722D01*
X3386Y722D02*
X3426Y722D01*
X3473Y722D02*
X3513Y722D01*
X208Y721D02*
X248Y721D01*
X294Y721D02*
X334Y721D01*
X686Y721D02*
X726Y721D01*
X773Y721D02*
X813Y721D01*
X1108Y721D02*
X1148Y721D01*
X1194Y721D02*
X1234Y721D01*
X1586Y721D02*
X1626Y721D01*
X1673Y721D02*
X1713Y721D01*
X2008Y721D02*
X2048Y721D01*
X2094Y721D02*
X2134Y721D01*
X2486Y721D02*
X2526Y721D01*
X2573Y721D02*
X2613Y721D01*
X2908Y721D02*
X2948Y721D01*
X2994Y721D02*
X3034Y721D01*
X3386Y721D02*
X3426Y721D01*
X3473Y721D02*
X3513Y721D01*
X208Y720D02*
X249Y720D01*
X294Y720D02*
X334Y720D01*
X686Y720D02*
X727Y720D01*
X772Y720D02*
X813Y720D01*
X1108Y720D02*
X1149Y720D01*
X1194Y720D02*
X1234Y720D01*
X1586Y720D02*
X1627Y720D01*
X1672Y720D02*
X1713Y720D01*
X2008Y720D02*
X2049Y720D01*
X2094Y720D02*
X2134Y720D01*
X2486Y720D02*
X2527Y720D01*
X2572Y720D02*
X2613Y720D01*
X2908Y720D02*
X2949Y720D01*
X2994Y720D02*
X3034Y720D01*
X3386Y720D02*
X3427Y720D01*
X3472Y720D02*
X3513Y720D01*
X208Y719D02*
X249Y719D01*
X293Y719D02*
X334Y719D01*
X687Y719D02*
X727Y719D01*
X772Y719D02*
X812Y719D01*
X1108Y719D02*
X1149Y719D01*
X1193Y719D02*
X1234Y719D01*
X1587Y719D02*
X1627Y719D01*
X1672Y719D02*
X1712Y719D01*
X2008Y719D02*
X2049Y719D01*
X2093Y719D02*
X2134Y719D01*
X2487Y719D02*
X2527Y719D01*
X2572Y719D02*
X2612Y719D01*
X2908Y719D02*
X2949Y719D01*
X2993Y719D02*
X3034Y719D01*
X3387Y719D02*
X3427Y719D01*
X3472Y719D02*
X3512Y719D01*
X209Y718D02*
X250Y718D01*
X292Y718D02*
X334Y718D01*
X687Y718D02*
X728Y718D01*
X771Y718D02*
X812Y718D01*
X1109Y718D02*
X1150Y718D01*
X1192Y718D02*
X1234Y718D01*
X1587Y718D02*
X1628Y718D01*
X1671Y718D02*
X1712Y718D01*
X2009Y718D02*
X2050Y718D01*
X2092Y718D02*
X2134Y718D01*
X2487Y718D02*
X2528Y718D01*
X2571Y718D02*
X2612Y718D01*
X2909Y718D02*
X2950Y718D01*
X2992Y718D02*
X3034Y718D01*
X3387Y718D02*
X3428Y718D01*
X3471Y718D02*
X3512Y718D01*
X209Y717D02*
X251Y717D01*
X292Y717D02*
X333Y717D01*
X687Y717D02*
X729Y717D01*
X770Y717D02*
X812Y717D01*
X1109Y717D02*
X1151Y717D01*
X1192Y717D02*
X1233Y717D01*
X1587Y717D02*
X1629Y717D01*
X1670Y717D02*
X1712Y717D01*
X2009Y717D02*
X2051Y717D01*
X2092Y717D02*
X2133Y717D01*
X2487Y717D02*
X2529Y717D01*
X2570Y717D02*
X2612Y717D01*
X2909Y717D02*
X2951Y717D01*
X2992Y717D02*
X3033Y717D01*
X3387Y717D02*
X3429Y717D01*
X3470Y717D02*
X3512Y717D01*
X209Y716D02*
X252Y716D01*
X291Y716D02*
X333Y716D01*
X687Y716D02*
X730Y716D01*
X769Y716D02*
X812Y716D01*
X1109Y716D02*
X1152Y716D01*
X1191Y716D02*
X1233Y716D01*
X1587Y716D02*
X1630Y716D01*
X1669Y716D02*
X1712Y716D01*
X2009Y716D02*
X2052Y716D01*
X2091Y716D02*
X2133Y716D01*
X2487Y716D02*
X2530Y716D01*
X2569Y716D02*
X2612Y716D01*
X2909Y716D02*
X2952Y716D01*
X2991Y716D02*
X3033Y716D01*
X3387Y716D02*
X3430Y716D01*
X3469Y716D02*
X3512Y716D01*
X209Y715D02*
X252Y715D01*
X290Y715D02*
X333Y715D01*
X688Y715D02*
X731Y715D01*
X768Y715D02*
X811Y715D01*
X1109Y715D02*
X1152Y715D01*
X1190Y715D02*
X1233Y715D01*
X1588Y715D02*
X1631Y715D01*
X1668Y715D02*
X1711Y715D01*
X2009Y715D02*
X2052Y715D01*
X2090Y715D02*
X2133Y715D01*
X2488Y715D02*
X2531Y715D01*
X2568Y715D02*
X2611Y715D01*
X2909Y715D02*
X2952Y715D01*
X2990Y715D02*
X3033Y715D01*
X3388Y715D02*
X3431Y715D01*
X3468Y715D02*
X3511Y715D01*
X210Y714D02*
X254Y714D01*
X289Y714D02*
X333Y714D01*
X688Y714D02*
X732Y714D01*
X767Y714D02*
X811Y714D01*
X1110Y714D02*
X1154Y714D01*
X1189Y714D02*
X1233Y714D01*
X1588Y714D02*
X1632Y714D01*
X1667Y714D02*
X1711Y714D01*
X2010Y714D02*
X2054Y714D01*
X2089Y714D02*
X2133Y714D01*
X2488Y714D02*
X2532Y714D01*
X2567Y714D02*
X2611Y714D01*
X2910Y714D02*
X2954Y714D01*
X2989Y714D02*
X3033Y714D01*
X3388Y714D02*
X3432Y714D01*
X3467Y714D02*
X3511Y714D01*
X210Y713D02*
X255Y713D01*
X288Y713D02*
X332Y713D01*
X688Y713D02*
X733Y713D01*
X766Y713D02*
X811Y713D01*
X1110Y713D02*
X1155Y713D01*
X1188Y713D02*
X1232Y713D01*
X1588Y713D02*
X1633Y713D01*
X1666Y713D02*
X1711Y713D01*
X2010Y713D02*
X2055Y713D01*
X2088Y713D02*
X2132Y713D01*
X2488Y713D02*
X2533Y713D01*
X2566Y713D02*
X2611Y713D01*
X2910Y713D02*
X2955Y713D01*
X2988Y713D02*
X3032Y713D01*
X3388Y713D02*
X3433Y713D01*
X3466Y713D02*
X3511Y713D01*
X210Y712D02*
X256Y712D01*
X286Y712D02*
X332Y712D01*
X689Y712D02*
X734Y712D01*
X765Y712D02*
X810Y712D01*
X1110Y712D02*
X1156Y712D01*
X1186Y712D02*
X1232Y712D01*
X1589Y712D02*
X1634Y712D01*
X1665Y712D02*
X1710Y712D01*
X2010Y712D02*
X2056Y712D01*
X2086Y712D02*
X2132Y712D01*
X2489Y712D02*
X2534Y712D01*
X2565Y712D02*
X2610Y712D01*
X2910Y712D02*
X2956Y712D01*
X2986Y712D02*
X3032Y712D01*
X3389Y712D02*
X3434Y712D01*
X3465Y712D02*
X3510Y712D01*
X211Y711D02*
X258Y711D01*
X285Y711D02*
X332Y711D01*
X689Y711D02*
X736Y711D01*
X763Y711D02*
X810Y711D01*
X1111Y711D02*
X1158Y711D01*
X1185Y711D02*
X1232Y711D01*
X1589Y711D02*
X1636Y711D01*
X1663Y711D02*
X1710Y711D01*
X2011Y711D02*
X2058Y711D01*
X2085Y711D02*
X2132Y711D01*
X2489Y711D02*
X2536Y711D01*
X2563Y711D02*
X2610Y711D01*
X2911Y711D02*
X2958Y711D01*
X2985Y711D02*
X3032Y711D01*
X3389Y711D02*
X3436Y711D01*
X3463Y711D02*
X3510Y711D01*
X211Y710D02*
X259Y710D01*
X283Y710D02*
X331Y710D01*
X689Y710D02*
X738Y710D01*
X761Y710D02*
X810Y710D01*
X1111Y710D02*
X1159Y710D01*
X1183Y710D02*
X1231Y710D01*
X1589Y710D02*
X1638Y710D01*
X1661Y710D02*
X1710Y710D01*
X2011Y710D02*
X2059Y710D01*
X2083Y710D02*
X2131Y710D01*
X2489Y710D02*
X2538Y710D01*
X2561Y710D02*
X2610Y710D01*
X2911Y710D02*
X2959Y710D01*
X2983Y710D02*
X3031Y710D01*
X3389Y710D02*
X3438Y710D01*
X3461Y710D02*
X3510Y710D01*
X211Y709D02*
X262Y709D01*
X281Y709D02*
X331Y709D01*
X690Y709D02*
X740Y709D01*
X759Y709D02*
X809Y709D01*
X1111Y709D02*
X1162Y709D01*
X1181Y709D02*
X1231Y709D01*
X1590Y709D02*
X1640Y709D01*
X1659Y709D02*
X1709Y709D01*
X2011Y709D02*
X2062Y709D01*
X2081Y709D02*
X2131Y709D01*
X2490Y709D02*
X2540Y709D01*
X2559Y709D02*
X2609Y709D01*
X2911Y709D02*
X2962Y709D01*
X2981Y709D02*
X3031Y709D01*
X3390Y709D02*
X3440Y709D01*
X3459Y709D02*
X3509Y709D01*
X212Y708D02*
X265Y708D01*
X278Y708D02*
X331Y708D01*
X690Y708D02*
X743Y708D01*
X756Y708D02*
X809Y708D01*
X1112Y708D02*
X1165Y708D01*
X1178Y708D02*
X1231Y708D01*
X1590Y708D02*
X1643Y708D01*
X1656Y708D02*
X1709Y708D01*
X2012Y708D02*
X2065Y708D01*
X2078Y708D02*
X2131Y708D01*
X2490Y708D02*
X2543Y708D01*
X2556Y708D02*
X2609Y708D01*
X2912Y708D02*
X2965Y708D01*
X2978Y708D02*
X3031Y708D01*
X3390Y708D02*
X3443Y708D01*
X3456Y708D02*
X3509Y708D01*
X212Y707D02*
X330Y707D01*
X690Y707D02*
X809Y707D01*
X1112Y707D02*
X1230Y707D01*
X1590Y707D02*
X1709Y707D01*
X2012Y707D02*
X2130Y707D01*
X2490Y707D02*
X2609Y707D01*
X2912Y707D02*
X3030Y707D01*
X3390Y707D02*
X3509Y707D01*
X213Y706D02*
X330Y706D01*
X691Y706D02*
X808Y706D01*
X1113Y706D02*
X1230Y706D01*
X1591Y706D02*
X1708Y706D01*
X2013Y706D02*
X2130Y706D01*
X2491Y706D02*
X2608Y706D01*
X2913Y706D02*
X3030Y706D01*
X3391Y706D02*
X3508Y706D01*
X213Y705D02*
X329Y705D01*
X691Y705D02*
X808Y705D01*
X1113Y705D02*
X1229Y705D01*
X1591Y705D02*
X1708Y705D01*
X2013Y705D02*
X2129Y705D01*
X2491Y705D02*
X2608Y705D01*
X2913Y705D02*
X3029Y705D01*
X3391Y705D02*
X3508Y705D01*
X214Y704D02*
X329Y704D01*
X692Y704D02*
X807Y704D01*
X1114Y704D02*
X1229Y704D01*
X1592Y704D02*
X1707Y704D01*
X2014Y704D02*
X2129Y704D01*
X2492Y704D02*
X2607Y704D01*
X2914Y704D02*
X3029Y704D01*
X3392Y704D02*
X3507Y704D01*
X214Y703D02*
X328Y703D01*
X692Y703D02*
X807Y703D01*
X1114Y703D02*
X1228Y703D01*
X1592Y703D02*
X1707Y703D01*
X2014Y703D02*
X2128Y703D01*
X2492Y703D02*
X2607Y703D01*
X2914Y703D02*
X3028Y703D01*
X3392Y703D02*
X3507Y703D01*
X215Y702D02*
X328Y702D01*
X693Y702D02*
X806Y702D01*
X1115Y702D02*
X1228Y702D01*
X1593Y702D02*
X1706Y702D01*
X2015Y702D02*
X2128Y702D01*
X2493Y702D02*
X2606Y702D01*
X2915Y702D02*
X3028Y702D01*
X3393Y702D02*
X3506Y702D01*
X215Y701D02*
X327Y701D01*
X694Y701D02*
X805Y701D01*
X1115Y701D02*
X1227Y701D01*
X1594Y701D02*
X1705Y701D01*
X2015Y701D02*
X2127Y701D01*
X2494Y701D02*
X2605Y701D01*
X2915Y701D02*
X3027Y701D01*
X3394Y701D02*
X3505Y701D01*
X216Y700D02*
X326Y700D01*
X694Y700D02*
X805Y700D01*
X1116Y700D02*
X1226Y700D01*
X1594Y700D02*
X1705Y700D01*
X2016Y700D02*
X2126Y700D01*
X2494Y700D02*
X2605Y700D01*
X2916Y700D02*
X3026Y700D01*
X3394Y700D02*
X3505Y700D01*
X216Y699D02*
X326Y699D01*
X695Y699D02*
X804Y699D01*
X1116Y699D02*
X1226Y699D01*
X1595Y699D02*
X1704Y699D01*
X2016Y699D02*
X2126Y699D01*
X2495Y699D02*
X2604Y699D01*
X2916Y699D02*
X3026Y699D01*
X3395Y699D02*
X3504Y699D01*
X217Y698D02*
X325Y698D01*
X695Y698D02*
X804Y698D01*
X1117Y698D02*
X1225Y698D01*
X1595Y698D02*
X1704Y698D01*
X2017Y698D02*
X2125Y698D01*
X2495Y698D02*
X2604Y698D01*
X2917Y698D02*
X3025Y698D01*
X3395Y698D02*
X3504Y698D01*
X218Y697D02*
X325Y697D01*
X696Y697D02*
X803Y697D01*
X1118Y697D02*
X1225Y697D01*
X1596Y697D02*
X1703Y697D01*
X2018Y697D02*
X2125Y697D01*
X2496Y697D02*
X2603Y697D01*
X2918Y697D02*
X3025Y697D01*
X3396Y697D02*
X3503Y697D01*
X218Y696D02*
X324Y696D01*
X697Y696D02*
X802Y696D01*
X1118Y696D02*
X1224Y696D01*
X1597Y696D02*
X1702Y696D01*
X2018Y696D02*
X2124Y696D01*
X2497Y696D02*
X2602Y696D01*
X2918Y696D02*
X3024Y696D01*
X3397Y696D02*
X3502Y696D01*
X219Y695D02*
X323Y695D01*
X697Y695D02*
X802Y695D01*
X1119Y695D02*
X1223Y695D01*
X1597Y695D02*
X1702Y695D01*
X2019Y695D02*
X2123Y695D01*
X2497Y695D02*
X2602Y695D01*
X2919Y695D02*
X3023Y695D01*
X3397Y695D02*
X3502Y695D01*
X220Y694D02*
X322Y694D01*
X698Y694D02*
X801Y694D01*
X1120Y694D02*
X1222Y694D01*
X1598Y694D02*
X1701Y694D01*
X2020Y694D02*
X2122Y694D01*
X2498Y694D02*
X2601Y694D01*
X2920Y694D02*
X3022Y694D01*
X3398Y694D02*
X3501Y694D01*
X221Y693D02*
X322Y693D01*
X699Y693D02*
X800Y693D01*
X1121Y693D02*
X1222Y693D01*
X1599Y693D02*
X1700Y693D01*
X2021Y693D02*
X2122Y693D01*
X2499Y693D02*
X2600Y693D01*
X2921Y693D02*
X3022Y693D01*
X3399Y693D02*
X3500Y693D01*
X221Y692D02*
X321Y692D01*
X700Y692D02*
X799Y692D01*
X1121Y692D02*
X1221Y692D01*
X1600Y692D02*
X1699Y692D01*
X2021Y692D02*
X2121Y692D01*
X2500Y692D02*
X2599Y692D01*
X2921Y692D02*
X3021Y692D01*
X3400Y692D02*
X3499Y692D01*
X222Y691D02*
X320Y691D01*
X700Y691D02*
X798Y691D01*
X1122Y691D02*
X1220Y691D01*
X1600Y691D02*
X1698Y691D01*
X2022Y691D02*
X2120Y691D01*
X2500Y691D02*
X2598Y691D01*
X2922Y691D02*
X3020Y691D01*
X3400Y691D02*
X3498Y691D01*
X223Y690D02*
X319Y690D01*
X701Y690D02*
X798Y690D01*
X1123Y690D02*
X1219Y690D01*
X1601Y690D02*
X1698Y690D01*
X2023Y690D02*
X2119Y690D01*
X2501Y690D02*
X2598Y690D01*
X2923Y690D02*
X3019Y690D01*
X3401Y690D02*
X3498Y690D01*
X224Y689D02*
X318Y689D01*
X702Y689D02*
X797Y689D01*
X1124Y689D02*
X1218Y689D01*
X1602Y689D02*
X1697Y689D01*
X2024Y689D02*
X2118Y689D01*
X2502Y689D02*
X2597Y689D01*
X2924Y689D02*
X3018Y689D01*
X3402Y689D02*
X3497Y689D01*
X225Y688D02*
X317Y688D01*
X703Y688D02*
X796Y688D01*
X1125Y688D02*
X1217Y688D01*
X1603Y688D02*
X1696Y688D01*
X2025Y688D02*
X2117Y688D01*
X2503Y688D02*
X2596Y688D01*
X2925Y688D02*
X3017Y688D01*
X3403Y688D02*
X3496Y688D01*
X226Y687D02*
X317Y687D01*
X704Y687D02*
X795Y687D01*
X1126Y687D02*
X1217Y687D01*
X1604Y687D02*
X1695Y687D01*
X2026Y687D02*
X2117Y687D01*
X2504Y687D02*
X2595Y687D01*
X2926Y687D02*
X3017Y687D01*
X3404Y687D02*
X3495Y687D01*
X227Y686D02*
X315Y686D01*
X705Y686D02*
X794Y686D01*
X1127Y686D02*
X1215Y686D01*
X1605Y686D02*
X1694Y686D01*
X2027Y686D02*
X2115Y686D01*
X2505Y686D02*
X2594Y686D01*
X2927Y686D02*
X3015Y686D01*
X3405Y686D02*
X3494Y686D01*
X228Y685D02*
X314Y685D01*
X706Y685D02*
X793Y685D01*
X1128Y685D02*
X1214Y685D01*
X1606Y685D02*
X1693Y685D01*
X2028Y685D02*
X2114Y685D01*
X2506Y685D02*
X2593Y685D01*
X2928Y685D02*
X3014Y685D01*
X3406Y685D02*
X3493Y685D01*
X229Y684D02*
X313Y684D01*
X707Y684D02*
X792Y684D01*
X1129Y684D02*
X1213Y684D01*
X1607Y684D02*
X1692Y684D01*
X2029Y684D02*
X2113Y684D01*
X2507Y684D02*
X2592Y684D01*
X2929Y684D02*
X3013Y684D01*
X3407Y684D02*
X3492Y684D01*
X230Y683D02*
X312Y683D01*
X709Y683D02*
X790Y683D01*
X1130Y683D02*
X1212Y683D01*
X1609Y683D02*
X1690Y683D01*
X2030Y683D02*
X2112Y683D01*
X2509Y683D02*
X2590Y683D01*
X2930Y683D02*
X3012Y683D01*
X3409Y683D02*
X3490Y683D01*
X232Y682D02*
X311Y682D01*
X710Y682D02*
X789Y682D01*
X1132Y682D02*
X1211Y682D01*
X1610Y682D02*
X1689Y682D01*
X2032Y682D02*
X2111Y682D01*
X2510Y682D02*
X2589Y682D01*
X2932Y682D02*
X3011Y682D01*
X3410Y682D02*
X3489Y682D01*
X233Y681D02*
X309Y681D01*
X711Y681D02*
X788Y681D01*
X1133Y681D02*
X1209Y681D01*
X1611Y681D02*
X1688Y681D01*
X2033Y681D02*
X2109Y681D01*
X2511Y681D02*
X2588Y681D01*
X2933Y681D02*
X3009Y681D01*
X3411Y681D02*
X3488Y681D01*
X234Y680D02*
X308Y680D01*
X713Y680D02*
X786Y680D01*
X1134Y680D02*
X1208Y680D01*
X1613Y680D02*
X1686Y680D01*
X2034Y680D02*
X2108Y680D01*
X2513Y680D02*
X2586Y680D01*
X2934Y680D02*
X3008Y680D01*
X3413Y680D02*
X3486Y680D01*
X236Y679D02*
X307Y679D01*
X714Y679D02*
X785Y679D01*
X1136Y679D02*
X1207Y679D01*
X1614Y679D02*
X1685Y679D01*
X2036Y679D02*
X2107Y679D01*
X2514Y679D02*
X2585Y679D01*
X2936Y679D02*
X3007Y679D01*
X3414Y679D02*
X3485Y679D01*
X237Y678D02*
X305Y678D01*
X716Y678D02*
X783Y678D01*
X1137Y678D02*
X1205Y678D01*
X1616Y678D02*
X1683Y678D01*
X2037Y678D02*
X2105Y678D01*
X2516Y678D02*
X2583Y678D01*
X2937Y678D02*
X3005Y678D01*
X3416Y678D02*
X3483Y678D01*
X239Y677D02*
X303Y677D01*
X717Y677D02*
X782Y677D01*
X1139Y677D02*
X1203Y677D01*
X1617Y677D02*
X1682Y677D01*
X2039Y677D02*
X2103Y677D01*
X2517Y677D02*
X2582Y677D01*
X2939Y677D02*
X3003Y677D01*
X3417Y677D02*
X3482Y677D01*
X241Y676D02*
X302Y676D01*
X719Y676D02*
X780Y676D01*
X1141Y676D02*
X1202Y676D01*
X1619Y676D02*
X1680Y676D01*
X2041Y676D02*
X2102Y676D01*
X2519Y676D02*
X2580Y676D01*
X2941Y676D02*
X3002Y676D01*
X3419Y676D02*
X3480Y676D01*
X243Y675D02*
X300Y675D01*
X721Y675D02*
X778Y675D01*
X1143Y675D02*
X1200Y675D01*
X1621Y675D02*
X1678Y675D01*
X2042Y675D02*
X2100Y675D01*
X2521Y675D02*
X2578Y675D01*
X2942Y675D02*
X3000Y675D01*
X3421Y675D02*
X3478Y675D01*
X245Y674D02*
X298Y674D01*
X723Y674D02*
X776Y674D01*
X1145Y674D02*
X1198Y674D01*
X1623Y674D02*
X1676Y674D01*
X2045Y674D02*
X2098Y674D01*
X2523Y674D02*
X2576Y674D01*
X2945Y674D02*
X2998Y674D01*
X3423Y674D02*
X3476Y674D01*
X247Y673D02*
X296Y673D01*
X725Y673D02*
X774Y673D01*
X1147Y673D02*
X1196Y673D01*
X1625Y673D02*
X1674Y673D01*
X2047Y673D02*
X2096Y673D01*
X2525Y673D02*
X2574Y673D01*
X2947Y673D02*
X2996Y673D01*
X3425Y673D02*
X3474Y673D01*
X249Y672D02*
X293Y672D01*
X728Y672D02*
X771Y672D01*
X1149Y672D02*
X1193Y672D01*
X1628Y672D02*
X1671Y672D01*
X2049Y672D02*
X2093Y672D01*
X2528Y672D02*
X2571Y672D01*
X2949Y672D02*
X2993Y672D01*
X3428Y672D02*
X3471Y672D01*
X252Y671D02*
X290Y671D01*
X731Y671D02*
X768Y671D01*
X1152Y671D02*
X1190Y671D01*
X1631Y671D02*
X1668Y671D01*
X2052Y671D02*
X2090Y671D01*
X2531Y671D02*
X2568Y671D01*
X2952Y671D02*
X2990Y671D01*
X3431Y671D02*
X3468Y671D01*
X256Y670D02*
X286Y670D01*
X735Y670D02*
X764Y670D01*
X1156Y670D02*
X1186Y670D01*
X1635Y670D02*
X1664Y670D01*
X2056Y670D02*
X2086Y670D01*
X2535Y670D02*
X2564Y670D01*
X2956Y670D02*
X2986Y670D01*
X3435Y670D02*
X3464Y670D01*
X261Y669D02*
X281Y669D01*
X740Y669D02*
X759Y669D01*
X1161Y669D02*
X1181Y669D01*
X1640Y669D02*
X1659Y669D01*
X2061Y669D02*
X2081Y669D01*
X2540Y669D02*
X2559Y669D01*
X2961Y669D02*
X2981Y669D01*
X3440Y669D02*
X3459Y669D01*
D02*
G04 End of Copper0*
M02*